<?xml version="1.0" encoding="UTF-8"?>
<svg id="Layer_2" data-name="Layer 2" xmlns="http://www.w3.org/2000/svg" xmlns:xlink="http://www.w3.org/1999/xlink" viewBox="0 0 32.19 18.96">
  <defs>
    <style>
      .cls-1 {
        fill: #12121a;
      }

      .cls-1, .cls-2, .cls-3, .cls-4, .cls-5, .cls-6, .cls-7, .cls-8, .cls-9, .cls-10, .cls-11, .cls-12, .cls-13, .cls-14, .cls-15, .cls-16, .cls-17, .cls-18, .cls-19, .cls-20, .cls-21, .cls-22, .cls-23, .cls-24, .cls-25, .cls-26, .cls-27, .cls-28, .cls-29, .cls-30, .cls-31, .cls-32, .cls-33, .cls-34, .cls-35, .cls-36, .cls-37, .cls-38, .cls-39, .cls-40, .cls-41, .cls-42, .cls-43, .cls-44, .cls-45, .cls-46, .cls-47, .cls-48, .cls-49, .cls-50, .cls-51, .cls-52, .cls-53, .cls-54, .cls-55, .cls-56, .cls-57, .cls-58, .cls-59, .cls-60, .cls-61, .cls-62, .cls-63, .cls-64, .cls-65, .cls-66, .cls-67, .cls-68, .cls-69, .cls-70, .cls-71, .cls-72, .cls-73, .cls-74, .cls-75 {
        stroke-width: 0px;
      }

      .cls-2 {
        fill: #008400;
      }

      .cls-3 {
        fill: #984200;
      }

      .cls-4 {
        fill: #307e35;
      }

      .cls-5 {
        fill: url(#linear-gradient);
      }

      .cls-6 {
        fill: #003165;
      }

      .cls-7 {
        fill: #3dbc98;
      }

      .cls-8 {
        fill: #ffe3ba;
      }

      .cls-9 {
        fill: #fb2f24;
      }

      .cls-10 {
        fill: #fc5b5a;
      }

      .cls-11 {
        fill: #2d302d;
      }

      .cls-12 {
        fill: #0062ca;
      }

      .cls-13 {
        fill: #257086;
      }

      .cls-14 {
        fill: #0050a1;
      }

      .cls-15 {
        fill: #fe526b;
      }

      .cls-16 {
        fill: #8f5100;
      }

      .cls-17 {
        fill: #ff7861;
      }

      .cls-18 {
        fill: #ff5640;
      }

      .cls-19 {
        fill: #a3bfb0;
      }

      .cls-20 {
        fill: #dfa98a;
      }

      .cls-21 {
        fill: #007130;
      }

      .cls-22 {
        fill: #7e0000;
      }

      .cls-23 {
        fill: #734466;
      }

      .cls-24 {
        fill: #4aa873;
      }

      .cls-25 {
        fill: #869500;
      }

      .cls-26 {
        fill: #7e84cf;
      }

      .cls-27 {
        fill: #853f00;
      }

      .cls-28 {
        fill: #825900;
      }

      .cls-29 {
        fill: #00d688;
      }

      .cls-30 {
        fill: #ff6839;
      }

      .cls-31 {
        fill: #007b71;
      }

      .cls-32 {
        fill: #ffaf74;
      }

      .cls-33 {
        fill: #8b3500;
      }

      .cls-34 {
        fill: #244865;
      }

      .cls-35 {
        fill: #00c9ca;
      }

      .cls-36 {
        fill: #b72759;
      }

      .cls-37 {
        fill: #ff6089;
      }

      .cls-38 {
        fill: #00d9b3;
      }

      .cls-39 {
        fill: #ff6a85;
      }

      .cls-40 {
        fill: #6e914b;
      }

      .cls-41 {
        fill: #e13b35;
      }

      .cls-42 {
        fill: #202123;
      }

      .cls-43 {
        fill: #ffc160;
      }

      .cls-44 {
        fill: #cb0000;
      }

      .cls-45 {
        fill: #00623f;
      }

      .cls-46 {
        fill: #b31f0b;
      }

      .cls-47 {
        fill: #e54772;
      }

      .cls-48 {
        fill: #0070d2;
      }

      .cls-49 {
        fill: #009537;
      }

      .cls-50 {
        fill: #003774;
      }

      .cls-51 {
        fill: #003d30;
      }

      .cls-52 {
        fill: #ffec3e;
      }

      .cls-53 {
        fill: #ff9841;
      }

      .cls-54 {
        fill: #4c828e;
      }

      .cls-55 {
        fill: #0096bc;
      }

      .cls-56 {
        fill: #2f0f14;
      }

      .cls-57 {
        fill: #bcbcbe;
      }

      .cls-58 {
        fill: #837f00;
      }

      .cls-59 {
        fill: #fe6c3e;
      }

      .cls-60 {
        fill: #bd0000;
      }

      .cls-61 {
        fill: #ad0000;
      }

      .cls-62 {
        fill: #e52636;
      }

      .cls-63 {
        fill: #102031;
      }

      .cls-64 {
        fill: #b06b00;
      }

      .cls-65 {
        fill: #9ebd82;
      }

      .cls-66 {
        fill: #aaade9;
      }

      .cls-67 {
        fill: #00b7a4;
      }

      .cls-68 {
        fill: #c6f266;
      }

      .cls-69 {
        fill: #1d273d;
      }

      .cls-70 {
        fill: #fff32a;
      }

      .cls-71 {
        fill: #2bb955;
      }

      .cls-72 {
        fill: #48a370;
      }

      .cls-73 {
        fill: #920000;
      }

      .cls-74 {
        fill: #003581;
      }

      .cls-75 {
        fill: #004e35;
      }
    </style>
    <linearGradient id="linear-gradient" x1="-54.01" y1="3.25" x2="-50.95" y2="3.9" gradientTransform="translate(69.2 14.63) rotate(7.95)" gradientUnits="userSpaceOnUse">
      <stop offset="0" stop-color="#22a569"/>
      <stop offset="1" stop-color="#33921e"/>
    </linearGradient>
  </defs>
  <g id="Layer_1-2" data-name="Layer 1">
    <g>
      <path class="cls-45" d="M21.61,12.29c.14.01.28.04.42.06.12.1-.06.79-.1,1.23-.03.28-.05.56-.06.84.29.08.61.04.89.09.15.02.98.22,1.06.18l.12-.76s.04-.03.07-.03c.21.04.42.05.63.09-.04.25-.06.5-.1.75l-.67-.02c-.04.25-.07.5-.1.75-.38-.04-.74-.09-1.12-.12-.3-.03-.59-.09-.89-.12l-.1.84c-.77-.1-1.54-.19-2.31-.29-.21-.03-.44-.1-.66-.13l.09-.61c-.03-.1-.46-.11-.65-.14l.08-.59.1-.7s.05,0,.07,0c.2.02.51.11.56.03.06-.2.03-.42.05-.61,0-.02.11-.28.1-.48.25-.03.49.08.73.1.06,0,.32.06.35.03l.1-.57c.24.07.51.04.75.07.19.02.39.1.59.12Z"/>
      <path class="cls-22" d="M5.13,17.09c2.26.34,4.53.67,6.8.95l-.15.8c-1.48-.18-5.86-.75-7.06-.99-.03,0,0-.07,0-.07l.1-.7s0-.04.32,0Z"/>
      <path class="cls-1" d="M23.65,16.3c.63.09,1.27.25,1.91.34-.04.19-.04.4-.08.59-.01.06-.02.26-.06.28q-3.08-.43-6.17-.86l.1-.87c.77.1,1.54.18,2.31.29.29.04.59.05.88.09.37.05.74.1,1.12.16Z"/>
      <path class="cls-2" d="M3.3,3.01l-.04.67,2.31.29-.13,1.03s.85.14.97.15l-.1.7-.04.03c-.29-.04-.58-.09-.87-.12-.22-.03-.44-.06-.66-.09-.03,0-.07,0-.1-.01.02-.22.07-.44.09-.66.01-.15.06-.3.05-.46-.06-.06-.52-.03-.61-.05-.35-.06-.69-.16-1.04-.18.1-.66.26-.71-.72-.7-.11,0-.24-.08-.32,0,.02.23-.03.46-.06.68l-.94-.13c.03-.22.06-.44.09-.66l.86.08s.1-.62.12-.73c.38.05.77.11,1.15.16Z"/>
      <path class="cls-11" d="M2.02,4.29c-.05.3-.05.62-.09.91-.07.51-.14,1.03-.21,1.53-.04.25-.1.51-.14.76-.04.2-.12.41-.12.62l-.91-.13c.18-1.28.35-2.56.54-3.83l.94.13Z"/>
      <path class="cls-2" d="M5.8,1.12c.12.12-.01.42-.03.69l-.72-.05-.11.64-.67-.06-.1.73-.84-.1c.04-.24.06-.49.1-.73.03-.18.05-.36.08-.54,0-.03.07,0,.07,0l.77.09.11-.78c.21.01.43,0,.64.02.23.02.46.08.7.1Z"/>
      <path class="cls-1" d="M16.91,13.44l-.08.66.78.11c-.01.09-.1.57-.07.59.19.03.38.05.58.08.2.04.63.05.65.14l-.09.61s-.02,0-.03,0c-.2-.03-.39-.06-.59-.08-.52-.07-1.05-.12-1.57-.18-.01,0-.02,0-.03,0,.07-.21.03-.45.06-.67,0-.04.1-.28.12-.57-.06-.1-.27-.08-.48-.12-.14-.03-.28-.03-.42-.06l-.06-.08c.74.22.55.15.71-.5.09.01.07-.03.07-.03.33.05.43.1.45.1Z"/>
      <path class="cls-22" d="M1.21,9.54h.03c-.07.55-.15,1.1-.23,1.64l-.87-.12s-.07-.04-.06-.06c.06-.52.18-1.03.25-1.55l.88.09Z"/>
      <path class="cls-63" d="M31.43,11.74c-.08.56-.15,1.12-.23,1.67l-.91-.13c.05-.26.1-.5.14-.76.05-.3.08-.6.13-.91.29.04.58.08.87.12Z"/>
      <path class="cls-8" d="M15.85,3.42l-.05.63c-.19-.03-.37-.05-.56-.08-.02,0-.05,0-.07,0l.09-.68c-.11-.08-.4-.04-.42-.04-.11-.02-.22-.07-.34-.08-.19-.03-.37-.05-.56-.08,0-.05-.03-.04-.03-.04.03-.26.08-.51.11-.77.28.05.57.07.85.12v.78c.34,0,.65.2.98.24Z"/>
      <path class="cls-22" d="M16.46,15.37s.02,0,.03,0l-.18.93-.89-.12c.03-.16.02-.78.09-.89.18-.07.61.04.95.08Z"/>
      <path class="cls-8" d="M3.44,2.25c-.04.24-.06.49-.1.73l-.04.03c-.38-.05-.77-.12-1.15-.16.05-.25.12-.5.16-.76l1.13.16Z"/>
      <path class="cls-8" d="M31.3,5.75c-.28-.05-.56-.07-.84-.12-.17-.03-.19-.06-.2-.06l.11-.8c.33.06.66.08.99.14.09.06-.04.57-.06.84Z"/>
      <g>
        <path class="cls-27" d="M12.4,1.16l-.11.8c-2.12-.33-4.28-.65-6.42-.86l.11-.77s0-.07.03-.07c1.32.12,4.89.66,6.4.89Z"/>
        <path class="cls-1" d="M13.2,2.09c-.14-.02-.28-.04-.42-.06-.16-.03-.33-.04-.49-.07l.11-.8c.31.05.62.08.92.13l-.13.8Z"/>
      </g>
      <path class="cls-8" d="M29.79,16.06c-.01.1,0,.59-.06.65-.04.05-.34-.07-.39-.02-.1.1.16.63-.51.34.06-.35.09-.71.18-1.06l.77.09Z"/>
      <path class="cls-22" d="M31.19,13.41c-.04.25-.06.5-.1.75,0,.03-.07,0-.07,0-.23,0-.63-.12-.8-.11-.12-.23.02-.53.07-.77l.91.13Z"/>
      <path class="cls-8" d="M2.7,14.91c-.04.23-.06.47-.1.7-.31-.05-.62-.08-.92-.13l.08-.73c.09.04.77.14.94.17Z"/>
      <path class="cls-69" d="M31.54,10.94c-.04.27-.07.53-.11.8-.29-.04-.58-.08-.87-.12.04-.26.07-.51.11-.77l.88.09Z"/>
      <path class="cls-1" d="M12.76,18.19l-.12.76c-.29-.04-.57-.09-.85-.12l.15-.8c.28.03.56.12.83.15Z"/>
      <path class="cls-34" d="M1.45,8.12s.02,0,.03,0c-.13.23-.07.49-.1.73-.03.23-.1.46-.13.69h-.03q.04-.35.08-.7l-.85-.12c.03-.24.07-.49.1-.73l.91.13Z"/>
      <path class="cls-45" d="M28.38,3.81l.49.07s0,.02,0,.03c-.03.18-.05.37-.08.56-.16-.03-.36-.01-.53-.04-.19-.03-.39-.09-.59-.12.04-.2.04-.56.13-.59l.58.08Z"/>
      <path class="cls-8" d="M1.02,11.19c-.03.22,0,.48-.06.7-.01,0-.02,0-.03,0-.3-.05-.59-.08-.89-.12-.11-.37.11-.66.11-.69l.87.12Z"/>
      <path class="cls-8" d="M4.46,1.01l-.11.78-.77-.09s-.1-.15.03-.76c.06-.09.57.04.84.06Z"/>
      <path class="cls-8" d="M32.07,6.64l-.8-.11-.03-.04c.02-.22.08-.44.09-.66.13-.12.51.03.83.04.11.19-.08.67-.09.77Z"/>
      <path class="cls-8" d="M1.09,13.44c.24.05.48.06.71.1.03.03-.06.53-.07.63l-.99-.14.07-.63s.19.02.28.04Z"/>
      <path class="cls-8" d="M2.14,2.85c-.02.11-.08.71-.12.73l-.86-.08c.02-.12.05-.73.12-.76.29.04.57.09.85.12Z"/>
      <path class="cls-8" d="M5.98.33l-.11.77s-.04.03-.07.03c-.23-.02-.46-.08-.7-.1l.11-.82c.31-.02.73.12.76.12Z"/>
      <path class="cls-28" d="M14.02,2.27c-.03.26-.08.51-.11.77-.25-.04-.51-.06-.77-.11l.15-.8c.24.04.48.09.73.14Z"/>
      <path class="cls-74" d="M1.21,9.54l-.88-.09c.03-.24.07-.49.1-.73l.85.12-.08.7Z"/>
      <path class="cls-8" d="M30.22,14.06c.17,0,.57.1.8.11,0,.03.1.03-.07.59l-.96-.13c.03-.18.05-.36.08-.54.06-.07.1-.03.15-.03Z"/>
      <path class="cls-52" d="M17.35,2.84l-.1.71-.73-.08c.02-.13.03-.26.05-.38.01-.06.03-.33.07-.35.24.03.48.07.71.1Z"/>
      <path class="cls-17" d="M4.81,17.08l-.1.7c-.11-.02-.65.02-.69-.11l.1-.71c.22.04.47.1.69.13Z"/>
      <path class="cls-43" d="M16.57,3.09c-.03.13-.03.26-.05.38-.04.21-.1.45-.13.66l-.56-.04-.03-.04.05-.63c.07,0,.55.06.58.05.07-.04,0-.41.14-.37Z"/>
      <path class="cls-8" d="M18.14,2.31l.03.04-.13.59c-.2-.02-.41-.06-.61-.09-.11-.1,0-.42.04-.63l.68.09Z"/>
      <path class="cls-1" d="M14.02,17.55c-.05.23-.05.48-.1.71-.03.03-.53-.06-.63-.07.11-.22.1-.67.13-.71.04-.04.5.07.59.07Z"/>
      <path class="cls-8" d="M28.84,17.06c-.04.2-.05.41-.09.61-.78.07-.63-.04-.54-.7l.63.09Z"/>
      <path class="cls-8" d="M18.66,15.64l-.09.64c-.79.09-.57-.1-.5-.73.2.02.39.06.59.08Z"/>
      <path class="cls-1" d="M15.28,16.66c-.05.24-.06.48-.1.71-.03.03-.5-.06-.59-.07.11-.22.1-.67.13-.71.04-.04.47.06.56.06Z"/>
      <path class="cls-29" d="M13.2,2.09s-.04.02.1.05l-.15.8c-.08-.01-.47-.05-.49-.09l.11-.82c.14.02.28.03.42.06Z"/>
      <path class="cls-57" d="M3.16,15.68s.02,0,.03,0l-.09.61c-.82-.02-.61-.08-.51-.69.19.03.37.04.56.08Z"/>
      <path class="cls-8" d="M29.93,4.67c-.2-.03-.4-.05-.59-.08l.09-.61c.99-.03.42.38.51.69Z"/>
      <path class="cls-52" d="M29.39,3.42l-.42-.06h-.07q.04-.32.09-.64l.55.13c-.04.57-.14.53-.15.57Z"/>
      <path class="cls-32" d="M28.99,2.73l-.09.63-.42-.06c.03-.21.06-.42.09-.63l.42.06Z"/>
      <path class="cls-75" d="M29.39,3.42s.12-.11,0,.52l-.53-.02s0-.02,0-.03c.03-.14.11-.33.11-.52l.42.06Z"/>
      <path class="cls-43" d="M13.43,11.64l-.13.66c-.24-.02-.48-.07-.71-.1-.1.03-.12.49-.15.69l-.6-.03-.1.71c-.07,0-.36-.07-.39-.04l-.12.71-.75-.09-.17.81-.98-.14.1-.82-.78-.13v-.07q.44.09.89.18c-.13.02-.14.49-.17.81l.91.09.12-.75c-.39-.12.05,0,.12-.12.03-.06.04-.44.08-.59.89.12.65.05.83-.72l.93.08.3-1.29c.07-.04.63.12.74.14Z"/>
      <path class="cls-8" d="M7.97,13.05l-.09.63v.03s0,.03-.07.06l-.78-.14s-.02.03-.03-.07c0-.24.09-.46.13-.69.6.03.78.18.83.19Z"/>
      <path class="cls-46" d="M7.88,13.71v-.03q.07-.31.14-.62l.63.09c-.03.93-.1.6-.77.57Z"/>
      <path class="cls-20" d="M12.43,12.89c-.04.23-.07.47-.1.7,0,.02,0,.05,0,.07-.2-.02-.39-.07-.59-.08l.1-.71.6.03Z"/>
      <path class="cls-50" d="M16.38,13.37c-.16.66.03.72-.71.5.02-.21.06-.42.09-.63.2.04.42.09.62.12Z"/>
      <path class="cls-8" d="M13.98,11.75l-.09.63c-.2-.02-.39-.06-.59-.08l.13-.66c.08.01.46-.06.55.11Z"/>
      <path class="cls-20" d="M15.84,12.65c-.02.2-.06.39-.08.59-.17-.03-.34-.04-.51-.07-.03-.03.03-.29.03-.35.01-.22.07-.26.07-.27l.48.1Z"/>
      <path class="cls-47" d="M16.52,14.7c-.15-.02-.3-.04-.45-.06l.09-.63c.21.04.43.02.48.12-.01.29-.11.53-.12.57Z"/>
      <path class="cls-10" d="M16.15,14.01l-.09.63c-.19-.03-.4-.02-.45-.12l.12-.57c.14.02.28.03.42.06Z"/>
      <path class="cls-16" d="M27.59,4.84c-.03.18-.04.36-.08.54-.07.11-.52-.06-.58-.03-.16.08.21.85-.65.48.03-.18.01-.39.04-.56.04-.2.12-.4.12-.61.18.03.39,0,.56.03.07,0,.46.11.58.15Z"/>
      <path class="cls-8" d="M27.52,8.95l.06.04c-.03.16-.04.3-.06.45,0,.01,0,.02,0,.03l-1.14-.12s.04-.34.06-.56c.26.06.4.02.42.02.22.03.43.11.66.13Z"/>
      <g>
        <path class="cls-26" d="M26.33,5.27c-.03.17-.01.38-.04.56-.03.21-.13.43-.13.66l-.56-.08s-.02,0-.03,0c.08-.15.09-.37.11-.55.03-.21.06-.42.09-.63.16.02.38-.01.56.04Z"/>
        <path class="cls-54" d="M26.16,6.49l-.09.63c-.08-.02-.53-.06-.56-.1-.02-.03.08-.49.09-.61l.56.08Z"/>
      </g>
      <path class="cls-26" d="M27.67,4.32c-.03.16-.04.33-.07.49,0,.01,0,.02,0,.03-.12-.04-.52-.15-.58-.15.02-.08.03-.43.08-.45.03-.01.49.07.58.08Z"/>
      <path class="cls-2" d="M28.25,4.44c-.02.08-.03.43-.08.45-.03.02-.46-.08-.58-.08.03-.16.04-.33.07-.49.2.03.39.09.59.12Z"/>
      <path class="cls-33" d="M26.86,8.83s-.17.04-.42-.02c.02-.21.07-.42.09-.63.56.04.4.07.34.65Z"/>
      <g>
        <path class="cls-2" d="M32.07,6.64s.07,0,.07.03c-.09.99-.32,2.29-.46,3.33l-.87-.12q.23-1.67.47-3.35l.8.11Z"/>
        <path class="cls-11" d="M31.67,9.99c-.04.31-.09.63-.13.94l-.88-.09s0-.05,0-.07c.04-.29.08-.58.12-.87v-.03q.44.06.88.12Z"/>
        <path class="cls-16" d="M31.3,5.75s.03-.02.03.07c-.02.22-.07.44-.09.66l-.85-.12.08-.73c.28.05.56.07.84.12Z"/>
        <path class="cls-16" d="M30.38,4.77l-.11.8s-.34.06-.42-.08l.11-.78c.14.02.28.03.42.06Z"/>
        <path class="cls-2" d="M30.79,9.91c-.04.29-.08.58-.12.87-.24-.03-.49-.07-.73-.1-.86-.12-1.72-.22-2.58-.33.04-.29.11-.58.16-.87,0-.01,0-.02,0-.03l3.28.46Z"/>
        <path class="cls-65" d="M27.59,8.93c.04-.18.04-.36.08-.54l.55.02c.08.81-.09.55-.62.52Z"/>
        <g>
          <path class="cls-24" d="M29.33,4.59c.2.03.4.05.59.08l.03.04-.11.78c.08.14.4.07.42.08.01,0,.03.03.2.06l-.08.73.85.12.03.04q-.23,1.67-.47,3.35v.03q-1.64-.23-3.28-.46c.03-.15.03-.3.06-.45,0-.02,0-.05,0-.07.53.03.7.29.62-.52l-.55-.02c-.04.18-.04.36-.08.54-.1,0-.07.03-.07.03-.23-.02-.44-.1-.66-.13.06-.58.22-.61-.34-.65.03-.3,0-.63.13-.92-.02-.09-.38-.1-.59-.13l.09-.63c0-.22.09-.44.13-.66.86.38.5-.4.65-.48.06-.03.51.14.58.03.03-.18.04-.36.08-.54,0-.01,0-.02,0-.03.12,0,.55.1.58.08.05-.02.06-.37.08-.45.17.03.37.01.53.04.18.03.37.09.55.11Z"/>
          <path class="cls-65" d="M28.7,8.51s.46.06.47.08c.01.02-.04.48-.12.5-.57.16-.41-.55-.35-.58Z"/>
          <path class="cls-65" d="M27.59,8.93s0,.05,0,.07l-.06-.04s-.02-.03.07-.03Z"/>
        </g>
      </g>
      <path class="cls-8" d="M17.56,6.21l-.08.58c.56.29.57,0,.57-.51.03,0,.07,0,.1.01-.13.33-.07.55-.09.63-.03.21-.13.43-.13.66-.01,0-.02,0-.03,0-.3-.04-.6-.08-.91-.13,0-.03-.12.11,0-.5,0,.09-.03.42-.03.44,0,.02.32.04.33.03.04-.02.29-.76-.32-.65.01-.2.07-.4.08-.59.16.02.33.01.49.03Z"/>
      <path class="cls-8" d="M17.12,5.55c-.02.21-.06.42-.09.63-.27-.03-.53-.08-.8-.11,0,0-.07,0-.07-.03,0-.21.09-.41.12-.61l.84.12Z"/>
      <path class="cls-3" d="M17.03,6.17s.02,0,.03,0c-.02.2-.07.4-.08.59,0,.01,0,.02,0,.03l-.78-.11c-.1-.06.03-.42.04-.63.27.03.53.08.8.11Z"/>
      <path class="cls-19" d="M17.12,5.55l-.84-.12s-.02-.31.04-.56c.01,0,.02,0,.03,0,.27.05.55.07.82.11.03.03-.05.48-.06.56Z"/>
      <path class="cls-4" d="M16.39,4.13c-.03.23-.03.51-.03.74-.01,0-.02,0-.03,0-.19-.03-.39-.12-.59-.12.05-.22.05-.44.09-.66l.56.04Z"/>
      <path class="cls-32" d="M18.05,6.28c0,.51,0,.79-.57.51l.08-.58c.16.02.33.05.49.07Z"/>
      <path class="cls-13" d="M23.77,15.46c.04-.25.07-.5.1-.75l.67.02c.04-.25.06-.5.1-.75.04-.22.13-.43.13-.66.14.03.33-.02.47.07.04-.02.07-.38.08-.45.11,0,.51.09.54.08.04-.02.06-.35.08-.42.37.04.73.11,1.1.15l-.13,1.03-1.03-.13c-.12.04-.08.51-.15.55-.26.14-.62-.51-.64.6-.07.11-.51-.07-.57,0-.03.03-.07.61-.1.73-.03.03-.57-.06-.66-.08Z"/>
      <path class="cls-13" d="M23.77,15.46c-.04.28-.08.56-.12.84-.37-.05-.74-.1-1.12-.16l.11-.8c.38.04.74.08,1.12.12Z"/>
      <path class="cls-8" d="M23.94,13.93l-.12.76c-.08.04-.91-.16-1.06-.18l.1-.73c.05,0,.04-.07.06-.06.34.05.68.08,1.01.14.03,0,0,.07,0,.07Z"/>
      <path class="cls-51" d="M20.32,11.39c.26.03.54.12.8.15l-.09.63c-.25-.03-.51,0-.75-.07l-.1.57s-.29-.02-.35-.03v-.03c.47.13.22-.17.39-.5-.02-.04-.25-.05-.31-.06.01-.22.08-.45.09-.66.09.01.23,0,.32,0Z"/>
      <path class="cls-1" d="M22.86,13.78l-.1.73c-.29-.04-.61,0-.89-.09.02-.28.04-.57.06-.84.31.04.62.09.92.13.03,0,0,.07,0,.07Z"/>
      <path class="cls-19" d="M22.64,15.34l-.11.8c-.28-.04-.59-.05-.88-.09l.1-.84c.3.03.59.1.89.12Z"/>
      <path class="cls-8" d="M24.77,13.33c0,.23-.09.44-.13.66-.21-.04-.42-.05-.63-.09l.08-.73c.61.04.63.16.67.16Z"/>
      <path class="cls-12" d="M19.91,12.05l-.08.56v.03c-.25-.03-.48-.13-.74-.1l-.03-.04.13-.55c.24.04.48.06.71.1Z"/>
      <path class="cls-55" d="M18.3,13.6l-.1.7c-.23-.06-.51,0-.58-.15.02-.15.06-.54.08-.59,0,0,.01.02.04-.03l.56.08Z"/>
      <path class="cls-21" d="M18.43,12.98l-.05.63s-.05,0-.07,0l-.56-.08c.04-.06.07,0,.11-.04-.21.06-.08-.55-.06-.58.04-.04.53.07.63.07Z"/>
      <path class="cls-48" d="M18.99,13.02c-.02.2.01.42-.05.61-.05.09-.37,0-.56-.03l.05-.63v-.03q.28.04.56.08Z"/>
      <path class="cls-55" d="M18.21,14.3l-.08.59c-.19-.03-.38-.05-.58-.08-.03-.03.06-.5.07-.59,0-.02,0-.05,0-.07.07.14.35.1.58.15Z"/>
      <path class="cls-11" d="M19.06,12.5l.03.04c0,.21-.1.46-.1.48l-.56-.08-.03-.04c-.01-.16.08-.33.1-.48l.56.08Z"/>
      <g>
        <path class="cls-8" d="M23.5,4.91l-.11.62c-.24-.03-.48-.07-.71-.1.13-.11.11-.36.15-.58,0-.01,0-.02,0-.03l.66.09Z"/>
        <path class="cls-70" d="M22.83,4.85c-.04.22-.02.47-.15.58-.2-.02-.39-.05-.59-.08.02-.09.06-.57.1-.59l.64.09Z"/>
      </g>
      <path class="cls-32" d="M25.76,5.23c-.03.21-.06.42-.09.63-.19,0-.54-.15-.64-.02-.09-.04-.09-.08-.09-.08.12.05.09-.3.16-.62.22.03.44.07.66.09Z"/>
      <path class="cls-8" d="M25.1,5.13c-.06.32-.04.67-.16.62-.48-.17-.61.22-.44-.67.19.03.4.02.6.05Z"/>
      <path class="cls-54" d="M28.9,3.35h.07c0,.19-.08.39-.11.53l-.49-.07c.08-.14.08-.35.11-.52l.42.06Z"/>
      <path class="cls-45" d="M28.82,12.33l-.09.68c.03.1.49.12.69.15.02,0,.05,0,.07,0-.05.43-.12.86-.18,1.29l-.77-.05-.06.72s-.05,0-.07,0c-.11-.01-.7-.12-.73-.08l-.07.61c.33.07.72.04.67.16-.13,0-.65-.11-.68-.09-.05.02-.06.37-.08.45-.34-.04-.69-.03-1.03-.11-.04.02-.08.47-.1.56,0,.03,0,.07-.01.1-.27-.04-.55-.04-.81-.08-.63-.09-1.27-.25-1.91-.34.04-.28.07-.56.12-.84.1.01.63.11.66.08.03-.12.08-.7.1-.73.05-.06.5.12.57,0,.02-1.11.37-.47.64-.6.07-.04.02-.51.15-.55l1.03.13.13-1.03c-.37-.05-.73-.11-1.1-.15.04-.21.05-.43.09-.64.03-.03.13,0,.18,0,.19,0,.6.09.87.12.59.06,1.16.17,1.74.24Z"/>
      <path class="cls-24" d="M12.29,1.96c.16.03.33.04.49.07l-.11.82s.41.07.49.09c.25.05.51.07.77.11,0,0,.03,0,.03.04-.02.23-.09.45-.09.68.02.04.47.08.56.1.29.05.34.01.35.01.13.02.28.07.41.09.02,0,.05,0,.07,0-.14,1.14-.39,1.28.37,1.3.03-.17.09-.35.13-.52.2,0,.4.08.59.12-.07.25-.04.53-.04.56-.03.2-.11.39-.12.61,0,.03.07.02.07.03,0,.21-.13.57-.04.63l.78.11s.02-.03.02.14c-.12.6,0,.47,0,.5,0,.04-.13.44-.14.73,0,0,0,.07-.03.07-.27-.03-.53-.08-.8-.11l-.15.69c-.25-.03-.53,0-.78-.04-.24-.03-.48-.07-.71-.1l.15-1.2-.85-.17.07-.74-1.19-.17.05-.63-2.49-.35c.03-.18.06-.37.08-.56.02-.14.05-.28.06-.42,0-.06.06-.32.03-.35l-.9-.16-.13.44c-.24-.08-.49-.11-.74-.14-.76-.1-1.07-.31-.97.33,0,0,0,.03-.04.03-1.05-.08-1.09-.32-1.07.53,0,0,0,.04-.04.03-.13-.02-.95-.11-.97-.15l.13-1.03-2.31-.29.04-.67.04-.03.84.1.1-.73.67.06.11-.64.72.05c.01-.27.15-.57.03-.69.03,0,.04-.03.07-.03,2.14.21,4.3.53,6.42.86Z"/>
      <path class="cls-1" d="M6.27,5.88l-.08.7c-.28-.04-.57-.07-.85-.12-.01,0-.02,0-.03,0q.05-.35.1-.7c.29.03.58.09.87.12Z"/>
      <path class="cls-45" d="M3.12,4.3c-.14-.02-.67-.03-.72-.06-.11-.07.08-.51,0-.64.98,0,.82.05.72.7Z"/>
      <path class="cls-16" d="M4.72,4.99c-.02.22-.07.44-.09.66-.21-.03-.42-.04-.62-.11-.04-.07.11-.54.12-.64l.59.08Z"/>
      <path class="cls-8" d="M6.9,5.19c-.12.58.08.94-.59.66l.1-.7s.04-.03.04-.03c.15.02.3.04.45.06Z"/>
      <path class="cls-72" d="M4.72,4.99l-.59-.08s-.04-.17.02-.42c.1.02.55,0,.61.05.02.15-.03.3-.05.46Z"/>
      <path class="cls-60" d="M3.35,7.75c.19.03.37.05.56.08-.01.15-.47-.05-.53.01-.02.02-.09.5-.07.52.04.07.47.03.59.13-.21-.05-.58-.14-.62.09,0-.06.04-.13,0-.18-.07-.06-.73-.06-.86-.08,0,0,.02-.07,0-.07-.3-.06-.62-.08-.92-.13-.01,0-.02,0-.03,0,0-.21.09-.42.12-.62.59.08,1.19.16,1.78.25Z"/>
      <path class="cls-2" d="M18.4,12.9l.03.04v.03c-.1,0-.6-.11-.63-.07-.02.02-.15.64.06.58-.04.03-.07-.02-.11.04-.03.05-.04.03-.04.03-.25-.14-.54-.08-.8-.11-.02,0-.12-.05-.45-.1-.15,0,.07-.38.05-.63.04,0,.1-.02.11-.02.6.05,1.18.16,1.78.21Z"/>
      <path class="cls-45" d="M17.71,13.55c-.02.06-.06.44-.08.59,0,.02,0,.05,0,.07l-.78-.11.08-.66c.26.03.55-.02.8.11Z"/>
      <path class="cls-11" d="M16.51,12.71c.01.26-.2.63-.05.63,0,0,.02.04-.07.03-.2-.03-.42-.09-.62-.12.02-.2.06-.39.08-.59,0-.02,0-.05,0-.07.2.08.45.11.66.13Z"/>
      <path class="cls-42" d="M28.47,15.13c.13.01.26.04.38.05.46-.01.32.59.07.77l-.16,1.03-2.38-.37c.01-.08.06-.54.1-.56.34.08.69.07,1.03.11.11.01.63.17.71.13.06-.15.06-.32.09-.49.04-.23.06-.47.1-.7.02,0,.05,0,.07,0Z"/>
      <path class="cls-55" d="M29.31,14.46c-.02.15,0,.61-.06.72-.07.08-.23.01-.39,0-.13,0-.26-.04-.38-.05l.06-.72.77.05Z"/>
      <path class="cls-35" d="M30.43,12.52c-.04.26-.09.5-.14.76-.2-.03-.4-.05-.59-.08l.11-.8c.2.02.45.04.62.12Z"/>
      <g>
        <path class="cls-63" d="M29.7,13.2c.2.03.4.05.59.08-.05.24-.19.54-.07.77-.05,0-.09-.03-.15.03-.03.18-.04.36-.08.54-.08.47-.14.96-.2,1.43l-.77-.09c-.1.35-.12.71-.18,1.06,0,.01,0,.02,0,.03l-.63-.09c-.62-.09-1.23-.17-1.85-.26,0-.03,0-.07.01-.1l2.38.37.16-1.03c.25-.18.39-.78-.07-.77.16.01.32.08.39,0,.07-.11.04-.57.06-.72.06-.43.13-.86.18-1.29.07.01.14.02.21.03Z"/>
        <path class="cls-1" d="M29.25,15.24s.56.07.57.1l-.1.61c-.92.08-.53-.69-.47-.71Z"/>
      </g>
      <path class="cls-66" d="M29.81,12.4l-.11.8c-.07-.01-.14-.02-.21-.03-.02,0-.05,0-.07,0l.11-.8c.09.01.19.03.28.04Z"/>
      <path class="cls-45" d="M29.86,11.48c.23.03.46.1.69.13-.05.3-.08.61-.13.91-.17-.08-.42-.1-.62-.12-.09-.01-.19-.03-.28-.04-.21-.02-.42-.03-.63-.05l.09-.93s.76.09.87.1Z"/>
      <path class="cls-29" d="M15.8,4.05l.03.04c-.04.22-.05.45-.09.66-.04.17-.1.34-.13.52-.76-.01-.51-.15-.37-1.3.18.03.37.05.56.08Z"/>
      <path class="cls-29" d="M14.5,3.16l-.1.7c-.08-.01-.54-.06-.56-.1,0-.23.08-.45.09-.68.19.03.37.05.56.08Z"/>
      <path class="cls-27" d="M15.17,3.96c-.14-.02-.28-.07-.41-.09l.09-.63s.31-.04.42.04l-.09.68Z"/>
      <path class="cls-71" d="M14.85,3.24l-.09.63s-.06.04-.35-.01l.1-.7c.12.02.23.06.34.08Z"/>
      <path class="cls-45" d="M30.67,10.78s0,.05,0,.07c-.04.26-.07.51-.11.77-.23-.03-.47-.1-.69-.13l.08-.81c.24.03.49.07.73.1Z"/>
      <path class="cls-9" d="M2.41,8.33l-.09.63s0,.07-.03.07c-.31-.04-.62-.06-.92-.16.03-.24-.03-.51.1-.73.31.04.62.07.92.13.03,0,0,.07,0,.07Z"/>
      <path class="cls-2" d="M15.1,8.78c-.07.52-.15,1.04-.22,1.57,0,.03-.01.07-.01.1-.13-.2-.48-.17-.72-.21-.69-.12-.48-.14-.51-.14.03-.2.06-.41.09-.61,0-.03-.07-.02-.07-.03,0-.04.16-.17.15-.72l-.89-.12c.02-.22.03-.45.06-.67.01-.12.2-.66.08-.73-.32-.08-.67-.06-1-.1-.03,0-.03-.04-.06-.04-.16-.02-.33-.05-.49-.07l-.42-.06c.02-.11.12-.66.05-.7l-.64-.09-.45-.06c.05-.22.05-.44.09-.66l2.49.35-.05.63,1.19.17-.07.74.85.17-.15,1.2c.24.03.48.07.71.1Z"/>
      <path class="cls-61" d="M5.05,8.02c-.07.47-.15.95-.2,1.43-.27-.05-.55-.14-.83-.19l.09-.68c-.05-.09-.15-.07-.24-.09-.11-.11-.55-.07-.59-.13-.01-.02.05-.5.07-.52.06-.07.52.14.53-.01.38.06.76.13,1.15.2Z"/>
      <path class="cls-8" d="M8.46,4.73l-.03.56c.24.02.51.09.75.1-.01.08-.05.5-.09.52-.68-.13-.89.07-.7-.56-.32,0-.64-.09-.96-.13l.09-.63s.04-.03.04-.03c.3.02.61.13.9.16Z"/>
      <path class="cls-27" d="M12.98,7.95h-.03q-.26-.04-.52-.08l-.42-.06c.04-.22-.01-.48.06-.7.32.05.67.02,1,.1.12.07-.07.61-.08.73Z"/>
      <path class="cls-8" d="M5.05,8.02c.04-.27.1-.53.15-.8l.82.11-.06.79c-.07.12-.77-.09-.91-.11Z"/>
      <path class="cls-8" d="M12.92,8.62c-.02.22-.14.69-.05.74l.78.11s.07,0,.07.03c-.02.2-.06.41-.09.61-.05,0-.04.07-.06.06-.3-.05-.6-.07-.89-.14q.13-1.04.25-2.08h.03c-.02.22-.04.45-.06.67Z"/>
      <path class="cls-8" d="M10.27,4.45c-.01.14-.04.28-.06.42-.18.06-.5-.06-.55-.04-.06.03-.07.54-.1.57-.01.01-.33,0-.39,0,.04-.22.05-.45.09-.66.04-.17,0-.36.11-.41l.89.12Z"/>
      <path class="cls-2" d="M7.52,4.6l-.09.63c-.17-.02-.35-.02-.53-.04-.15-.02-.3-.04-.45-.06-.02-.84.01-.61,1.07-.53Z"/>
      <path class="cls-43" d="M7.15,12.79c.02-.12.13-.65.05-.7l-.75-.1s0-.02,0-.03l.09-.63c.11.02.72-.01.76.12-.13.46.04.89-.15,1.35Z"/>
      <path class="cls-31" d="M14.87,10.46c-.03.21-.03.42-.05.63l-.66-.09s-.07,0-.07-.03c.03-.23.1-.49.06-.72.24.04.59,0,.72.21Z"/>
      <path class="cls-8" d="M14.82,11.09c-.02.23-.07.46-.1.7l-.73-.1c.11-.71.16-.65.17-.69l.66.09Z"/>
      <path class="cls-8" d="M5.33,9.55c-.02.13-.03.26-.05.38-.02.13-.05.25-.09.38-.09-.02-.2-.01-.28-.04-.06-.02-.13,0-.17-.08.03-.25.08-.5.1-.75.16.03.32.07.48.1Z"/>
      <path class="cls-8" d="M10.5,6.15c-.1.58.06.87-.65.57.04-.56.19-.6.19-.63l.45.06Z"/>
      <path class="cls-32" d="M12,7.07l-.1.71c-.06.06-.41-.07-.49-.09l.1-.7c.16.02.33.05.49.07Z"/>
      <path class="cls-8" d="M11.51,7l-.1.7s-.27.04-.49-.05c.03-.61.16-.67.17-.7l.42.06Z"/>
      <path class="cls-8" d="M12.42,7.88l-.06.65c-.86.16-.41-.43-.36-.71l.42.06Z"/>
      <path class="cls-8" d="M5.99,10.43c.04.12,0,.26-.02.39-.01.12-.03.23-.05.35-.02,0-.35.06-.45-.08l.09-.64s-.03-.08.43-.01Z"/>
      <path class="cls-43" d="M5.97,10.81c.02-.13.06-.27.02-.39.15.02.52.04.55.13.12.43-.3.31-.57.26Z"/>
      <path class="cls-43" d="M5.28,9.93c.02-.13.03-.26.05-.38.02,0,.25-.04.34.01.07.04.14.58-.39.37Z"/>
      <g>
        <path class="cls-61" d="M4.29,16.23c.06.08.47.1.59.12,0,.12-.1.58-.09.61.04.07.38,0,.34.14-.32-.05-.3,0-.32,0-.22-.03-.47-.09-.69-.13-.22-.04-.46-.02-.52-.13l.14-1.01c-.03-.1-.36-.09-.55-.13-.01,0-.02,0-.03,0,0-.25.1-.49.14-.73.19.03.38.05.58.08-.15,1.2.2.6.42.8.05.05-.07.29,0,.39Z"/>
        <g>
          <path class="cls-61" d="M2.86,13.75c0,.13-.11.61-.09.64.03.05.44.06.52.09,0,.02.06.09,0,.46-.2-.03-.41-.02-.6-.05-.16-.03-.85-.13-.94-.17-.15-.07-.05-.33-.03-.57,0-.1.1-.6.07-.63-.24-.04-.48-.05-.71-.1.07-.71.27-.76-.28-.79.03-.26.07-.51.11-.77.01,0,.02,0,.03,0,.35.06.71.09,1.06.15l-.18,1.45c.03.11.7.13.99.19.03,0-.01.06.04.08Z"/>
          <path class="cls-56" d="M1.09,13.44c-.09-.02-.23-.02-.28-.04-.02,0-.06,0-.1-.07.03-.23.07-.45.09-.68.55.03.35.08.28.79Z"/>
        </g>
        <path class="cls-23" d="M3.22,9.15c.27.04.57.07.8.11.27.05.56.13.83.19-.03.25-.07.5-.1.75.04.09.1.06.17.08l-.09.77,1,.21.02.64.61.05s0,.02,0,.03c-.03.24-.07.48-.1.71l.71.15c-.01.24-.05.46-.05.7,0,.1.03.07.03.07,0,.11.06.07.06.1,0,.2-.09.52-.1.75-.27-.03-.54-.05-.81-.08-.3-.03-.59-.09-.89-.12l-.15.67s.07.02.1.03c-.22.15-.2,1.22-.32,1.29-.09.05-.5-.11-.63-.04-.07-.1.06-.34,0-.39-.22-.2-.57.4-.42-.8-.19-.03-.38-.05-.58-.08.05-.38,0-.44,0-.46,0-.1.17-.6.13-.67-.15-.09-.53-.05-.56-.06-.05-.01-.01-.07-.04-.08-.29-.06-.96-.08-.99-.19l.18-1.45c-.35-.06-.71-.09-1.06-.15.07-.22.03-.48.06-.7.08-.55.16-1.09.23-1.64.03-.23.1-.47.13-.69.29.1.61.12.92.16.03,0,.02-.07.03-.07.05,0,.02.07.04.08.28.04.57.07.85.12Z"/>
        <path class="cls-36" d="M7.94,14.57q-.13.75-.26,1.49l-1.64-.23-.16.65c-.32-.07-.67-.08-.99-.14-.12-.02-.53-.04-.59-.12.14-.07.54.09.63.04.12-.07.1-1.14.32-1.29.13.05.6.06.82.11l.11-.69c.27.03.54.05.81.08.27.03.55.09.82.11.03,0,0-.07.06-.06,0,0-.02.04.06.04Z"/>
        <path class="cls-62" d="M12.33,13.65s0-.05,0-.07c.66.36.92-.21.7.86l-.76-.05c-.08-.05.03-.55.05-.74Z"/>
        <path class="cls-61" d="M14.72,11.79c.21.04.42.04.63.09.05.21-.04.45-.06.65,0,.03.07.02.07.03,0,.01-.06.05-.07.27-.17-.04-.01-.23-.08-.3-.02-.02-.53.03-.57-.1-.1-.34.51-.62-.6-.67l-.14.62.09-.63s0-.05,0-.07l.73.1Z"/>
        <path class="cls-39" d="M7.94,14.57c-.09,0-.06-.04-.06-.04l.1-.71.61.07-.09.75s-.47-.06-.56-.06Z"/>
        <g>
          <path class="cls-60" d="M15.29,12.82c0,.07-.06.32-.03.35.17.03.34.04.51.07-.02.21-.06.42-.09.63l.06.08-.12.57c.05.09.26.09.45.12.15.02.3.04.45.06-.03.21,0,.45-.06.67-.34-.04-.77-.15-.95-.08-.07.11-.06.74-.09.89,0,0-.07-.02-.07,0-.03.16-.04.32-.07.47-.09,0-.52-.1-.56-.06-.03.04-.02.49-.13.71-.17-.02-.34-.05-.51-.07-.04.02-.05.25-.06.31-.1,0-.56-.11-.59-.07-.03.04-.02.49-.13.71-.53-.04-.51,0-.53,0-.27-.03-.56-.12-.83-.15-2.27-.28-4.54-.61-6.8-.95.04-.14-.3-.06-.34-.14-.02-.03.08-.49.09-.61.32.06.67.07.99.14l.16-.65,1.64.23q.13-.75.26-1.49c.09,0,.53.1.56.06l.09-.75-.61-.07-.1.71c-.06,0-.03.06-.06.06-.27-.02-.55-.09-.82-.11.01-.23.11-.55.1-.75,0-.03-.06.02-.06-.1l.78.14c.06-.03.06-.06.06-.06.67.03.74.37.77-.57l-.63-.09-.14.62.09-.63c.12.02.69,0,.75.07l-.08.7v.07q.4.06.79.13l-.1.82.98.14.17-.81.75.09.12-.71s.32.03.39.04c.2.02.39.06.59.08-.02.19-.13.69-.05.74l.76.05c.22-1.07-.04-.51-.7-.86.03-.23.06-.47.1-.7.03-.2.05-.66.15-.69.24.03.48.08.71.1.2.02.39.06.59.08l.14-.62c1.11.05.5.33.6.67.04.12.55.08.57.1.07.07-.09.26.08.3Z"/>
          <g>
            <path class="cls-62" d="M11.37,14.27l.77.11-.05.72c-.84.02-1.04.04-.72-.83Z"/>
            <path class="cls-62" d="M10.38,14.98l.77.11-.07.65-.79-.09.09-.66Z"/>
            <path class="cls-62" d="M13.25,13.04s.46.06.47.08c.02.03-.08.66-.11.68-.02.01-.46-.06-.47-.08-.02-.03.08-.66.11-.68Z"/>
            <path class="cls-15" d="M8.48,15.39s.91.05.65.32c-.02.02-.66-.05-.68-.08-.03-.02,0-.23.03-.24Z"/>
            <path class="cls-37" d="M9.91,15.59c.15-.04.48.07.33.31-.04.07-.39.01-.41,0-.03-.02,0-.28.08-.31Z"/>
          </g>
        </g>
        <path class="cls-22" d="M3.3,14.95c-.03.24-.14.48-.14.73-.18-.03-.37-.05-.56-.08.04-.23.06-.47.1-.7.19.03.4.01.6.05Z"/>
        <path class="cls-62" d="M3.29,14.49c-.08-.03-.5-.04-.52-.09-.02-.03.09-.52.09-.64.03,0,.41-.03.56.06.04.08-.12.57-.13.67Z"/>
        <path class="cls-14" d="M5.19,10.31c.53.11.35.12.37.12l-.09.64c.1.14.43.08.45.08.2.04.42.12.62.16l-.09.63-.61-.05-.02-.64-1-.21.09-.77c.08.02.19.02.28.04Z"/>
        <path class="cls-61" d="M7.15,12.79s0,.05,0,.07c-.04.23-.13.46-.13.69,0-.25.03-.46.05-.7l-.71-.15c.03-.24.07-.48.1-.71l.75.1c.08.05-.03.59-.05.7Z"/>
        <path class="cls-74" d="M6.18,14.4l-.11.69c-.22-.05-.69-.06-.82-.11-.03-.01-.09,0-.1-.03l.15-.67c.3.03.59.1.89.12Z"/>
      </g>
      <path class="cls-6" d="M3.26,8.59c0,.18-.08.38-.04.56-.28-.05-.57-.08-.85-.12-.03,0,.01-.07-.04-.08l.09-.63c.13.02.79.02.86.08.03.05,0,.12,0,.18Z"/>
      <path class="cls-36" d="M3.88,8.5c.09.02.19,0,.24.09l-.09.68c-.24-.04-.54-.07-.8-.11-.03-.19.05-.38.04-.56.04-.24.41-.14.62-.09Z"/>
      <path class="cls-2" d="M15.51,11.19c-.18.86-.07.65,1.04.86.14.09-.15.58.07.65,0,0-.07.02-.11.02-.21-.02-.46-.05-.66-.13.02-.19.08-.38.05-.58-.18-.04-.37-.09-.55-.13-.2-.04-.42-.05-.63-.09.03-.23.07-.46.1-.7l.7.1Z"/>
      <path class="cls-73" d="M15.85,12.58s0,.05,0,.07l-.48-.1s-.07,0-.07-.03c.01-.2.11-.44.06-.65.18.04.37.09.55.13.03.2-.03.39-.05.58Z"/>
      <path class="cls-13" d="M29.94,10.68l-.08.81c-.11-.02-.84-.14-.87-.1l-.09.93s-.04.03-.07.03c-.59-.07-1.15-.18-1.74-.24.11-.3.12-.63.17-.94.04-.27.07-.53.11-.8.86.11,1.72.21,2.58.33Z"/>
      <path class="cls-2" d="M19.23,10.25c.2.03.4.05.59.08.14.02.48.14.55.15-.06.18-.02.38-.04.56,0,.04-.17.34-.01.35-.09-.01-.23,0-.32,0,0-.06.02-.38,0-.39-.03-.03-.4-.04-.45.03-.23.35.21.33.45.36,0,.21-.08.45-.09.66-.24-.04-.48-.06-.71-.1l-.13.55-.56-.08c.03-.22,0-.64.08-.84.14-.33.62.44.62-.64-.02-.04-.76-.13-.87-.14l.09-.66c.27.04.53.07.8.11Z"/>
      <path class="cls-20" d="M22.18,12.33c.09.01.2,0,.28,0,.1.01.56.05.59.13l-.22,1.2-.82-.13.17-1.2Z"/>
      <path class="cls-8" d="M19.83,10.33c-.2-.03-.39-.05-.59-.08.04-.33.1-.65.14-.98.12-.08,1.1.03,1.12.1,0,.03-.06.46-.08.47-.18.09-.51-.42-.58.49Z"/>
      <path class="cls-8" d="M27.25,11.15c-.05.31-.06.64-.17.94-.27-.03-.69-.12-.87-.12l.12-.89.91.07Z"/>
      <path class="cls-27" d="M19.38,9.24s0,.02,0,.03c-.04.33-.1.65-.14.98-.27-.04-.53-.07-.8-.11l.14-1.01c.27.03.53.08.8.11Z"/>
      <path class="cls-8" d="M19.38,9.24c-.27-.03-.53-.08-.8-.11-.02,0-.05,0-.07,0,.11-.23.07-.43.09-.66.28.05.57.07.85.12.03.03-.06.57-.08.66Z"/>
      <path class="cls-8" d="M20.33,11.04c.02-.18-.02-.38.04-.56.03,0,.25-.15.66.08l-.13.57-.58-.08Z"/>
      <path class="cls-8" d="M25.45,12.54c-.11,0-.06.06-.11.06-.06,0-.4-.04-.42-.08.14-.75-.08-.84.62-.66l-.09.68Z"/>
      <path class="cls-8" d="M25.68,5.85c-.03.18-.03.4-.11.55-.19-.03-.38-.05-.58-.08-.06-.03.01-.44.05-.49.09-.13.45.02.64.02Z"/>
      <g>
        <g>
          <path class="cls-8" d="M21.75,11.56c-.12.2-.17.49-.14.73-.2-.02-.4-.1-.59-.12l.09-.63s-.04-.1.64.02Z"/>
          <path class="cls-43" d="M22.12,11.72l-.05.6s-.04.03-.04.03c-.14-.02-.28-.04-.42-.06-.04-.23.02-.53.14-.73.3.05.27-.04.37.16Z"/>
        </g>
        <path class="cls-44" d="M22.46,12.33c-.08,0-.19,0-.28,0-.03,0-.07-.01-.1-.01l.05-.6c.02-.17.44-.06.46.01l-.12.61Z"/>
      </g>
      <path class="cls-8" d="M25.45,12.54c.16.01.33.05.49.07-.01.07-.04.4-.08.42-.03.01-.43-.07-.54-.08.01-.12.06-.24.01-.35.06,0,0-.07.11-.06Z"/>
      <g>
        <path class="cls-64" d="M28.53,1.95s.1,0,.13.07c-.03.22-.07.43-.09.64-.02.21-.06.42-.09.63-.02.17-.03.38-.11.52l-.58-.08c-.1.03-.1.39-.13.59-.09-.01-.55-.09-.58-.08-.05.02-.06.37-.08.45-.18-.02-.38,0-.56-.03,0,.21-.08.41-.12.61-.18-.06-.4-.03-.56-.04-.22-.02-.44-.06-.66-.09-.2-.02-.41-.02-.6-.05-.33-.04-.67-.17-1.01-.18l-.66-.09c.04-.19.03-.49.13-.52l1.35.22c.1-.05.09-.29.13-.52,0-.03,0-.07.01-.1.09.18.39.05.67.13.04-.02.07-.41.09-.49.03-.2.05-.4.08-.59l.72.06c.03-.23.11-.46.15-.69.24.03.49.07.73.1.26.03.52.08.78.11.04-.02.1-.6.11-.69.21.05.58.05.73.1Z"/>
        <path class="cls-44" d="M27.89,1.15l-.09.66c-.26.03-.55-.04-.81-.08-.24-.03-.49-.07-.73-.1-.5-.07-1-.15-1.5-.21-.24-.03-.49-.07-.73-.1.04-.24.07-.49.1-.73,1.25.17,2.5.29,3.75.49.03,0,0,.07,0,.07Z"/>
        <path class="cls-8" d="M20.68.15l-.11.77c-.08.06-.5-.05-.63-.05-.18-.07-.01-.44,0-.83.47-.1.69.12.73.12Z"/>
        <path class="cls-63" d="M22.89.38l-.11.77c-.26-.03-.51-.08-.77-.11.04-.25.07-.51.11-.77.26.03.51.07.77.11Z"/>
        <path class="cls-52" d="M28.53,1.95c-.15-.05-.53-.05-.73-.1,0-.01,0-.02,0-.03l.09-.66s.08-.11.69.03l-.05.77Z"/>
        <path class="cls-8" d="M19.54,1.44c-.05.19-.08.39-.13.59-.2-.02-.41-.07-.61-.09l.11-.62c.27,0,.61.12.64.12Z"/>
        <path class="cls-44" d="M23.37.45l-.1.75s-.41-.04-.49-.05l.11-.77c.16.02.33.05.49.07Z"/>
        <path class="cls-41" d="M26.26,1.64c-.04.23-.06.47-.1.7-.26-.03-.51-.07-.77-.11-.24-.03-.49-.08-.73-.1l.1-.7c.5.06,1,.14,1.5.21Z"/>
        <path class="cls-44" d="M24.67,2.12c.24.03.49.07.73.1.05.25-.06.47-.1.7l-1.41-.2.07-.65c.05-.08.51.02.7.05Z"/>
        <path class="cls-44" d="M24.03,1.32c-.02.12-.06.7-.15.72l-.71-.15.15-.67c.24.03.48.07.71.1Z"/>
        <path class="cls-6" d="M26.17,2.33c-.04.23-.12.46-.15.69l-.72-.06s0-.02,0-.03c.04-.23.15-.45.1-.7.26.03.51.07.77.11Z"/>
        <path class="cls-40" d="M25.22,3.55c-.01.08-.05.47-.09.49-.28-.08-.58.05-.67-.13l.06-.42c.22.03.48,0,.7.06Z"/>
        <g>
          <path class="cls-53" d="M24.14.59c-.04.24-.07.49-.1.73-.24-.03-.48-.07-.71-.1l-.15.67.71.15c.09-.03.14-.61.15-.72.24.03.49.07.73.1l-.1.7c-.2-.02-.65-.13-.7-.05l-.07.65,1.41.2s0,.02,0,.03c-.03.2-.05.4-.08.59-.22-.07-.48-.03-.7-.06-.25-.03-.48-.07-.73-.1-.55-.06-.81-.42-.78.39.24.03.48.06.71.1.24.04.51.04.73.14-.04.22-.03.46-.13.52l-1.35-.22c-.1.03-.09.33-.13.52,0,.01,0,.02,0,.03l-.64-.09s-.08.5-.1.59c-.22-.04-.45-.06-.68-.09l.12-.96c-.06-.1-.36-.1-.62-.14-.52-.07-1.09-.06-1.61-.19-.05,0-.03-.04-.03-.07,1.89.35,1.54.37,1.66-.41.03-.23.05-.47.1-.7.13,0,.61.11.64.09.03-.02.06-.31.11-.38.1,0,.67.11.7.08l.1-.7-.69-.17c.05-.23.09-.45.13-.67.26.03.51.08.77.11.08,0,.46.08.49.05l.1-.75c.21.03.43.03.65.06,0,0,.08.08.11.09Z"/>
          <path class="cls-44" d="M23.78,3.39l-.07.49c-.24-.04-.48-.06-.71-.1-.02-.81.24-.45.78-.39Z"/>
          <path class="cls-41" d="M24.51,3.49l-.06.42s0,.07-.01.1c-.22-.1-.49-.1-.73-.14l.07-.49c.25.03.48.07.73.1Z"/>
          <path class="cls-59" d="M21.77,2.5c-.04.07-.08.36-.11.38-.03.02-.52-.09-.64-.09.03-.16,0-.33.11-.38.22.02.43.07.64.09Z"/>
        </g>
        <path class="cls-53" d="M27.8,1.85c-.02.1-.08.68-.11.69-.26-.03-.52-.08-.78-.11l.1-.7c.26.04.54.1.81.08,0,.01,0,.02,0,.03Z"/>
        <path class="cls-6" d="M27,1.74l-.1.7c-.24-.03-.49-.07-.73-.1.04-.23.06-.47.1-.7.24.03.49.07.73.1Z"/>
        <g>
          <path class="cls-44" d="M19.29,3.97c.52.13,1.08.11,1.61.19-.11,1.36-.29.86-.38.96-.02.03-.01.24-.04.28-.07.11-.45-.05-.55-.02-.24.07.35.56-.96.26-.06.02-.18.68-.2.79-.17-.09-.43-.1-.62-.12-.03,0-.07,0-.1-.01-.16-.02-.33-.05-.49-.07-.17-.02-.33-.02-.49-.03-.01,0-.02,0-.03,0,.02-.21.07-.42.09-.63,0-.08.09-.53.06-.56-.27-.05-.55-.07-.82-.11,0-.24,0-.51.03-.74.03-.21.09-.44.13-.66l.73.08.1-.71s.05,0,.07,0c.2.02.41.06.61.09l.13-.59c.11,0,.44.08.47.07.05-.03.02-.31.12-.48.01,0,.02,0,.03,0,.2.02.41.06.61.09.05-.19.09-.39.13-.59.09,0,.18.05.25-.02l.08-.54s-.02-.03.07-.03c.13,0,.55.11.63.05l.16-.79,1.25.18c.06,1.2-.54.52-.68.67-.09.63-.14,1.24-.36,1.83l-.53-.04c.04.83-.29.5-1.04.44l-.19.7.04.09c.06.02.05-.03.06-.03Z"/>
          <path class="cls-44" d="M22.12.28c-.04.26-.07.51-.11.77-.04.23-.08.45-.13.67l.69.17-.1.7s-.6-.07-.7-.08c-.22-.02-.43-.07-.64-.09-.1.05-.07.22-.11.38-.04.23-.06.47-.1.7l-1.55-.22s-.1.54-.11.62c0,.04-.02.07.03.07,0,0,0,.05-.06.03l-.04-.09.19-.7c.75.06,1.08.39,1.04-.44l.53.04c.23-.59.27-1.21.36-1.83.14-.15.74.53.68-.67l-1.25-.18-.16.79.11-.77s0-.07.03-.07c.47.05.94.14,1.41.2Z"/>
          <path class="cls-18" d="M18.76,1.94c-.1.17-.07.45-.12.48-.03.01-.36-.06-.47-.07l-.03-.04c.08-.6.1-.43.62-.38Z"/>
          <path class="cls-18" d="M19.87.88l-.08.54c-.07.07-.16.03-.25.02.04-.19.04-.39.08-.58.12-.11.23.02.25.02Z"/>
          <path class="cls-30" d="M18.77,6.42c-.02.09-.05.53-.1.56l-.61-.05c.01-.08-.04-.3.09-.63.19.03.46.03.62.12Z"/>
          <path class="cls-17" d="M20.92,3.48c-.11.78.24.76-1.66.41,0-.09.07-.61.11-.62l1.55.22Z"/>
          <g>
            <path class="cls-44" d="M22.09,5.35c-.02.1-.07.64-.11.66l-1.15-.16-.22.79-.89-.11q-.1.63-.2,1.27c-.27-.07-.55-.05-.82-.08-.24-.03-.51-.11-.76-.14,0-.22.09-.44.13-.66l.61.05s.08-.47.1-.56c.02-.11.14-.77.2-.79,1.31.3.72-.19.96-.26.1-.03.48.13.55.02.03-.04.01-.25.04-.28.09-.1.27.4.38-.96.26.04.56.04.62.14l-.12.96c.23.04.45.06.68.09Z"/>
            <path class="cls-44" d="M19.95,5.76l.73.1-.07.65-.76-.05.1-.7Z"/>
          </g>
        </g>
      </g>
      <g>
        <path class="cls-27" d="M18.7,7.72c-.03.24-.07.49-.1.73-.24-.04-.49-.07-.73-.1-.01,0-.02,0-.03,0,.01-.31.15-.67.07-.77.01,0,.02,0,.03,0,.25.04.52.11.76.14Z"/>
        <path class="cls-16" d="M17.9,7.58c.08.1-.06.46-.07.77-.31-.04-.62-.06-.93-.09-.03,0,0-.07-.04-.08,0-.29.13-.69.14-.73.3.04.6.08.91.13Z"/>
      </g>
      <path class="cls-32" d="M16.99,6.95c0-.18-.02-.14-.02-.14,0-.01,0-.02,0-.03.61-.12.36.63.32.65-.01,0-.33-.01-.33-.03,0-.02.03-.36.03-.44Z"/>
      <path class="cls-1" d="M19.83,12.61l.08-.56c.06.01.29.02.31.06-.18.33.07.63-.39.5Z"/>
      <path class="cls-58" d="M18.59,11.58c-.08.2-.05.62-.08.84-.02.15-.12.32-.1.48-.6-.05-1.18-.17-1.78-.21-.22-.07.07-.56-.07-.65-1.1-.21-1.22,0-1.04-.86l3.07.39Z"/>
      <path class="cls-38" d="M29.53,12.36l-.11.8c-.2-.03-.66-.05-.69-.15l.09-.68s.04-.03.07-.03c.21.03.42.03.63.05Z"/>
      <g>
        <path class="cls-45" d="M28.4,15.12c-.04.23-.06.47-.1.7h-.03c.05-.13-.34-.1-.67-.17l.07-.61s.63.07.73.08Z"/>
        <path class="cls-55" d="M28.27,15.81h.03c-.03.17-.03.34-.09.49-.08.04-.6-.12-.71-.13.02-.08.03-.43.08-.45.03-.02.55.09.68.09Z"/>
      </g>
      <path class="cls-7" d="M15.92,8.83l-.23,1.67c-.26-.05-.55-.04-.8-.15.07-.52.15-1.05.22-1.57.25.03.53,0,.78.04.01,0,.02,0,.03,0Z"/>
      <path class="cls-2" d="M17.83,8.35s.02,0,.03,0l-.13.69c-.61-.07-1.21-.15-1.82-.22-.01,0-.02,0-.03,0l.15-.69c.27.03.53.08.8.11.03,0,.02-.07.03-.07.05,0,.02.07.04.08.31.03.62.05.93.09Z"/>
      <g>
        <path class="cls-49" d="M10.27,4.45l-.89-.12c-.1.05-.07.24-.11.41-.13.05-.28,0-.42-.02-.38-.14-.41,0-.33-.47.25.03.5.06.74.14l.13-.44.9.16s-.03.29-.03.35Z"/>
        <path class="cls-2" d="M8.52,4.24c-.09.48-.06.33.33.47-.45-.04-.37.02-.39.02-.29-.03-.6-.14-.9-.16-.1-.64.21-.42.97-.33Z"/>
      </g>
      <g>
        <path class="cls-28" d="M2.4,3.6c.08.13-.11.57,0,.64.05.03.58.05.72.06.35.02.7.12,1.04.18-.06.26-.02.4-.02.42-.01.1-.16.57-.12.64.2.06.42.07.62.11.03,0,.07,0,.1.01l-.13.67s.59.1.69.11c.01,0,.02,0,.03,0-.06.06-.04.12-.05.13,0,0-.06-.02-.07,0-.04.11-.05.58-.1.61l-1.6-.22-.16.76c-.59-.08-1.19-.16-1.78-.25.04-.25.1-.51.14-.76.28.04.56.08.84.12.12.02.88.14.91.11l.15-1.08-.79-.16c.01-.16.08-.32,0-.39l-.89-.12c.04-.3.05-.61.09-.91.03-.23.08-.45.06-.68.08-.09.21,0,.32,0Z"/>
        <path class="cls-45" d="M5.4,5.76q-.05.35-.1.7c-.1-.02-.67-.08-.69-.11l.13-.67c.22.04.44.07.66.09Z"/>
        <path class="cls-19" d="M2.81,5.72c-.03.36-.13,1.21-.27,1.14-.28-.04-.56-.08-.84-.12.08-.51.14-1.02.21-1.53l.89.12c.08.07.01.23,0,.39Z"/>
        <path class="cls-45" d="M5.28,6.6c-.04.21-.05.42-.09.63-.05.27-.11.53-.15.8-.38-.06-.76-.14-1.15-.2-.19-.03-.37-.05-.56-.08l.16-.76,1.6.22c.06-.03.06-.49.1-.61,0-.03.07,0,.07,0Z"/>
        <path class="cls-13" d="M2.55,6.85c.13.08.23-.77.27-1.14l.79.16-.15,1.08s-.79-.09-.91-.11Z"/>
      </g>
      <path class="cls-5" d="M18.59,11.58l-3.07-.39-.7-.1c.02-.21.03-.42.05-.63,0-.03.01-.07.01-.1.25.11.53.1.8.15.91.16,1.75.2,2.66.3.11.01.85.1.87.14,0,1.08-.48.31-.62.64Z"/>
      <path class="cls-27" d="M13.66,9.47l-.78-.11c-.09-.05.03-.52.05-.74l.89.12c0,.55-.15.69-.15.72Z"/>
      <path class="cls-27" d="M9.18,5.4c-.24,0-.5-.09-.75-.1l.03-.56s-.06-.06.39-.02c.14.01.29.07.42.02-.04.22-.05.44-.09.66Z"/>
      <path class="cls-25" d="M18.5,9.12s.05,0,.07,0l-.14,1.01-.09.66c-.91-.1-1.75-.14-2.66-.3l.23-1.67c.61.07,1.21.15,1.82.22.26.03.52.04.77.07Z"/>
      <path class="cls-68" d="M20,11.39c-.24-.04-.68-.02-.45-.36.04-.07.42-.06.45-.03.01.01,0,.33,0,.39Z"/>
      <path class="cls-67" d="M18.6,8.45c-.03.23.02.43-.09.66-.25-.03-.51-.04-.77-.07l.13-.69c.24.03.49.06.73.1Z"/>
    </g>
  </g>
</svg>