<?xml version="1.0" encoding="UTF-8"?>
<svg id="Layer_2" data-name="Layer 2" xmlns="http://www.w3.org/2000/svg" xmlns:xlink="http://www.w3.org/1999/xlink" viewBox="0 0 29.65 26.68">
  <defs>
    <style>
      .cls-1 {
        fill: #5a177f;
      }

      .cls-1, .cls-2, .cls-3, .cls-4, .cls-5, .cls-6, .cls-7, .cls-8, .cls-9, .cls-10, .cls-11, .cls-12, .cls-13, .cls-14, .cls-15, .cls-16, .cls-17, .cls-18, .cls-19, .cls-20, .cls-21, .cls-22, .cls-23, .cls-24, .cls-25, .cls-26, .cls-27, .cls-28, .cls-29, .cls-30, .cls-31, .cls-32, .cls-33, .cls-34, .cls-35, .cls-36, .cls-37, .cls-38, .cls-39, .cls-40, .cls-41, .cls-42, .cls-43, .cls-44, .cls-45, .cls-46, .cls-47, .cls-48, .cls-49, .cls-50, .cls-51, .cls-52, .cls-53, .cls-54, .cls-55, .cls-56, .cls-57, .cls-58, .cls-59, .cls-60, .cls-61, .cls-62, .cls-63, .cls-64, .cls-65, .cls-66, .cls-67, .cls-68, .cls-69, .cls-70, .cls-71, .cls-72, .cls-73, .cls-74, .cls-75, .cls-76, .cls-77, .cls-78, .cls-79, .cls-80, .cls-81, .cls-82, .cls-83, .cls-84, .cls-85, .cls-86, .cls-87, .cls-88, .cls-89, .cls-90, .cls-91, .cls-92, .cls-93, .cls-94, .cls-95, .cls-96, .cls-97, .cls-98, .cls-99, .cls-100, .cls-101, .cls-102, .cls-103, .cls-104, .cls-105, .cls-106, .cls-107, .cls-108, .cls-109, .cls-110, .cls-111, .cls-112, .cls-113, .cls-114, .cls-115, .cls-116, .cls-117, .cls-118, .cls-119, .cls-120, .cls-121, .cls-122, .cls-123, .cls-124, .cls-125, .cls-126, .cls-127, .cls-128, .cls-129, .cls-130, .cls-131, .cls-132, .cls-133, .cls-134 {
        stroke-width: 0px;
      }

      .cls-2 {
        fill: #9441a8;
      }

      .cls-3 {
        fill: #9de048;
      }

      .cls-4 {
        fill: #c253b9;
      }

      .cls-5 {
        fill: #0d2543;
      }

      .cls-6 {
        fill: #c19acc;
      }

      .cls-7 {
        fill: #aff5e4;
      }

      .cls-8 {
        fill: #e6fe9f;
      }

      .cls-9 {
        fill: #44352a;
      }

      .cls-10 {
        fill: #4ca83e;
      }

      .cls-11 {
        fill: #030206;
      }

      .cls-12 {
        fill: #f4fcf8;
      }

      .cls-13 {
        fill: #d7dcf1;
      }

      .cls-14 {
        fill: #6a4ba9;
      }

      .cls-15 {
        fill: url(#linear-gradient);
      }

      .cls-16 {
        fill: #c59ce7;
      }

      .cls-17 {
        fill: #cc89e7;
      }

      .cls-18 {
        fill: #b3cf6d;
      }

      .cls-19 {
        fill: #d6ed66;
      }

      .cls-20 {
        fill: #222a9d;
      }

      .cls-21 {
        fill: #5a993f;
      }

      .cls-22 {
        fill: #121523;
      }

      .cls-23 {
        fill: #53352a;
      }

      .cls-24 {
        fill: #42c6a0;
      }

      .cls-25 {
        fill: #eeee82;
      }

      .cls-26 {
        fill: #112d6a;
      }

      .cls-27 {
        fill: #e8f3b3;
      }

      .cls-28 {
        fill: #21d4cf;
      }

      .cls-29 {
        fill: #024d69;
      }

      .cls-30 {
        fill: #2d8a46;
      }

      .cls-31 {
        fill: #5b8720;
      }

      .cls-32 {
        fill: #1774a5;
      }

      .cls-33 {
        fill: #c1c43a;
      }

      .cls-34 {
        fill: #431256;
      }

      .cls-35 {
        fill: #c8ccd3;
      }

      .cls-36 {
        fill: #ded0d9;
      }

      .cls-37 {
        fill: #ecf8e7;
      }

      .cls-38 {
        fill: #98c29a;
      }

      .cls-39 {
        fill: #271765;
      }

      .cls-40 {
        fill: #8e27b7;
      }

      .cls-41 {
        fill: #b6b7bc;
      }

      .cls-42 {
        fill: #b9a8e6;
      }

      .cls-43 {
        fill: #d0e7f6;
      }

      .cls-44 {
        fill: #57121e;
      }

      .cls-45 {
        fill: #c0268e;
      }

      .cls-46 {
        fill: #a3d5c6;
      }

      .cls-47 {
        fill: #14132e;
      }

      .cls-48 {
        fill: url(#linear-gradient-5);
      }

      .cls-49 {
        fill: #592cbf;
      }

      .cls-50 {
        fill: #8feabb;
      }

      .cls-51 {
        fill: #89c2ba;
      }

      .cls-52 {
        fill: #8db6cb;
      }

      .cls-53 {
        fill: #cc5421;
      }

      .cls-54 {
        fill: #093c45;
      }

      .cls-55 {
        fill: #73a2ec;
      }

      .cls-56 {
        fill: #e5ddf7;
      }

      .cls-57 {
        fill: #15d3df;
      }

      .cls-58 {
        fill: #8f0a58;
      }

      .cls-59 {
        fill: #cac467;
      }

      .cls-60 {
        fill: #b71671;
      }

      .cls-61 {
        fill: #136d62;
      }

      .cls-62 {
        fill: #cde1d6;
      }

      .cls-63 {
        fill: #9087c6;
      }

      .cls-64 {
        fill: #df8f6c;
      }

      .cls-65 {
        fill: #74d5d2;
      }

      .cls-66 {
        fill: #751aa8;
      }

      .cls-67 {
        fill: #270c37;
      }

      .cls-68 {
        fill: #e1faf7;
      }

      .cls-69 {
        fill: #400e40;
      }

      .cls-70 {
        fill: #650b48;
      }

      .cls-71 {
        fill: url(#linear-gradient-2);
      }

      .cls-72 {
        fill: #e4dc90;
      }

      .cls-73 {
        fill: #766997;
      }

      .cls-74 {
        fill: #8eb55a;
      }

      .cls-75 {
        fill: #5055c4;
      }

      .cls-76 {
        fill: #434243;
      }

      .cls-77 {
        fill: #891587;
      }

      .cls-78 {
        fill: #84e3cb;
      }

      .cls-79 {
        fill: #9088ec;
      }

      .cls-80 {
        fill: #0b51a4;
      }

      .cls-81 {
        fill: url(#linear-gradient-3);
      }

      .cls-82 {
        fill: #f3f5f8;
      }

      .cls-83 {
        fill: #77ad36;
      }

      .cls-84 {
        fill: #a481c4;
      }

      .cls-85 {
        fill: #dae2eb;
      }

      .cls-86 {
        fill: #094b38;
      }

      .cls-87 {
        fill: #41bbc6;
      }

      .cls-88 {
        fill: #cb84b7;
      }

      .cls-89 {
        fill: #6463d8;
      }

      .cls-90 {
        fill: #75093d;
      }

      .cls-91 {
        fill: #c8caf4;
      }

      .cls-92 {
        fill: #b7efb9;
      }

      .cls-93 {
        fill: #c1d1e1;
      }

      .cls-94 {
        fill: #b1cdf4;
      }

      .cls-95 {
        fill: #5a6caf;
      }

      .cls-96 {
        fill: #dc7b7d;
      }

      .cls-97 {
        fill: #b85ed8;
      }

      .cls-98 {
        fill: #7c58ac;
      }

      .cls-99 {
        fill: #a7d0cf;
      }

      .cls-100 {
        fill: #bb63a7;
      }

      .cls-101 {
        fill: #ddcf57;
      }

      .cls-102 {
        fill: #483e97;
      }

      .cls-103 {
        fill: #2d9f48;
      }

      .cls-104 {
        fill: #26c3fd;
      }

      .cls-105 {
        fill: #3d0828;
      }

      .cls-106 {
        fill: #eec872;
      }

      .cls-107 {
        fill: #c139a9;
      }

      .cls-108 {
        fill: #0f7556;
      }

      .cls-109 {
        fill: #a0b346;
      }

      .cls-110 {
        fill: #b025d5;
      }

      .cls-111 {
        fill: #e7e4ed;
      }

      .cls-112 {
        fill: #161544;
      }

      .cls-113 {
        fill: #250b4c;
      }

      .cls-114 {
        fill: #353941;
      }

      .cls-115 {
        fill: #468533;
      }

      .cls-116 {
        fill: #0dc58a;
      }

      .cls-117 {
        fill: #40995e;
      }

      .cls-118 {
        fill: #6c9ab0;
      }

      .cls-119 {
        fill: #91e0e5;
      }

      .cls-120 {
        fill: #94bf3b;
      }

      .cls-121 {
        fill: #62789d;
      }

      .cls-122 {
        fill: url(#linear-gradient-4);
      }

      .cls-123 {
        fill: #dcc9ff;
      }

      .cls-124 {
        fill: #bdb2dc;
      }

      .cls-125 {
        fill: #de86d4;
      }

      .cls-126 {
        fill: #51c84d;
      }

      .cls-127 {
        fill: #c7ecf6;
      }

      .cls-128 {
        fill: #5e0f5f;
      }

      .cls-129 {
        fill: #b421a9;
      }

      .cls-130 {
        fill: #d56ecb;
      }

      .cls-131 {
        fill: #3d117b;
      }

      .cls-132 {
        fill: #1e40b9;
      }

      .cls-133 {
        fill: #703997;
      }

      .cls-134 {
        fill: #989ea5;
      }
    </style>
    <linearGradient id="linear-gradient" x1="24.8" y1="9.41" x2="23.15" y2="16.81" gradientUnits="userSpaceOnUse">
      <stop offset="0" stop-color="#14112e"/>
      <stop offset="1" stop-color="#280f4a"/>
    </linearGradient>
    <linearGradient id="linear-gradient-2" x1="7.49" y1="6.46" x2="8.8" y2="6.48" gradientUnits="userSpaceOnUse">
      <stop offset="0" stop-color="#0e0f19"/>
      <stop offset="1" stop-color="#141238"/>
    </linearGradient>
    <linearGradient id="linear-gradient-3" x1="16.33" y1="3.42" x2="16.03" y2="6.38" gradientUnits="userSpaceOnUse">
      <stop offset="0" stop-color="#081a2b"/>
      <stop offset="1" stop-color="#161135"/>
    </linearGradient>
    <linearGradient id="linear-gradient-4" x1="5.23" y1="10.09" x2="4.15" y2="10.1" gradientUnits="userSpaceOnUse">
      <stop offset="0" stop-color="#1c1133"/>
      <stop offset="1" stop-color="#14101d"/>
    </linearGradient>
    <linearGradient id="linear-gradient-5" x1="12.48" y1="5.41" x2="13.34" y2="5.63" gradientUnits="userSpaceOnUse">
      <stop offset="0" stop-color="#1f114e"/>
      <stop offset="1" stop-color="#101333"/>
    </linearGradient>
  </defs>
  <g id="Layer_1-2" data-name="Layer 1">
    <g>
      <path class="cls-112" d="M10.18,8.59c.17.03,0,.05.13.07.11.95-.32.46-.42.6-.11.16.32.51-.52.46.07.81-.17.5-.23.59-.02.03.02.72,0,.85l-.9.02c-.07.03-.06.52-.05.54.1.15,2.81-.05,3.59-.05,0,.17-.06.42-.03.62v.03c-.19-.06-.42-.03-.62-.03-.22,0-1.78-.06-1.83.02-.14.23.4.39-.69.41-.76,0-1.51-.05-2.27-.03l-.05,1.03-.64.02c-.09.07-.04.28-.05.49-.02,0-.06,0-.07.02-.04.19.03,1.25,0,1.63l-.62.03v1.57c-.52.28-.82-.25-.82.47,0-.23,0-.47,0-.7-.19-.11-.41-.01-.46-.02-.22-.01-.4,0-.62,0-.16,0-.33,0-.49,0-.14,0-.28,0-.42,0-.47,0-.97.02-1.44,0-.33-.02-.21-.06-.23-.07v-.29c.03-.12-.03-.25-.03-.36,0-.95.07-1.9.03-2.84.02,0-.15-.03.39-.07.17-.01.34,0,.51,0,.03-.02,0-.07.02-.1.31.18.07,1.67.2,1.88.03.05.4.07.42,0,.01-.2-.02-.41,0-.6.13-.04.22,0,.29,0v1.06l.07.02c.8.1.36-.28.54-.36.02-.01.46-.03.54-.03.03,0,.18.09.59.02.03-.2-.03-.45-.03-.6,0-.11,0-.22,0-.33,0-.11,0-.22,0-.33h.77l.05-.75c.11,0,.23,0,.34,0,.03-.02.02-.24.02-.29.59.14.56-.54-.03-.39,0-.07-.01-.39,0-.41.03-.05.38,0,.42-.02.18-.1-.35-.5.67-.39.03,0,.01-.1.02-.1.17-.02.74.03.8,0,.08-.05.05-.18.05-.29.65-.04.36-.14.39-.33,0-.02.02-.03.03-.1.02-.14.04-.28.05-.42.19-.14.75.36.7-.49.07,0,.4.02.42-.02v-.57c.1,0,.44.1.49-.02.04-.57-.06-.51-.07-.54,0-.16.03-.35.03-.52.32.09.73-.02,1.05.03Z"/>
      <path class="cls-15" d="M18.94,7.97c.1,0,.18.03.26.03.26,0,.53.03.78.03-.04.25.1.29.1.31,0,.03-.11.04-.07.59.07.1.12.02.13.02.21.02.42-.03.62-.03.03,0,.27.27.29-.23.1-.04,0,.1.03.33-.06,0-.3-.02-.33.02l.02.54c.32,0,.64,0,.96,0-.14.1-.03.3-.03.33,0,.09-.07.45-.03.51.03.04.44,0,.52.02.05.03.1.19.1.2,0,.19-.03.39-.03.59,0,.18-.07.38-.03.57.04.1.36.02.52.05.05,0,.02.06.05.07.55.07.54-.03.57-.03,0,0,.02.06.05.07.2.01.41.02.6.03,0,.08,0,.15,0,.23-.03.32-.13.39.26.42.01.1-.02.26,0,.33.04.17.31.09.46.1-.03.18.03.38.03.56,0,.13-.08.49-.03.6.47.27.81-.27.72.59.71-.03-.2.88.92.65.05-.07-.03-.5-.03-.6.05,0,.07-.01.07.07-.03.19.02.37.03.56,0,.02-.09.29.02.42.23.02.44-.01.67-.03.07,0,.37.02.39-.02,0-.34.01-.69,0-1.03,0-.12-.02-.26-.03-.39,0-.15,0-.3,0-.44-.08,0-.16-.04-.23-.05v-1.13c-.29-.05-.59-.04-.88-.05-.16,0-.33,0-.49,0-.09,0-.18,0-.26,0-.04-.51.08-1.21-.07-1.63.07,0,.07-.03.1-.03.02,0-.09.1.29.07.23-.03.46.02.69.03v.83s.41.01.49.02c.16,0,.33-.01.49,0l-.03.74s.29,0,.36.02c.13.01.19,0,.2,0,.02.13-.27.02-.52.08-.06.77-.15.77.54.74l.02-.82.07.07v.74s.21.01.26.02c-.02.49.02.98.03,1.47,0,.18-.07.39-.03.57.77.2.52-.11.52-.6,0-.27,0-.53,0-.8l.07.69v-1.32c.07,0,.07.03.1.03v.65c.01.77-.02,1.54-.03,2.3,0,.02.07.04.07.05,0,.02-.03.03-.03.1-.37-.4-.73-.16-.51.42.45,0,.44.06.51-.29h.36s-.03.03-.03.07c-.2,0-.37-.07-.33.2,0,.02,0,.06-.02.07-.1.02-1.28,0-1.59,0-.13,0-.26,0-.39,0-.11,0-.22,0-.33,0-.44,0-.88,0-1.32,0-.09.04-.05,1.05-.05,1.21,0,.01,0,.02,0,.03h-.03q-.02-.42-.03-.83c-.23-.06-.54.05-.59-.08v-1.49s-.09,0-.13-.02c-.09-.38.01-1.52-.03-1.59-.02-.03-.45-.03-.52.02-.02-1.28.23-1.3-.75-1.27,0-.18.04-.52-.05-.56-.57,0-1.14.03-1.72.03-.04-.13-.24,0-.39-.08v-.83c.05,0,.2.02.23-.02v-.56l-.65-.02c0-.09-.02-.64-.03-.67-.09-.2-.54.29-.42-.56-1.02.11.08-.72-.9-.6l-.02-.64s-.27-.01-.33-.02c-.02-.15.02-.55,0-.6-.03-.07-.46-.1-.42.05,0,0-.09-.06.02-.13.07,0,.14,0,.21,0Z"/>
      <path class="cls-47" d="M24.14,9.11c.19,0,.37,0,.56,0,.09,0,.06.03.07.03v.77c1.08-.11.22.57.88.44q.02.36.03.72s-.03.03-.1.03c-.25,0-.28.03-.29.03,0,0,.02-.03-.07-.03-.21,0-.41,0-.62,0h-.56c.03-.34-.04-.68-.03-1.01,0-.12.03-.26.03-.39,0-.2.02-.39.03-.59.02,0,.04,0,.07,0Z"/>
      <path class="cls-47" d="M16.16.09c.01.12-.02.58,0,.6.03.04.44,0,.52.02,0,.02.1-.1.07.36-.2-.05.08-.46-.44-.26-.19.07-.29.34-.28.52h-.49c.09-.17,0-.31,0-.33,0-.1,0-.19,0-.29,0-.03.08-.35.02-.62h-1.54s-.01.5-.02.59c0,.14-.02.52,0,.59-.56.02-.56-.16-.59.42.04.1-.27.06-.59.07-.16,0-.33,0-.49,0-.02,0-.04,0-.07,0v-.36c-.09-.85.27-.33.52-.49.23.62-.29.9.57.82-.02-.23.17-.79-.08-.92l.03-.78c.65-.08,2.13.02,2.84.07Z"/>
      <path class="cls-112" d="M21.49,5.42s.08-.02.1.02c0,.18,0,.36,0,.54,0,.22-.03.47.03.69-.09,0-.2.02-.25-.03l-.08.08.05.8h.95l-.02-.85.07.07v.8s.36.01.42.02c.08,0,.15,0,.23,0-.11.18-.71,0-.75,0-.01,0-.02,0-.03,0-.11,0-.22,0-.33,0-.11,0-.22,0-.33,0-.13,0-.26,0-.39,0-.16.01-.33-.04-.39.05,0,.25,0,.49,0,.74,0,.01,0,.02,0,.03l-.67.03c-.02.28-.05.59.05.56,0,0-.06.09-.13-.02-.04-.55.07-.56.07-.59,0-.02-.14-.07-.1-.31,0,0-.02-.05.1-.03.01.15-.05.23.02.26.77.03.51-.02.54-.42.01-.18,0-.23,0-.33,0-.19.03-.39.03-.59,0-.16-.03-.34-.03-.49,0-.13,0-.26,0-.39,0-.17,0-.35,0-.52.04-.06.18-.13.2-.13.03,0,.62.02.65.03Z"/>
      <path class="cls-112" d="M3.52,11.17c.19,0,.4-.03.42.03,0,0-.07-.01-.07.02q0,.74.02,1.49c-.54.02-1.08-.03-1.62,0v-.33c.01-.21-.04-.39.07-.36.03.01.56.02.59-.05v-.74s-.01-.06.02-.07c.19,0,.38,0,.57,0Z"/>
      <path class="cls-47" d="M19.5,3.85c.06.01.13,0,.2,0,.27.03.66-.03.49.23-.34-.09-.2.26-.23.6.06.08.19.04.33.05.14,0,.3-.04.42-.03.03,0,.07,0,.1,0l.03.69s-.15.07-.2.13c.04-.1-.29-.06-.62-.07-.28,0-.57,0-.85,0-.02-.23-.04-.45-.03-.69,0-.15,0-.43,0-.46,0,0,.01.04.03-.13.06-.59.05-.09.33-.33Z"/>
      <path class="cls-71" d="M8.58,5.45c.16,0,.33,0,.49,0,0,.23.04.48.03.72-.12.01-.46-.02-.49,0-.1.06.05,1.18-.08,1.27l-1.27.03-.02-.78c.14,0,.28,0,.42,0,.18-.01.45.04.49-.05,0-.21,0-.43,0-.64,0-.17,0-.34,0-.51.06-.08.24-.04.42-.05Z"/>
      <path class="cls-68" d="M25.94,20.68c0,1.18.03,2.35,0,3.53h-.39c-.03-1.21,0-2.39,0-3.59.23.01.42-.04.39.07Z"/>
      <path class="cls-93" d="M13.32.03l-.03.78c-.07-.04-.6-.1-.49.1-.25.16-.62-.36-.52.49-.49.04-.49-.16-.52.39-.04,0-.09,0-.13,0-.1,0-.2.03-.29.03-.1,0-.66-.02-.69.02-.01.02,0,.39.02.41.03.02.55-.01.67,0,.03.2-.03.4-.03.59-.24-.03-.49.03-.72.03-.13,0-.29-.03-.42-.03-.07,0-.39.01-.41,0-.03-.02-.03-.28,0-.29.04-.03.75.02.88,0l-.05-.7c.06-.15.95-.06,1.13-.11-.02-.75.32-.38.42-.46.09-.06.07-.32.08-.34.09-.15.22.23.16-.65.91.03.58-.18.67-.25.03-.02.23,0,.28,0Z"/>
      <path class="cls-82" d="M.45,13.66c.04.95-.03,1.9-.03,2.84-.08-.03-.23-.02-.29-.03-.03,0-.08.02-.1-.02-.07-.12.05-2.43,0-2.81.23-.06.4.02.42.02Z"/>
      <path class="cls-82" d="M29.63,14.21c.02.49.03,2.03,0,2.4,0,.03-.07.01-.07.02h-.33s-.07-.03-.07-.05c.01-.77.05-1.54.03-2.3l.42-.07Z"/>
      <path class="cls-112" d="M23.42,7.61l.05.49h.57c.02.12.03.21.03.33.01.32-.05.61.07.69-.02,0-.04,0-.07,0-.6,0-1.2-.02-1.8-.03v-.03h1.09l.05-.67c-.08.08-.19.05-.29.05-.03-.29.06-.64-.03-.88.45.01.31.06.33.07Z"/>
      <path class="cls-46" d="M4.11,18.43c.02,1.47,0,2.94,0,4.41-.07.02-.32-.04-.36.05-.02.04-.02.81,0,.85.04.09.28.03.36.05,0,.54-.01,1.06-.03,1.6,0,.05,0,.11,0,.16,0,.15,0,.31,0,.46h-.52l.49-.08c.09-.9-.24-.46-.33-.59-.07-.11-.06-2.49.03-2.58.01-.01.24.11.29.03.13-.18-.13-4.04.03-4.4,0,0,0-.04.03-.03,0,.02,0,.04,0,.07Z"/>
      <path class="cls-92" d="M25.94,18.4c-.03.76,0,1.53,0,2.29.03-.11-.17-.05-.39-.07,0-.73-.04-1.46-.03-2.19,0-.01,0-.02,0-.03h.42Z"/>
      <path class="cls-47" d="M21.62,6.66c.12,0,.24,0,.36,0,.1,0,.2,0,.29,0l.02.85h-.95l-.05-.8.08-.08s.16.04.25.03Z"/>
      <path class="cls-69" d="M28.88,13.59c.08,0,.15,0,.23,0v1.32l-.07-.69c0,.27,0,.53,0,.8l-.49.03c-.01-.49-.06-.98-.03-1.47.12.01.24,0,.36,0Z"/>
      <path class="cls-93" d="M25.81,10.26c-.15-.02-.04.07-.16.1-.66.13.2-.55-.88-.44v-.77c.08,0,.66-.14.72-.02-.12,1.32.39.36.33,1.13Z"/>
      <path class="cls-82" d="M18.55,2.06c0,.09,0,.33-.1.36h-.46v-.64l-.59-.07v-.6c.09,0,.52-.02.54,0,.06.64-.15.65.56.62.08.06.04.19.05.33Z"/>
      <path class="cls-39" d="M23,7.55s.07,0,.1,0c.09.24,0,.59.03.88-.28,0-.57,0-.85,0l-.03-.88s.64.18.75,0Z"/>
      <path class="cls-5" d="M6.16,8.07c0,.32.06.65.03.98-.23,0-.46-.07-.69,0,0-.2-.04-.43-.03-.62.03-.53.08-.32.69-.36Z"/>
      <path class="cls-12" d="M26.88,17.19c0,.13-.52.04-.87.07-.03.02-.01.18-.02.23-.02.23-.05.68-.07.92h-.42c0-.16-.04-1.17.05-1.21.44,0,.88,0,1.32,0Z"/>
      <path class="cls-93" d="M19.01,2.74c0,.09-.05.18-.03.28.45.03.22.03.23.08h-.67l-.08-.69c.09-.03.1-.27.1-.36.22,0,.82-.1.62.31-.07.15-.13-.18-.16.38Z"/>
      <path class="cls-85" d="M2.93,11.24v.74c-.03.07-.56.06-.59.05,0,0-.03-.03-.03-.03-.06-.13.18-.35-.36-.29.05-.39.28-.1.36-.21.16-.22-.37-.28.57-.31.02,0,0,.07.05.07Z"/>
      <path class="cls-82" d="M4.33,9.11v.78c-.18.01-.36-.04-.42.05,0,.18,0,.36,0,.54h-.39c0-.12-.01-.51,0-.54.05-.1.35,0,.39-.07.02-.03-.02-.63,0-.75.03-.04.35,0,.42-.02Z"/>
      <path class="cls-82" d="M21.49,5.42s-.62-.04-.65-.03l-.03-.69c.1,0,.11-.03.13-.03,0,0-.01.06.02.07.09,0,.61-.02.64.02-.03.3.08.62-.1.67Z"/>
      <path class="cls-47" d="M17.41,1.11v.6l.59.07v.64c-.28-.2-.53-.06-.62-.07,0-.19,0-.38,0-.57-.04-.08-.4-.04-.59-.05-.24,0-.48,0-.72,0v-.33c.02.1.04.19.05.29l1.24-.03c-.01-.19-.03-.39-.02-.59.09,0,.06.03.07.03Z"/>
      <path class="cls-85" d="M27.15,12.02c-.08,0-.47.02-.49-.02v-.83s.38-.1.52.02l-.03.83Z"/>
      <path class="cls-112" d="M28.16,12.77s.02,0,.03,0l-.02.82c-.69.03-.6.03-.54-.74.26-.06.55.05.52-.08Z"/>
      <path class="cls-93" d="M17.34,1.07c-.18-.01-.51.02-.59,0,.03-.46-.07-.34-.07-.36,0-.02.06.05.07-.33.2.02.28-.03.29-.03.04,0,.34.04.36.08.04.55-.06.6-.07.64Z"/>
      <path class="cls-13" d="M10.58,2.87l.03.88s.12.03-.46.07v-.98c.13,0,.3.03.42.03Z"/>
      <path class="cls-124" d="M5.05,9.11s-.17-.02-.2.02v.75s-.44.01-.52.02v-.78c.24-.02.49-.03.72-.1v.1Z"/>
      <path class="cls-82" d="M24.69,9.11c-.19,0-.37,0-.56,0-.12-.07-.05-.37-.07-.69l.62.02v.67Z"/>
      <path class="cls-82" d="M7.21,6.73v.77c-.04.09-.31.04-.49.05.04-.8-.2-.96.49-.82Z"/>
      <path class="cls-85" d="M1.36,12.81c-.02.19.03.57,0,.69,0,.03.02.08-.02.1-.17,0-.34-.01-.51,0v-.77s.44-.01.52-.02Z"/>
      <path class="cls-35" d="M19.69,3.13s-.14-.07-.46,0c0-.04-.03-.03-.03-.03-.01-.05.22-.05-.23-.08-.02-.1.03-.18.03-.28.13-.03.92-.06.96-.03.02.02.03.36.02.38,0,.01-.25.05-.29.05Z"/>
      <path class="cls-85" d="M22.77,7.55c-.07,0-.4.02-.42-.02v-.8c.65-.31.37.33.42.82Z"/>
      <path class="cls-82" d="M16.75.09c0,.1,0,.2,0,.29,0,.37-.07.31-.07.33-.08-.01-.49.03-.52-.02-.02-.03.01-.49,0-.6.19.01.39-.01.59,0Z"/>
      <path class="cls-82" d="M9.11,4.8c0,.22-.03.44-.03.65-.16,0-.33,0-.49,0,.01-.12-.02-.61,0-.64.03-.04.44,0,.52-.02Z"/>
      <path class="cls-93" d="M19.69,3.13v.72c-.06,0-.14.01-.2,0-.07-.01-.22.03-.26-.05-.01-.22.02-.45,0-.67.32-.07.43,0,.46,0Z"/>
      <path class="cls-93" d="M8.16,6.01c0,.21,0,.43,0,.64-.04.09-.31.04-.49.05.01-.12-.02-.64,0-.67.03-.04.41,0,.49-.02Z"/>
      <path class="cls-82" d="M9.82,3.82c.03.83,0,.52-.56.59.01-.11-.02-.55,0-.57.02-.03.47-.01.56-.02Z"/>
      <path class="cls-82" d="M5.48,8.43c0,.19.04.42.03.62,0,.03-.03.03-.03.07-.14.01-.29-.02-.42,0v-.1c.01-.11-.02-.55,0-.57.03-.04.35,0,.42-.02Z"/>
      <path class="cls-82" d="M24.04,8.1h-.57l-.05-.49s.02-.07.05-.07c.58.03.26.01.38.18.03.04.16-.02.2.07.02.04-.01.22,0,.31Z"/>
      <g>
        <path class="cls-93" d="M29.27,17.22c-.2.05-.04.47-.11.65-.51-.02-1.04.03-1.55,0v-.69c.31,0,1.49.02,1.59,0,.02,0,.02-.04.02-.07,0,0,.07.07.07.1Z"/>
        <path class="cls-82" d="M27.6,17.19v.69c-.18-.01-.36.04-.42-.05-.01-.18,0-.36.03-.54,0-.03,0-.07,0-.1.13,0,.26,0,.39,0Z"/>
      </g>
      <path class="cls-82" d="M29.63,14.21l-.42.07v-.65s.33-.1.42.02c0,.19,0,.38,0,.57Z"/>
      <path class="cls-124" d="M3.91,10.49c0,.19,0,.38,0,.57,0,.03.07.01.07.02,0,.17-.03.12-.03.13-.03-.06-.24-.03-.42-.03,0-.23,0-.46,0-.69h.39Z"/>
      <path class="cls-85" d="M21.98,6.66c-.12,0-.24,0-.36,0-.06-.22-.03-.46-.03-.69.55-.04.36,0,.39.69Z"/>
      <g>
        <path class="cls-93" d="M4.07,26.01c6.01.02,12.03-.03,18.04,0,.08.16,0,.39.03.59-6.19-.04-12.39.04-18.58,0l-.02-.59h.52Z"/>
        <path class="cls-93" d="M24.56,26.04v.59c-.61,0-1.22-.03-1.83-.03v-.59c.61,0,1.22.02,1.83.03Z"/>
        <path class="cls-93" d="M24.99,26.63c-.11-.93.32-.39.56-.59,0,0,.03-.05.03-.07.53.14.52-.24.49.67-.11.08-.9-.02-1.08-.02Z"/>
        <path class="cls-85" d="M22.73,26.01v.59c-.19,0-.39,0-.59,0-.02-.2.05-.43-.03-.59.21,0,.41,0,.62,0Z"/>
        <path class="cls-82" d="M25.54,26.04c-.24.19-.67-.35-.56.59-.14,0-.28,0-.42,0v-.59c.33,0,.65,0,.98,0Z"/>
      </g>
      <path class="cls-82" d="M27.96,12.77c-.07,0-.33.02-.36-.02l.03-.74c.13,0,.27-.03.33.05v.7Z"/>
      <path class="cls-41" d="M25.81,10.26c-.03.18.15.09.2.18.02.03.04.64-.03.7-.38.03-.28-.06-.29-.07q-.02-.36-.03-.72c.12-.02.01-.12.16-.1Z"/>
      <path class="cls-51" d="M25.94,24.21c0,.22.02.42,0,.65l-.39-.03c0-.21,0-.41,0-.62h.39Z"/>
      <path class="cls-68" d="M25.94,24.87c-.02.23.1.72-.36.52,0,0-.04,0-.03-.03,0-.17,0-.35,0-.52l.39.03Z"/>
      <path class="cls-82" d="M20.18,4.08c.2.05.05.45.1.65-.13,0-.27.03-.33-.05.03-.34-.11-.7.23-.6Z"/>
      <g>
        <path class="cls-82" d="M4.11,17.94c0,.14,0,.28,0,.42-.04,0-.03.02-.03.03-.63.07-.38-.07-.42-.92v-.26c.05,0,.27-.1.46.02,0,.23,0,.47,0,.7Z"/>
        <g>
          <path class="cls-93" d="M2.54,17.22v.65c-.44.02-.87.05-1.31.03l.02-.65.87-.03c.14,0,.28,0,.42,0Z"/>
          <path class="cls-93" d="M2.11,17.22l-.87.03-.02.65c-.18,0-.52.04-.56-.05v-.64c.47.02.97,0,1.44,0Z"/>
          <path class="cls-82" d="M3.03,17.22c-.04.07,0,.16,0,.26,0,.08.03.39-.05.42-.23.03-.42-.03-.44-.03v-.65c.16,0,.33,0,.49,0Z"/>
        </g>
        <path class="cls-93" d="M3.65,17.22v.26h-.62c0-.1-.04-.19,0-.26.22,0,.4-.01.62,0Z"/>
      </g>
      <g>
        <path class="cls-85" d="M28.88,12.81v.78c-.12,0-.24.01-.36,0-.05,0-.24.02-.26-.02v-.74c.16-.04.46-.05.62-.03Z"/>
        <path class="cls-41" d="M28.88,13.56v-.75c.05,0,.17-.02.2.02-.06.45.13.82-.2.74Z"/>
      </g>
      <path class="cls-82" d="M2.28,12.38v.33s.1.1-.36.07c0-.41-.07-.41.36-.39Z"/>
      <path class="cls-82" d="M20.94,4.67s-.03.04-.13.03c-.03,0-.07,0-.1,0,0-.93.28-.94.23-.03Z"/>
      <path class="cls-134" d="M.41,16.5c0,.11.07.24.03.36H.12s-.08.03,0-.39c.06.02.21,0,.29.03Z"/>
      <path class="cls-82" d="M.45,16.86v.29s-.11.06-.34.03c-.06-.23.02-.31.02-.33h.33Z"/>
      <path class="cls-93" d="M2.31,11.99c-.33.07-.41.07-.36-.29.54-.06.3.16.36.29Z"/>
      <path class="cls-82" d="M29.53,16.93s.07.16.03.25c-.04.09-.22.03-.29.05,0-.03-.06-.09-.07-.1-.04-.27.13-.19.33-.2Z"/>
      <path class="cls-41" d="M17.05.36s-.09.06-.29.03c0-.1,0-.2,0-.29.25.02.32-.08.29.26Z"/>
      <path class="cls-114" d="M29.56,16.63c0,.07.01.16,0,.23h-.36s0-.09,0-.13c0-.07.03-.07.03-.1h.33Z"/>
      <path class="cls-82" d="M9.79,5.42c-.04.16-.03.32-.03.49,0,.18,0,.36,0,.54.14.02.28.04.42.05v.95c-.08.14-.58.01-.67.1-.07.06.02.19.02.2,0,.08-.08.15,0,.26-.14.01-.28.05-.42.05-.04.06.03.42.03.51,0,.17-.04.36-.03.52-.13.01-.41-.02-.46,0,0-.22.01-.44,0-.65,0-.1,0-.21,0-.31-.03-.04-.15,0-.2-.02v-.59c.23,0,.46-.02.69-.03.18,0,.35.07.52-.02v-.95c-.05-.08-.13-.04-.2-.05-.01-.07.03-.22-.03-.26-.02-.01-.17,0-.26,0-.02-.25-.05-.49-.03-.74.04-.08.47-.04.65-.05Z"/>
      <path class="cls-47" d="M13.06,6.57c-.31.2-.62-.18-.6.42-.64-.06-.4.08-.44.9l-.57-.02c-.09.03.06.59-.07.65-.34.16-.14-.44-.26-.49-.43-.19-.23.47-.28.54-.05.07-.48-.06-.52.08-.13-.02.04-.04-.13-.07.08-.19.01-.4,0-.59,0-.01.05,0,.03-.23.54.03.37-.03.39-.23.03-.2.03-.36.03-.56,0-.01,0-.02,0-.03.41,0,.83,0,1.24,0,.08,0,.51.02.54,0,.12-.08-.3-.5.64-.39Z"/>
      <path class="cls-34" d="M11.13,12.28c.01.07-.02.36.02.39.02.02.51,0,.6,0,.26,0,.52,0,.78,0v.03c-.26,0-.53-.03-.78.03-1.05.02-2.09-.02-3.14-.03,1.09-.02.55-.18.69-.41.05-.08,1.61-.02,1.83-.02Z"/>
      <path class="cls-82" d="M5.54,11.08s.06.12.07.16c0,.06-.02.3.02.33h.6c0,.1,0,.2,0,.29,0,0,.01.09-.02.1-1.02-.11-.49.29-.67.39-.39-.11-.45.13-.49-.33-.03-.31.02-.63,0-.95h.49Z"/>
      <path class="cls-66" d="M7.93,9.64c-.02.29.05.59-.07.56-.06,0-.34-.01-.36.02v.93c0,.07-.03.07-.03.1h-.36c-.06-.55.03-.6.03-.64,0-.33-.1-.5.03-.67l.05-.29c.23,0,.47,0,.7,0Z"/>
      <path class="cls-82" d="M5.05,12.02c.04.45.1.22.49.33-.05.02-.39-.03-.42.02-.01.02,0,.34,0,.41,0,.09-.03.06-.03.07-.74,0-.67-.13-.65.62-.14,0-.36-.02-.46,0,.02-.32-.06-.71.07-.69.2,0,.4.04.46-.05v-.6s.07-.09.1-.1c.07-.02.33.02.46,0Z"/>
      <path class="cls-39" d="M4.43,13.46c.12,0,.24,0,.36,0l-.05.75h-.77s-.03.01-.03-.03c0-.23,0-.46,0-.69.04,0,.03-.03.03-.03.1-.02.32,0,.46,0Z"/>
      <path class="cls-129" d="M10.18,8c.01.19.08.39,0,.59-.31-.05-.72.06-1.05-.03,0-.08-.08-.45-.03-.51.14,0,.29-.04.42-.05.22-.02.44.01.65,0Z"/>
      <path class="cls-129" d="M7.05,11.24c0,.1.03.24.03.33,0,.12.03.24-.05.29-.06.03-.63-.02-.8,0,0-.1,0-.2,0-.29,0-.11-.02-.23.03-.33.26,0,.52,0,.78,0Z"/>
      <path class="cls-40" d="M5.09,12.84s.06.28.07.33c0,.05.01.27-.02.29-.11,0-.23,0-.34,0-.12,0-.24,0-.36,0-.01-.76-.09-.61.65-.62Z"/>
      <path class="cls-131" d="M8.62,9.64s.04,0,.07,0v.57s-.36.02-.42.02c-.13,0-.27-.03-.39-.03.12.03.05-.26.07-.56.23,0,.46,0,.69,0Z"/>
      <path class="cls-112" d="M7.86,10.19c.12,0,.26.03.39.03.05.85-.51.35-.7.49,0,.14-.03.28-.05.42v-.93s.3-.02.36-.02Z"/>
      <path class="cls-66" d="M9.11,9.08s.1-.03.07.54c-.05.11-.39.02-.49.02-.02,0-.04,0-.07,0v-.52s.03-.03.03-.03c.04-.02.33.01.46,0Z"/>
      <path class="cls-128" d="M12.54,12.68c-.26,0-.52,0-.78,0v-.39c.56.09.87-.24.78.39Z"/>
      <g>
        <path class="cls-112" d="M3.94,11.21c-.03.28.03.57.03.85,0,.17-.07.47-.03.69-.09,0-.06.03-.07.03-.14,0-.28,0-.42,0-.21,0-.42-.01-.62,0-.15,0-.29,0-.44,0-.02.17-.05,1.26-.02,1.32.03.06.33.04.34.05.03.02.02.24.02.29,0,.11,0,.22,0,.33-.05,0-.41.04-.42.08l.03,1-.07-.02v-1.06c.12,0,.29-.05.42-.05,0-.06,0-.51-.03-.52-.42-.21-.31.29-.36.33-.16.13-.28-.2-.33.25-.02.2.01.41,0,.6-.03.07-.4.05-.42,0-.12-.21.11-1.7-.2-1.88.03-.12-.02-.5,0-.69.18-.01.37-.06.56-.03.46.03.34-.06.36-.07.54-.03,1.08.02,1.62,0q0-.74-.02-1.49s.07-.01.07-.02Z"/>
        <path class="cls-22" d="M2.28,14.77c-.07,0-.17-.04-.29,0,.04-.45.17-.12.33-.25.05-.04-.06-.54.36-.33.03.01.04.46.03.52-.13,0-.3.04-.42.05Z"/>
      </g>
      <path class="cls-131" d="M11.75,12.32v.36c-.09,0-.58.02-.6,0-.04-.03,0-.32-.02-.39.2,0,.43-.03.62.03Z"/>
      <path class="cls-97" d="M5.15,13.17s-.07-.29-.07-.33c0,0,.03.02.03-.07.59-.14.62.53.03.39Z"/>
      <path class="cls-39" d="M7.11,11.24h.36c-.03.18.26.29-.39.33,0-.09-.03-.23-.03-.33h.07Z"/>
      <path class="cls-81" d="M15.45,3.23c.02.09-.03.49.02.52.19,0,.38,0,.57,0,.17,0,.35,0,.52,0-.09,1.03.23.53.41.65.05.03-.02.36.03.39.02.01.36,0,.44,0,.09,0,.06.03.07.03-.02.21.02.41.03.62,0,.08-.02.46.02.49.25,0,.49,0,.74,0v.52s-.25.04-.26.05c-.02.02.01.44.03.46.07.06.51-.05.56.07-.1.82.28.24.33.93-.07,0-.14,0-.21,0-.1.07-.02.12-.02.13-.01.18.01.37,0,.56-.05,0-.17.02-.2-.02.08-.97-.17-.51-.29-.69-.01-.02.02-.46,0-.49-.1-.14-.58.32-.46-.52-.05-.11-.38-.02-.39-.03-.04-.07.06-.46-.05-.51-.85.13-.38-.39-.52-.49-.19-.13-.62.38-.51-.6-.84-.05-.35-.24-.49-.56-.08-.18-.43.24-.38-.47-.91.15.02-.72-.9-.47l-.02.74c-1.03-.13-.17.49-.77.6.13.91-.39.27-.69.6,0,0-.09-.06.02-.13,1.02.09.51-.23.64-.51.04-.09.19,0,.23-.1.02-.04-.03-.8-.03-.93,0-.09,0-.17,0-.26,0-.23,0-.46,0-.69.96-.06.5-.13.64-.23.04-.03.36.04.52-.03.14.42.32.06.38.36Z"/>
      <path class="cls-43" d="M21.1,9.02c.15,0,.43.02.62.03.19,0,.37.03.56.03.6.02,1.2.03,1.8.03-.02.2-.03.39-.03.59-.11,0-.22,0-.33,0-.07,0-.26-.03-.29.05-.02.04.01.24,0,.34,0,0-.05.06-.1.07-.02,0-.29-.07-.42-.03,0-.13.04-.35-.07-.39-.19-.08-.37.07-.56.07,0-.1.03-.21-.05-.26-.16.04-.31.04-.47.03-.32,0-.64,0-.96,0l-.02-.54s.27-.02.33-.02Z"/>
      <path class="cls-60" d="M25.48,18.43h.03c0,.73.04,1.46.03,2.19,0,1.2-.03,2.39,0,3.59,0,.21,0,.41,0,.62,0,.17,0,.35,0,.52-.25.09-.51,0-.75,0v-.03l.69-.05q-.02-2.34-.03-4.67l-.62.02c0-.45,0-.89,0-1.34,0-.28.03-.57.03-.85h.62Z"/>
      <path class="cls-82" d="M25.22,11.99h.07c.01.24.07.49.07.74.02.03.24.01.29.02.09,0,.17,0,.26,0v.67l.52.02s.1,0,.07.47c.43,0,.4.08.42.08l.03.26s-.18,0-.23,0c-.1,0-.2,0-.29,0,0,0-.06-.02-.07-.05-.05-.25.15-.24-.41-.28-.06.04-.04.09-.08.1-.59.09-.35-.11-.39-.96l-.07-.02c-.2,0-.39,0-.59,0v-1.01s.15-.06.39-.03Z"/>
      <path class="cls-34" d="M20.25,11.7c.33,0,.68.07,1.01.03v.83c.15.09.35-.05.39.08-.01,0-.02,0-.03,0-.17,0-.35,0-.52,0-.48,0-.96,0-1.44,0-.05-.14.05.07.07-.16.02-.26-.02-.53,0-.78.17,0,.35,0,.52,0Z"/>
      <path class="cls-112" d="M25.87,14.02c.14.16.03.39.03.52,0,.45.03.24.46.29,0,.1.08.54.03.6-1.11.23-.2-.69-.92-.65.09-.86-.25-.32-.72-.59-.05-.11.03-.48.03-.6.22,0,.44-.01.64.07l-.02-.62.07.02c.04.85-.19,1.05.39.96Z"/>
      <path class="cls-112" d="M19.24,6.47c0,.2,0,.39,0,.59,0,.21-.04.43.05.49h.77s0,.03,0,.03c-.82.04-.9-.19-.85.42-.09,0-.16-.04-.26-.03-.04-.7-.43-.11-.33-.93-.05-.11-.49,0-.56-.07-.02-.02-.05-.44-.03-.46,0-.01.23-.05.26-.05.05,0,.65.01.95,0Z"/>
      <path class="cls-34" d="M24.73,16.01s.11-.02.13.02v1.49c-.08.03-.09.06-.1.07-.02,0-.12,0-.2,0-.51.01-.22-.17-.39-.26,0-.42,0-.85,0-1.27.14-.03.43-.06.56-.03Z"/>
      <path class="cls-91" d="M27.28,13.92c-.39-.06-.34.07-.36.07-.02,0,0-.08-.42-.08.04-.47-.06-.45-.07-.47-.03-.22.04-.46-.03-.69.29.01.59,0,.88.05v1.13Z"/>
      <path class="cls-13" d="M27.11,14.77c.13,0,.29.07.42.03.01.34,0,.69,0,1.03-.03.04-.32,0-.39.02-.02-.6-.2-.34-.69-.39-.01-.18-.06-.37-.03-.56l.05-.1c.16.02.23-.03.25-.03.02,0,.32,0,.39,0Z"/>
      <path class="cls-39" d="M24.73,16.01c-.12-.02-.42,0-.56.03,0-.23,0-.46,0-.69,0-.3,0-.61,0-.92.07-.05.5-.05.52-.02.05.06-.06,1.21.03,1.59Z"/>
      <path class="cls-13" d="M24.6,11.11c0,.27-.03.55-.03.82-.12.05-.37.04-.52.03-.2,0-.41-.02-.6-.03-.02,0-.04-.07-.05-.07v-.26l.57-.03c.09-.04.03-.22.05-.33.01-.09.03-.12.03-.13h.56Z"/>
      <path class="cls-97" d="M25.58,11.11c.15.42.03,1.12.07,1.63-.06,0-.27.02-.29-.02,0-.24-.05-.49-.07-.74-.01-.28.01-.57,0-.85.01,0,.04-.04.29-.03Z"/>
      <path class="cls-34" d="M25.48,18.43h-.62c0-.25-.03-.9-.1-.85,0,0,.01-.04.1-.07.05.13.36.02.59.08q.02.42.03.83Z"/>
      <path class="cls-20" d="M22.9,11.21c.16-.03.34.03.49.03v.62s-.02.1-.57.03c-.03,0,0-.06-.05-.07v-.59s.03-.03.03-.03h.1Z"/>
      <path class="cls-39" d="M24.83,13.04c.2,0,.39,0,.59,0l.02.62c-.19-.08-.42-.06-.64-.07,0-.18-.07-.37-.03-.56.02,0,.04,0,.07,0Z"/>
      <path class="cls-40" d="M20.77,8.36c0,.1.03.21.03.29,0,.02-.08.09-.03.26-.2,0-.41.05-.62.03-.1.04-.07-.28-.05-.56l.67-.03Z"/>
      <path class="cls-29" d="M20.05,7.58c0,.07.02.16.03.26,0,.05,0,.11,0,.16-.11-.02-.09.03-.1.03-.26,0-.52-.03-.78-.03-.06-.62.03-.39.85-.42Z"/>
      <path class="cls-16" d="M26.39,12.74c.07.22,0,.46.03.69l-.52-.02v-.67c.16,0,.33,0,.49,0Z"/>
      <path class="cls-131" d="M22.9,10.13c0,.17-.03.35-.03.52,0,.18-.03.39.03.56h-.1c.05-.06.25-.77-.49-.59,0-.01-.05-.17-.1-.2.03-.27.1-.28.1-.29.52-.01.55.12.52-.39.11.05.07.26.07.39Z"/>
      <path class="cls-128" d="M29.04,15.03c0,.49.25.81-.52.6-.04-.18.04-.4.03-.57l.49-.03Z"/>
      <path class="cls-40" d="M22.8,11.21s-.04,0-.03.03l-.49-.03c0-.19.03-.4.03-.59.74-.18.54.52.49.59Z"/>
      <path class="cls-80" d="M22.77,11.24v.59c-.16-.03-.48.05-.52-.05-.03-.19.03-.39.03-.57l.49.03Z"/>
      <path class="cls-112" d="M29.2,16.73s0,.09,0,.13c-.06.36-.06.29-.51.29-.23-.58.13-.83.51-.42Z"/>
      <path class="cls-77" d="M27.15,15.85c-.23.02-.44.05-.67.03-.11-.13-.02-.4-.02-.42.49.05.67-.21.69.39Z"/>
      <path class="cls-124" d="M24.83,12.02v1.01s-.04,0-.07,0c-.15,0-.41.07-.46-.1.36.13.27-.1.29-.36,0-.12,0-.24,0-.36,0-.08,0-.15,0-.23.22-.02.22.03.23.03Z"/>
      <path class="cls-131" d="M27.28,13.92c.07.01.15.05.23.05,0,.15,0,.3,0,.44-.4.1-.3-.06-.39-.13-.06-.04-.1-.02-.16-.03l-.03-.26s-.03-.13.36-.07Z"/>
      <path class="cls-40" d="M24.6,12.22c0,.12,0,.24,0,.36-.08.05-.2.04-.29.03-.39-.03-.29-.11-.26-.42l.56.03Z"/>
      <path class="cls-89" d="M26.72,14.25v.52s-.08.05-.25.03l-.05.1c0-.08-.01-.06-.07-.07,0-.11,0-.22,0-.33,0-.22.07-.24.07-.26.1,0,.2,0,.29,0Z"/>
      <g>
        <path class="cls-110" d="M22.28,10.09s.03-.01.03.03c0,.02-.07.03-.1.29-.08-.01-.49.03-.52-.02-.04-.06.03-.42.03-.51.36.04.51-.13.56.2Z"/>
        <path class="cls-131" d="M22.28,9.8c0,.1,0,.2,0,.29-.05-.33-.2-.16-.56-.2,0-.02-.11-.23.03-.33.16,0,.32.01.47-.03.08.05.05.16.05.26Z"/>
      </g>
      <path class="cls-113" d="M27.51,14.41c0,.13.03.27.03.39-.14.03-.29-.03-.42-.03v-.49c.09.07,0,.23.39.13Z"/>
      <path class="cls-16" d="M24.6,11.99c0,.08,0,.15,0,.23l-.56-.03c0-.07,0-.15,0-.23.15,0,.4.02.52-.03,0,0,.03-.02.03.07Z"/>
      <path class="cls-42" d="M24.3,12.94c-.02-.07.01-.23,0-.33.09,0,.21.01.29-.03-.02.26.07.49-.29.36Z"/>
      <path class="cls-90" d="M24.83,19.28c0,.45,0,.89,0,1.34,0,1.57-.02,3.14-.03,4.71v.03c-.05,0-.11,0-.16,0-.08-.6-.01-1.2,0-1.8.03-1.42,0-2.83,0-4.25.09,0,.12-.04.2-.03Z"/>
      <path class="cls-82" d="M15.54.72c0,.1,0,.19,0,.29-.13.02-.83-.03-.87,0-.02.02-.03.3-.02.31.03.04.76,0,.88.02h.49s.03.03.03.07v.95c-.03.42.07.31.07.33,0,.01-.13.22-.13.23h-.42c-.01-.3-.04-.61-.05-.92-.13.02-.85-.03-.88,0-.13.09.33.38-.69.29.11,1.09-.6.24-.44.82,0,0,.02.03-.07.03-.23.01-.47-.01-.7,0-.02.02-.03.5-.02.56,0,.03-.02.08.02.1l.7-.03s0,.05,0,.07c0,.01-.1.17-.13.16-.03,0-.52-.02-.54,0-.13.09.3.36-.51.36.02-.21,0-.39,0-.59,0-.2.06-.43.07-.62.36.05.42-.04.39-.41-.02-.39-.06-.31-.42-.31,0-.23-.07-.49.03-.65.16,0,.33,0,.49,0v.29c0,.1,0,.2,0,.29,0,.2-.38.5.57.42.12-.09.02-.34.02-.36,0-.16.03-.32.03-.49,0-.05,0-.11,0-.16h.62c.03.22.23.34.44.23.05-.02.27-.82-.41-.62-.08,0-.08-.03-.1-.1-.02-.07,0-.44,0-.59l1.54.03Z"/>
      <path class="cls-122" d="M5.05,9.11c.13-.02.29.01.42,0,0,.34.06.69.03,1.03l.07.02s-.05.06.02.23c.39-.03.52.12.54-.23.09.07,0,.25,0,.26l-.56.05c.03.21-.03.57-.03.6h-1.57s-.07.01-.07-.02c0-.19,0-.38,0-.57,0-.18,0-.36,0-.54.06-.09.25-.04.42-.05.08,0,.5.02.52-.02v-.75s.15-.01.2-.02Z"/>
      <path class="cls-112" d="M11.62,1.79c-.02.13.3.02.59.08.05.62.02,1.22,0,1.86-.05.07-.79-.02-.92-.02,0-.29,0-.59,0-.88,0-.19.06-.39.03-.59v-.42c.09,0,.19-.03.29-.03Z"/>
      <path class="cls-82" d="M11.3,3.82c-.06.86-.18,1.04.46.88,0,0,.06.12.07.13.06.53-.22.59.46.56,0,.02.04-.16.03.36-.17.01-1.03-.08-1.09-.03-.1.07.26.21-.57.23-.03,0-.34-.06-.59-.03v-.03c.09-.01.56.03.59-.02.05-.07.02-.49-.2-.44.27,0,.55.03.82-.05v-.59l-.56-.03v-.92c.38-.09.56-.01.59-.02Z"/>
      <path class="cls-82" d="M7.31,9.08c.22,0,.44,0,.65,0,.21,0,.45-.03.65.03v.52c-.23,0-.46,0-.69,0-.23,0-.47,0-.7,0l-.05.29h-.46c0-.17-.03-.19-.03-.2,0-.21.07-.44.03-.65.2,0,.39,0,.59,0Z"/>
      <path class="cls-68" d="M6.2,9.08c0,.22,0,.44,0,.65,0,.13-.01.26-.03.39-.03,0-.07,0-.07.03h-.52c-.03-.34.02-.69,0-1.03.21-.04.41-.04.62-.05Z"/>
      <path class="cls-22" d="M11.3,2.84c0,.29,0,.59,0,.88-.23,0-.46.02-.69.03l-.03-.88c.23,0,.48-.07.72-.03Z"/>
      <path class="cls-85" d="M7.93,7.51c.05.16.05.46.03.62,0,.09.02.18-.03.26-.22-.01-.44.03-.65-.05v-.78c.04-.09.44-.04.65-.05Z"/>
      <path class="cls-26" d="M9.11,6.17c0,.18,0,1.21-.05,1.24-.02.01-.43,0-.44-.02-.04-.05.03-1.06,0-1.23.03-.02.37.01.49,0Z"/>
      <path class="cls-129" d="M9.47,6.47c.07,0,.14-.03.2.05v.95c-.17.09-.34,0-.52.02.05-.75-.18-1.07.33-1.01Z"/>
      <path class="cls-62" d="M12.28,4.34c0,.08.01.39,0,.41-.05.07-.47-.06-.46.08,0,0-.06-.12-.07-.13-.02-.3.02-.61,0-.92.16,0,.4.03.52-.03,0,.2.02.38,0,.59Z"/>
      <g>
        <path class="cls-112" d="M6.49,7.55s.03.03.07.03v.77l.65.05s.07-.01.07.02c0,.2-.06.43-.05.64-.34,0-.69,0-1.03,0,.03-.33-.03-.66-.03-.98,0-.16,0-.32,0-.47.06-.08.19-.04.33-.05Z"/>
        <path class="cls-112" d="M7.21,8.4l-.65-.05v-.77c.1,0,.63-.02.65.02,0,.27,0,.53,0,.8Z"/>
      </g>
      <path class="cls-84" d="M11.75,3.79c.02.3-.02.62,0,.92-.64.15-.52-.03-.46-.88.15,0,.3-.03.46-.03Z"/>
      <path class="cls-131" d="M7.96,9.08c-.22,0-.44,0-.65,0-.1-.83-.06-.6.62-.69.01,0,.02,0,.03,0v.69Z"/>
      <path class="cls-99" d="M6.72,9.08c.03.22-.03.44-.03.65h-.49c0-.22,0-.44,0-.65.17,0,.35,0,.52,0Z"/>
      <g>
        <path class="cls-112" d="M12.34,1.76c-.1.16-.04.42-.03.65,0,.24.03.49.03.72,0,.19-.06.42-.07.62-.12.06-.36.03-.52.03-.16,0-.3.03-.46.03-.03,0-.21-.08-.59.02v.92l.56.03v.59c-.27.08-.54.04-.82.05-.13,0-.26,0-.39,0-.09,0-.17,0-.26,0-.19,0-.62-.04-.65.05-.02.25,0,.49.03.74,0,.01-.08.18-.02.23.04.03.37.07.28-.23.07.04.02.2.03.26-.51-.06-.28.27-.33,1.01-.23.01-.45.03-.69.03-.17,0-.34,0-.52,0-.21,0-.61-.04-.65.05v.78c.21.08.44.04.65.05-.68.09-.73-.14-.62.69-.2,0-.39,0-.59,0-.17,0-.35,0-.52,0-.21.01-.41.01-.62.05.02.34-.03.69,0,1.03l-.07-.02c.03-.34-.03-.69-.03-1.03,0-.03.03-.03.03-.07.23-.07.46,0,.69,0,.34,0,.69,0,1.03,0,0-.2.05-.44.05-.64,0-.03-.07-.01-.07-.02,0-.27,0-.53,0-.8-.02-.03-.56-.01-.65-.02-.04,0-.07.01-.07-.03.08,0,.15,0,.23,0,.18-.01.45.04.49-.05v-.77l.03-.03.02.78,1.27-.03c.13-.09-.02-1.22.08-1.27.03.17-.04,1.18,0,1.23.01.02.42.03.44.02.05-.04.04-1.07.05-1.24,0-.24-.04-.49-.03-.72,0-.21.03-.44.03-.65,0-.17-.05-.3-.03-.34.05-.08.13-.04.2-.05.56-.07.58.24.56-.59.11,0,.22,0,.33,0,.57-.03.43-.06.46-.07.23,0,.46-.02.69-.03.12,0,.86.09.92.02.02-.64.05-1.25,0-1.86-.28-.06-.61.05-.59-.08.04,0,.09,0,.13,0,.17,0,.35-.03.52-.03.02,0,.04,0,.07,0Z"/>
        <path class="cls-39" d="M10.69,4.8s.49,0,.51.02,0,.49-.02.51c-.09.07-.38,0-.51.02.01-.09-.03-.51.02-.54Z"/>
      </g>
      <path class="cls-31" d="M12.34,3.13c0-.23-.03-.48-.03-.72.37,0,.4-.08.42.31.02.37-.03.46-.39.41Z"/>
      <path class="cls-133" d="M8.45,7.51v.59c-.15-.04-.39-.08-.49.03.02-.17.01-.46-.03-.62.18,0,.35,0,.52,0Z"/>
      <path class="cls-82" d="M10.45,5.42c.21-.05.25.37.2.44-.03.04-.5,0-.59.02v-.46c.13,0,.26,0,.39,0Z"/>
      <path class="cls-82" d="M12.28,1.4v.36c-.17,0-.35.02-.52.03.04-.55.03-.36.52-.39Z"/>
      <path class="cls-119" d="M10.05,5.42v.49h-.29c0-.17-.01-.33.03-.49.09,0,.17,0,.26,0Z"/>
      <path class="cls-11" d="M9.43,6.21c.09.3-.24.26-.28.23-.07-.05.02-.22.02-.23.09,0,.24-.01.26,0Z"/>
      <path class="cls-127" d="M23.71,10.09c.1,0,.2,0,.29,0,0,.33.06.68.03,1.01,0,0-.02.04-.03.13-.18-.09-.5,0-.62,0-.15,0-.33-.07-.49-.03-.06-.16-.03-.38-.03-.56.49-.1.56.15.46-.49.05,0,.09-.07.1-.07.1,0,.2,0,.29,0Z"/>
      <path class="cls-63" d="M25.22,11.11v.88c-.24-.03-.37.03-.39.03-.01,0-.01-.05-.23-.03,0-.09-.03-.06-.03-.07,0-.26.03-.55.03-.82.21,0,.41,0,.62,0Z"/>
      <path class="cls-118" d="M24.04,9.7c0,.13-.03.27-.03.39-.1,0-.2,0-.29,0v-.39c.11,0,.22,0,.33,0Z"/>
      <path class="cls-123" d="M25.28,11.14c.01.28-.01.57,0,.85h-.07v-.88c.09,0,.06.03.07.03Z"/>
      <path class="cls-82" d="M4.53,11.08l.07.95s-.07.09-.1.1c.03-.11-.24-.05-.52-.07,0-.28-.07-.57-.03-.85,0,0,.03.04.03-.13h.56Z"/>
      <path class="cls-49" d="M4.5,12.12v.6c-.06.08-.26.04-.46.05,0,0,.03-.04-.1-.03-.03-.22.03-.51.03-.69.29.02.56-.05.52.07Z"/>
      <path class="cls-97" d="M15.54.72l-1.54-.03c0-.09-.02-.56.02-.59h1.54c.06.27-.02.59-.02.62Z"/>
      <path class="cls-112" d="M16.75,1.07c.08.02.41-.01.59,0-.02.19,0,.39.02.59l-1.24.03c-.01-.1-.03-.19-.05-.29,0-.03-.03-.04-.03-.07-.01-.18.09-.45.28-.52.52-.19.24.21.44.26Z"/>
      <path class="cls-112" d="M13.29.81c.25.13.06.69.08.92-.86.08-.34-.19-.57-.82-.11-.2.42-.13.49-.1Z"/>
      <path class="cls-100" d="M14.01,1.27c.01.06.01.11.1.1-.02.12-.05.28-.03.39h-.62c0-.08-.03-.06-.03-.07.03-.58.03-.4.59-.42Z"/>
      <path class="cls-102" d="M15.54,1.01s.09.16,0,.33c-.12-.02-.85.03-.88-.02,0-.01,0-.29.02-.31.04-.03.74.02.87,0Z"/>
      <path class="cls-79" d="M13.45,1.76c0,.05,0,.11,0,.16-.19.17-.39.13-.62.13v-.29c.32,0,.63.04.59-.07,0,0,.04-.02.03.07Z"/>
      <path class="cls-94" d="M20.64,5.52c0,.17,0,.35,0,.52-.27-.11-.25.32-.13.39-.17.03-.29.03-.46.03-.09,0-.06-.03-.07-.03.11-.44-.03-.4-.03-.42,0-.03.11-.01.07-.56.33,0,.66-.04.62.07Z"/>
      <path class="cls-85" d="M20.67,6.92c0,.2-.03.39-.03.59h-.59c0-.18,0-.37,0-.56.21,0,.42.03.62-.03Z"/>
      <path class="cls-43" d="M20.64,6.43c0,.15.03.33.03.49-.2.06-.41.03-.62.03-.01,0-.02,0-.03,0l.03-.49c.17,0,.29,0,.46-.03.04,0,.09,0,.13,0Z"/>
      <path class="cls-82" d="M20.64,7.84c-.03.4.23.46-.54.42-.07-.03,0-.11-.02-.26,0-.05,0-.11,0-.16h.56Z"/>
      <path class="cls-13" d="M20.64,7.51c0,.09.01.15,0,.33h-.56c0-.11-.03-.19-.03-.26,0,0,0,0,0-.03,0-.01,0-.02,0-.03h.59Z"/>
      <g>
        <path class="cls-49" d="M21.72,8.36v.69c-.19,0-.47-.03-.62-.03-.02-.23.07-.36-.03-.33v-.03s.03,0,.03,0c.03-.04.06-.24.07-.29.18.02.25-.03.26-.03.01,0,.18.07.29.03Z"/>
        <path class="cls-5" d="M21.07,8.66v.03c-.03.5-.27.23-.29.23-.05-.17.03-.24.03-.26.09-.02.18.04.26,0Z"/>
        <path class="cls-91" d="M22.28,8.43v.65c-.19,0-.37-.02-.56-.03v-.69s.1-.05.1-.07c.56.23.36-.13.39-.75.01,0,.02,0,.03,0l.03.88Z"/>
        <path class="cls-82" d="M21.17,7.55c-.02.26.03.57,0,.82,0,.06-.04.25-.07.29-.01-.06.02-.3-.02-.33-.02-.01-.23.01-.31,0,0-.25,0-.49,0-.74.06-.09.23-.04.39-.05Z"/>
        <path class="cls-91" d="M22.21,7.55c-.03.62.17.98-.39.75l.07-.75c.11,0,.22,0,.33,0Z"/>
        <path class="cls-82" d="M21.88,7.55l-.07.75s-.09.06-.1.07c-.12.04-.28-.03-.29-.03-.14-.57.21-.19.13-.78.11,0,.22,0,.33,0Z"/>
        <path class="cls-84" d="M21.56,7.55c.08.59-.27.22-.13.78-.01,0-.08.05-.26.03.03-.25-.02-.56,0-.82.13,0,.26,0,.39,0Z"/>
        <path class="cls-50" d="M21.1,8.66s-.02,0-.03,0c-.08.04-.17-.02-.26,0,0-.08-.03-.2-.03-.29,0-.01,0-.02,0-.03.08.01.29-.01.31,0,.04.03,0,.26.02.33Z"/>
      </g>
      <path class="cls-95" d="M20.64,6.04c0,.13,0,.26,0,.39-.04,0-.09,0-.13,0-.12-.07-.13-.5.13-.39Z"/>
      <path class="cls-112" d="M18,2.41h.46l.08.69h.67s.03-.01.03.03c.02.22-.01.45,0,.67.04.08.19.04.26.05-.28.23-.26-.26-.33.33-.02-.11.05-.32-.07-.36-.04-.02-.37,0-.49,0-.2,0-.39,0-.59,0h-.59v-.03c.07,0,.43.02.46-.02-.01-.11.02-.53,0-.56-.04-.05-.43.03-.52-.05-.01-.27,0-.55,0-.82.1,0,.34-.14.62.07Z"/>
      <path class="cls-82" d="M19.14,4.77c0,.24.02.45.03.69.02.26-.04.39-.03.41.39.35.46.09.54.08.07,0,.04.06.05.07-.09-.01-.06.04-.07.1-.61.15-.36-.14-.47-.2-.1-.04-.73.03-.9.03-.25,0-.49,0-.74,0-.04-.03-.01-.41-.02-.49.96-.16,1.11.38,1.05-.62.04,0,.12-.06.13-.07.14,0,.28,0,.42,0Z"/>
      <path class="cls-82" d="M18.62,3.82l.03.44c.13-.02.35.04.41.02.09-.04.03-.37.05-.46.12.04.05.25.07.36-.02.17-.03.12-.03.13-.46-.07-.68.06-.42.46,0,0-.09.06-.13.07-.16,0-.35-.03-.52-.03,0-.16,0-.33,0-.49,0-.16.02-.33-.03-.49.2,0,.39,0,.59,0Z"/>
      <path class="cls-43" d="M20.02,5.45c.04.54-.07.53-.07.56-.07,0-.16.01-.23,0,0,0,.03-.07-.05-.07-.08,0-.14.27-.54-.08,0-.02.05-.15.03-.41.28,0,.57,0,.85,0Z"/>
      <path class="cls-97" d="M19.14,4.31s0,.31,0,.46c-.14,0-.28,0-.42,0-.25-.39-.04-.52.42-.46Z"/>
      <path class="cls-82" d="M11.33,1.83v.42c-.12-.01-.64.02-.67,0-.02-.01-.03-.39-.02-.41.03-.04.59-.01.69-.02Z"/>
      <path class="cls-112" d="M22.28,9.05v-.62c.28,0,.57,0,.85,0,.1,0,.21.03.29-.05l-.05.67h-1.09Z"/>
      <path class="cls-12" d="M4.11,22.84c0,.32,0,.63,0,.95-.07-.02-.32.04-.36-.05-.02-.04-.02-.81,0-.85.04-.09.28-.03.36-.05Z"/>
      <path class="cls-6" d="M16.79,1.73v.62c-.24,0-.48,0-.72,0v-.62c.24,0,.48,0,.72,0Z"/>
      <path class="cls-82" d="M17.37,2.35c-.15,0-.29.03-.42.03-.01,0-.03-.03-.16-.03v-.62c.19,0,.55-.04.59.05,0,.19,0,.38,0,.57Z"/>
      <path class="cls-48" d="M13.06,5.75c-.02.27.01.55,0,.82-.93-.1-.52.31-.64.39-.03.02-.46,0-.54,0l.03-.69c.07,0,.4.02.42-.02.03-.16-.03-.35-.03-.51,0-.52-.03-.34-.03-.36,0-.09.07-.1.07-.11,0-.09-.08-.46-.03-.52.03-.05.38,0,.41-.02.08-.05-.22-.22.65-.16l.05-.42c.27-.02.52.05.49-.07,0,.13.05.89.03.93-.04.09-.19,0-.23.1-.13.27.39.6-.64.51-.1.07-.02.12-.02.13Z"/>
      <g>
        <path class="cls-70" d="M11.92,11.66s0,.06.02.07c.38.09,6.72-.02,7.75.03l.05.72c-.02.23-.11.02-.07.16-2.09,0-4.17-.01-6.26,0-.28,0-.59.06-.87.07v-.03c.08-.63-.22-.31-.78-.39-.03-.2.03-.45.03-.62.04,0,.09,0,.13,0Z"/>
        <path class="cls-44" d="M19.73,11.7c-.02.26.02.53,0,.78l-.05-.72c-1.03-.05-7.37.06-7.75-.03-.02,0-.02-.04-.02-.07,2.6,0,5.21.02,7.81.03Z"/>
      </g>
      <g>
        <path class="cls-34" d="M5.61,14.21c-.01.26,0,.52,0,.78-.01.83,0,1.66,0,2.48,0,2.26.07,4.52,0,6.78l.1.05c-.06,0-.16.04-.2.1.05-1.32.06-2.6.03-3.92,0-.15.04-1.18,0-1.23-.18,0-.4-.05-.42-.05-.05-.19.06-1.45.03-1.52-.03-.07-.26-.07-.29,0-.01.03-.03.62-.03.74h-.72s0-.04,0-.07c0-.14,0-.28,0-.42,0-.72.3-.2.82-.47v-1.57l.62-.03c.03-.38-.04-1.45,0-1.63,0-.02.04-.02.07-.02Z"/>
        <path class="cls-67" d="M5.12,19.21s-.11.09-.29,0c0-.24-.01-.55,0-.78,0-.11.02-.7.03-.74.03-.07.26-.07.29,0,.03.07-.09,1.33-.03,1.52Z"/>
      </g>
      <path class="cls-28" d="M10.05,5.91c.25-.03.56.03.59.03v.52c-.12.05-.32.04-.46.03-.14,0-.28-.02-.42-.05,0-.18,0-.36,0-.54h.29Z"/>
      <path class="cls-88" d="M8.65,8.43c.01.22,0,.44,0,.65,0,0,0,.04-.03.03-.2-.06-.44-.03-.65-.03v-.69c.23.01.46.01.69.03Z"/>
      <path class="cls-129" d="M10.64,6.99c0,.19,0,.36-.03.56h-.42v-.59l.46.03Z"/>
      <path class="cls-2" d="M8.45,8.1s.17-.02.2.02c0,.1,0,.21,0,.31-.23-.02-.46-.02-.69-.03-.01,0-.02,0-.03,0,.06-.08.02-.17.03-.26.1-.12.34-.07.49-.03Z"/>
      <path class="cls-20" d="M10.64,6.5c0,.15,0,.31,0,.46,0,.01,0,.02,0,.03l-.46-.03v-.46c.14,0,.33.02.46-.03v.03Z"/>
      <path class="cls-24" d="M10.18,7.74l.03.03c.02.22-.03.22-.03.23-.22.01-.44-.02-.65,0-.08-.11,0-.18,0-.26h.65Z"/>
      <path class="cls-7" d="M10.18,7.55v.2h-.65s-.08-.13-.02-.2c.09-.09.59.04.67-.1v.1Z"/>
      <path class="cls-112" d="M11.92,6.27l-.03.69c-.41,0-.83,0-1.24,0,0-.15,0-.31,0-.46.73.08.41-.21.54-.26.03-.01.62.04.74.03Z"/>
      <path class="cls-32" d="M10.61,7.55c-.03.2.15.25-.39.23l-.03-.03v-.2h.42Z"/>
      <path class="cls-17" d="M6.13,10.42s.03.04.03.23c0,.19,0,.37,0,.56-.03,0-.3.06-.56.03,0-.04-.06-.15-.07-.16,0-.03.07-.4.03-.6l.56-.05Z"/>
      <path class="cls-49" d="M5.05,11.08c.02.31-.03.64,0,.95-.13.02-.39-.02-.46,0l-.07-.95h.52Z"/>
      <path class="cls-39" d="M6.26,11.24c-.05.1-.03.22-.03.33h-.6s0-.26-.02-.33c.26.03.53-.03.56-.03,0,0-.03.03.1.03Z"/>
      <path class="cls-66" d="M7.18,9.93c-.13.17-.03.34-.03.67,0,.03-.1.09-.03.64h-.07s.07-.19.03-.28c-.04-.09-.24-.03-.36-.05-.18-.62.5.09.36-.7-.46,0-.34-.08-.36-.08,0-.07,0-.13,0-.2h.46Z"/>
      <path class="cls-82" d="M6.72,10.91c.12.02.32-.04.36.05.04.09-.03.26-.03.28-.26,0-.52,0-.78,0-.13,0-.09-.03-.1-.03,0-.19,0-.37,0-.56.65-.13.43.12.49.28.03.07.06-.02.07-.02Z"/>
      <g>
        <path class="cls-82" d="M3.97,14.54c0,.11,0,.22,0,.33l-.56.05v.54c-.08,0-.51.02-.54.03-.18.08.26.46-.54.36l-.03-1s.37-.08.42-.08c0,0-.04.03.16.03.02,0,.17.07.18.07.65,0,.99,0,.8-.33h.1Z"/>
        <path class="cls-1" d="M3.97,14.87c0,.15.06.41.03.6-.41.07-.56-.02-.59-.02v-.54l.56-.05Z"/>
        <path class="cls-124" d="M3.94,14.18s.03.03.03.03c0,.11,0,.22,0,.33h-.1c-.7.09-.29-.27-.52-.33,0-.04.04-.01.07-.07l.52.03Z"/>
        <path class="cls-82" d="M2.83,12.77c.01.12-.02.64,0,.67.03.04.14,0,.18.02.03,0,.01.07.02.07-.02.21.02.45,0,.65-.01.11.03.24-.13.29-.05.02-.12,0-.16-.03,0-.05.02-.27-.02-.29-.01-.01-.31.01-.34-.05-.03-.06,0-1.16.02-1.32.15,0,.29,0,.44,0Z"/>
        <path class="cls-13" d="M3.88,12.77c.1-.04.06.37.07.72,0,.23,0,.46,0,.69l-.52-.03c.1-.17,0-.5,0-.69,0-.22.07-.46.03-.69.14,0,.28,0,.42,0Z"/>
        <path class="cls-91" d="M3.45,12.77c.03.23-.03.46-.03.69-.39-.04-.37.07-.39.07,0,0,.01-.06-.02-.07-.04-.01-.15.02-.18-.02-.02-.03.01-.55,0-.67.21-.01.41,0,.62,0Z"/>
        <path class="cls-14" d="M2.9,14.47v.33c-.21,0-.16-.03-.16-.03,0-.11,0-.22,0-.33.05.03.11.05.16.03Z"/>
        <path class="cls-73" d="M3.94,12.74c.12,0,.09.03.1.03-.12-.02-.04.37-.07.69,0,0,0,.04-.03.03,0-.34.04-.75-.07-.72,0,0-.02-.03.07-.03Z"/>
        <path class="cls-56" d="M3.35,14.21c.23.06-.18.42.52.33.19.33-.15.33-.8.33,0,0-.16-.06-.18-.07v-.33c.16-.05.12-.19.13-.29.1.07.23,0,.33.03Z"/>
        <path class="cls-79" d="M3.42,13.46c0,.18.1.51,0,.69-.03.05-.06.02-.07.07-.1-.03-.23.04-.33-.03.02-.2-.02-.44,0-.65.02,0,0-.1.39-.07Z"/>
      </g>
      <path class="cls-1" d="M15.58,2.91c0,.09-.03.2,0,.29-.02,0-.05.05-.13.03-.06-.3-.23.07-.38-.36-.17.07-.49,0-.52.03-.14.1.32.17-.64.23-.02,0-.08-.05-.39-.03-.16-.58.55.28.44-.82,1.02.08.56-.21.69-.29.04-.03.75.02.88,0,0,.31.03.61.05.92Z"/>
      <path class="cls-129" d="M17.41,3.79s.02,0,.03,0v1.01c-.08,0-.42.01-.44,0-.05-.03.02-.36-.03-.39-.17-.12-.5.38-.41-.65.03,0,.03-.03.07-.03,0,0,.03.07.05.07.24,0,.49,0,.74,0Z"/>
      <path class="cls-129" d="M19.66,6.11c0,.1-.02.24.03.33-.01,0-.02,0-.03,0-.14,0-.28.03-.42.03-.3.01-.9,0-.95,0v-.52c.17,0,.8-.08.9-.03.12.05-.13.35.47.2Z"/>
      <path class="cls-66" d="M18.06,4.8c.17,0,.37.04.52.03.06,1-.08.46-1.05.62-.02-.21-.06-.41-.03-.62.17,0,.38-.03.56-.03Z"/>
      <path class="cls-56" d="M13.91,3.13c0,.23,0,.46,0,.69h-.46s0-.04,0-.07c0-.07,0-.16,0-.23,0-.13,0-.26,0-.39.09,0,.06-.03.07-.03.31-.02.37.03.39.03Z"/>
      <path class="cls-40" d="M16.03,3.23c0,.07.06.25,0,.52-.19,0-.38,0-.57,0-.04-.03,0-.44-.02-.52.08.02.11-.03.13-.03.14,0,.31.07.46.03Z"/>
      <path class="cls-39" d="M18.06,4.31c0,.16,0,.33,0,.49-.18,0-.39.04-.56.03,0,0,.02-.03-.07-.03v-.49h.62Z"/>
      <path class="cls-80" d="M16.62,3.72s-.03.03-.07.03c-.17,0-.35,0-.52,0,.06-.27,0-.45,0-.52,0-.01,0-.02,0-.03.17.08.53,0,.57.03.04.03,0,.41.02.49Z"/>
      <path class="cls-110" d="M13.45,3.82h.46c0,.09,0,.17,0,.26.03.11-.22.05-.49.07-.02-.06-.02-.14-.1-.16.03,0,.13-.15.13-.16Z"/>
      <path class="cls-132" d="M23.32,10.16c.11.64.03.39-.46.49,0-.18.03-.35.03-.52.13-.03.4.03.42.03Z"/>
      <path class="cls-46" d="M22.83,9.74c.03.51,0,.38-.52.39,0-.04-.03-.03-.03-.03,0-.1,0-.2,0-.29.18,0,.37-.14.56-.07Z"/>
      <path class="cls-52" d="M23.71,9.7v.39c-.1,0-.2,0-.29,0,.01-.11-.02-.31,0-.34.03-.08.22-.04.29-.05Z"/>
      <path class="cls-45" d="M24.79,25.32c0-1.57.03-3.14.03-4.71l.62-.02q.02,2.34.03,4.67l-.69.05Z"/>
      <path class="cls-67" d="M24.76,17.58c.07-.05.1.6.1.85,0,.28-.03.57-.03.85-.08,0-.11.04-.2.03-.08,0-.32-.09-.42,0h-.03s0-.02,0-.03c0-.44,0-.87,0-1.31.15.1.01,1.18.07,1.26.01.02.28.03.31.02.13-.06-.04-1.45.02-1.67.07,0,.17,0,.2,0Z"/>
      <path class="cls-75" d="M26.43,14.25s-.07.04-.07.26l-.46.03c0-.13.11-.36-.03-.52.04,0,.02-.06.08-.1.56.04.36.03.41.28,0,.03.07.04.07.05Z"/>
      <path class="cls-82" d="M26.95,14.25c.06,0,.1-.01.16.03v.49c-.07,0-.37,0-.39,0v-.52s.22,0,.23,0Z"/>
      <path class="cls-82" d="M26.36,14.51c0,.11,0,.22,0,.33-.42-.05-.45.16-.46-.29l.46-.03Z"/>
      <path class="cls-53" d="M20.02,6.96s.02,0,.03,0c0,.18,0,.37,0,.56,0,.01,0,.02,0,.03h-.77c-.09-.06-.04-.28-.05-.49,0-.08.29-.09.39-.1.13,0,.26,0,.39,0Z"/>
      <path class="cls-70" d="M19.66,6.43l-.03.52c-.1,0-.39.02-.39.1,0-.2,0-.39,0-.59.14,0,.29-.03.42-.03Z"/>
      <path class="cls-34" d="M24.56,17.58c-.05.21.12,1.61-.02,1.67-.03.01-.3,0-.31-.02-.05-.07.09-1.16-.07-1.26,0-.22,0-.44,0-.65.17.09-.12.28.39.26Z"/>
      <path class="cls-121" d="M24.01,11.24c-.02.11.04.29-.05.33l-.57.03v-.36c.12,0,.44-.09.62,0Z"/>
      <path class="cls-60" d="M24.63,19.31c0,1.42.03,2.83,0,4.25h-.46c0-.14,0-.28,0-.42,0-1,0-2,0-3.01l.03-.82c.1-.09.35,0,.42,0Z"/>
      <path class="cls-82" d="M16.82,2.68c.01.1-.02.48,0,.51.04.06.39-.03.56.05.01.18.11.36.03.56-.24,0-.49,0-.74,0-.02,0-.04-.07-.05-.07-.01-.08.03-.46-.02-.49-.04-.03-.4.05-.57-.03,0-.31-.03-.28-.03-.29,0-.01.13-.22.13-.23.2-.02.53.03.69,0Z"/>
      <path class="cls-1" d="M13.32,3.98c.08.02.08.1.1.16l-.05.42c-.87-.05-.58.11-.65.16-.03.02-.38-.03-.41.02-.04.06.03.43.03.52,0,.01-.07.03-.07.11-.68.04-.4-.02-.46-.56-.01-.14.41-.01.46-.08.01-.02,0-.33,0-.41.8,0,.38-.27.51-.36.02-.02.51,0,.54,0Z"/>
      <path class="cls-102" d="M14.07,1.76c-.02-.11.01-.27.03-.39.68-.2.45.6.41.62-.21.11-.41-.01-.44-.23Z"/>
      <path class="cls-98" d="M16.79,2.35c.13,0,.15.03.16.03,0,.08.01.25,0,.28-.02.03-.09,0-.13.02-.15.03-.49-.02-.69,0,0-.02-.1.09-.07-.33.24,0,.48,0,.72,0Z"/>
      <path class="cls-42" d="M13.42,2.41s.1.27-.02.36c-.95.08-.58-.22-.57-.42-.03.12.29.05.59.07Z"/>
      <path class="cls-102" d="M13.45,1.92c0,.17-.02.33-.03.49-.3-.02-.62.05-.59-.07,0-.1,0-.2,0-.29.24,0,.43.03.62-.13Z"/>
      <g>
        <path class="cls-89" d="M13.45,3.13c0,.13,0,.26,0,.39-.24-.04-.69-.14-.72.16-.01-.05,0-.54.02-.56.23-.01.47.01.7,0Z"/>
        <path class="cls-55" d="M13.45,3.53c0,.07,0,.16,0,.23l-.7.03s0-.07-.02-.1c.03-.3.48-.2.72-.16Z"/>
      </g>
      <path class="cls-22" d="M16,2.91s.04-.01.03.29c0,.01,0,.02,0,.03-.15.03-.31-.03-.46-.03-.03-.1,0-.2,0-.29h.42Z"/>
      <path class="cls-13" d="M6.72,10.13s-.1.08.36.08c.14.79-.54.08-.36.7,0,0-.04.08-.07.02-.06-.16.16-.41-.49-.28,0-.19-.03-.22-.03-.23,0-.01.09-.19,0-.26h-.03s.04-.04.07-.03c.24.05.35-.02.56,0Z"/>
      <path class="cls-39" d="M6.1,10.16h.03c-.02.35-.15.2-.54.23-.07-.17-.02-.22-.02-.23h.52Z"/>
      <path class="cls-129" d="M12.31,5.75c0,.16.06.34.03.51-.02.03-.36.01-.42.02-.11,0-.7-.05-.74-.03-.13.05.19.34-.54.26v-.56c.83-.02.47-.16.57-.23.06-.04.93.04,1.09.03Z"/>
      <path class="cls-85" d="M6.69,9.74s.03.03.03.2c0,.07,0,.13,0,.2-.21-.02-.32.05-.56,0,.02-.13.03-.26.03-.39h.49Z"/>
      <path class="cls-104" d="M19.99,6.43s-.02.03.07.03l-.03.49c-.13,0-.26,0-.39,0l.03-.52s.02,0,.03,0c.1,0,.2,0,.29,0Z"/>
      <path class="cls-39" d="M19.73,6.01c.07.01.16,0,.23,0,0,.02.15-.02.03.42-.1,0-.2,0-.29,0-.05-.09-.04-.22-.03-.33,0-.06-.02-.11.07-.1Z"/>
      <path class="cls-13" d="M17.37,2.35c0,.27-.01.55,0,.82,0,.02,0,.04,0,.07-.17-.08-.52,0-.56-.05-.02-.02.01-.4,0-.51.04,0,.11.02.13-.02.01-.02,0-.2,0-.28.14,0,.28-.04.42-.03Z"/>
      <path class="cls-93" d="M18.03,3.82c.05.16.03.33.03.49h-.62v-.49h.59Z"/>
      <path class="cls-43" d="M17.44,3.79s-.02,0-.03,0c.08-.19-.02-.37-.03-.56,0-.02,0-.04,0-.07.09.08.48,0,.52.05.02.03-.01.45,0,.56-.02.03-.39.01-.46.02Z"/>
      <path class="cls-13" d="M19.11,3.82c-.02.09.04.42-.05.46-.05.02-.28-.04-.41-.02l-.03-.44c.12,0,.45-.02.49,0Z"/>
      <g>
        <path class="cls-60" d="M5.12,19.21s.24.05.42.05c.04.05,0,1.08,0,1.23-.17,0-.35,0-.52,0-.1,0-.15-.03-.2,0,0-.42,0-.85,0-1.27.18.09.28,0,.29,0Z"/>
        <g>
          <path class="cls-60" d="M4.82,18.43c-.01.23,0,.54,0,.78,0,.42,0,.85,0,1.27,0,.21-.05,1.65.02,1.7,0,0,.16,0,.18-.02.05-.07.01-1.47,0-1.68.17,0,.35,0,.52,0,.03,1.33.02,2.6-.03,3.92-.01.33.04.66-.03.98-.47,0-.94,0-1.41,0,.02-.54.03-1.06.03-1.6,0-.32,0-.63,0-.95,0-1.47.02-2.94,0-4.41h.72Z"/>
          <path class="cls-60" d="M4.87,23.79l.6.05-.05,1.49-.57-.02.02-1.52Z"/>
        </g>
        <path class="cls-60" d="M5.02,20.49c.01.21.05,1.61,0,1.68-.02.02-.17.02-.18.02-.07-.05-.02-1.49-.02-1.7.05-.03.09,0,.2,0Z"/>
      </g>
      <g>
        <path class="cls-108" d="M18.71,8.66c.13.02.29,0,.42,0,.06,0,.3-.02.33.02l.02.64c.98-.12-.12.72.9.6-.12.84.34.36.42.56.01.03.03.58.03.67,0,.08.01.5-.02.52-.03.02-.58.04-.57-.1v-.41l-.07-.05c-.19.03-.37-.02-.56-.03.03-.33,0-.26-.39-.26-.02,0-.04,0-.07,0-.01-.11.02-.51,0-.54-.02-.03-.39-.01-.46-.02-.03,0-.07,0-.1,0-.01-.14.02-.33,0-.46,0-.06.02-.12-.05-.16-.28.08-.45,0-.47,0l-.05-.56c-.1-.05-.42.03-.54.03-.07,0-.13,0-.2,0,.11-.19.05-.39.07-.6-.06-.08-.16-.04-.26-.05-.01-.08.02-.43-.02-.46-.03-.02-.55.01-.67,0,0-.21.03-.43-.05-.49-.21-.03-.51.03-.54.03-.02,0-.03,0-.03,0-.18,0-.37-.03-.56-.03-.24,0-.48,0-.72,0-.18,0-.65-.04-.69.05-.04.45.03.91.03,1.36,0,.23-.07.48-.03.72h-.03c0-.19,0-.38,0-.57-.02-.03-.24-.02-.29-.02-.1,0-.21-.03-.26.05,0,.17,0,.34,0,.51l-.03-.57-.54-.02-.02.62s-.04,0-.07,0c-.19,0-.62-.04-.65.05,0,.21-.01.4.03.6-.38-.17-.2.41-.2.59,0,.25,0,.5,0,.75,0,.01,0,.02,0,.03-.78,0-3.49.2-3.59.05-.02-.02-.02-.51.05-.54l.9-.02c.02-.13-.02-.81,0-.85.06-.08.3.23.23-.59.85.05.41-.3.52-.46.11-.15.54.35.42-.6.04-.14.48-.01.52-.08.05-.07-.16-.73.28-.54.12.05-.07.65.26.49.13-.06-.02-.62.07-.65l.57.02c.04-.82-.2-.96.44-.9-.02-.6.29-.23.6-.42.01-.27-.02-.55,0-.82.3-.33.82.31.69-.6.6-.11-.26-.73.77-.6l.02-.74c.92-.24,0,.63.9.47-.05.71.3.29.38.47.14.32-.35.5.49.56-.12.99.32.47.51.6.15.1-.32.62.52.49.11.05.01.44.05.51,0,.02.34-.08.39.03-.12.84.36.38.46.52.02.03-.01.47,0,.49.12.18.37-.29.29.69.02.03.15.01.2.02Z"/>
        <path class="cls-61" d="M21.26,11.73c-.34.03-.68-.03-1.01-.03v-.13c-.01.14.55.12.57.1.03-.02.02-.45.02-.52l.65.02v.56s-.18.01-.23.02Z"/>
        <path class="cls-86" d="M19.14,8.66c-.14,0-.3.02-.42,0,.01-.18-.01-.37,0-.56-.03-.15.39-.12.42-.05.02.05-.02.46,0,.6Z"/>
        <g>
          <path class="cls-72" d="M17.5,9.11c.01.11-.02.51,0,.54.02.03.44.01.52.02,0,.09,0,.18,0,.26,0,.02-.07.14-.02.33.2,0,.4,0,.6,0,.03,0,.07,0,.1,0-.23.04-.1.35-.13.56-1.03,0-1.19.29-1.11-.51-.53-.19-.37.07-.39.49-.04.09-.36.04-.56.05-.11,0-.58-.02-.6,0-.05.03-.04.28-.07.29-.06.04-1.31.03-1.5.03-.85,0-.37-.19-.52-.29-.06-.04-1.26.03-1.45,0h-.1c.03-.11-.03-.31-.03-.33,0-.36.06-.29.36-.29.19,0,.39,0,.59,0,.18,0,.37-.03.54-.03,0,0,.08.07.11.07.65,0,1.3-.09,1.94,0,.12-.19.02-.49.02-.65.14,0,.35.06.54.03.09-.03.08-.46.08-.56.29,0,.59,0,.88,0,.07,0,.13,0,.2,0Z"/>
          <path class="cls-120" d="M16.52,10.85l.02.78h3.63l.02-.52.07.05v.54c-.17,0-.35,0-.52,0-2.6-.01-5.21-.04-7.81-.03-.04,0-.09,0-.13,0,0-.01,0-.02,0-.03l.59-.02v-.74c.19.03,1.39-.04,1.45,0,.15.11-.33.3.52.29.2,0,1.44.01,1.5-.03.03-.02.02-.27.07-.29.03-.02.49,0,.6,0Z"/>
          <path class="cls-120" d="M18.58,10.81c.2,0,.39,0,.59,0,.02,0,.04,0,.07,0-.07.45.13.25.39.26.18,0,.37.06.56.03l-.02.52h-3.63l-.02-.78c.19-.01.52.04.56-.05.02-.42-.14-.68.39-.49-.08.79.08.51,1.11.51Z"/>
          <path class="cls-83" d="M17.11,8.46c.1,0,.21-.03.26.05-.01.21.04.42-.07.6-.29,0-.59,0-.88,0,0-.2-.06-.41-.03-.62.01,0,.02,0,.03,0,.2,0,.54-.05.69-.03Z"/>
          <path class="cls-103" d="M12.6,9.64v.62c-.3,0-.35-.07-.36.29-.27.04-.22-.05-.26-.26-.04-.21-.03-.4-.03-.6.04-.08.47-.04.65-.05Z"/>
          <path class="cls-10" d="M12.28,10.88h.1v.74l-.59.02c0-.25,0-.5,0-.75h.49Z"/>
          <path class="cls-10" d="M12.67,9.64c.2,0,.39,0,.59,0,0,.33.04.66-.07.62-.19,0-.4,0-.59,0v-.62s.04,0,.07,0Z"/>
          <path class="cls-72" d="M13.81,9.64c0,.22-.1.46.03.65-.03,0-.11-.07-.11-.07-.17,0-.36.03-.54.03.11.04.06-.29.07-.62.08,0,.47.02.49-.02.04-.06.05-.7-.23-.57.05,0,.27-.01.29.02,0,.19,0,.38,0,.57Z"/>
          <path class="cls-30" d="M13.26,9.6s0,.02,0,.03c-.2,0-.39,0-.59,0l.02-.62.54.02.03.57Z"/>
          <path class="cls-83" d="M18.09,9.64s.02.03-.07.03c-.08,0-.5.02-.52-.02-.02-.03.01-.43,0-.54.12,0,.43-.08.54-.03l.05.56Z"/>
          <path class="cls-59" d="M19.17,10.81c-.2,0-.39,0-.59,0,.04-.21-.1-.52.13-.56.07,0,.43-.02.46.02.02.03-.01.43,0,.54Z"/>
          <path class="cls-30" d="M17.11,8.46c-.14-.01-.48.04-.69.03,0-.16,0-.33,0-.49.12.01.64-.02.67,0,.04.03,0,.38.02.46Z"/>
          <path class="cls-120" d="M13.52,9.05c.28-.13.27.51.23.57-.02.03-.41.01-.49.02,0-.01,0-.02,0-.03,0-.17,0-.34,0-.51.05-.08.16-.05.26-.05Z"/>
          <path class="cls-59" d="M11.98,10.29c.05.21,0,.31.26.26,0,.02.07.22.03.33h-.49c0-.18-.19-.76.2-.59Z"/>
          <path class="cls-83" d="M18.62,9.8c.02.13-.01.32,0,.46-.2,0-.4,0-.6,0-.06-.19.01-.31.02-.33.26-.01.4.07.59-.13Z"/>
          <path class="cls-18" d="M18.62,9.8c-.19.2-.33.12-.59.13,0-.09,0-.18,0-.26.08,0,.06-.03.07-.03.02,0,.19.08.47,0,.07.05.04.1.05.16Z"/>
          <path class="cls-19" d="M19.63,11.08c-.26-.01-.46.19-.39-.26.4,0,.42-.07.39.26Z"/>
          <g>
            <path class="cls-65" d="M15.25,7.51c0,.21.01.42,0,.62,0,.11-.03.21-.03.33-.02.39-.05.78-.03,1.18-.24,0-.48,0-.72,0,.01-.24-.02-.48,0-.72,0,0,.06-.17.07-.18.02-.41-.01-.82,0-1.23.24,0,.48,0,.72,0Z"/>
            <path class="cls-28" d="M13.84,9.64h.62c.24,0,.48,0,.72,0,.21,0,.41,0,.62,0,0,.16.1.46-.02.65-.65-.09-1.3,0-1.94,0-.14-.2-.03-.44-.03-.65h.03Z"/>
            <path class="cls-87" d="M14.53,7.51c-.01.41.02.82,0,1.23,0,.01-.06.17-.07.18h-.59c0-.45-.07-.91-.03-1.36.04-.08.51-.04.69-.05Z"/>
            <path class="cls-72" d="M16.43,8c0,.16,0,.33,0,.49-.01,0-.02,0-.03,0-.15,0-.36-.07-.52-.03l-.03-.92s.33-.06.54-.03c.08.06.05.28.05.49Z"/>
            <path class="cls-12" d="M14.47,8.92c-.02.24.01.48,0,.72h-.62c-.03-.24.03-.49.03-.72h.59Z"/>
            <path class="cls-127" d="M15.81,7.55c.03.2-.03.4-.03.59h-.52c.01-.21,0-.42,0-.62.19,0,.37.03.56.03Z"/>
            <path class="cls-38" d="M15.84,7.55l.03.92s.01.04-.07.03l-.03-.03c.08-.21,0-.31,0-.33,0-.19.06-.39.03-.59,0,0,0,0,.03,0Z"/>
            <path class="cls-28" d="M16.39,8.49c-.03.21.03.42.03.62,0,.09,0,.52-.08.56-.19.03-.4-.03-.54-.03,0-.38,0-.76,0-1.14.08.01.06-.03.07-.03.16-.03.37.03.52.03Z"/>
            <path class="cls-68" d="M15.77,8.46l.03.03c0,.38,0,.76,0,1.14-.21,0-.41,0-.62,0-.02-.39.01-.78.03-1.18h.56Z"/>
            <path class="cls-119" d="M15.77,8.13s.08.11,0,.33h-.56c0-.11.03-.22.03-.33h.52Z"/>
          </g>
        </g>
      </g>
      <g>
        <path class="cls-5" d="M24.17,25.39c.2.03.42-.03.46-.03.05,0,.11,0,.16,0,.25,0,.5.09.75,0,0,.04.02.03.03.03-.02.16.03.5,0,.59,0,.01-.03.06-.03.07-.33,0-.65,0-.98,0-.61,0-1.22-.03-1.83-.03-.21,0-.41,0-.62,0-6.01-.03-12.03.02-18.04,0,0-.15,0-.31,0-.46.14-.02.02.35.08.39.03.02.61.03.72.03,1.59.09,5.57,0,7.52,0,.03,0,0-.07.05-.07,0,0,.06.07.08.07,1.66,0,3.31,0,4.97,0l.07-.56.64-.03c.47.01.94,0,1.41,0,.09,0,.17,0,.26,0,.86,0,1.72.01,2.58,0,.61.1,1.6-.02.98-.05-.06-.72.1-.45.64-.51l.02.54s.07.01.1.02Z"/>
        <path class="cls-108" d="M23.42,13.17c.02.4-.04,1.24-.03,1.31-.72-.21-.57-.43-.6-.46-.06-.04-.27.16-.36-.36-.59.18-.3-.29-.39-.36-.02-.01-.3,0-.38,0-.01,0-.02,0-.03,0v-.65s.02,0,.03,0c.57,0,1.14-.03,1.72-.03.08.04.04.37.05.56Z"/>
        <path class="cls-54" d="M24.17,14.44c0,.3,0,.61,0,.92.02-.15-.37,0-.42-.11-.02-.05.02-.27,0-.29-.03-.04-.2.01-.23-.03-.03-.04.07-.27-.1-.23.02-.23-.03-.2-.03-.21,0-.07.05-.91.03-1.31.98-.03.73,0,.75,1.27Z"/>
        <path class="cls-5" d="M6.52,25.36c1.72,0,3.44.07,5.16.03h.72c0,.17-.02.37.03.52-.05,0-.02.07-.05.07-1.94,0-5.92.09-7.52,0-.11,0-.69-.01-.72-.03-.06-.05.06-.41-.08-.39,0-.05,0-.11,0-.16.47,0,.94,0,1.41,0,.12,0,.25-.03.36-.03.23,0,.46,0,.69,0Z"/>
        <path class="cls-58" d="M24.63,23.56c-.01.6-.08,1.2,0,1.8-.03,0-.25.07-.46.03.03-.37-.03-.75-.03-1.11,0-.23.03-.48.03-.72h.46Z"/>
        <path class="cls-112" d="M23.88,24.28h.26c0,.37.07.74.03,1.11-.03,0-.09.01-.1-.02l-.02-.54c-.54.06-.69-.21-.64.51.62.02-.37.14-.98.05.14,0,.91.04.95-.05v-1.03c.15,0,.33-.07.49-.03Z"/>
        <path class="cls-105" d="M19.86,25.39c-.09,0-.17,0-.26,0-.13-.25.1-.32.18-.26.05.04-.04.23.08.26Z"/>
        <path class="cls-83" d="M19.66,12.64c.48,0,.96,0,1.44,0v.59c-.16,0-.71.03-.82.1-.05-.2-.41-.06-.6-.1.11.98-.71.09-.51.78-.12.27-.03-.19-.08-.23-.04-.03-.36.06-.41-.02.16-.72-.04-.55-1.01-.51,0-.03.02-.08-.02-.1-.02-.01-.5-.02-.52,0-.04.03,0,.38-.02.46-.15,0-.31,0-.46,0,.19-.56-.73-.57-.56-.03-.22,0-.5.07-.72.07-.11,0-.24-.03-.36-.03.02-.57,0-.39-.39-.42-.11-.01-.24,0-.36,0-.36,0-.72.02-1.08.03-.27,0-.54.02-.82.03-.21,0-.41,0-.62,0,0-.17,0-.35,0-.52.25-.06.53-.03.78-.03.28,0,.59-.06.87-.07,2.09-.01,4.17,0,6.26,0Z"/>
        <path class="cls-30" d="M6.23,17.48c.13.72-.15,4.81-.03,5.11.04.11.17-.02.23.05,0,.17,0,.34,0,.51l.07.02c.1.06.56.03.72.03.13,0,.26,0,.39,0-.01.12.02.46,0,.49-.34,0-.69,0-1.03,0l-.02.62-.03.03c-.2-.04-.64-.06-.82-.03l-.1-.05c.07-2.26,0-4.52,0-6.78h.62Z"/>
        <path class="cls-30" d="M7.18,19.96c0,.15-.07,1.07-.03,1.13.11.02.09.05.1.05-.09-.04-.08.42-.07.44.03.04.38,0,.46.02,0,.17,0,.35,0,.52-.03,0-.07,0-.1,0-.1,0-.2-.02-.29.02-.02.03,0,.39,0,.47,0,.09-.03.06-.03.07.03-.12-.35-.04-.67-.07l-.05.56-.07-.02c0-.17,0-.34,0-.51,0-.06.1-.07.1-.08-.04-.87-.02-1.76.03-2.63.73.12.45.02.56-.52,0,.17.06.38.07.56Z"/>
        <path class="cls-108" d="M6.23,17.48h-.62c0-.83-.01-1.66,0-2.48l.59.02q.02,1.23.03,2.47Z"/>
        <path class="cls-120" d="M11.69,13.62s.1,0,.07.52c-.03,0-.09.04-.13.05l-.02.54c-.11.02-.6-.03-.64.02,0,0-.04.25-.03.26.04.1.25.02.29.05.13.37-.38.29-.82.21-.15-.92.46-.36.56-.59v-.57c.07,0,.39.01.41,0,.12-.09-.18-.61.31-.49Z"/>
        <path class="cls-30" d="M9.86,14.83v.88s-.04.07-.56.1c-.19,0-.4-.03-.59,0,.01-.18,0-.36,0-.54.44-.17.53.16.59-.31.24.01.36.02.56-.13Z"/>
        <path class="cls-83" d="M10.97,14.11v.57c-.1.22-.7-.34-.56.59.44.08.95.16.82-.21.06.03.04.28.02.29-.03.02-.7.03-.8.03-.06,0-.31-.06-.59-.03v-.62c.07,0,.5-.03.52-.05.07-.06,0-.54.05-.57.18,0,.36,0,.54,0Z"/>
        <path class="cls-83" d="M9.3,15.81v.92c-.04.26-.07.14-.59.16,0-.37-.03-.7,0-1.08.19-.03.4,0,.59,0Z"/>
        <path class="cls-10" d="M8.13,17.28c0,.2,0,.42,0,.62-.24.03-.4-.03-.42-.03.03-.19-.04-1.43,0-1.49.02-.03.37-.03.39,0,.03.04.03.76.03.9Z"/>
        <path class="cls-83" d="M12.37,13.27c.05.63-.32.05-.23.87-.08.12-.37.01-.39.02.04-.52-.06-.5-.07-.52,0-.03.06-.31.07-.36.21,0,.41,0,.62,0Z"/>
        <path class="cls-120" d="M8.68,17.28c0,.09.02.58,0,.6-.04.06-.42-.03-.52.05,0,0-.03,0-.03-.03,0-.2,0-.42,0-.62h.56Z"/>
        <path class="cls-103" d="M7.11,19.38s0,.02,0,.03c-.11.55.17.64-.56.52.01-.19,0-.36.03-.56h.52Z"/>
        <path class="cls-10" d="M7.64,17.91s0,.24,0,.29l-.52-.05c.02-.15-.02-.54,0-.59.03-.07.36-.06.38-.05.05.03,0,.34.02.38.02.04.12,0,.13.02Z"/>
        <path class="cls-126" d="M7.57,18.49c.02.68-.02.53-.39.56-.14-.84.09-.54.39-.56Z"/>
        <path class="cls-115" d="M7.11,19.05c.08.25,0,.31,0,.33h-.52c0-.06-.02-.3.02-.33.17,0,.34.01.51,0Z"/>
        <path class="cls-3" d="M8.13,17.91s.03.03.03.03c0,.03-.02.23-.03.29l-.49.03s0-.04,0-.07c0-.05,0-.28,0-.29.08.01.06-.03.07-.03.02,0,.19.06.42.03Z"/>
        <path class="cls-30" d="M9.86,14.74v.1c-.2.15-.31.14-.56.13,0-.06-.1-.17.02-.26.14.01.43.04.54.03Z"/>
        <path class="cls-10" d="M8.13,18.23c0,.05.02.2-.02.23-.16,0-.32,0-.47,0v-.2l.49-.03Z"/>
        <g>
          <path class="cls-61" d="M8.62,12.71c1.05.01,2.09.05,3.14.03,0,.17,0,.35,0,.52,0,.05-.07.33-.07.36-.49-.12-.19.4-.31.49-.02.01-.34,0-.41,0-.18,0-.36,0-.54,0-.05.04.03.51-.05.57-.02.02-.45.04-.52.05-.11,0-.4-.02-.54-.03-.11.09,0,.21-.02.26-.06.47-.14.14-.59.31,0,.18.01.36,0,.54-.03.38,0,.71,0,1.08,0,.12-.03.26-.03.39h-.56c0-.13,0-.86-.03-.9-.02-.03-.37-.03-.39,0-.04.06.03,1.29,0,1.49,0,0,.01.04-.07.03,0-.01-.11.02-.13-.02-.02-.04.03-.34-.02-.38-.02-.01-.34-.02-.38.05-.02.05.02.44,0,.59l.52.05s0,.04,0,.07v.2c-.09,0-.06.03-.07.03-.3.02-.53-.28-.39.56-.02,0-.04,0-.07,0-.17.01-.34,0-.51,0-.04.03,0,.26-.02.33-.02.19-.02.36-.03.56-.05.87-.08,1.76-.03,2.63,0,.01-.09.02-.1.08-.06-.07-.19.06-.23-.05-.12-.3.16-4.39.03-5.11q-.02-1.23-.03-2.47l-.59-.02c0-.26-.01-.52,0-.78,0-.21-.04-.43.05-.49l.64-.02.05-1.03c.76-.01,1.51.02,2.27.03Z"/>
          <g>
            <path class="cls-10" d="M7.1,16.89c.16-.11.55.07.38.31-.02.02-.36.03-.38.02-.03-.02-.03-.31,0-.33Z"/>
            <path class="cls-10" d="M9.29,13.76c.25-.18.5.22.29.33-.32.17-.38-.26-.29-.33Z"/>
            <path class="cls-10" d="M7.75,15.42c.25-.17.42.23.29.33-.25.17-.42-.23-.29-.33Z"/>
            <path class="cls-83" d="M8.47,13.76c.31-.14.35.24.23.29-.28.12-.36-.24-.23-.29Z"/>
            <path class="cls-120" d="M8.01,14.74c.21-.15.29.3.16.36-.26.12-.19-.34-.16-.36Z"/>
            <path class="cls-117" d="M10.66,13.36c.17-.07.58.09-.02.02,0,0,0-.01.02-.02Z"/>
          </g>
        </g>
        <path class="cls-112" d="M6.52,24.34v.03c-.17,0-.65-.04-.69.05v.93c-.11,0-.24.03-.36.03.07-.32.02-.66.03-.98.04-.06.14-.09.2-.1.18-.02.62,0,.82.03Z"/>
        <path class="cls-10" d="M23.39,14.47s.05-.02.03.21c.16-.04.07.19.1.23.03.04.2-.01.23.03.02.03-.02.25,0,.29.05.12.44-.03.42.11,0,.23,0,.46,0,.69,0,.42,0,.85,0,1.27,0,.22,0,.44,0,.65,0,.44,0,.87,0,1.31h-.75c0-.6,0-1.2,0-1.8,0-.46.04-.92.03-1.39l-.72-.05c0-.24,0-.48,0-.72,0-.11,0-.22,0-.33,0-.13.03-.27-.05-.33-.14,0-.27,0-.41,0,.05-.81-.04-.4-.62-.57v-.8c.08,0,.36-.01.38,0,.1.07-.2.54.39.36.09.52.3.32.36.36.03.02-.11.25.6.46Z"/>
        <path class="cls-83" d="M21.62,13.3s.02,0,.03,0v.8c.58.18.67-.23.62.57-.03,0-.07,0-.1,0-.08,0-.49.01-.51,0-.05-.04.02-.42-.03-.46-.08-.06-1.37.15-1.05-.07.04-.02.41.03.44-.02.01-.02.01-.41,0-.42-.03-.04-.6,0-.7-.02-.1-.04-.03-.27-.05-.36.11-.07.66-.1.82-.1.16,0,.36.05.52.07Z"/>
        <path class="cls-30" d="M21.62,12.64v.65c-.16-.01-.37-.06-.52-.07v-.59c.17,0,.35,0,.52,0Z"/>
        <path class="cls-30" d="M18.06,20.03v2.53s.14.04.2.05c-.15-.05-.11.51-.08.52.03.02.52-.01.64,0,0,.01,0,.02,0,.03,0,.15,0,.31,0,.46l-.65.05c0,.21,0,.43,0,.64-.16,0-.43.02-.52,0-.05,0-.09.02-.13-.05,0-1.42.03-2.84.03-4.26.24-.03.5.03.52.03Z"/>
        <path class="cls-21" d="M18.91,18.79c-.52-.11-.23.51-.23.56,0,.21-.07.44-.03.65-.19,0-.4.03-.59.03-.03,0-.28-.06-.52-.03,0-.4.03-.81.03-1.21.08-.01.49.03.52-.02.04-.05.01-1.08,0-1.23.71-.11.32.33.42.47.11.16.5-.41.39.77Z"/>
        <path class="cls-120" d="M18.09,17.55c.01.14.04,1.18,0,1.23-.03.04-.44,0-.52.02,0-.1,0-.2,0-.29,0-.18.03-.37-.05-.42-.15,0-.29,0-.44,0-.11.03-.05-.27-.07-.59,0-.01.11-.08-.07-.15l.03-.51c.42-.05-.03-.79.51-.56.1.04.03.56.05.67l.52.1c-.03.17.02.34.03.51Z"/>
        <g>
          <path class="cls-60" d="M22.57,24.28c.27,0,.55.03.82.03v1.03c-.04.08-.81.05-.95.05-.86.01-1.72,0-2.58,0-.12-.03-.03-.23-.08-.26-.08-.05-.31.01-.18.26-.47,0-.94.01-1.41,0-.01,0-.02,0-.03,0,0-.36,0-.72,0-1.08.22,0,.44-.03.65-.03,1.25.01,2.5,0,3.76,0Z"/>
          <path class="cls-70" d="M18.16,24.31c0,.36,0,.72,0,1.08-.09,0-.6.02-.62-.02.04-.42-.09-1,.1-1.06.09.02.36,0,.52,0Z"/>
        </g>
        <path class="cls-101" d="M19.47,23.63c.19,0,.37,0,.56,0,.21,0,.41,0,.62,0,.15,0,.31,0,.46,0,.15,0,.31,0,.46,0,.29,0,.84.03,1.01,0v.65c-1.25,0-2.5.01-3.76,0v-.62c.2-.06.44-.03.65-.03Z"/>
        <path class="cls-120" d="M23.39,23.17c0,.34.08.69,0,1.03l.49.08c-.16-.03-.34.03-.49.03-.27,0-.55-.03-.82-.03v-.65s.14.02.16-.02c0-.14,0-.27,0-.41l.65-.03Z"/>
        <path class="cls-120" d="M18.81,23.63v.65c-.21,0-.43.04-.65.03,0-.21,0-.43,0-.64l.65-.05Z"/>
        <path class="cls-34" d="M6.52,24.38c0,.14,0,.28,0,.42,0,.19,0,.37,0,.56-.23,0-.46,0-.69,0v-.93c.04-.08.51-.04.69-.05Z"/>
        <path class="cls-103" d="M24.17,23.13c0,.14,0,.28,0,.42,0,.24-.03.49-.03.72h-.26l-.49-.08c.08-.34,0-.69,0-1.03,0,0,.03.02.03-.07l.75.03Z"/>
        <path class="cls-120" d="M12.7,16.27l.03.03.02.56c.66-.04,1.32-.03,1.98-.03.16,0,.33,0,.49,0,.13,0,.27-.03.39-.03.31,0,.25-.03.26-.03.19,0,1.03.08,1.11.07l-.03.51c.17.07.06.14.07.15l-4.59-.03c-.08.04-.04.44-.05.62h-.1l-.52.02c-.03.65-.02,1.3-.03,1.94h-.69l.62-.05v-.98c-.03-.06-.81-.11-.95-.08-.15-1.75.17-.95.44-1.14.04-.03.01-.29.02-.36.22.02.22-.03.23-.03.02,0,.1.06.31.03.15-.11-.34-.75.59-.59.07-.51-.15-.59.41-.56Z"/>
        <path class="cls-83" d="M10.61,20.03c.02.11-.05.61.05.65.44.2.33-.33.34-.62,0-.01,0-.02,0-.03h.72c-.01.87-.03,1.75-.03,2.61l-.62-.03c0-.18.04-.49-.05-.52h-1.36c0-.18-.03-.35-.03-.52,0-.14,0-.28,0-.42,0-.03-.03-.03-.03-.07.79.08.6.13.56-1.05.15,0,.31,0,.46,0Z"/>
        <path class="cls-72" d="M14.27,13.2c.12,0,.25-.01.36,0,.01.12-.02.37,0,.41.05.12.32.02.39.02.12,0,.25.03.36.03v.49c-.51,0-1.03.04-1.54.03-.08-.81.21-.43.29-.54.05-.06-.1-.49.13-.44Z"/>
        <path class="cls-120" d="M11.03,20.03h-.03c.01-1.19-.16-.54-.29-.74-.01-.02,0-.3,0-.38.14-.03.92.02.95.08v.98l-.62.05Z"/>
        <path class="cls-120" d="M14.27,13.2c-.24-.05-.08.38-.13.44-.08.11-.38-.27-.29.54-.01,0-.12.07-.29.02.12-1.03-.47-.09-.36-.96.36,0,.72-.04,1.08-.03Z"/>
        <path class="cls-120" d="M16.36,13.62v.59c-.28,0-.18.07-.2.07-.05,0-.02-.06-.05-.07-.22,0-.44,0-.65,0-.01,0-.04-.06-.08-.07v-.49c.22,0,.5-.07.72-.07.01,0,.04.03.26.03Z"/>
        <path class="cls-18" d="M12.7,15.62c.22-.02.46,0,.69,0l.03.69c-.23,0-.46,0-.69,0l-.03-.03c.2-.53-.32-.21-.2-.64.02-.07.15-.01.2-.02Z"/>
        <path class="cls-120" d="M10.45,15.65c.05.49-.12.27-.59.34,0,.1,0,.21,0,.31h-.2c-.53-.05-.31.1-.36.42v-.92c.52-.03.53-.09.56-.1.2-.02.42.05.59-.07Z"/>
        <path class="cls-18" d="M10.12,20.03c-.18,0-.35-.01-.52.03,0-.11,0-.22,0-.33.11-.08.05-.26.07-.39.2.01.39-.04.46.05v.64Z"/>
        <path class="cls-59" d="M11,20.06c0,.29.1.82-.34.62-.1-.04-.03-.55-.05-.65.13,0,.26-.02.39.03Z"/>
        <path class="cls-120" d="M10.45,15.39v.26c-.17.12-.39.04-.59.07v-.36c.27-.03.53.03.59.03Z"/>
        <g>
          <path class="cls-72" d="M13.19,13.23c-.11.88.48-.07.36.96.17.06.28-.02.29-.02.51,0,1.03-.04,1.54-.03.04,0,.07.07.08.07.22,0,.44,0,.65,0,.03,0,0,.06.05.07-.02.14.02.4,0,.49,0,.02.01.05-.05.1l-2.65-.03-.03-.62h-.67v-.57c-.45-.25-.48.68-.03.6l-.03,1.37s-.17-.06-.2.02c-.13.43.39.11.2.64-.55-.04-.34.04-.41.56-.93-.17-.44.48-.59.59-.21.02-.29-.03-.31-.03,0-.32-.19-.39-.23.03,0,.07.02.33-.02.36-.27.19-.59-.6-.44,1.14,0,.08-.01.36,0,.38.14.2.3-.45.29.74,0,.01,0,.02,0,.03-.13-.05-.26-.03-.39-.03-.15,0-.31,0-.46,0-.01,0-.02,0-.03,0v-.64c-.06-.09-.26-.04-.46-.05-.35-.02-1.09.02-1.54.03.3-.56-.74-.5-.57-.16-.4-.48-.63.38,0,.07v.07l.51.03c-.08,0-.47-.02-.49.02,0,.19,0,.38,0,.57h-.39c0-.17-.06-.38-.07-.56,0-.01,0-.02,0-.03,0-.02.08-.07,0-.33.02,0,.04,0,.07,0,.37-.03.41.12.39-.56,0,0-.02-.03.07-.03.16,0,.32,0,.47,0,.04-.02,0-.18.02-.23,0-.06.03-.26.03-.29.11-.08.48,0,.52-.05.02-.02,0-.51,0-.6,0-.13.03-.27.03-.39.52-.02.55.09.59-.16.05-.33-.17-.47.36-.42.06.86.14.93.2,0,0-.1,0-.21,0-.31.47-.07.64.15.59-.34v-.26c.1,0,.77,0,.8-.03.02-.02.04-.26-.02-.29-.04-.02-.25.05-.29-.05,0-.01.02-.25.03-.26.04-.05.53,0,.64-.02l.02-.54s.1-.05.13-.05c.02,0,.31.1.39-.02-.09-.81.28-.24.23-.87.27-.01.54-.03.82-.03Z"/>
          <g>
            <path class="cls-59" d="M8.13,19.38s-.04,0-.07,0l-.51-.03v-.07c-.63.32-.4-.54,0-.07-.17-.34.87-.4.57.16Z"/>
            <path class="cls-120" d="M12.77,14.21l-.03.03c-.45.08-.42-.86.03-.6v.57Z"/>
            <path class="cls-83" d="M10.2,18.56c.38-.17.29.4.26.42-.31.22-.41-.36-.26-.42Z"/>
            <path class="cls-109" d="M9.86,16.3c-.05.93-.14.86-.2,0h.2Z"/>
            <path class="cls-21" d="M11.39,17.38s-.01.05-.23.03c.04-.43.24-.35.23-.03Z"/>
          </g>
        </g>
        <path class="cls-120" d="M19.17,14.02c.56-.09.51.21.44.26-.03.02-.66-.02-.78,0l-.07-.46c-.14-.04-.7.07-.75.03-.09-.07.19-.23-.34-.26-.01-.1.02-.25,0-.33.97-.04,1.18-.22,1.01.51.05.07.37,0,.41.02.05.04-.04.5.08.23Z"/>
        <path class="cls-18" d="M17.67,13.27c.02.07-.01.23,0,.33-.03,0-.35.04-.56.03.01-.08-.02-.43.02-.46.02-.02.5-.01.52,0,.03.02,0,.07.02.1Z"/>
        <path class="cls-72" d="M16.66,13.62c-.1,0-.2,0-.29,0-.22,0-.25-.03-.26-.03-.17-.53.75-.53.56.03Z"/>
        <path class="cls-18" d="M15.02,13.62c-.07,0-.34.1-.39-.02-.02-.04.01-.29,0-.41.38.04.42-.14.39.42Z"/>
        <path class="cls-72" d="M11.07,22.61c0,.16.03.6.03.65-.01.37-.1.4-.1.42-.31-.06-.63-.03-.95-.03.16-.66-.62-.66-.46,0-.18,0-.38.03-.56.03-.01-.1.02-.45,0-.47-.02-.03-.38-.01-.46-.02-.23-.01-.46,0-.69,0-.1,0-.2,0-.29,0-.13,0-.26,0-.39,0,0-.17,0-.35,0-.52,0,0,.03.02.03-.07.26.02.28-.03.29-.03.24-.01.28.03.29.03.24,0,.48-.03.72-.03.15,0,.31,0,.46,0,.21,0,.43-.01.64.03l.02-.07c0-.14,0-.28,0-.42,0-.01,0-.02,0-.03h1.36c.09.04.04.34.05.52Z"/>
        <path class="cls-83" d="M7.21,22.68c0,.17,0,.35,0,.52-.16,0-.62.03-.72-.03l.05-.56c.32.02.7-.06.67.07Z"/>
        <path class="cls-120" d="M7.6,23.69c-.04.08-.39,0-.42.05-.01.02-.05.47-.03.49.04.06.33-.05.23.08-.27,0-.54,0-.82,0l.02-.62c.34,0,.69,0,1.03,0Z"/>
        <path class="cls-120" d="M7.9,23.2v.49c-.1,0-.2,0-.29,0,.02-.03-.01-.37,0-.49.1,0,.19,0,.29,0Z"/>
        <path class="cls-103" d="M7.7,21.14c.01.2-.04.39.05.46l1.88-.03c0,.17.04.34.03.52,0,.01,0,.02,0,.03-.09.01-.56-.03-.59.02-.01.02,0,.39.02.41.02.02.48,0,.57,0l-.02.07c-.21-.04-.42-.03-.64-.03-.02-.09.04-.42-.05-.46-.03-.01-.31,0-.41,0-.23-.01-.49,0-.72,0-.07,0-.13,0-.2,0,0-.17,0-.35,0-.52,0-.14.09-.31,0-.46h.07Z"/>
        <path class="cls-120" d="M7.24,21.14s.23,0,.33,0h.07c.09.15,0,.31,0,.46-.08-.01-.43.02-.46-.02-.01-.02-.03-.48.07-.44Z"/>
        <path class="cls-8" d="M7.54,22.12v.46s-.03.06-.29.03c0-.08-.02-.44,0-.47.09-.04.2,0,.29-.02Z"/>
        <path class="cls-64" d="M7.64,22.12c.07,0,.13,0,.2,0v.49s-.05-.05-.29-.03v-.46s.07,0,.1,0Z"/>
        <path class="cls-103" d="M24.17,19.28s0,.02,0,.03c0,.27,0,.54,0,.82,0,1,0,2,0,3.01l-.75-.03c0-.19,0-.37,0-.56,0-.89,0-1.79,0-2.68,0-.2,0-.39,0-.59h.75Z"/>
        <path class="cls-59" d="M23.42,17.48c0,.6,0,1.2,0,1.8,0,.2,0,.39,0,.59h-.69c0-.79,0-1.59,0-2.39h.69Z"/>
        <path class="cls-83" d="M23.42,17.48h-.69c0-.48,0-.96,0-1.44l.72.05c.01.46-.03.92-.03,1.39Z"/>
        <path class="cls-18" d="M22.28,14.67c.14,0,.27,0,.41,0,.08.06.04.19.05.33-.27.02-.52-.05-.49.07-.01-.13-.04-.27-.07-.39.03,0,.07,0,.1,0Z"/>
        <path class="cls-83" d="M22.73,15c0,.11,0,.22,0,.33-.16.03-.34-.03-.49-.03,0-.06,0-.13,0-.2,0-.01,0-.02,0-.03-.03-.11.22-.05.49-.07Z"/>
        <path class="cls-76" d="M24.17,20.13c0-.27,0-.54,0-.82h.03l-.03.82Z"/>
        <path class="cls-120" d="M11.72,23.27c0,.35,0,.7,0,1.05h-.72c.01-.2-.02-.42,0-.62,0-.02.08-.05.1-.42h.62Z"/>
        <path class="cls-18" d="M11.69,22.64c0,.2.03.41.03.62h-.62c0-.05-.03-.5-.03-.65l.62.03Z"/>
        <path class="cls-101" d="M22.73,22.55c0,.22,0,.44,0,.65,0,.14,0,.27,0,.41-.02.03-.12.01-.16.02-.17.03-.73,0-1.01,0,.04-.5-.06-.28-.46-.33,0,0,.01-.06-.02-.07-.52-.04-.45-.03-.44.39-.21,0-.41,0-.62,0-.01-.08.02-.43-.02-.46-.02-.02-.48,0-.57,0-.21,0-.41,0-.62,0,0-.01,0-.02,0-.03,0-.17-.03-.36-.03-.52,0-.15.03-.32.03-.47,0-.03.07-.01.07-.02h.46c-.12.76.25.42,1.26.49l.05-.49c.17,0,.34,0,.51,0,.03-.02.01-.36.02-.42.03-.16.65-.09,1.11-.1.14,0,.3.02.42-.03,0,.33.03.66.03.98Z"/>
        <path class="cls-108" d="M18.65,20s.02,0,.03,0c.01.4-.02.81,0,1.21.01.3-.06.43.13.46,0,.31.07.43.07.46,0,0-.06-.01-.07.02,0,.16-.03.32-.03.47-.16-.02-.37.02-.52,0-.05,0-.18,0-.2-.05v-2.53c.18,0,.4-.02.59-.03Z"/>
        <path class="cls-109" d="M18.26,22.61c.15.02.36-.02.52,0,0,.16.03.35.03.52-.12-.01-.61.02-.64,0-.02-.02-.07-.57.08-.52Z"/>
        <path class="cls-10" d="M19.43,23.17l.03.46c-.21,0-.45-.03-.65.03v-.03c0-.15,0-.31,0-.46.21,0,.41,0,.62,0Z"/>
        <path class="cls-72" d="M19.07,19.38c0,.09,0,.17,0,.26,0,.12-.03.24-.02.36-.09-.02-.26,0-.38,0-.01,0-.02,0-.03,0-.04-.21.04-.45.03-.65.16.02.22-.03.23-.03,0,0,.13.06.16.07Z"/>
        <path class="cls-33" d="M18.91,18.79v.52s-.07.05-.23.03c0-.04-.29-.67.23-.56Z"/>
        <path class="cls-120" d="M20.02,23.63c-.19,0-.37,0-.56,0l-.03-.46c.09,0,.55-.02.57,0,.04.03,0,.38.02.46Z"/>
        <g>
          <path class="cls-21" d="M21.1,23.3v.33c-.15,0-.31,0-.46,0-.01-.42-.08-.43.44-.39.03,0,.01.06.02.07Z"/>
          <path class="cls-120" d="M21.56,23.63c-.15,0-.31,0-.46,0v-.33c.4.05.5-.17.46.33Z"/>
        </g>
        <path class="cls-59" d="M23.42,22.55c0,.19,0,.37,0,.56,0,.09-.03.06-.03.07l-.65.03c0-.22,0-.44,0-.65h.69Z"/>
        <path class="cls-59" d="M9.6,23.66c.15,0,.31,0,.46,0,.31,0,.64-.03.95.03-.02.2.01.42,0,.62-1.21.02-2.42-.02-3.63,0,.1-.13-.19-.02-.23-.08-.01-.02.02-.47.03-.49.04-.06.38.03.42-.05.1,0,.2,0,.29,0,.24,0,.48,0,.72,0,.14,0,.28,0,.42,0,.18,0,.37-.03.56-.03Z"/>
        <g>
          <path class="cls-60" d="M7.37,24.31c1.21-.02,2.42.02,3.63,0h.72c0,.36.09.84-.03,1.08-1.72.04-3.44-.03-5.16-.03,0-.19,0-.37,0-.56l4.64-.02c-.02-.09.04-.37-.05-.41-.21-.09-4.04-.02-4.59,0v-.03l.03-.03c.27,0,.54,0,.82,0Z"/>
          <path class="cls-60" d="M6.52,24.8c0-.14,0-.28,0-.42.55-.02,4.38-.09,4.59,0,.09.04.03.32.05.41l-4.64.02Z"/>
        </g>
        <path class="cls-106" d="M13.42,16.3c.42,0,.85,0,1.27,0l.03.52c-.66,0-1.32,0-1.98.03l-.02-.56c.23,0,.46,0,.69,0Z"/>
        <path class="cls-120" d="M15.22,16.3v.52c-.16,0-.33,0-.49,0l-.03-.52c.17,0,.35,0,.52,0Z"/>
        <path class="cls-59" d="M15.61,16.34v.46c-.12,0-.26.03-.39.03v-.52c.56-.01.37.03.39.03Z"/>
        <path class="cls-21" d="M15.87,16.3v.46s.05.03-.26.03v-.46s.07-.06.08-.07c.04,0,.07.05.18.03Z"/>
        <path class="cls-83" d="M16.36,15.62c.56.03.26.29.26.33-.66-.08-.34.18-.42.31,0,.01-.28.04-.33.05-.11.01-.14-.03-.18-.03-.02,0-.04.06-.08.07-.02,0,.17-.04-.39-.03-.17,0-.35,0-.52,0-.42,0-.85,0-1.27,0l-.03-.69c.99-.01,1.98,0,2.97,0Z"/>
        <g>
          <path class="cls-23" d="M16.36,14.21c.25,0,.51-.03.75.03-.16.06,0,.58-.05.62-.36-.03-.81.09-.9-.1.02-.09-.02-.35,0-.49.01,0-.08-.07.2-.07Z"/>
          <g>
            <path class="cls-90" d="M16.16,14.77c.09.18.54.07.9.1.06-.04-.11-.56.05-.62.06.06,0,1.2,0,1.37h-.75c-.99,0-1.98-.01-2.97,0-.23,0-.46-.02-.69,0l.03-1.37.03-.03h.67l.03.62,2.65.03c.06-.04.04-.08.05-.1Z"/>
            <path class="cls-9" d="M12.78,14.25l.6.02c.02.7.05.64-.62.52l.02-.54Z"/>
          </g>
        </g>
        <path class="cls-109" d="M17.11,15.62c0,.1.02.63-.02.65-.03.02-.46.16-.47-.33,0-.03.3-.3-.26-.33h.75Z"/>
        <g>
          <path class="cls-65" d="M9.66,19.34c-.01.14.04.31-.07.39,0-.01,0-.02,0-.03-.03-.34.04-.41-.56-.28.05.09.04.22.03.31,0,.1,0,.2,0,.29,0,.11,0,.22,0,.33,0,.07,0,.13,0,.2l-.85.03c0-.08-.01-.61-.03-.64-.01-.02-.45-.03-.47-.02-.05.03-.02,1.04-.02,1.18,0,.01,0,.02,0,.03h-.13c.1-.16.08-.84.07-1.16,0-.03-.07-.01-.07-.02,0-.19,0-.38,0-.57.02-.03.41-.01.49-.02.02,0,.04,0,.07,0,.44-.01,1.18-.05,1.54-.03Z"/>
          <path class="cls-116" d="M10.12,20.03s.02,0,.03,0c.04,1.17.24,1.13-.56,1.05,0-.34.01-.68,0-1.01.17-.05.35-.03.52-.03Z"/>
          <path class="cls-57" d="M7.57,19.96s.06-.01.07.02c.01.32.03,1-.07,1.16-.1,0-.28.01-.33,0,0,0,.02-.03-.1-.05-.03-.06.03-.97.03-1.13h.39Z"/>
          <path class="cls-28" d="M9.07,21.04s-.17.14.56.1c0,.14,0,.29,0,.42l-1.88.03c-.09-.06-.04-.26-.05-.46,0-.01,0-.02,0-.03l.47.03.05-.1c.26.02.61-.03.85,0Z"/>
          <path class="cls-82" d="M9.6,19.7s0,.02,0,.03c0,.11,0,.22,0,.33.01.34,0,.68,0,1.01,0,.03.03.03.03.07-.73.05-.52-.09-.56-.1v-.49c0-.07,0-.13,0-.2.71.12.71-.45,0-.33,0-.1,0-.2,0-.29l.52-.03Z"/>
          <path class="cls-37" d="M8.22,20.59s-.09.34,0,.46l-.05.1-.47-.03c0-.14-.03-1.14.02-1.18.02-.01.46,0,.47.02.02.03.03.55.03.64Z"/>
          <path class="cls-78" d="M9.07,20.55v.49c-.24-.03-.59.02-.85,0-.09-.12,0-.43,0-.46l.85-.03Z"/>
          <path class="cls-119" d="M9.6,19.7l-.52.03c0-.09.02-.23-.03-.31.59-.13.53-.07.56.28Z"/>
          <path class="cls-43" d="M9.07,20.36c0-.11,0-.22,0-.33.71-.12.71.45,0,.33Z"/>
        </g>
        <path class="cls-83" d="M23.42,19.87c0,.89,0,1.79,0,2.68h-.69c0-.32-.03-.65-.03-.98,0-.32,0-.63,0-.95,0-.25.03-.51.03-.75h.69Z"/>
        <path class="cls-101" d="M22.34,20.1c.02.52-.12.56.33.52h.03c0,.32,0,.63,0,.95-.12.06-.29.03-.42.03l.03-.96c-.11-.15-.71.33-.56-.54.2,0,.38-.01.59,0Z"/>
        <path class="cls-59" d="M22.67,20.62c-.45.03-.31,0-.33-.52.02,0,.25-.04.33-.02v.54Z"/>
        <g>
          <path class="cls-72" d="M20.28,13.33c.02.09-.05.32.05.36.1.02.67-.03.7.02.01.02.01.41,0,.42-.03.05-.41,0-.44.02-.33.22.96,0,1.05.07.05.04-.02.42.03.46.02.01.42,0,.51,0,.02.13.05.27.07.39,0,.01,0,.02,0,.03-.08.04-.49-.07-.52.02-.13.34.38.18.52.18.15,0,.33.07.49.03,0,.24,0,.48,0,.72,0,.48,0,.96,0,1.44,0,.8,0,1.59,0,2.39,0,.25-.03.5-.03.75h-.03v-.54c-.07-.02-.31.02-.33.02-.21-.01-.39,0-.59,0-.03,0-.03-.03-.07-.03-.19,0-.37,0-.56,0-.03-.11-.06-.25-.07-.36,0-.1.1-.23-.02-.33-.16-.04-.36.04-.51.03-.49-.02-.98,0-1.47-.03-.03,0-.15-.06-.16-.07v-.52c.11-1.18-.28-.61-.39-.77-.1-.15.29-.58-.42-.47-.01-.17-.06-.34-.03-.51l-.52-.1c-.02-.11.05-.63-.05-.67-.54-.24-.09.5-.51.56-.09.01-.92-.07-1.11-.07v-.46c.05,0,.32-.04.33-.05.09-.13-.24-.39.42-.31.01.49.44.35.47.33.03-.02.01-.56.02-.65,0-.17.06-1.32,0-1.37-.24-.06-.5-.03-.75-.03v-.59c.1,0,.2,0,.29,0,.15,0,.31,0,.46,0,.21,0,.53-.03.56-.03.53.03.25.2.34.26.05.04.61-.07.75-.03l.07.46c.12-.02.75.02.78,0,.07-.05.12-.35-.44-.26-.2-.69.62.19.51-.78.19.04.55-.1.6.1Z"/>
          <path class="cls-83" d="M19.35,18.13c.23-.18.03,1.09.16,1.21-.03,0-.17-.04-.18-.05-.03-.05-.03-1.12.02-1.16Z"/>
          <path class="cls-120" d="M22.24,15.1c0,.06,0,.13,0,.2-.14,0-.65.16-.52-.18.03-.09.44.02.52-.02Z"/>
          <path class="cls-30" d="M21.38,14.67c.1-.07.39.05.28.21-.09.13-.46-.08-.28-.21Z"/>
        </g>
        <path class="cls-83" d="M8.58,23.2l.03.49c-.24,0-.48,0-.72,0v-.49c.23,0,.46-.01.69,0Z"/>
        <path class="cls-83" d="M8.55,22.12v.46c-.24,0-.48.03-.72.03v-.49c.23,0,.49-.01.72,0Z"/>
        <path class="cls-126" d="M9.66,22.12c0,.14,0,.28,0,.42-.09,0-.55.02-.57,0-.02-.01-.03-.39-.02-.41.03-.04.5,0,.59-.02Z"/>
        <path class="cls-10" d="M9.04,23.69c-.14,0-.28,0-.42,0l-.03-.49c.07,0,.43-.02.46.02.02.02-.01.37,0,.47Z"/>
        <path class="cls-96" d="M9.01,22.58c-.15,0-.31,0-.46,0v-.46c.1,0,.38-.01.41,0,.09.04.03.37.05.46Z"/>
        <path class="cls-120" d="M10.05,23.66c-.15,0-.31,0-.46,0-.16-.66.62-.66.46,0Z"/>
        <g>
          <path class="cls-25" d="M13.13,21.08c0,.48.03,1.13,0,1.55,0,.03-.07.04-.07.05h-.59c0-.54-.03-1.09-.03-1.63l.69.03Z"/>
          <g>
            <path class="cls-112" d="M17.57,18.49c0,.1,0,.2,0,.29,0,.4-.03.81-.03,1.21,0,1.42-.04,2.84-.03,4.26.04.07.09.04.13.05-.19.06-.06.64-.1,1.06.02.03.53.01.62.02.01,0,.02,0,.03,0l-.64.03-.07.56c-1.66,0-3.31,0-4.97,0-.02,0-.08-.07-.08-.07-.06-.15-.03-.36-.03-.52,0-.9,0-1.8,0-2.7,0-.03.07-.01.07-.02h.59c0,.05-.06.02-.07.05-.02.36,0,.76,0,1.13,0,.35-.01.7,0,1.05,0,.07-.02.43.02.46l3.89-.03c.07-.09.04-.19.05-.29.08-.97,0-2.51,0-3.56,0-.85,0-1.7,0-2.55,0-.02.03-.1.03-.39l.59-.03Z"/>
            <path class="cls-112" d="M12.46,22.71s.46,0,.47.02c-.06,1.03.25,1.14-.49,1.11.02-.14-.03-1.09.02-1.13Z"/>
          </g>
          <path class="cls-105" d="M17.57,18.49l-.59.03c0-.14,0-.28,0-.42.13,0,.09-.03.1-.03.15,0,.29,0,.44,0,.08.06.05.24.05.42Z"/>
          <g>
            <path class="cls-90" d="M12.28,18.07c-.1.08-.45,0-.49.05-.03.04.02.75,0,.88l.65-.05.03.03c-.06.68-.03,1.37-.03,2.06,0,.54.04,1.09.03,1.63,0,0-.07-.01-.07.02,0,.9,0,1.8,0,2.7h-.72c.12-.23.04-.72.03-1.08,0-.35,0-.7,0-1.05,0-.21-.03-.42-.03-.62,0-.87.02-1.75.03-2.61,0-.65,0-1.3.03-1.94l.52-.02Z"/>
            <path class="cls-44" d="M12.37,18.07c0,.17-.04.79.07.88l-.65.05c.02-.13-.03-.85,0-.88.04-.06.39.03.49-.05h.1Z"/>
          </g>
          <g>
            <path class="cls-1" d="M13.19,18.98c.19,0,.44-.03.62.03,0,.8-.03,1.62,0,2.42,0,.09-.02.6.02.62.7.02,1.4,0,2.11-.03.02,0,.35.1.49-.02-.09-.19-.01-.39,0-.57l.52.03c0,1.05.08,2.6,0,3.56-.76-.05-1.53-.04-2.29-.03-.06-.04-.13-.09-.2-.1.02-.26-.03-1.45,0-1.52.03-.07.46-.31.38.64h1.11v-1.44l-2.21.05q.02,1.14.03,2.27c-.08,0-.15,0-.23,0,.29,0,.12-.48.16-1l-.72-.05c0-.37-.02-.77,0-1.13,0-.03.06,0,.07-.05,0,0,.06-.02.07-.05.03-.42,0-1.07,0-1.55.01-.69,0-1.37,0-2.06,0,0-.02-.03.07-.03Z"/>
            <path class="cls-34" d="M13.55,24.9c.08,0,.15,0,.23,0,.2,0,.48-.02.65,0,.05.26.07.1.23.1.76-.01,1.53-.01,2.29.03,0,.1.02.2-.05.29l-3.89.03s-.01-.39-.02-.46h.56Z"/>
            <path class="cls-107" d="M16.95,18.92c0,.85,0,1.7,0,2.55l-.52-.03c.04-.63-.03-1.27-.03-1.9,0-.2.07-.42.03-.62h.52Z"/>
            <path class="cls-1" d="M13.55,24.9h-.56c-.01-.35,0-.7,0-1.05l.72.05c-.04.51.12,1-.16,1Z"/>
            <path class="cls-1" d="M16.98,18.1c0,.14,0,.28,0,.42,0,.29-.03.37-.03.39h-.52l-.03-.03v-.75c.19,0,.39-.03.59-.03Z"/>
            <path class="cls-4" d="M14.47,24.9s-.02,0-.03,0c-.17-.02-.45,0-.65,0q-.02-1.14-.03-2.27l2.21-.05v1.44h-1.11c.09-.95-.34-.71-.38-.64-.03.07.02,1.26,0,1.52Z"/>
            <path class="cls-125" d="M15.71,18.89c.23,0,.46,0,.69,0l.03.03c.03.2-.03.42-.03.62-.15.05-.31.04-.46.03-.2,0-.4-.03-.6-.03-.03,0,0,.06-.05.07-.03,0,.07-.13-.56-.05-.03.17.04,1.22,0,1.27-.08.12-.42-.29-.33.6-.2,0-.39,0-.59,0-.03-.8,0-1.61,0-2.42,0-.03,0-.06,0-.1.63.02,1.26-.02,1.9-.03Z"/>
            <path class="cls-27" d="M13.13,19.02c0,.69.01,1.37,0,2.06l-.69-.03c0-.69-.03-1.38.03-2.06.22-.03.44.03.65.03Z"/>
            <path class="cls-130" d="M15.38,21.44c.1,0,.48-.02.52.02.05.04.03.47.03.57-.7.02-1.4.05-2.11.03-.03-.02-.01-.53-.02-.62.2,0,.39,0,.59,0,.29,0,.6-.04.88-.03.02,0,.03.03.1.03Z"/>
            <path class="cls-34" d="M12.96,18.1c.05,0,.11,0,.16,0,.03.33-.07.76.07.88-.09,0-.06.03-.07.03-.21,0-.44-.07-.65-.03l-.03-.03c-.09-.62.03-.81.03-.85h.49Z"/>
            <path class="cls-130" d="M13.78,18.13c.06.26.03.52.03.78,0,.03,0,.07,0,.1-.18-.06-.43-.03-.62-.03-.13-.12-.04-.55-.07-.88.22,0,.44.03.65.03Z"/>
            <path class="cls-34" d="M14.66,25c-.16,0-.18.17-.23-.1.01,0,.02,0,.03,0,.06,0,.14.06.2.1Z"/>
            <path class="cls-90" d="M17.01,17.48c.02.32-.05.62.07.59,0,0,.03.03-.1.03-.19,0-.4.03-.59.03-.22,0-.44,0-.65,0-.65,0-1.31.01-1.96,0-.22,0-.43-.03-.65-.03-.05,0-.11,0-.16,0l3.94-.03c.06-.03.06-.52.05-.54-.13-.18-3.97.11-4.49-.02-.06.21.02.56.02.59,0,.04-.12.23-.03.85-.1-.09-.07-.71-.07-.88,0-.18-.04-.58.05-.62l4.59.03Z"/>
            <path class="cls-129" d="M16.39,18.13v.75c-.23,0-.46,0-.69,0l.03-.75c.22,0,.44,0,.65,0Z"/>
            <path class="cls-107" d="M15.74,18.13l-.03.75c-.63,0-1.26.06-1.9.03,0-.26.02-.53-.03-.78.65.01,1.31,0,1.96,0Z"/>
            <path class="cls-66" d="M15.28,19.61v1.8c-.28,0-.59.03-.88.03-.09-.9.25-.49.33-.6.04-.05-.03-1.1,0-1.27.62-.08.53.05.56.05Z"/>
            <g>
              <path class="cls-111" d="M16.39,19.54c0,.63.07,1.27.03,1.9-.01.18-.09.39,0,.57-.14.12-.47.02-.49.02,0-.1.02-.53-.03-.57-.04-.04-.42-.01-.52-.02.03-.15.5-.01.52-.05q.02-.91.03-1.81c.15,0,.31.01.46-.03Z"/>
              <path class="cls-36" d="M15.94,19.57q-.02.91-.03,1.81s-.49-.1-.52.05c-.07,0-.07-.03-.1-.03v-1.8c.05,0,.02-.07.05-.07.21,0,.4.03.6.03Z"/>
            </g>
            <path class="cls-70" d="M12.96,18.1h-.49s-.08-.38-.02-.59c.52.12,4.36-.17,4.49.02.02.02.01.51-.05.54l-3.94.03Z"/>
          </g>
        </g>
        <path class="cls-103" d="M19.2,21.21c.01.19-.04.39.05.46l1.91-.07s0,.07,0,.1c0,.07.02.4-.02.42-.17,0-.34,0-.51,0-.44.01-.87,0-1.31,0h-.46s-.06-.15-.07-.46c.44.07.32-.1.33-.46h.07Z"/>
        <path class="cls-120" d="M20.64,22.12l-.05.49c-1-.07-1.38.27-1.26-.49.44,0,.87.01,1.31,0Z"/>
        <path class="cls-120" d="M19.14,21.21c0,.36.11.53-.33.46-.19-.03-.12-.15-.13-.46h.46Z"/>
        <g>
          <path class="cls-65" d="M20.54,19.41c-.03.11,0,.22,0,.33,0,.1,0,.2,0,.29,0,.17.03.35.03.52,0,.03-.09.36,0,.56-.3.02-.59.02-.88.03-.03-.38.03-.85,0-1.21,0-.05.02-.2-.02-.23l-.6-.07c0-.09,0-.17,0-.26.49.03.98.01,1.47.03Z"/>
          <path class="cls-28" d="M21.69,20.06c.24,1.55-.47.82-.56,1.06.05.15.04.32.03.47l-1.91.07c-.09-.07-.04-.26-.05-.46,0-.01,0-.02,0-.03.16.03.33-.03.49-.03.3-.01.59-.02.88-.03.17-.01.35,0,.52.02v-1.06s.02,0,.03,0c.19,0,.37,0,.56,0Z"/>
          <path class="cls-82" d="M21.07,19.7c.01.11.04.25.07.36-.01,0-.02,0-.03,0-.17,0-.41.03-.56-.03,0-.1,0-.2,0-.29l.52-.03Z"/>
          <path class="cls-119" d="M21.07,19.7l-.52.03c0-.1-.03-.22,0-.33.14,0,.35-.07.51-.03.12.1,0,.23.02.33Z"/>
          <path class="cls-57" d="M19.69,19.93l-.56.02c.13.38.05.82.07,1.23,0,.01,0,.02,0,.03h-.52c-.02-.4.01-.81,0-1.21.11,0,.28-.02.38,0,0-.12,0-.24.02-.36l.6.07s.01.18.02.23Z"/>
          <path class="cls-37" d="M19.69,19.93c.03.36-.03.83,0,1.21-.16,0-.33.06-.49.03-.02-.41.06-.85-.07-1.23l.56-.02Z"/>
          <path class="cls-82" d="M21.1,20.55v.57c-.17-.01-.35-.03-.52-.02-.09-.19,0-.52,0-.56h.52Z"/>
          <path class="cls-119" d="M21.1,20.06v.49h-.52c0-.17-.03-.35-.03-.52.15.06.38.03.56.03Z"/>
        </g>
        <g>
          <path class="cls-109" d="M21.75,20.1c-.16.87.45.39.56.54l-.03.96c-.46,0-1.08-.06-1.11.1,0-.03,0-.07,0-.1,0-.15.02-.33-.03-.47.09-.24.8.49.56-1.06.03,0,.03.03.07.03Z"/>
          <path class="cls-74" d="M21.25,21.11c.33-.07.64.03.47.41-.02.05-.77.26-.47-.41Z"/>
        </g>
      </g>
    </g>
  </g>
</svg>