<?xml version="1.0" encoding="UTF-8"?>
<svg id="Layer_2" data-name="Layer 2" xmlns="http://www.w3.org/2000/svg" xmlns:xlink="http://www.w3.org/1999/xlink" viewBox="0 0 23.33 23.2">
  <defs>
    <style>
      .cls-1 {
        fill: #067f83;
      }

      .cls-1, .cls-2, .cls-3, .cls-4, .cls-5, .cls-6, .cls-7, .cls-8, .cls-9, .cls-10, .cls-11, .cls-12, .cls-13, .cls-14, .cls-15, .cls-16, .cls-17, .cls-18, .cls-19, .cls-20, .cls-21, .cls-22, .cls-23, .cls-24, .cls-25, .cls-26, .cls-27, .cls-28, .cls-29, .cls-30, .cls-31, .cls-32, .cls-33, .cls-34, .cls-35, .cls-36, .cls-37, .cls-38, .cls-39, .cls-40, .cls-41, .cls-42, .cls-43, .cls-44, .cls-45, .cls-46, .cls-47, .cls-48, .cls-49, .cls-50, .cls-51, .cls-52, .cls-53, .cls-54, .cls-55, .cls-56, .cls-57, .cls-58, .cls-59, .cls-60, .cls-61, .cls-62, .cls-63, .cls-64, .cls-65, .cls-66, .cls-67, .cls-68, .cls-69, .cls-70, .cls-71, .cls-72, .cls-73, .cls-74, .cls-75, .cls-76, .cls-77, .cls-78, .cls-79, .cls-80, .cls-81, .cls-82, .cls-83, .cls-84 {
        stroke-width: 0px;
      }

      .cls-2 {
        fill: #ddeef4;
      }

      .cls-3 {
        fill: #a14d2e;
      }

      .cls-4 {
        fill: #6c282d;
      }

      .cls-5 {
        fill: #b28720;
      }

      .cls-6 {
        fill: #2c97aa;
      }

      .cls-7 {
        fill: #06120e;
      }

      .cls-8 {
        fill: #ddc8d3;
      }

      .cls-9 {
        fill: #a96123;
      }

      .cls-10 {
        fill: #23140e;
      }

      .cls-11 {
        fill: #34b3bf;
      }

      .cls-12 {
        fill: url(#linear-gradient);
      }

      .cls-13 {
        fill: #a9514c;
      }

      .cls-14 {
        fill: #dbd8e7;
      }

      .cls-15 {
        fill: #a7aed1;
      }

      .cls-16 {
        fill: #0d1117;
      }

      .cls-17 {
        fill: #c09f7f;
      }

      .cls-18 {
        fill: #082625;
      }

      .cls-19 {
        fill: #9a344b;
      }

      .cls-20 {
        fill: #4b2e23;
      }

      .cls-21 {
        fill: #3b0c08;
      }

      .cls-22 {
        fill: #1ba395;
      }

      .cls-23 {
        fill: #4e1a11;
      }

      .cls-24 {
        fill: #9a683a;
      }

      .cls-25 {
        fill: #32cbc8;
      }

      .cls-26 {
        fill: #e9ddc9;
      }

      .cls-27 {
        fill: #5e181a;
      }

      .cls-28 {
        fill: #5f2713;
      }

      .cls-29 {
        fill: #792821;
      }

      .cls-30 {
        fill: #93550e;
      }

      .cls-31 {
        fill: #0f6f6e;
      }

      .cls-32 {
        fill: #d9da2f;
      }

      .cls-33 {
        fill: #09927b;
      }

      .cls-34 {
        fill: #1e8754;
      }

      .cls-35 {
        fill: #ece2de;
      }

      .cls-36 {
        fill: #833722;
      }

      .cls-37 {
        fill: #b6b7b4;
      }

      .cls-38 {
        fill: #11110d;
      }

      .cls-39 {
        fill: #deb340;
      }

      .cls-40 {
        fill: #c5a226;
      }

      .cls-41 {
        fill: #16190a;
      }

      .cls-42 {
        fill: #c5b022;
      }

      .cls-43 {
        fill: #178e86;
      }

      .cls-44 {
        fill: #59b8b6;
      }

      .cls-45 {
        fill: #071b0b;
      }

      .cls-46 {
        fill: #c7c178;
      }

      .cls-47 {
        fill: #854a17;
      }

      .cls-48 {
        fill: #6e4616;
      }

      .cls-49 {
        fill: #903530;
      }

      .cls-50 {
        fill: #835935;
      }

      .cls-51 {
        fill: #41c8dc;
      }

      .cls-52 {
        fill: #784a2a;
      }

      .cls-53 {
        fill: #eaeced;
      }

      .cls-54 {
        fill: url(#linear-gradient-2);
      }

      .cls-55 {
        fill: #87431f;
      }

      .cls-56 {
        fill: #b77e27;
      }

      .cls-57 {
        fill: #abb17a;
      }

      .cls-58 {
        fill: #eee29a;
      }

      .cls-59 {
        fill: #613818;
      }

      .cls-60 {
        fill: #0c7048;
      }

      .cls-61 {
        fill: #b77837;
      }

      .cls-62 {
        fill: #f2d6cd;
      }

      .cls-63 {
        fill: #f2eec5;
      }

      .cls-64 {
        fill: #32170d;
      }

      .cls-65 {
        fill: #bd6148;
      }

      .cls-66 {
        fill: #085939;
      }

      .cls-67 {
        fill: #d7d0d2;
      }

      .cls-68 {
        fill: #dabca4;
      }

      .cls-69 {
        fill: #cec425;
      }

      .cls-70 {
        fill: #034b63;
      }

      .cls-71 {
        fill: #211b0b;
      }

      .cls-72 {
        fill: #23a4a9;
      }

      .cls-73 {
        fill: #d2952f;
      }

      .cls-74 {
        fill: #290a08;
      }

      .cls-75 {
        fill: #33c69b;
      }

      .cls-76 {
        fill: #117c65;
      }

      .cls-77 {
        fill: #a27747;
      }

      .cls-78 {
        fill: #026e90;
      }

      .cls-79 {
        fill: #fdc885;
      }

      .cls-80 {
        fill: #dde9df;
      }

      .cls-81 {
        fill: #17b49f;
      }

      .cls-82 {
        fill: #a05424;
      }

      .cls-83 {
        fill: #cbb0c1;
      }

      .cls-84 {
        fill: #145965;
      }
    </style>
    <linearGradient id="linear-gradient" x1="9.05" y1="6.19" x2="10.02" y2="6.93" gradientUnits="userSpaceOnUse">
      <stop offset="0" stop-color="#c25d4f"/>
      <stop offset="1" stop-color="#bc6168"/>
    </linearGradient>
    <linearGradient id="linear-gradient-2" x1="12.97" y1="13.52" x2="12.97" y2="20.39" gradientUnits="userSpaceOnUse">
      <stop offset="0" stop-color="#b2495f"/>
      <stop offset="1" stop-color="#a15236"/>
    </linearGradient>
  </defs>
  <g id="Layer_1-2" data-name="Layer 1">
    <g>
      <path class="cls-15" d="M.75,12.92c.08.34-.2.34-.26.3-.03-.02,0-.25-.01-.3h.27Z"/>
      <g>
        <path class="cls-38" d="M12.96.41c-.14.05-.34.03-.49.03-.15,0-.29,0-.44,0-.16,0-.33,0-.49,0-.35,0-.7,0-1.05,0v.5s-.09,0-.1.01h-.3c-.24,0-.47,0-.71,0,0,0-.15-.08-.19.01-.02.04.03.23-.01.26-.16.11-.44-.26-.45.33-.22,0-.44-.01-.65,0-.09,0-.34-.01-.37,0-.15.07.19.25-.37.27,0,0,0-.04-.16-.03-.09,0-.19,0-.29,0-.1.09-.01.21-.01.22,0,.1-.03.2-.03.3-.04,0-.07,0-.11,0-.07,0-.46-.01-.48,0-.04.03.01.3-.03.33-.06.04-.75.02-.9.03-.05.19.01.23.01.25,0,.14-.05.3-.05.44-.68.01-.39.14-.5.19-.04.02-.23-.03-.26.01-.08.11.19.24-.22.31,0,0-.06-.08-.14.01.03.59-.26.29-.33.38-.02.02.02.22,0,.25-.03.04-.15-.02-.19.05-.03.05.03.14.03.18-.05.28-.15.11-.19.18-.02.02.02.25,0,.27-.03.04-.14,0-.18.01-.07.03-.02.14-.04.18-.01.03-.07,0-.08.03-.01.06,0,.25,0,.37,0,.14-.03,1.14,0,1.19.02.03.15,0,.19.01.02.35-.07.58.14.46,0,.04.05.02.05.04.04.48-.15.64.3.59,0,.02.02-.11.05.27,0,.05-.02.22.01.25.09,0,.19-.01.29,0l.03.61.55.07v.59c.05.07.16.03.27.04-.03.37.04.2.25.25,0,.34.14.42.38.19,0,0,0,.02,0,.03.02.49-.06.25.6.27.08,0,.19.02.27.03.04.67,0,.35-.71.46,0-.7-.26-.3-.5-.41-.15-.06.24-.32-.57-.25l-.04-.56c-.15,0-.32-.04-.46-.04-.02-.64.14-.66-.41-.63,0-.21,0-.43,0-.64-.77.07-.08-.45-.57-.55.09-.94-.25-.45-.33-.63-.01-.03,0-.21,0-.29-.02-.24.04-1.33-.04-1.36-.33-.15-.09.55-.2.64-.08.06-.32-.17-.27.59-.42-.07-.17.19-.25.37-.03.08-.19.02-.22.05-.02.03.02.39,0,.44-.03.08-.19.02-.22.05-.02.03.02.57,0,.6-.09.12-.35-.32-.27.65-.02.03-.1,0-.14.01-.1.01-.44-.02-.46.01-.02.27.05.63-.05.61h-.34l-.07.07c0,.91-.02,1.83.03,2.74,0,.02-.02.07,0,.3l-.46-.04c.04-.37-.06-2.93.03-3.05.03-.04.38.02.41-.03.03-.04.02-.86.03-1,.66.08.38-.1.44-1,.04-.09.37,0,.41-.05.03-.04-.02-.84,0-.97.07,0,.47-.03.49-.07,0-.32,0-.64,0-.95,0-.02.05-.01.05-.01.63.05.4-.01.44-.85,0-.03.03-.03.03-.03l.52-.04v-.56s0-.05.01-.05c.16,0,.33,0,.49,0-.07-.87.56.05.49-.82.88.1.14-.35.79-.27-.08-.98.57.06.49-.93h.87c.09-.04,0-.4.05-.44.03-.02.75.03.78-.01-.05-.62.03-.38.86-.42l.05-.46,1.31.03.05-.46h1.25l.05-.44h2.54c.07.03-.01.21.01.41Z"/>
        <path class="cls-38" d="M22.85,14.2l-.46.04c0,.35.01.7,0,1.05-.17,0-.35-.03-.41.04-.01.36.02.72,0,1.08,0,0,0,.02,0,.03l-.49.04v.97l-.03.03h-.46v.76l-.03.03h-.55v.57c-.07,0-.46.02-.48.03-.07.04-.02.33-.05.35-.05.03-.32-.03-.34-.03-.08-.54.24-.23.3-.37.02-.04-.02-.27,0-.3.03-.04.14,0,.16-.03.03-.04-.08-.26.11-.27-.03-.73.05-.47.15-.53.08-.04.02-.16.05-.19.06-.04.37.12.31-.23.38.01.2-.17.25-.25.03-.05.19.16.14-.56.09-.01.19,0,.29,0,.07-.03.03-.2.04-.27.25.08.19-.35.03-.38.08-.15.39.35.3-.8-.02-.06-.14,0-.27-.01-.05,0-.09,0-.14,0-.03-.08.03-.22,0-.3h.05l.49-.04c.03-.14-.03-.31-.03-.45,0-.26.06-.53.05-.79.08,0,.32.01.34,0,.03-.02.01-.27.01-.33.49.14.18-.54.27-.67.04-.06.37.05.35-.07,0-.33,0-.65,0-.98,0-.49,0-.98,0-1.47,0,0,.03.02.03-.05l.46.04c-.05.35.08,2.95-.04,3.04-.03.02-.39-.03-.42.01-.04.05,0,1.1,0,1.27Z"/>
        <path class="cls-66" d="M18.63,19.36c-.03.13.03.26.03.38,0,.51-.02.23-.44.37.05.59-.12.33-.26.4-.01,0-.02.11-.08.14-.24.09-.53-.23-.45.35-.04,0-.07,0-.11,0-.07,0-.4-.06-.45-.03-.07.05.14.23-.27.25-.06.26-.49.08-.57.14-.04.03.02.18-.05.22-.22.1-.27-.23-.37.27,0,.04-.03.03-.03.03-.11-.03-.88-.05-.91-.03-.1.07.16.35-.2.44-.02,0-.15.03-.16.03-.16.01-.78-.09-.89-.05-.09.03-.06.17-.07.18-.07.08-.2-.03-.16.31-.07,0-.15,0-.22,0-.79,0-1.57-.03-2.36-.03-.01,0-.25.05-.26.05-.14,0-.29-.03-.44-.03-.02-.1-.04-.2-.03-.3,0-.13.08-.26.08-.27h.93c.49-.01.98.01,1.47,0,.08,0,.51.02.53,0,.05-.04-.04-.4.05-.44.26,0,.52,0,.78,0,.11,0,.22,0,.33,0,.19,0,.37,0,.56,0-.01-.67.05-.42.93-.46l.05-.44c.86-.04.92.21.93-.46.12-.02.81.02.85,0,.05-.03-.03-.34.05-.38.82.07.43-.18.57-.25.04-.02.18.02.2-.01.02-.03-.03-.34.01-.37.02-.01.34,0,.42,0Z"/>
        <path class="cls-60" d="M8.65,21.7s-.06.07-.05.14c-.29-.07-.58,0-.87,0,0,0-.02,0-.03,0,0-.42-.28-.18-.37-.25-.04-.03.01-.19-.03-.22-.03-.02-.41.02-.44,0-.04-.03,0-.19-.01-.23-.04-.08-.26-.02-.31-.04-.11-.05.22-.19-.71-.19-.05-.18-.12-.23-.14-.41-1.14.12-.19-.54-1.04-.44-.07-.03-.02-.37-.11-.41-.03-.01-.23,0-.31,0-.01-.14-.04-.29-.04-.44h-.4l-.03-.03c-.02-.55-.12-.33-.16-.42-.01-.03.01-.17,0-.19-.03-.04-.19,0-.23-.01-.09-.04.02-.2-.01-.29-.04-.08-.22-.01-.25-.05-.05-.07.12-.47-.19-.44.07-.55-.19-.25-.25-.38-.02-.04.02-.3,0-.33-.05-.07-.22.19-.16-.59.02,0,.04,0,.05,0,.32-.04.08-.15.18-.22.01,0,.27,0,.29.01.02.03-.02.68,0,.71.03.04.24-.03.27.05.02.05-.02.41,0,.44.03.04.14,0,.18.01.08.04.02.21.04.26.03.07.17.02.19.05.1.14-.25.47.33.49-.09.67.42-.06.37.67.62-.04.29.06.44.49.8-.11.36.34.49.44.81-.08.44.2.55.27.03.02.31-.02.35,0,.12.05-.19.25.55.19l.05.49h.87c-.02.61.05.36.9.41,0,.14.04.3.04.44Z"/>
        <path class="cls-38" d="M19.86,5.67c.47.03.13.15.29.22.04.02.18-.02.22,0,.02,0-.08.15.25.11-.05.42.54.45.4-.19,0-.02.08-.05.08-.05.06-.02.27.01.38,0,0,.33.05.66.03,1,.16,0,.33.04.49.04v.97s.2.01.25.01c.2.01.16.03.16.03.05.86-.22,1.09.44,1.01,0,.34.03.69.03,1.04,0,.07-.03.05-.03.05,0-.13-.36.01-.41-.1v-.57s-.12,0-.16-.01c-.14-.03-.27-.03-.41-.03,0-.16,0-.33,0-.49,0-.07-.02-.13-.03-.19,0-.01.07-.23.01-.27-.02-.02-.22.02-.25,0-.04-.03,0-.18-.01-.2-.06-.09-.24.17-.26-.29-.09,0-.19,0-.29,0-.2-.02-.42-.02-.63-.03-.23,0-.18-.03-.19-.03-.01-.25.04-.49-.05-.46,0,0-.02-.03.05-.03.2,0,.4.05.6.03,0,.05-.02.2.01.22.01,0,.33,0,.34-.01.02-.03.13-.53-.35-.4,0-.04-.03-.23-.07-.25-.14,0-.28,0-.42,0l-.04-.57h-.68c-.13.37.14.41-.4.38l-.05-.05c.02-.22-.03-.23-.03-.25-.02-.26.02-.55,0-.82.06,0,.27-.01.29,0,.04.03-.02.16.05.19.03.01.3,0,.4,0Z"/>
        <path class="cls-38" d="M1.75,14.67c.02.62-.14.63.35.6,0,.19.02.38.03.57,0,.21,0,.43,0,.64.02.02.33.02.38.01-.05.78.12.52.16.59.02.03-.02.28,0,.33.06.13.31-.16.25.38.31-.03.15.37.19.44.03.04.21-.03.25.05.04.08-.08.25.01.29.04.02.2-.02.23.01.01.02-.01.16,0,.19.04.09.14-.13.16.42-.68.1-.29-.28-.45-.35-.54.03-.45-.05-.48-.05v-.52c-.18,0-.35,0-.52,0-.03,0-.03-.03-.05-.03l.03-.75c-.03-.07-.33-.03-.49-.04,0-.32,0-.65,0-.97h-.49s0-.03,0-.04c-.01-.37,0-.74,0-1.1-.05-.07-.19-.03-.33-.04-.06,0-.06-.03-.08-.03-.06-.9.23-1.12-.44-1.04,0-.31,0-.63,0-.94.16,0,.31-.04.33-.04.64-.03.23.25.35.42.06.08.28-.21.22.49.36.03-.14.46.38.5Z"/>
        <path class="cls-66" d="M19.56,19.19s-.07.05-.08.05c-.02.01-.02-.03-.05-.01,0,0,.02.09-.04.12-.04.02-.23-.02-.27,0-.09.04,0,.26-.08.3-.09.04-.37-.08-.37.08,0-.12-.05-.26-.03-.38.07,0,.14.03.19-.04-.1-.75.3-.32.38-.49v-.44c.63-.03-.03-.39.6-.38-.07-.74.18-.38.25-.52.11-.24-.29-.57.41-.52-.02-.16.02-.32.03-.48.18.02.34,0,.52-.03,0,0,.02,0,.03,0,.05.71-.11.51-.14.56-.05.08.14.26-.25.25.05.35-.26.19-.31.23-.04.03.02.15-.05.19-.1.06-.18-.2-.15.53-.19.01-.08.23-.11.27-.03.04-.14,0-.16.03-.02.03.02.26,0,.3-.06.14-.38-.18-.3.37Z"/>
        <path class="cls-38" d="M7.7,21.84c-.11,0-.82.02-.86,0-.04-.03,0-.39-.01-.42-.03-.04-.67,0-.78-.01.01-.64-.01-.39-.9-.44-.14-.47.17-.49-.46-.46-.13-.42.16-.4-.45-.45,0-.13.01-.27,0-.4.08,0,.29-.01.31,0,.09.04.03.38.11.41.84-.11-.11.55,1.04.44.02.18.09.23.14.41.93,0,.6.14.71.19.06.02.28-.04.31.04.02.04-.02.2.01.23.03.02.41-.02.44,0,.04.03-.01.19.03.22.09.06.36-.17.37.25Z"/>
        <path class="cls-7" d="M12.96,22.74v.44c-.33-.06-2.5.07-2.6,0-.03-.02,0-.34-.01-.41.01,0,.25-.05.26-.05.79,0,1.57.03,2.36.03Z"/>
        <path class="cls-66" d="M.96,12.62s.03.05.25.03c-.02.32.03.24.38.25.03.67.12.26.22.4.02.03-.02.36,0,.38.04.05.22-.16.16.53,0,.02-.08-.03-.05.41,0,0-.15.06-.16.05-.53-.04-.02-.47-.38-.5.06-.7-.16-.41-.22-.49-.12-.17.29-.46-.35-.42v-.63c.05,0,.11,0,.16,0Z"/>
        <path class="cls-38" d="M18.93,3.41c.07,0,.46-.01.48,0,.05.03-.03.34.05.38.27.12.39-.3.44.44.17-.03.34,0,.5,0v.57c-.2-.02-.28.03-.3.03-.61-.07,0-.35-.63-.3.03-.31.01-.28-.27-.27,0-.08.03-.17-.04-.22h-.53c.09-.02.16-.03.25-.04v-.56s-.02-.02.05-.03Z"/>
        <path class="cls-8" d="M1.32,6.79c-.02.13.03.93,0,.97-.03.05-.37-.04-.41.05-.05.89.22,1.07-.44,1,0-.14-.03-.98,0-1.02.01-.02.35-.02.37-.01.05.03-.03.31.04.37q.03-.68.05-1.36c.04-.06.32.02.38.01Z"/>
        <path class="cls-38" d="M16.28,1.77s-.03,0-.03.03c-.08-.02-.4.02-.55,0,0-.02-.04-.06-.03-.18-.31-.19.21-.25-.49-.29-.21-.01-.42,0-.63,0,.04-.39-.32.05-.25-.46h1.21s0,.42.01.45c.11.15.91-.31.74.45Z"/>
        <path class="cls-38" d="M19.47,19.25c.09.71-.29.34-.42.44.07.82-.53-.07-.42.8-.04.09-.37,0-.41.05-.03.05.05.41-.04.45-.25,0-.5,0-.75,0-.08-.59.21-.27.45-.35.06-.02.07-.13.08-.14.14-.06.31.19.26-.4.41-.14.43.15.44-.37,0-.16.28-.04.37-.08.09-.04,0-.26.08-.3.04-.02.23.02.27,0,.06-.03.04-.12.04-.12.03-.02.04.02.05.01Z"/>
        <path class="cls-60" d="M9.96,22.16s-.07.15-.08.27c-.47.05-.28-.15-.34-.19-.09-.07-.5.06-.53.05,0,0,.02,0-.14-.03-.08-.01-.16-.04-.25-.04.03-.13-.02-.27-.03-.4,0-.07.06-.09.05-.14h1.27c0,.14.05.33.04.46Z"/>
        <path class="cls-38" d="M18.52,3.08s-.27.01-.38,0c.11-.6-.07-.38-.52-.38-.06,0-.13,0-.19,0-.37-.01-.17-.22-.22-.49h.97c-.06.77.3.35.4.48.01.02.02.43-.05.4Z"/>
        <path class="cls-38" d="M17.32,20.99c.18.72-.66.28-.83.41-.05.04.04.4-.05.44h-.83c.1-.5.15-.18.37-.27.08-.03.02-.19.05-.22.08-.06.51.12.57-.14.41-.02.2-.2.27-.25.05-.04.38.03.45.03Z"/>
        <path class="cls-38" d="M14.27.85c-.03.05-.23.08-.27.08-.15,0-.31,0-.46,0,.05-.29-.16-.17-.5-.19,0-.1-.02-.2-.04-.3.88.07,1.43-.25,1.28.41Z"/>
        <path class="cls-53" d="M18.14,3.08c.11.01.34-.02.38,0,0,0,.02.06.05.05v.9s-.02.02-.14.03c-.06,0-.36.01-.38-.01,0-.17,0-.34,0-.5,0-.63.08-.44.08-.46Z"/>
        <path class="cls-38" d="M14.29,22.3c.08.59-.08.43-1.12.44-.03-.35.1-.24.16-.31,0,0-.02-.14.07-.18.1-.04.73.07.89.05Z"/>
        <path class="cls-83" d="M22.83,8.81c-.66.08-.38-.14-.44-1.01.02,0,.14-.14.46-.01.03.34-.03.69-.03,1.02Z"/>
        <path class="cls-8" d="M2.3,4.91c-.04.83.19.89-.44.85,0-.04-.05-.02-.05-.04,0-.27,0-.55,0-.82.03-.06.47-.07.49.01Z"/>
        <path class="cls-8" d="M1.32,16.44c-.08.02-.31.06-.35-.01-.03-.05-.07-1.01.03-1.13.14,0,.28-.03.33.04,0,.37-.01.74,0,1.1Z"/>
        <path class="cls-8" d="M21.46,5.75c-.11.01-.32-.02-.38,0-.11-.03-.03-.55-.05-.87.69-.26.43.22.44.87Z"/>
        <path class="cls-7" d="M8.6,21.84c0,.13.05.26.03.4.08,0,.17.03.25.04-.15-.02-1.09.03-1.13,0-.03-.02,0-.37-.01-.44.29,0,.58-.07.87,0Z"/>
        <path class="cls-38" d="M15.58,21.86c-.01.07.02.38-.01.41h-1.1c.36-.08.11-.37.2-.44.04-.03.8,0,.91.03Z"/>
        <path class="cls-8" d="M21.46,17.47l.03.75h-.49v-.74h.46Z"/>
        <path class="cls-83" d="M22.23,7.77s-.23.01-.25-.01v-.97s.2-.06.38-.01c-.05.33.12.88-.14,1Z"/>
        <path class="cls-45" d="M17.18,2.18c-.13.02-.31.06-.44.05-.06,0-.39-.06-.41-.05-.02-.11.06-.34-.08-.38,0-.02,0-.02.03-.03.24-.03.62.02.89,0v.41Z"/>
        <path class="cls-38" d="M9.88,22.44c0,.1,0,.2.03.3-.92,0-.94.14-.9-.44.03,0,.44-.12.53-.05.06.04-.13.24.34.19Z"/>
        <path class="cls-8" d="M21,4.83h-.57l-.03-.03v-.57c.09,0,.53-.09.57.01-.02.2.01.39.03.59Z"/>
        <path class="cls-52" d="M12.99.44c.02.1.03.2.04.3.34.02.56-.1.5.19-.25,0-.54-.01-.79-.03-.09,0-.18,0-.27,0v-.46c.15,0,.35.02.49-.03,0,0,.02-.01.03.03Z"/>
        <path class="cls-8" d="M2.84,4.28v.56l-.52.04c.01-.21,0-.43,0-.64.46-.07.49.04.52.04Z"/>
        <path class="cls-38" d="M21,4.83s.04-.01.03.05c.02.32-.06.84.05.87,0,0-.08.04-.08.05-.05-.1-.18-.03-.27-.05.03-.07.4,0,.25-.37-.05-.1-.42.03-.52-.1,0-.1.02-.4-.03-.46h.57Z"/>
        <g>
          <path class="cls-8" d="M2.27,18.24c-.07,0-.42.09-.46-.01,0-.26,0-.52,0-.78.17,0,.46-.03.49.04l-.03.75Z"/>
          <path class="cls-8" d="M2.84,18.78s-.17.14-.52.01v-.53c.17,0,.34,0,.5,0v.52Z"/>
        </g>
        <path class="cls-38" d="M4.24,19.66c-.44-.03-.51.14-.44-.44h.4c0,.15.03.29.04.44Z"/>
        <path class="cls-50" d="M14.32.87c-.08.51.29.07.25.46h-.52s-.04-.28-.05-.41c.04,0,.25-.03.27-.08l.05.03Z"/>
        <path class="cls-60" d="M17.21,2.21c.05.27-.15.48.22.49-.69,0-.34-.14-.45-.22-.06-.04-.28.13-.23-.25.12,0,.31-.03.44-.05l.03.03Z"/>
        <path class="cls-10" d="M18.93,3.41c-.07,0-.05.03-.05.03-.01,0-.11-.06-.27-.01l-.03.5v-.79c.35-.07.38-.08.35.27Z"/>
        <path class="cls-70" d="M.8,12.62v.3h-.33c-.02-.23,0-.28,0-.3.11,0,.22,0,.33,0Z"/>
        <path class="cls-53" d="M.85,9.81l.05.05c.04.78.02,1.56.03,2.34,0,.13-.02.29.03.41-.05,0-.11,0-.16,0-.11,0-.22,0-.33,0-.04-.91-.02-1.83-.03-2.74l.07-.07h.34Z"/>
        <path class="cls-82" d="M6.06,10.3s-.11.07,0,.14c-.08-.02-.34.04-.35-.08,0,0,0-.02,0-.03,0-.05.02-.1-.04-.14-.07,0-.17.01-.23,0,.03-.41-.04-.28-.35-.3-.11,0-.22.03-.27-.04v-.59l.05-.05c.58-.07.32.19.4.25.03.02.65-.02.76,0,0,.28.04.57.04.85Z"/>
        <path class="cls-82" d="M3.55,5.75c0,.11,0,.58,0,.76l.41.03s.05.26.03.46l-.08.25h-.35c0-.07.01-.21,0-.23-.03-.07-.12-.03-.16-.04-.04,0-.17.02-.19-.01-.03-.05,0-1.05,0-1.19l.35-.03Z"/>
        <path class="cls-82" d="M7.59,9.98v.74c-.13,0-.26,0-.4,0-.01.11-.04.1-.04.11-.09,0-.18,0-.27,0-.3-.01.03-.12-.3-.16-.08,0-.19-.02-.27-.03,0-.15-.12-.16-.25-.19-.11-.07,0-.13,0-.14h.27c.28.01.54,0,.82-.03.36-.03.44.13.41-.33l.03.03Z"/>
        <path class="cls-10" d="M6.88,10.82c-.04.43.05.28.27.33.04,0,.02.05.04.05.09.01.28,0,.4,0,.01.06-.02.3.01.33.02.01.29,0,.37,0,.14.44-.17.22-.65.25,0-.08.03-.17-.04-.22h-.42c0-.14,0-.28,0-.42-.02-.03-.3-.01-.35-.01-.21,0-.42,0-.63,0,.7-.12.75.21.71-.46.33.04,0,.15.3.16Z"/>
        <path class="cls-82" d="M4.89,8.07c.02.18-.02.37-.03.55-.16.02-.31-.02-.46-.03.04-.35-.03-.23-.46-.25-.04-.38-.05-.26-.05-.27,0-.02.02-.06.03-.3.07.04.38.04.41.01.03-.03.09-.74-.08-.75.04,0,.12-.01.14.01v.98c.03.07.36.04.52.04Z"/>
        <path class="cls-9" d="M6.74,2.32v.57c-.34,0-.68-.01-1.01,0-.13,0-.25.03-.38.03,0-.01-.06-.06-.01-.25.15,0,.84.02.9-.03.04-.03-.01-.3.03-.33.02-.01.4,0,.48,0Z"/>
        <path class="cls-81" d="M2.98,7.14h-.48s-.04-.12-.04-.14c-.05-.76.2-.52.27-.59.11-.09-.12-.79.2-.64.08.04.03,1.12.04,1.36Z"/>
        <path class="cls-61" d="M11.54.44c.03.41-.05.33-.05.35-.73-.04-.49.08-.55.15-.05.08-.12.02-.18.04-.02,0-.01.05-.01.05-.07.02-.23-.01-.33,0h-.03s0-.06,0-.08c0,0,.08.01.08-.01V.44c.36,0,.71,0,1.06,0Z"/>
        <path class="cls-55" d="M5.3,3.35s.03.03.03.14c0,.06-.05.18-.05.19-.4-.05-.23.15-.27.2-.03.04-.14,0-.16.03-.09.13.27.42-.49.34,0-.13-.02-.25-.03-.38.41-.07.14-.2.22-.31.03-.04.22,0,.26-.01.11-.05-.18-.18.5-.19Z"/>
        <path class="cls-73" d="M8.73,1.55s.05.15.05.25c0,.13,0,.25,0,.38-.23.05-.47.03-.71.03,0-.22,0-.44,0-.65.22-.01.44,0,.65,0Z"/>
        <path class="cls-61" d="M8.08,1.55c0,.22,0,.44,0,.65-.16,0-.65-.01-.71,0l-.03-.38c.56-.03.22-.21.37-.27.03-.01.27,0,.37,0Z"/>
        <path class="cls-23" d="M4.4,8.59c.15,0,.31.05.46.03,0,.2,0,.4,0,.6l-.05.05-.55-.07-.03-.61c.16.02.16,0,.16,0Z"/>
        <path class="cls-36" d="M3.85,4.77c0,.15.01.31,0,.46-.03.36-.2.11-.27.2-.01.02,0,.2,0,.26,0,0-.02-.02-.03.05l-.35.03c0-.12-.01-.31,0-.37,0-.03.07,0,.08-.03.02-.04-.03-.15.04-.18.04-.02.15.02.18-.01.02-.02-.02-.25,0-.27.04-.06.14.1.19-.18.15-.02.16.03.16.03Z"/>
        <path class="cls-56" d="M9.39.95v.68c-.19.02-.35-.08-.38.16h-.22c0-.09-.05-.23-.05-.25,0-.58.29-.21.45-.33.04-.03,0-.22.01-.26.04-.09.18-.01.19-.01Z"/>
        <path class="cls-36" d="M4.32,3.87c0,.13.02.25.03.38,0,.15,0,.31,0,.46-.15,0-.34.05-.49.05,0,0-.02-.05-.16-.03,0-.03-.05-.12-.03-.18.04-.08.16-.02.19-.05.02-.02-.02-.22,0-.25.07-.1.36.21.33-.38.08-.09.13-.01.14-.01Z"/>
        <path class="cls-53" d="M4.29,9.87s-.08.1-.44.04c-.04-.05.03-.57.03-.67.55-.03.39-.01.41.63Z"/>
        <path class="cls-63" d="M1.37,9.19l-.03.61s-.08,0-.11.01c-.12.02-.26-.05-.33.05l-.05-.05c.1.02.04-.34.05-.61.03-.04.37,0,.46-.01Z"/>
        <path class="cls-29" d="M3.91,7.25c0,.17,0,.35,0,.52,0,.24-.03.28-.03.3-.45.05-.26-.11-.3-.59,0-.02-.05,0-.05-.04-.01-.15.03-.18.03-.19h.35Z"/>
        <path class="cls-59" d="M7.34,1.83l.03.38c-.18.05.13.08-.52.11,0-.1.02-.2.03-.3.07,0,.27.01.29,0,.05-.03-.02-.17.01-.22.17,0,.16.03.16.03Z"/>
        <path class="cls-24" d="M12.47.44v.46c-.47-.05-.24-.09-.3-.18-.04-.05-.18.11-.14-.29.15,0,.29,0,.44,0Z"/>
        <path class="cls-36" d="M6.06,10.44c.12.03.25.04.25.19-.66-.03-.58.21-.6-.27.02.13.27.06.35.08Z"/>
        <path class="cls-73" d="M10.1.95v.05c-.12.02-.28-.05-.35.05-.09.12.1.26-.35.16v-.27c.24,0,.47,0,.71,0Z"/>
        <path class="cls-36" d="M4.4,8.59s0,.02-.16,0c-.09-.01-.19,0-.29,0-.03-.02,0-.2-.01-.25.43.02.5-.1.46.25Z"/>
        <path class="cls-79" d="M10.4.95s0,.06,0,.08c-.07.23.07.31-.27.27,0-.09-.02-.11-.03-.16,0-.05,0-.09,0-.14v-.05h.3Z"/>
        <path class="cls-23" d="M5.43,10.2c-.08-.02-.03-.04-.11-.05-.2-.04-.27.13-.25-.25.32.02.38-.11.35.3Z"/>
        <path class="cls-23" d="M5.43,10.2c.06.01.16,0,.23,0,.06.04.04.08.04.14-.24.23-.38.15-.38-.19.08.02.03.04.11.05Z"/>
        <path class="cls-23" d="M3.55,7.25s-.04.04-.03.19c-.21.12-.12-.11-.14-.46.05.01.13-.02.16.04.01.02,0,.16,0,.23Z"/>
        <path class="cls-71" d="M7.18,1.8c-.04.05.03.18-.01.22-.02.01-.22,0-.29,0,0-.01-.08-.12.01-.22.1,0,.19,0,.29,0Z"/>
        <path class="cls-53" d="M22.25,9.21c0,1,.01,2-.03,3-.01.29-.01.58-.03.87,0,.06.01.31-.01.33-.02.01-.26,0-.34,0,0,0-.05,0-.05-.01,0-.3,0-.59,0-.89,0-1.09,0-2.19,0-3.28.02-.02.05,0,.05-.04.14,0,.27,0,.41.03Z"/>
        <path class="cls-57" d="M22.83,9.9c0,.49,0,.98,0,1.47-.05,0-.25-.02-.27.01-.02.04-.06.82-.05.86l-.27-.03c.04-1,.03-2,.03-3,.04,0,.14-.02.16.01v.57c.05.11.42-.03.41.1Z"/>
        <path class="cls-34" d="M22.83,11.37c0,.33,0,.65,0,.98-.24.05-.31.08-.33-.11,0-.04.03-.82.05-.86.02-.03.22,0,.27-.01Z"/>
        <path class="cls-75" d="M22.5,12.24c.01.19.09.16.33.11.01.12-.32.01-.35.07-.09.13.22.81-.27.67.01-.29.02-.58.03-.87l.27.03Z"/>
        <path class="cls-75" d="M21.38,16c0,.06-.02.13-.03.19-.01.07.03.24-.04.27-.09,0-.2-.01-.29,0,0,0-.02,0-.03,0-.04-.48-.13-.49.38-.46Z"/>
        <path class="cls-10" d="M21.19,14.23c-.02.27-.01.27.14.46h-.05c-.08-.24-.29.17-.3-.35,0,0,.03-.11.03-.14.13-.02.18.03.19.03Z"/>
        <path class="cls-66" d="M21.35,16.19c0-.06.02-.13.03-.19,0-.06-.01-.17,0-.19.16.03.23.46-.03.38Z"/>
        <path class="cls-81" d="M14.05,21.73c-.11,0-.22,0-.33,0-.14-.44.52-.43.33,0Z"/>
        <path class="cls-53" d="M2.57,16.49s-.04,0-.05,0c-.05,0-.37,0-.38-.01,0-.21,0-.43,0-.64.58-.12.39.02.44.65Z"/>
        <path class="cls-36" d="M20.1,5.15c.05.26.11.16.33.19,0,.28.07.11.18.16.1.04-.04.2.12.25.09.02.22-.05.27.05.14.64-.45.61-.4.19-.32.04-.23-.1-.25-.11-.04-.02-.18.02-.22,0-.16-.07.18-.19-.29-.22.03-.52-.16-.55.25-.52Z"/>
        <path class="cls-38" d="M20.18,6.79l.03.41c-.07,0-.05.03-.05.03-.41-.01-.82-.05-1.23-.03.05,0,.2-.03.22-.07,0-.15,0-.28.03-.42-.02.14.62.07,1.01.08Z"/>
        <path class="cls-23" d="M19.2,6.6s-.02.08-.03.11c-.03.15-.03.27-.03.42-.02.04-.17.06-.22.07-.03,0-.13.03-.14.03-.02,0-.24-.03-.33-.03.07-.15,0-.31,0-.33,0-.01.05-.05.03-.27,0,0,.02,0,.03,0,.1,0,.2,0,.3,0,.15,0,.28.03.33-.05l.05.05Z"/>
        <g>
          <path class="cls-11" d="M20.32,6.79s-.09,0-.14,0c-.39,0-1.03.06-1.01-.08,0-.03,0-.06.03-.11.54.03.26-.01.4-.38h.68l.04.57Z"/>
          <path class="cls-11" d="M20.32,6.79c.14,0,.28,0,.42,0,.04.02.06.2.07.25,0,.06,0,.13,0,.19-.2.03-.4-.02-.6-.03l-.03-.41s.09,0,.14,0Z"/>
          <path class="cls-25" d="M20.81,7.22c0-.06,0-.13,0-.19.48-.13.37.37.35.4-.01.02-.33.02-.34.01-.03-.02,0-.17-.01-.22Z"/>
        </g>
        <g>
          <path class="cls-40" d="M18.79,5.45c.11-.02.22.01.33.03.02.26-.02.56,0,.82-.07,0-.27-.01-.29,0-.03.02,0,.24-.01.3-.1,0-.2,0-.3,0,.03-.19-.03-.39-.03-.57,0-.17.05-.4.05-.57h.25Z"/>
          <path class="cls-82" d="M19.12,6.3s.05.03.03.25c-.05.09-.17.05-.33.05.01-.06-.02-.28.01-.3.02-.01.22,0,.29,0Z"/>
        </g>
        <path class="cls-67" d="M2.11,14.64c0,.21,0,.42,0,.63-.49.03-.33.02-.35-.6.01,0,.15-.05.16-.05,0,0,.06.04.19.03Z"/>
        <path class="cls-34" d="M1.59,12.89c-.35,0-.41.07-.38-.25,0,0,.05-.02.05-.04,0-.14-.03-.28-.03-.42,0-.62.03-1.24.03-1.85.06.01.3-.02.33.01.07.1-.02,2.21,0,2.55Z"/>
        <path class="cls-75" d="M1.21,12.65c-.22.02-.23-.03-.25-.03-.05-.12-.03-.28-.03-.41l.3-.03c0,.14.03.28.03.42,0,.02-.05.04-.05.04Z"/>
        <path class="cls-7" d="M2.11,14.64c-.13.02-.18-.03-.19-.03-.03-.44.05-.39.05-.41.28-.07.14.28.14.44Z"/>
        <path class="cls-23" d="M20.4,4.8l.03.03c.05.06.03.36.03.46,0,0-.03-.02-.03.05-.22-.03-.28.07-.33-.19-.02-.09.01-.23,0-.33.01,0,.1-.05.3-.03Z"/>
        <path class="cls-20" d="M18.87,3.43v.56c-.09.01-.16.02-.25.04-.08.02-.05,0-.05,0v-.11l.03-.5c.16-.05.26.01.27.01Z"/>
        <path class="cls-33" d="M16.26,1.8c.14.04.06.27.08.38-.2.03-.1.13-.18.16-.04.02-.34-.01-.45,0-.01-.16.02-.34,0-.49,0-.02,0-.04,0-.05.15.02.46-.02.55,0Z"/>
        <path class="cls-76" d="M15.71,1.8s0,.04,0,.05c-.07-.05-.05,0-.05,0-.08,0-.35,0-.38,0-.02,0-.05.01-.08-.04v-.48c.71.03.18.09.49.29-.02.12.02.16.03.18Z"/>
        <path class="cls-60" d="M18.14,3.08s-.08-.17-.08.46c-.02,0-.02,0-.03-.03-.01-.12.01-.27,0-.4-.07-.15-.38.21-.41-.42.44,0,.63-.22.52.38Z"/>
        <path class="cls-38" d="M18.06,3.54c0,.17,0,.34,0,.5.02.02.33.02.38.01.06.17.01.37.03.55,0,.06,0,.12,0,.18.04.05.06.04.08.04-.08.21,0,.42,0,.63,0,.18-.05.4-.05.57-.1,0-.2,0-.3,0v-.83c-.03-.07-.61-.04-.74-.04-.03-.09.03-.31.03-.33.1-.02.59.04.63-.04.17-.39-.57-.16-.63-.25v-.98l.55-.04s0,.03.03.03Z"/>
        <path class="cls-64" d="M20.73,5.75c-.16-.04-.02-.2-.12-.25-.11-.05-.17.12-.18-.16,0-.07.03-.05.03-.05.1.13.47,0,.52.1.16.36-.22.29-.25.37Z"/>
        <path class="cls-43" d="M8.57,12.02c0,.1,0,.82-.03.86-.03.05-.37-.04-.41.05.03.58-.04,1.21,0,1.79-.33.08-.34-.03-.35-.03-.01-.1.02-.48,0-.5-.02-.04-.39,0-.46-.01.03-.92-.13-.38-.22-.59-.02-.04.03-.23-.01-.26-.03-.02-.22.04-.26-.04-.02-.05.03-.34-.01-.37-.02-.02-.21.02-.23-.01,0,0,0-.21,0-.22.05-.07.28.15.22-.34.06,0,.13,0,.19,0,.11,0,.22,0,.33,0,.11,0,.23.03.35.03.06,0,.34.01.35-.01-.03-.19.02-.38.03-.56h.5s.01.18.01.22Z"/>
        <path class="cls-62" d="M9.82,18.97v1.2h-.63v-1.19s.53,0,.63-.01Z"/>
        <path class="cls-46" d="M1.24,9.81c-.03.17.03.35.03.52,0,.62-.03,1.24-.03,1.85l-.3.03c0-.78,0-1.56-.03-2.34.07-.1.21-.03.33-.05Z"/>
        <g>
          <path class="cls-67" d="M9.52,16.55s0,.05-.01.05c-.28,0-.55,0-.83,0,0-.35.02-.72,0-1.06.83-.09.34.25.46.53.08.17.48-.25.38.48Z"/>
          <path class="cls-83" d="M9.85,17.15h-1.19s.01-.47.01-.55c.28,0,.55,0,.83,0,.02,0,.01-.05.01-.05.04,0,.31.03.33.07,0,.18,0,.35,0,.53Z"/>
        </g>
        <path class="cls-53" d="M9.85,20.75c0,.15,0,.31,0,.46-.1,0-.56.07-.61.03,0-.08-.03-.17-.04-.25,0-.01.05-.07.03-.25h.63Z"/>
        <path class="cls-62" d="M9.22,20.75c.02.18-.03.23-.03.25l-.49-.04v-.6l.45-.04c0,.46.07.41.07.44Z"/>
        <g>
          <path class="cls-44" d="M2.46,7.01s.03.13.04.14h.48c0,.08-.01.26,0,.29.08.18.42-.31.33.63.5.09-.19.62.57.55,0,.21,0,.43,0,.64,0,.1-.07.61-.03.67.36.06.41-.04.44-.04.14,0,.32.05.46.04l.04.56c.82-.07.43.18.57.25.25.11.51-.29.5.41.21,0,.42,0,.63,0-.09.44.03.41.03.44,0,.11-.07.72-.03.78.1.03.2,0,.3.01.06.49-.17.27-.22.34,0,0,0,.21,0,.22.03.04.21,0,.23.01.04.03,0,.32.01.37.04.08.23.02.26.04.04.03,0,.22.01.26.09.21.25-.34.22.59,0,.17-.03.36-.05.53.04.06.44-.02.52-.01.02,0,.02.11.35.03,0,.02,0,.04,0,.05,0,.04-.01.17.01.19h.5c-.02.2.02.39.03.57.02.35,0,.71,0,1.06,0,.08-.04.52-.01.55h1.19c0,.26,0,.53,0,.79,0,.34-.04.67,0,1.01-.04,0-.03.03-.03.03-.1,0-.6-.02-.63.01v1.17h.63s.03.04.03.04c0,.18,0,.36,0,.55h-.63s-.07.02-.07-.44l-.45.04v.6l.49.04c0,.08.04.17.04.25.06.04.52-.03.61-.03v.05c.15,0,.28,0,.41,0v.38c.22,0,.42,0,.63,0v.52h-.93c0-.13-.05-.32-.04-.46h-1.27c0-.14-.04-.29-.04-.44-.85-.05-.92.2-.9-.41h-.87l-.05-.49c-.74.06-.42-.14-.55-.19-.05-.02-.33.02-.35,0-.1-.07.26-.35-.55-.27-.13-.1.3-.55-.49-.44-.15-.43.18-.53-.44-.49.05-.72-.46,0-.37-.67-.58-.02-.23-.35-.33-.49-.03-.04-.16.02-.19-.05-.02-.05.04-.22-.04-.26-.04-.02-.15.02-.18-.01-.02-.03.02-.39,0-.44-.04-.08-.24-.01-.27-.05-.02-.03.02-.68,0-.71-.01-.02-.27-.02-.29-.01-.09.07.15.18-.18.22-.05-.64.15-.77-.44-.65,0-.19-.02-.39-.03-.57,0-.21,0-.42,0-.63,0-.16.14-.5-.14-.44.06-.7-.13-.48-.16-.53-.02-.03.02-.36,0-.38-.09-.14-.18.27-.22-.4-.02-.34.07-2.44,0-2.55-.02-.03-.27,0-.33-.01,0-.17-.06-.35-.03-.52.03,0,.09.01.11-.01l.03-.61s.12.01.14-.01c-.08-.98.19-.53.27-.65.02-.03-.02-.57,0-.6.03-.04.18.02.22-.05.02-.05-.02-.41,0-.44.03-.04.18.02.22-.05.08-.17-.17-.44.25-.37Z"/>
          <g>
            <path class="cls-62" d="M4.44,16.08h1.21c.02.15-.03.98,0,1.02.03.04.35-.01.38.03.02.03-.02.44,0,.49.06.13.31-.25.2.7h-.53q-.02-.35-.04-.68h-.97c.08-.74-.21-.41-.27-.5-.03-.04.01-.91.01-1.05Z"/>
            <g>
              <path class="cls-38" d="M2.98,9.54c0,.59.07,1.19,0,1.79h-.86c-.1-.03-.02-1.58-.01-1.79h.87Z"/>
              <path class="cls-67" d="M2.98,9.54h-.87c0-.08-.07-.53-.01-.57h.93s.01.48.01.56c0,.02-.05.01-.05.01Z"/>
            </g>
            <path class="cls-62" d="M6.51,18.56c.42,0,.07.21.25.6.24.09.48-.29.38.52-.69.03-.34-.02-.49-.55h-.48v-.53c.1,0,.32-.04.34-.04Z"/>
            <g>
              <path class="cls-38" d="M4.4,12.89c0,.08-.02,1.46-.03,1.69,0,.08.01.5-.01.52h-.94v-2.36h.94c0,.08.04.14.04.15Z"/>
              <path class="cls-67" d="M5.65,12.95c0,.14,0,.29,0,.44,0,.19,0,.36,0,.55,0,.14,0,.34,0,.35,0,.07-.04.2-.04.3-.27-.04-.56-.04-.83-.03v-1.66c.28,0,.55,0,.83,0,.02,0,0,.05.04.05Z"/>
              <path class="cls-53" d="M4.78,12.89v1.66c-.13,0-.27.05-.41.03,0-.23.04-1.61.03-1.69h.38Z"/>
              <path class="cls-38" d="M5.65,13.39c0-.14,0-.29,0-.44,0,0,.06-.06.07-.05.22.01.43.05.65.03.07.64.03.43-.72.46Z"/>
              <path class="cls-38" d="M5.65,14.28s0-.22,0-.35c.09-.03.72-.05.75-.03.02.01.02.35.01.37-.03.04-.66,0-.76.01Z"/>
            </g>
          </g>
        </g>
        <path class="cls-35" d="M7.78,14.69c-.08,0-.48.07-.52.01.02-.17.05-.36.05-.53.07.01.44-.02.46.01.02.02-.01.41,0,.5Z"/>
        <path class="cls-6" d="M6.85,11.56h-.33s-.11,0-.03-.44c.06,0,.33-.01.35.01,0,.14,0,.28,0,.42Z"/>
        <path class="cls-18" d="M11.43,21.29c-.16,0-.33,0-.49,0-.23,0-.45-.02-.68-.03-.13,0-.26,0-.4,0v-.05c.1,0,.2,0,.31,0,.3,0,.61.06.91.03l.07-.07c-.07-.11,0-.14,0-.15.05.2.34-.08.27.27Z"/>
        <path class="cls-12" d="M11.46,5.1l.03.52c-.06.01-.16-.03-.19.04-.02.05.03.26-.01.29-.1.07-.46-.15-.37.19-.14,0-.28-.03-.33.04v.53c-.19,0-.34,0-.52.03-.32.06-.08.04-.16.23-.03.08-.18,0-.22.08-.02.03.02.15-.01.18-.11.08-.25-.17-.29.16,0,.08.01.25,0,.29-.05.11-.33-.06-.38.12,0,.04,0,.19,0,.27.04.05-.49.08-.68.08-.17,0-.41,0-.57-.03v-.41c.67.07.36-.1.45-.93h.93c-.08-.76.36-.29.53-.46.07-.06-.02-.15.1-.19.67.04.42-.11.48-.23.28-.12-.16-.26.55-.27l.04-.56c.18.03.36-.02.53-.03.03,0,.1.05.11.05Z"/>
        <path class="cls-38" d="M9.41,8.53c-.46,0-.37-.04-.38.35h-1.46l-.04.49c-.15,0-.3-.03-.35.04v.5c-.23,0-.45,0-.68,0-.18-.82.27-.41.35-.53.01-.02-.01-.35,0-.44-.32,0-.66.03-.98.01-.03-.55,0-.34.52-.38.13-.01.16-.03.16-.03,0,.13.09.22.05.34.06.05.12-.02.16-.01.17.02.24.02.41,0,.05,0,.23.02.26,0,.03-.02,0-.17.01-.22,0-.08-.03-.17.04-.22.28,0,.55,0,.83,0,.04,0,.13.09.71.05.35-.02.37.06.35-.37.63-.04.28-.22.42-.29.23-.1.4.25.34-.42.52-.23.55.27.52-.68.04-.09.38,0,.42-.04.05-.03-.04-.37.05-.41h1.74c0-.21.04-.43.04-.64,0-.02-.05-.01-.05-.01,0-.17.06-.37.03-.55.07,0,.05-.03.05-.03.15,0,.4-.03.44.04v.55c-.71-.01-.31.07-.48.7h-1.74c-.09.04,0,.35-.05.38-.04.03-.38-.05-.42.04v.63h-.48c.05.77-.23.37-.38.48-.04.03.03.24-.05.27-.22.1-.38-.24-.37.38Z"/>
        <path class="cls-42" d="M6.39,8.12c-.12-.05-.81-.1-.85-.01v.82c.05.07.19.03.33.04.32.02.66,0,.98-.01-.01.09.01.42,0,.44-.08.12-.53-.29-.35.53-.12,0-.19.27-.16.38h-.27c0-.28-.05-.57-.04-.85-.11-.02-.73.02-.76,0-.08-.06.18-.31-.4-.25,0-.2,0-.4,0-.6,0-.18.05-.36.03-.55.5.02.99-.05,1.49-.03v.08Z"/>
        <path class="cls-9" d="M8.79,2.21c0,.07,0,.15,0,.22,0,.06-.3.37.35.3,0,.12.01.34,0,.45,0,.02-.05,0-.05.04l-.49.03c0-.16-.05-.34-.03-.5-.62-.08-.49.02-.49.67h-.5c0,.12-.03.24-.04.35l-.33.03s-.04.03-.03-.33c0,0,.05-.02.05-.04.01-.23-.01-.46,0-.68h.83s.01-.46.01-.53c.23,0,.48.02.71-.03,0,0,0,.02,0,.03Z"/>
        <path class="cls-14" d="M9.8,4.72s-.03.03-.05.03c-.24,0-.47,0-.71,0-.14,0-.29-.03-.44-.03-.14,0-.3.03-.44.03-.17,0-.35-.02-.52-.03v-.57q1.06-.01,2.11-.03l.04.6Z"/>
        <path class="cls-9" d="M10.75,4.8c.2.01.4,0,.6,0v.25c-.17,0-.35.05-.53.03l-.04.56c-.71,0-.27.15-.55.27-.05.12.19.27-.48.23-.12.04-.03.13-.1.19.04-.68-.17-.89.31-.82-.02.38.53.34.3-.27-.26-.12-.63.32-.53-.49.03,0,.03-.03.05-.03.54,0,.39-.06.41-.05.04,0,.02.05.04.05.55.03.48.08.5.08Z"/>
        <path class="cls-9" d="M6.39,8.12v.46c-.52.04-.55-.17-.52.38-.14,0-.28.03-.33-.04v-.82c.04-.08.73-.04.85.01Z"/>
        <path class="cls-49" d="M7.75,8.12c.16.02.41.03.57.03v.3c-.28,0-.55,0-.83,0-.07.05-.03.14-.04.22-.06,0-.15.01-.19,0-.01,0-.18-.12-.14-.16-.04-.49.09-.27.19-.34.04-.02-.03-.2.01-.23.01,0,.26,0,.27,0,.08.06-.12.15.15.19Z"/>
        <path class="cls-61" d="M4.24,7.03c.17,0,.11.72.08.75-.03.03-.34.03-.41-.01,0-.17,0-.35,0-.52l.08-.25c.08.05.17.01.25.03Z"/>
        <path class="cls-9" d="M4.45,4.77c-.01.07.02.44-.01.46-.02.02-.49-.01-.59,0,.01-.15,0-.31,0-.46.15,0,.34-.05.49-.05,0,0-.05.06.11.05Z"/>
        <path class="cls-82" d="M3.99,6.24c-.39.01-.47-.09-.44.27,0-.18,0-.65,0-.76,0-.07.03-.05.03-.05,0,.12.37.01.41.07.01.02,0,.4,0,.48Z"/>
        <path class="cls-82" d="M7.18,3.46c-.01.36.03.31.03.33,0,.11,0,.22,0,.33-.1,0-.2,0-.3,0,0-.59-.08-.71.27-.65Z"/>
        <g>
          <path class="cls-69" d="M7.37,2.21c.05-.01.55,0,.71,0,0,.08.01.5-.01.52h-.83c-.01.24.01.47,0,.7,0,.02-.05.04-.05.04-.35-.05-.28.06-.27.65,0,.09,0,.18,0,.27,0,.06-.01.31.01.33.22,0,.45,0,.67,0,.11.08.08.18.08.3,0,.18-.03.51.04.55.01,0,.31,0,.33,0,.03-.02.01-.25.01-.3h.14c.58.06.36-.17.42-.22.11-.07.51.2.42-.3.24,0,.47,0,.71,0-.1.81.27.37.53.49.23.61-.32.65-.3.27-.48-.08-.27.14-.31.82-.17.17-.61-.29-.53.46h-.93c-.09.83.22,1-.44.93v.41c-.28-.04-.08-.13-.16-.19-.01,0-.26,0-.27,0-.04.03.02.21-.01.23-.1.07-.23-.15-.19.34-.12.03-.26.04-.38.05-.06,0-.13,0-.19,0,0,0-.04.02-.16.03v-.55c-.51-.02-1,.04-1.5.03-.15,0-.49.03-.52-.04v-.98s-.1,0-.14-.01c-.08-.01-.17.03-.25-.03.03-.2-.03-.44-.03-.46,0-.09.03-.2.03-.3,0-.07.01-.46,0-.48-.04-.06-.42.05-.41-.07,0-.06-.01-.24,0-.26.07-.1.24.16.27-.2.1-.01.56.02.59,0,.04-.02,0-.39.01-.46.06,0,.43-.01.45-.03.07-.05-.16-.31.35-.25,0-.26.06-.49.07-.55.45.05.38-.06.33-.46.17-.04.04-.43.08-.6.33-.01.66,0,1,0v-.57s.09,0,.12,0c.65-.03.34-.06.52-.11Z"/>
          <path class="cls-32" d="M5.73,2.89c-.04.17.09.56-.08.6-.07.02-.23-.01-.33,0,0-.11-.03-.12-.03-.14,0-.14.04-.3.05-.44.13,0,.25-.02.38-.03Z"/>
          <path class="cls-69" d="M5.27,3.68s.06.26.05.27c0,.06-.07.29-.07.55-.52-.07-.28.19-.35.25-.02.01-.38.03-.45.03-.16,0-.1-.05-.11-.05,0-.15,0-.31,0-.46.77.08.4-.22.49-.34.03-.04.14,0,.16-.03.04-.06-.13-.25.27-.2Z"/>
          <path class="cls-9" d="M8.05,5.26c0,.05.01.28-.01.3-.01,0-.31,0-.33,0-.07-.03-.03-.37-.04-.55.54-.01.39,0,.38.25Z"/>
          <path class="cls-69" d="M7.64,4.72c.17,0,.35.03.52.03l.03.44v.08h-.14c0-.24.16-.26-.38-.25,0-.12.03-.22-.08-.3.02,0,.04,0,.05,0Z"/>
          <path class="cls-73" d="M5.65,3.49c.06.4.12.51-.33.46,0-.01-.06-.26-.05-.27,0,0,.05-.13.05-.19.1-.01.26.02.33,0Z"/>
        </g>
        <path class="cls-30" d="M9.03,4.74c.09.5-.32.23-.42.3-.07.05.16.28-.42.22v-.08h.35c.03-.18.09-.24.05-.46.15,0,.3.03.44.03Z"/>
        <path class="cls-3" d="M7.26,8.67c-.12-.03-.08.07-.08.22-.17.02-.24.02-.41,0l-.03-.33c.12-.01.26-.03.38-.05-.05.05.13.16.14.16Z"/>
        <path class="cls-73" d="M3.99,6.24c0,.1-.03.21-.03.3l-.41-.03c-.03-.37.05-.26.44-.27Z"/>
        <path class="cls-23" d="M7.21,4.12c.07,0,.05.03.05.03-.17.02.06.29-.35.25,0-.09,0-.18,0-.27.1,0,.2,0,.3,0Z"/>
        <path class="cls-74" d="M6.74,8.56l.03.33s-.1.06-.16.01c.04-.12-.05-.21-.05-.34.06,0,.13,0,.19,0Z"/>
        <path class="cls-35" d="M11.49.79s.08.2-.01.25c-.24.11-.29-.36-.26.94.58.08.25.06.4.53h.68c.03-.14.09-.28.1-.3l.35.04c-.04.32.04.94.03,1.19-.02.33-.13.24-.41.25-.02-.38-.04-.75-.03-1.13h-.72c-.02.39-.02.8-.01,1.21,0,.12-.03.88,0,.91.01.02.22.02.23.01.04-.03-.02-.18.05-.22.01,0,.31,0,.33,0,.08.05-.13.24.2.3v.03c-.35,0-.71.01-1.06,0-.2,0-.4.01-.6,0-.14-.48.15-.28.46-.34.07-.67-.07-.4-.98-.45,0-.07-.01-.16,0-.22.05-.27.22.09.27-.3.22.02.26-.03.27-.03.12,0,.23.04.35.03l.05-.04v-1.04s-.39-.06-.46-.07c-.02-.2.03-.51,0-.68-.02-.15-.22-.03-.3-.11.44.06.38-.16.33-.52,0,0-.01-.05.01-.05.05-.02.13.03.18-.04.05-.07-.18-.19.55-.15Z"/>
        <path class="cls-40" d="M7.59,10.71c.15,0,.29,0,.44,0,0,.17,0,.33,0,.49-.15,0-.29,0-.44,0-.12,0-.3.01-.4,0-.02,0,0-.05-.04-.05.07-.16,0-.31,0-.33,0,0,.03,0,.04-.11.13,0,.26,0,.4,0Z"/>
        <path class="cls-38" d="M8.02,10.14c.01.13,0,.3,0,.44,0,.05,0,.09,0,.14-.15,0-.29,0-.44,0v-.74l.42-.03s0,.15.01.19Z"/>
        <path class="cls-40" d="M6.5,9.92c.23,0,.45,0,.68,0,.13,0,.25,0,.38,0v.03c-.55-.01-.33,0-.41.33-.27.02-.54.04-.82.03-.02-.11.04-.38.16-.38Z"/>
        <path class="cls-73" d="M7.56,9.95c.03.46-.04.29-.41.33.08-.33-.14-.34.41-.33Z"/>
        <path class="cls-23" d="M7.15,10.82s.07.17,0,.33c-.23-.05-.32.11-.27-.33.09,0,.18,0,.27,0Z"/>
        <path class="cls-53" d="M8.02,10.14s.01-.17-.01-.19l-.42.03-.03-.03v-.03c.11,0,.75-.02.78,0,.04.03.12.3-.31.22Z"/>
        <g>
          <path class="cls-53" d="M6.85,11.56c.01.47-.08.8.14.79-.06,0-.13,0-.19,0-.1,0-.2.02-.3-.01-.04-.06.03-.66.03-.78h.33Z"/>
          <path class="cls-67" d="M7.32,11.78c0,.08.03.05.03.05,0,.03-.05.33-.03.52-.11,0-.22,0-.33,0-.22.01-.12-.32-.14-.79h.42c.07.05.03.14.04.22Z"/>
        </g>
        <path class="cls-38" d="M8.02,11.53c0,.27.03.26.03.27,0,.18-.05.37-.03.56-.02.03-.3.01-.35.01-.1-.4.15-.6-.33-.55,0,0-.02.02-.03-.05.48-.02.79.19.65-.25h.05Z"/>
        <path class="cls-28" d="M8.02,11.2c0,.11,0,.22,0,.33h-.05c-.08,0-.35.01-.37,0-.03-.02,0-.27-.01-.33.15,0,.29,0,.44,0Z"/>
        <path class="cls-26" d="M10.42,1.04c-.04.09-.05.47,0,.52.08.08.28-.04.3.11-.38.01-.76-.03-1.14.03-.04,0-.09,0-.14,0l-.05-.05v-.08s.32.1.35.01c-.07-.29.07-.34-.35-.26v-.08c.46.1.27-.04.35-.16h.03c-.04.07-.06.46.01.49.24.11.32-.04.34-.25.34.04.2-.04.27-.27h.03Z"/>
        <path class="cls-51" d="M10.75,1.04c.05.36.11.57-.33.52-.05-.05-.04-.43,0-.52.1-.01.25.02.33,0Z"/>
        <path class="cls-48" d="M9.01,1.8s.05.19.03.38c-.01,0-.02.05-.25.03,0,0,0-.02,0-.03,0-.13,0-.25,0-.38h.22Z"/>
        <path class="cls-73" d="M9.39,1.64l.05.05-.03.48c-.12.08-.22.01-.38.01.03-.19-.03-.36-.03-.38.03-.25.19-.15.38-.16Z"/>
        <path class="cls-2" d="M9.39,1.55v-.25c.42-.08.29-.03.35.26-.03.09-.31.03-.35-.01Z"/>
        <path class="cls-84" d="M10.1,1.01s0,.09,0,.14c-.07-.19-.02.09-.18.05-.07-.02-.04-.17-.15-.14h-.03c.07-.1.23-.04.35-.05Z"/>
        <path class="cls-6" d="M10.1,1.14s.04.08.03.16c-.02.21-.1.35-.34.25-.07-.03-.05-.42-.01-.49.11-.04.08.12.15.14.16.04.1-.25.18-.05Z"/>
        <path class="cls-33" d="M17.05,11.8c0,.08-.04.42-.03.45.07.14.38-.18.3.37l.04.05.53.04v.59c.3.05,2.26-.07,2.36,0,.09.06-.18.3.34.29,0,.22-.01.44,0,.65,0,.02.05.01.05.01,0,.05,0,.34-.01.35-.02.01-.37.01-.38,0-.04-.03,0-.21-.01-.23-.03-.04-.22,0-.26-.01-.08-.03-.02-.19-.05-.22-.03-.02-.52,0-.61,0-.09,0-.19.03-.27.03-.14,0-1.01,0-1.05-.03-.05-.03.03-.29-.05-.33-.05-.02-.42.03-.45-.01-.12-.17.38-.42-.7-.34-.09.04,0,.32-.05.35-.15.11-.81-.26-.67.34-.04.06-.1.04-.16.04-.73.04-.55-.08-.59-.46-.14,0-.28,0-.42,0-.02-.64-.08-.39-.67-.44-.07-.29.13-.46-.26-.49.01-.07-.02-.41.01-.44.03-.02.65,0,.75,0,.4,0,.79,0,1.19,0v-.63c.37.02.92-.05,1.13.05Z"/>
        <path class="cls-38" d="M20.59,12.79c0,.05,0,.1,0,.16.01.27-.23.41.44.3,0,0-.03.03-.03.14,0,.27,0,.55,0,.82,0,.03-.03.13-.03.14,0-.13-.18-.07-.33-.08,0,0-.05,0-.05-.01-.01-.22,0-.44,0-.65-.53.01-.25-.23-.34-.29-.1-.07-2.05.05-2.34,0v-.59q-.28-.02-.55-.04l-.04-.05c.21-.03.48.09.6-.11,0,.08,0,.17,0,.26l.07.04c.3-.08,1.78.02,1.88-.03.08-.03.02-.21.04-.23.05-.07.31.13.25-.29.06,0,.39-.01.41.01-.02.17.02.34.03.5Z"/>
        <path class="cls-43" d="M20.7,15.7c-.28.01-.22.14-.25.52-.81.13.02-.59-.71-.53-.05-.67.11-.38.2-.45.04-.03-.02-.16.05-.19.03-.01.58-.02.7-.03.02.2-.03.53,0,.68Z"/>
        <g>
          <path class="cls-37" d="M12.39,21.65c0,.17.02.35-.03.52-.49.01-.98-.01-1.47,0v-.52s.02,0,.03,0c.49,0,.98,0,1.47,0Z"/>
          <path class="cls-53" d="M10.94,21.29c-.09.06-.07.25-.03.35,0,0-.02,0-.03,0-.2,0-.41,0-.61,0v-.38c.22,0,.44.02.67.03Z"/>
          <path class="cls-53" d="M11.43,21.29c.32.02.64.05.97.03.12.26-.01.31-.01.33-.49,0-.98,0-1.47,0-.04-.11-.06-.3.03-.35.16,0,.33,0,.49,0Z"/>
        </g>
        <g>
          <path class="cls-53" d="M21.38,15.81s0,.13,0,.19c-.51-.02-.42-.02-.38.46-.17.02-.34.04-.52.03.02-.21-.03-.26-.03-.27.02-.38-.03-.51.25-.52.03.2.27.26.44.25.42-.03-.06-.18.46-.26-.04-.56.14-.69-.19-.7.13,0,.25-.05.27.01.09,1.15-.22.66-.3.8Z"/>
          <path class="cls-67" d="M21.41,14.99c.33,0,.15.13.19.7-.53.08-.05.23-.46.26.04-.39-.1-.94.11-.95,0,0,.02,0,.03,0,.05,0,.09,0,.14,0Z"/>
          <path class="cls-35" d="M21.25,14.99c-.21.01-.07.56-.11.95-.17.01-.4-.05-.44-.25-.03-.16.02-.49,0-.68.19-.01.36-.03.55-.03Z"/>
        </g>
        <g>
          <path class="cls-44" d="M19.04,14.18c.01.09-.01.43,0,.45.01.02.25.02.26.01.04-.03,0-.42.01-.49.09,0,.59-.02.61,0,.04.03-.02.18.05.22.04.02.23-.03.26.01.02.02-.02.21.01.23.02.01.37.01.38,0,.02-.02.02-.31.01-.35.14.01.33-.05.33.08.01.52.22.11.3.35.03.08-.03.22,0,.3,0,0-.02,0-.03,0-.19,0-.36.01-.55.03-.12,0-.66.01-.7.03-.07.03-.02.17-.05.19-.09.07-.25-.22-.2.45.73-.06-.1.66.71.53,0,.01.04.06.03.27-.01.16-.05.32-.03.48-.69-.05-.3.27-.41.52-.06.14-.32-.22-.25.52-.63,0,.03.35-.6.38v.44c-.08.17-.49-.26-.38.49-.05.07-.12.03-.19.04-.08,0-.4-.01-.42,0-.04.03,0,.34-.01.37-.03.04-.17,0-.2.01-.15.06.24.32-.57.25-.09.04,0,.35-.05.38-.03.02-.73-.02-.85,0-.01.67-.07.42-.93.46l-.05.44c-.88.04-.94-.21-.93.46-.19,0-.37,0-.56,0,.2-.43-.46-.44-.33,0-.26,0-.52,0-.78,0-.09.04,0,.4-.05.44-.02.02-.45,0-.53,0,.05-.17.02-.35.03-.52,0-.02.14-.07.01-.33-.32.02-.64-.01-.97-.03.06-.35-.22-.07-.27-.27.01-.09,0-.22,0-.33,0-.07-.01-.38,0-.4.08-.11.48.26.38-.45.14,0,.28,0,.42,0,.18-.08-.28-.55.49-.44.03-.69.26-.3.41-.41.04-.03-.03-.26.05-.3.04-.02.3.02.33,0,.1-.07-.18-.58.3-.46-.01-.2.56-.07.95-.11.04-.03,0-.77.01-.8.03-.04.26.03.3-.05.13-.29-.34-.46.61-.4.14-.47-.19-.5.45-.5-.12-.71.4-.31.49-.44v-1.28c-.45-.14-.49.17-.46-.45.06,0,.12.02.16-.04-.15-.6.52-.24.67-.34.05-.03-.03-.32.05-.35,1.07-.07.58.17.7.34.03.04.4-.01.45.01.09.04,0,.29.05.33.04.03.91.03,1.05.03Z"/>
          <g>
            <path class="cls-67" d="M18.47,15.81c-.28.03-.64-.02-.93,0,0,0-.05,0-.05-.01-.03-.35.02-.78,0-1.14l1.16-.04q0,.59.01,1.19s-.15,0-.19.01Z"/>
            <path class="cls-67" d="M14.23,19.44h.98v.78q-.48,0-.98.01v-.79Z"/>
            <path class="cls-11" d="M18.47,15.81v.38h-.94s.03-.25.01-.38c.29-.02.65.03.93,0Z"/>
            <path class="cls-62" d="M16.68,18.59h.6v.5q-.29,0-.6.01v-.52Z"/>
            <g>
              <path class="cls-67" d="M18.71,16.85v.75h-.89q0,.36-.01.71h-.48c-.14-1.05.28-.58.37-.71.02-.03-.02-.64,0-.75.33,0,.67.01,1.01,0Z"/>
              <g>
                <path class="cls-38" d="M19.34,16.27v.52s-.02.05-.04.05c-.17.02-.4,0-.59,0-.33.01-.67,0-1.01,0-.26,0-.52,0-.78,0v-.6c.81-.01,1.61,0,2.41.03Z"/>
                <path class="cls-80" d="M19.34,16.79v-.52s.25-.06.41-.01v.52s-.34,0-.41.01Z"/>
              </g>
            </g>
            <path class="cls-35" d="M13.74,20.72s.29.03.34.01c-.03.47.16.67-.41.52.08-.14-.03-.45.07-.53Z"/>
          </g>
        </g>
        <path class="cls-35" d="M19.31,14.15c-.01.08.02.47-.01.49-.01,0-.25,0-.26-.01-.01-.02.01-.36,0-.45.08,0,.18-.03.27-.03Z"/>
        <path class="cls-10" d="M17.59,11.5s0,.04,0,.05c0,.13-.07.54-.03.64.04.08.31.02.34.04.03.02,0,.22.01.27-.12.2-.38.08-.6.11.08-.54-.23-.22-.3-.37-.02-.03.03-.37.03-.45,0-.09.03-.19.03-.27l.52-.03Z"/>
        <path class="cls-38" d="M18.36,7.2s.07,0,.11,0c.09,0,.31.03.33.03v.5l-.44.05c.09.85-.36.09-.31.78-.54-.11-.22.38-.31.5-.05.08-.15-.15-.19.29-.37.02-.44-.09-.41.22-.02,0-.04,0-.05,0,0-.14-.01-.69,0-.72.04-.08.26-.02.29-.04.04-.03-.01-.22.03-.25.02-.02.23.02.26-.01.02-.03-.02-.41,0-.44.07-.1.27.21.31-.34.29-.09.46.26.34-.57.02,0,.04,0,.05,0Z"/>
        <path class="cls-64" d="M17.54,9.35s.03.09.03.19c-.13.05-.3.03-.44.03-.04-.31.04-.2.41-.22Z"/>
        <g>
          <path class="cls-22" d="M18.63,4.03h.53c.07.05.03.13.04.22.02.21-.03.31-.03.33l-.71.03c-.01-.18.03-.38-.03-.55.11,0,.12-.03.14-.03,0,0-.02.02.05,0Z"/>
          <path class="cls-2" d="M19.17,4.58s.02.02.03.03v.19s-.03.03-.03.03c-.17-.02-.53.03-.63,0-.02,0-.05.01-.08-.04,0-.06,0-.12,0-.18l.71-.03Z"/>
        </g>
        <g>
          <path class="cls-61" d="M20.1,4.83c.01.1-.02.24,0,.33-.4-.03-.21,0-.25.52-.1,0-.36.01-.4,0-.07-.03-.02-.17-.05-.19-.02-.01-.22,0-.29,0-.11-.01-.21-.05-.33-.03l-.03-.59c.14-.02.27,0,.41-.04,0,0-.01-.01.03-.03.06-.02.1-.04.18-.03.07-.04.03-.11.04-.14.03-.07.05-.1.05-.11.63-.05.01.23.63.3Z"/>
          <path class="cls-59" d="M19.47,4.53s-.02.03-.05.11c-.04-.02-.21-.02-.22-.03-.01,0-.02,0-.03-.03,0-.02.04-.12.03-.33.29,0,.3-.04.27.27Z"/>
          <path class="cls-82" d="M19.17,4.83c-.14.04-.27.02-.41.04l.03.59h-.25c0-.2-.08-.42,0-.63.1.03.46-.02.63,0Z"/>
          <path class="cls-52" d="M19.42,4.63s.03.1-.04.14c-.07-.01-.11,0-.18.03v-.19s.17,0,.22.03Z"/>
        </g>
        <path class="cls-62" d="M18.19,6.02c.1,0,.2,0,.3,0,0,.18.06.38.03.57,0,0-.02,0-.03,0h-.55c.01-.18-.01-.36,0-.53,0-.02.2-.04.25-.04Z"/>
        <path class="cls-65" d="M18.49,6.6c.02.22-.03.26-.03.27l-.33.03s-.05-.11-.03-.3h.38Z"/>
        <path class="cls-3" d="M18.47,7.2s-.07,0-.11,0c-.37-.04-.21-.05-.22-.3l.33-.03s.07.17,0,.33Z"/>
        <path class="cls-43" d="M16.12,2.78c0,.16,0,.33,0,.49,0,.15.03.3-.04.35-.25,0-.5,0-.75,0-.01-.07.02-.38-.01-.41-.02-.01-.43,0-.5,0-.01-.04.02-.05.03-.08,0-.07-.03-.32.04-.35.12,0,.25,0,.37,0,.13,0,.27,0,.41,0,.03,0,.03-.03.05-.03.13,0,.28.03.41.03Z"/>
        <path class="cls-35" d="M12.99,3.49c.21-.02.47.02.68,0,.02.28.16.16.35.16.09,0,.18,0,.27,0,.01.25,0,.5,0,.75-.02.03-.36,0-.44.01-.07-.09,0-.4-.04-.44-.04-.03-.83,0-.97,0-.02,0-.04,0-.05,0v-.45c.05-.07.12-.03.19-.04Z"/>
        <g>
          <path class="cls-68" d="M12.03.44c-.04.4.1.23.14.29.06.09-.17.13.3.18.09,0,.18,0,.27,0-.05.14.02.72-.03.78-.05.05-.32-.03-.35.05-.04.08.03.45.03.48,0,.02-.06.16-.1.3h-.68c-.15-.47.19-.46-.4-.53-.03-1.3.02-.83.26-.94.1-.04.01-.23.01-.25,0-.02.09.06.05-.35.16,0,.33,0,.49,0Z"/>
          <path class="cls-17" d="M13.53.93c.15,0,.31,0,.46,0,.01.13.06.39.05.41,0,0-.05.02-.05.04,0,.13-.03.99.04,1.02.02.01.33,0,.34-.01.03-.04-.02-.91,0-1.05h.19c.21,0,.42-.01.63,0v.48c.04.05.06.04.08.04-.08.21,0,.42,0,.63,0,.02-.05.1-.03.3-.12,0-.25,0-.37,0-.07.03-.03.28-.04.35l-.04-.44c-.88-.05-.54.12-.61.23-.04.05-.18-.11-.14.29-.03,0-.03.03-.05.03-.23,0-.36-.13-.33.25-.22.02-.47-.02-.68,0,.02-.15-.08-.04-.22-.05.02-.24-.07-.87-.03-1.19l-.35-.04s-.06-.4-.03-.48c.04-.09.31,0,.35-.05.05-.05-.03-.64.03-.78.25.02.54.03.79.03Z"/>
          <path class="cls-68" d="M14.38,1.34c-.02.14.03,1.01,0,1.05-.01.02-.32.02-.34.01-.07-.03-.04-.89-.04-1.02,0-.02.05-.04.05-.04h.33Z"/>
          <path class="cls-77" d="M14.84,3.13s-.04.04-.03.08c-.08,0-.09.03-.11.03-.16,0-.3,0-.46,0-.16,0-.18-.03-.19-.03-.04-.4.1-.23.14-.29.08-.11-.27-.29.61-.23l.04.44Z"/>
        </g>
        <path class="cls-61" d="M15.66,1.85c0,.19-.03.38-.03.57,0,.11-.26.1-.35.05,0-.2-.08-.42,0-.63.04,0,.3,0,.38,0Z"/>
        <path class="cls-61" d="M12.99,3.49c-.07,0-.14-.03-.19.04v.45c-.15,0-.3,0-.45,0-.05-.18.01-.28.01-.3.28,0,.39.08.41-.25.14.02.24-.1.22.05Z"/>
        <path class="cls-51" d="M13.99,3.24l.03.41c-.2,0-.33.12-.35-.16-.03-.38.09-.24.33-.25Z"/>
        <path class="cls-20" d="M15.66,2.78c-.14,0-.27,0-.41,0-.02-.2.03-.28.03-.3.1.04.35.06.35-.05,0,.11.05.24.03.35Z"/>
        <path class="cls-10" d="M14.24,3.24c.03.13.05.28.05.41-.09,0-.18,0-.27,0l-.03-.41s.03-.03.05-.03c0,0,.03.03.19.03Z"/>
        <path class="cls-41" d="M15.71,1.85c.02.15-.01.34,0,.49v.41s-.03.03-.05.03c.03-.12-.02-.24-.03-.35,0-.19.03-.38.03-.57,0,0-.01-.05.05,0Z"/>
        <path class="cls-38" d="M17.07,9.57c-.03.66,0,1.3,0,1.96,0,.08-.03.18-.03.27-.21-.11-.76-.04-1.12-.05l-.03-.03c-.06-1.12,0-2.24-.03-3.35h.71v1.16c.03.07.35.04.49.04Z"/>
        <path class="cls-67" d="M9.09,11.59c0,.06.01.42-.01.44h-.5s.01-.2-.01-.22h-.5s-.03,0-.03-.27c0-.11,0-.22,0-.33,0-.16,0-.33,0-.49,0-.05,0-.09,0-.14.99-.07.5.17.63.45.39.13.43-.18.44.56Z"/>
        <path class="cls-44" d="M12.28,4.03c.04.26.12.18.57.19,0,.06.03.2.05.27-.12,0-.25,0-.37,0-.17.39.31.11.37.27-.14-.02-.37.02-.49,0-.33-.06-.13-.24-.2-.3-.01,0-.31,0-.33,0-.08.03-.02.19-.05.22,0,0-.22,0-.23-.01-.03-.04,0-.79,0-.91h.64c.07.03.03.18.04.27Z"/>
        <path class="cls-6" d="M9.03,8.89c0,.15,0,.34,0,.49-.5.02-1-.03-1.5,0l.04-.49h1.46Z"/>
        <g>
          <path class="cls-62" d="M15.88,8.37c.03,1.12-.03,2.24.03,3.35-.18.05-.39.03-.57.03-.02-.03-.08-.06-.08-.1-.01-.11,0-1.93,0-2.26,0,0,.05-.13.05-.14.01-.61-.03-1.23.03-1.84.17-.02.35.02.52-.01-.02.32.02.65.03.97Z"/>
          <g>
            <path class="cls-67" d="M15.33,7.41c-.06.61-.01,1.23-.03,1.84,0,0-.05.13-.05.14,0,.33-.01,2.15,0,2.26,0,.03.07.07.08.1-.19,0-.38,0-.57,0,0-.82,0-1.64,0-2.47l.52-.05v-1.83c.05-.04.05.01.05.01Z"/>
            <path class="cls-8" d="M15.93,11.75v.63c-.41,0-.8,0-1.2,0,.05-.2.03-.42.03-.63.19,0,.38,0,.57,0,.18,0,.4.02.57-.03l.03.03Z"/>
          </g>
        </g>
        <g>
          <path class="cls-53" d="M9.41,8.53s.1.36.05.8h.78c.11.06-.02.7.08.75.03.01.26.01.29-.04.03-.07-.04-1.15.01-1.19h1.19c.03.17-.04,1.19,0,1.24.08.12.38-.26.33.44-.53.06-.34.02-.4-.42-.75-.07-.43.18-.52.25-.1.07-.23.03-.23-.19-.02.18.19.18.2.16.08-.1-.21-.36.59-.26v-.71l-.72-.04c.01.24-.06.63-.07.82-.48-.13-.31.11-.4.14-.02,0-.44-.01-.46-.03-.11-.08.27-.45-.49-.35,0-.18-.3-.09-.6-.11-.03-.02-.01-.35-.01-.41,0-.15,0-.34,0-.49,0-.4-.08-.36.38-.35Z"/>
          <path class="cls-62" d="M11,10.17s0-.02,0-.03c0-.19.08-.57.07-.82l.72.04v.71c-.8-.1-.5.16-.59.26-.01.01-.22.02-.2-.16Z"/>
        </g>
        <path class="cls-62" d="M16.12,3.27c0-.16,0-.33,0-.49.35,0,.69,0,1.04-.01l-.04.5h-1Z"/>
        <path class="cls-1" d="M13.86,4.42s-.04.07-.07.08c-.29,0-.59-.01-.89,0-.02-.07-.05-.21-.05-.27,0,0,.04-.1,0-.19v-.05c.13,0,.93-.03.97,0,.05.03-.03.35.04.44Z"/>
        <path class="cls-53" d="M17.48,4.83s-.06.24-.03.33c-.22,0-.45,0-.67,0v-.56q.32,0,.65-.01c0,.15.04.23.04.25Z"/>
        <path class="cls-53" d="M14.81,3.22c.08,0,.48-.01.5,0,.03.02,0,.34.01.41-.67.02-.59-.03-.63-.03v-.35s.02-.03.11-.03Z"/>
        <path class="cls-78" d="M14.7,3.24v.35s.13.05-.41.05c0-.13-.03-.28-.05-.41.16,0,.3,0,.46,0Z"/>
        <g>
          <path class="cls-44" d="M16.75,2.24c-.05.38.17.2.23.25.1.07-.24.21.45.22.06,0,.13,0,.19,0,.03.63.34.27.41.42.01.13-.01.27,0,.4l-.55.04v.98c.06.08.8-.14.63.25-.04.08-.53.02-.63.04,0-.01-.03-.1-.04-.25h-.67q0,.29.01.57c.22,0,.45,0,.67,0,.12,0,.7-.03.74.04v.83s-.24.02-.25.04c-.01.18.01.36,0,.53,0,.03-.09.16-.05.56.06.07.23.03.41.04.12.84-.05.48-.34.57-.04.55-.24.24-.31.34-.02.03.02.41,0,.44-.03.04-.23,0-.26.01-.04.03.01.22-.03.25-.03.02-.25-.04-.29.04-.01.03,0,.59,0,.72-.14,0-.46.03-.49-.04v-1.17h-.71c0-.31-.05-.63-.03-.95-.17.03-.35-.01-.52.01,0,0,0-.06-.05-.01v1.83l-.52.05c0,.82,0,1.64,0,2.47,0,.2.02.43-.03.63-.1,0-.72-.02-.75,0-.03.02,0,.37-.01.44-.02,0-.34.08-.38-.01-.02-.05.02-.33,0-.35-.03-.05-.32.03-.35-.05-.1-.23.3-.43-.53-.37l-.03-.46h-.65l-.03-.44h-2.51c-.12.09.26.58-.4.46,0-.74-.04-.43-.44-.56-.12-.28.37-.52-.63-.45,0-.14.01-.3,0-.44.43.08.35-.19.31-.22-.03-.02-.67,0-.78,0-.13,0-.25,0-.38,0v-.5c.05-.07.2-.03.35-.04.5-.03,1,.02,1.5,0,0,.06-.01.39.01.41.3.02.6-.08.6.11.76-.09.38.27.49.35.02.01.44.03.46.03.08-.03-.09-.26.4-.14,0,0,0,.02,0,.03,0,.22.13.26.23.19.09-.06-.23-.31.52-.25.05.44-.13.48.4.42.06-.7-.25-.32-.33-.44-.04-.05.03-1.07,0-1.23h-1.19s.02,1.1-.01,1.17c-.02.05-.25.06-.29.04-.11-.05.02-.69-.08-.74h-.78c.05-.46-.05-.78-.05-.82-.01-.62.15-.28.37-.38.08-.04.01-.24.05-.27.15-.1.43.3.38-.46h.48v-.64c.04-.09.38,0,.42-.04.05-.03-.03-.34.05-.38h1.74c.16-.62-.23-.71.48-.7v-.55c-.03-.07-.28-.03-.44-.04-.09.02-.04-.13-.05-.3-.06-.17-.54.12-.37-.27.12,0,.25,0,.37,0,.29-.01.59,0,.89,0,.02,0,.06-.08.07-.08.07-.01.41.02.44-.01,0-.25.01-.5,0-.75.54,0,.39-.05.41-.05.03,0-.04.05.63.03.25,0,.5,0,.75,0,.07-.05.03-.2.04-.35h1l.04-.5c-.35.01-.69.01-1.04.01-.13,0-.28-.03-.41-.03v-.41c.11-.01.41.02.45,0,.08-.04-.02-.14.18-.16.02,0,.35.05.41.05Z"/>
          <path class="cls-38" d="M16.03,4.39l.07.04v1.53h-.97q0-.76-.01-1.53l.91-.04Z"/>
          <path class="cls-62" d="M17.01,6.3l.56.04-.04,1.27h-.53q0-.66.01-1.31Z"/>
          <path class="cls-53" d="M13.68,5.72h.48q0,.29-.01.57h-.48q0-.29.01-.57Z"/>
          <path class="cls-62" d="M11.8,6.73s.52-.02.55,0c.02.01.02.3.01.31-.01.02-.54.03-.56.01-.02-.02-.02-.31,0-.33Z"/>
        </g>
        <path class="cls-10" d="M12.9,4.77c0,.17-.04.32.05.3,0,0,.02.03-.05.03-.09,0-.16,0-.25,0-.01,0-.04-.02-.25-.03v-.3c.12.02.35-.02.49,0Z"/>
        <path class="cls-10" d="M18.11,6.6c-.02.19.03.28.03.3.01.25-.15.26.22.3-.02,0-.04,0-.05,0-.18,0-.35.03-.41-.04-.04-.4.05-.53.05-.56h.16Z"/>
        <path class="cls-72" d="M7.67,12.38c-.12,0-.24-.03-.35-.03-.03-.19.03-.49.03-.52.48-.05.22.14.33.55Z"/>
        <path class="cls-38" d="M12.63,5.62s.03.05.25.03c0,0,.05,0,.05.01,0,.21-.05.43-.04.64h-1.74c-.09.04,0,.37-.05.41-.04.03-.38-.05-.42.04.03.95,0,.45-.52.68.06.67-.11.32-.34.42-.14.06.2.25-.42.29.01.43,0,.35-.35.37.03-.14-.03-.3-.03-.44,0-.08,0-.24,0-.27h.37c.07-.25.29.1.23-.41.48,0,.21-.1.34-.19.03-.02.1.06.12-.01.02-.05-.01-.33,0-.45.17-.03.33-.03.5-.03v-.53c.06-.07.2-.03.34-.04.28-.01.58,0,.86.03.1-.41.26.13.29-.55.19,0,.38-.01.57,0Z"/>
        <path class="cls-13" d="M12.41,5.07c.21,0,.23.03.25.03l-.03.52c-.19-.01-.38,0-.57,0-.2,0-.37-.04-.57,0l-.03-.52c.32,0,.63-.03.95-.03Z"/>
        <path class="cls-23" d="M12.06,5.62c-.02.68-.18.14-.29.55-.28-.04-.58-.04-.86-.03-.09-.34.27-.12.37-.19.04-.03,0-.24.01-.29.03-.07.13-.03.19-.04.21-.04.37,0,.57,0Z"/>
        <path class="cls-73" d="M12.41,4.8v.27c-.32,0-.64.02-.95.03,0,0-.08-.06-.11-.05v-.25c.35.01.71,0,1.06,0Z"/>
        <path class="cls-23" d="M9.03,8.51c-.58.03-.67-.05-.71-.05v-.3c.19,0,.72-.03.68-.08,0,.14.06.29.03.44Z"/>
        <path class="cls-49" d="M10.07,6.73c-.01.12.02.4,0,.45-.03.07-.09,0-.12.01-.13.1.14.19-.34.19-.07,0-.15,0-.22,0,.04-.33.18-.09.29-.16.04-.03,0-.15.01-.18.04-.08.18,0,.22-.08.08-.19-.16-.17.16-.23Z"/>
        <path class="cls-23" d="M9.61,7.39c.06.5-.16.16-.23.41h-.37c.05-.18.33,0,.38-.12.01-.03,0-.2,0-.29.07,0,.15,0,.22,0Z"/>
        <path class="cls-49" d="M12.9,5.1c.03.18-.03.37-.03.55-.22.02-.23-.03-.25-.03l.03-.52c.08,0,.16,0,.25,0Z"/>
        <path class="cls-21" d="M7.26,8.67s.13,0,.19,0c0,.05.02.2-.01.22-.03.02-.21,0-.26,0,0-.15-.04-.24.08-.22Z"/>
        <path class="cls-5" d="M9.88,2.18s.05.05.05.05c-.14.17.2.09.55.11l.03.03c.02.27-.01.55-.03.82l-.63-.03c0-.06.01-.41,0-.42-.02-.03-.27,0-.33-.01,0-.36-.2-.63.35-.55Z"/>
        <path class="cls-56" d="M10.75,4.8s.04-.06-.5-.08c-.02,0,0-.05-.04-.05,0-.19-.01-.38,0-.57,0-.02.02-.02.03-.08.91.05,1.05-.22.98.45-.31.06-.6-.14-.46.34Z"/>
        <path class="cls-40" d="M8.6,3.24c0,.12-.02.23-.03.35-.03,0-.09-.01-.11.01,0,.09,0,.17,0,.26h-.38c-.01-.14,0-.32,0-.46,0-.65-.13-.75.49-.67-.03.17.02.34.03.5Z"/>
        <path class="cls-82" d="M10.48,3.19c0,.12.03.27.03.3-.06.39-.22.03-.27.3h-.44c0-.16,0-.36,0-.52,0,0,.05-.02.05-.11l.63.03Z"/>
        <g>
          <path class="cls-38" d="M9.58,1.69s-.03.03-.03.05c-.15-.11-.12.12-.1.41.17-.07.43.05.4-.11.06.03.01.12.03.14-.55-.08-.36.19-.35.55,0,.33-.2.54.27.55,0,.16,0,.36,0,.52,0,.05-.01.28.01.3.02.01.31-.01.4,0-.01.19,0,.38,0,.57-.02,0,.13.06-.41.05l-.04-.6-2.1.03v.57s-.05,0-.07,0c-.22,0-.45,0-.67,0-.03-.02-.01-.27-.01-.33.42.04.18-.23.35-.25.48-.02.25-.12.27-.38,0-.12.04-.24.04-.35h.5c0,.14-.01.33,0,.46,0,.08-.03.17.04.22.52.03.33-.06.34-.22,0-.09,0-.17,0-.26.02-.03.08,0,.11-.01.07-.02.51-.09.53-.11.06-.07-.02-.26-.01-.27,0-.04.05-.02.05-.04.01-.11,0-.33,0-.45,0-.05.01-.25-.01-.27-.03-.02-.23.03-.34-.03,0-.07,0-.15,0-.22.22.02.23-.03.25-.03.16,0,.27.07.38-.01l.03-.48s.09,0,.14,0Z"/>
          <path class="cls-22" d="M9.18,3.22s.27,0,.29.01c.02.04.03.84-.01.86-.03.01-.3,0-.31-.01-.02-.04,0-.84.04-.86Z"/>
        </g>
        <path class="cls-29" d="M9.85,3.16c0,.09-.05.1-.05.11-.47,0-.27-.22-.27-.55.06.01.3-.02.33.01.01.02,0,.36,0,.42Z"/>
        <path class="cls-23" d="M9.09,3.22s.07.2.01.27c-.02.02-.46.09-.53.11,0-.12.03-.23.03-.35l.49-.03Z"/>
        <path class="cls-36" d="M10.23,3.79c-.01.06,0,.15,0,.22,0,.06-.03.06-.03.08-.08-.01-.38.01-.4,0-.03-.02-.01-.25-.01-.3h.44Z"/>
        <path class="cls-29" d="M7.53,3.76c-.02.26.2.36-.27.38,0,0,.02-.02-.05-.03,0-.11,0-.22,0-.33l.33-.03Z"/>
        <path class="cls-39" d="M9.14,2.73c-.65.07-.36-.24-.35-.3.11.06.31,0,.34.03.03.02.01.22.01.27Z"/>
        <path class="cls-10" d="M8.46,3.87c-.01.16.18.24-.34.22-.07-.05-.03-.13-.04-.22h.38Z"/>
        <path class="cls-7" d="M9.55,1.74c.06.51.12.2.3.3.04.16-.22.03-.4.11-.02-.29-.06-.52.1-.41Z"/>
        <path class="cls-82" d="M8.6,4.72c.03.22-.02.28-.05.45h-.35q-.01-.2-.03-.42c.14,0,.29-.03.44-.03Z"/>
        <path class="cls-31" d="M12.36,3.68s-.06.12-.01.3c.15,0,.3,0,.45,0,.02,0,.04,0,.05,0v.05h-.57c-.01-.09.03-.24-.04-.27h-.64c0-.41,0-.82.01-1.23h.72c-.01.39,0,.77.03,1.14Z"/>
        <path class="cls-11" d="M11.13,3.49c-.01-.06.02-.3-.01-.33-.03-.02-.46-.11-.34.3-.01,0-.05.05-.27.03,0-.03-.03-.18-.03-.3.01-.27.05-.54.03-.82.3.03.21-.03.22-.03.07,0,.45.03.46.07v1.04l-.05.04Z"/>
        <path class="cls-53" d="M11.13,3.49c-.12.02-.23-.03-.35-.03-.12-.41.32-.32.34-.3.03.02,0,.27.01.33Z"/>
        <g>
          <path class="cls-47" d="M21.79,12.51c0,.3,0,.59,0,.89,0,.02.05.01.05.01,0,.26-.05.53-.05.79-.2-.03-.41.03-.6.03,0,0-.06-.04-.19-.03,0-.27,0-.55,0-.82h.76q-.01-.44-.03-.87h.05Z"/>
          <path class="cls-23" d="M21.79,14.2c0,.14.06.31.03.45l-.49.04c-.15-.2-.15-.19-.14-.46.19,0,.4-.06.6-.03Z"/>
          <path class="cls-5" d="M21.85,8.7c0,.16,0,.33,0,.49,0,.04-.04.02-.05.04,0,1.09,0,2.19,0,3.28h-.05c-.72-.08-.02.29-.71.22,0-.33,0-.66,0-1-.02-.03-.22-.01-.27-.01.06-.34-.08-2.65,0-2.77.03-.04.37,0,.4-.01.03-.02.01-.18.01-.22l.68-.03Z"/>
          <path class="cls-82" d="M18.93,7.2c.41-.02.82.02,1.23.03.1-.03.04.22.05.46-.14,0-.32.05-.46.05-.39.01-.58-.22-.49.4-.93-.07-.05.49-.79.44.11.84-.33.36-.41.55v.44c-.23.05-.48-.04-.46.07-.04,0-.03-.04-.03-.08,0-.1-.03-.18-.03-.19.04-.44.14-.21.19-.29.09-.13-.22-.61.31-.5-.04-.69.41.08.31-.78l.44-.05v-.5s.1-.02.14-.03Z"/>
          <path class="cls-61" d="M21.03,7.74v.76c-.11-.02-.28,0-.41,0,.01-.26.01-.26-.25-.25,0-.18,0-.36.03-.55.21,0,.42.01.63.03Z"/>
          <path class="cls-55" d="M21.82,8.51c-.55.09.06-.42-.79-.25v-.52c.09,0,.19,0,.29,0,.02.46.2.2.26.29.02.02-.02.18.01.2.02.02.22-.02.25,0,.05.04-.01.26-.01.27Z"/>
          <path class="cls-82" d="M21.82,8.51c0,.06.03.12.03.19l-.68.03s0-.2,0-.2c-.02-.03-.1,0-.14-.01v-.25c.85-.18.24.34.79.25Z"/>
          <path class="cls-9" d="M21.74,12.51l.03.86h-.76c0-.1.03-.11.03-.12,0-.1,0-.2,0-.3,0-.14-.03-.16-.03-.16,0,0,.03.02.03-.05.69.07-.01-.3.71-.22Z"/>
          <path class="cls-29" d="M19.07,12.49c.1,0,.56.07.61.03.11-.08-.22-.24.34-.27,0,0,.09.02.14.03.06.42-.2.22-.25.29-.02.03.04.2-.04.23-.1.04-1.58-.05-1.88.03l-.07-.04c0-.09,0-.17,0-.26,0-.05.02-.25-.01-.27-.03-.02-.3.04-.34-.04-.04-.1.03-.51.03-.64.54-.09.24.26.34.33.04.03.38-.05.42.04v.59c.07.04.6-.03.71-.03Z"/>
          <path class="cls-29" d="M17.59,9.62c0,.26,0,.53,0,.79,0,.36,0,.73,0,1.09l-.52.03c0-.66-.03-1.3,0-1.96.02,0,.04,0,.05,0,.14,0,.31.02.44-.03,0,.04-.01.08.03.08Z"/>
          <path class="cls-55" d="M20.76,11.72c.05,0,.25-.01.27.01,0,.33,0,.66,0,1,0,.07-.03.05-.03.05h-.41c0-.16-.05-.34-.03-.5-.02-.03-.35-.01-.41-.01-.05,0-.13-.03-.14-.03.01-.45.21-.11.16-.52.19,0,.38-.01.57,0Z"/>
          <path class="cls-82" d="M20.18,11.72c.05.4-.15.07-.16.52-.56.03-.23.2-.34.27-.06.04-.52-.03-.61-.03-.04-.68.08-.49.11-.53.02-.03-.02-.21.01-.23.04-.03.87,0,1,0Z"/>
          <g>
            <path class="cls-42" d="M20.4,7.71c-.03.18-.03.36-.03.55,0,.01-.05.02-.03.23.02.03.22.01.27.01.13,0,.3-.02.41,0,.04,0,.12-.01.14.01,0,0,0,.16,0,.2,0,.04.01.2-.01.22-.03.02-.37-.03-.4.01-.08.11.06,2.43,0,2.77-.19-.01-.38,0-.57,0-.13,0-.95-.03-1,0-.04.03,0,.2-.01.23-.02.04-.15-.15-.11.53-.1,0-.64.07-.7.03v-.59c-.05-.09-.39,0-.44-.04-.1-.07.2-.41-.34-.33,0-.02,0-.04,0-.05,0-.36,0-.73,0-1.09.59.36.26-.37.35-.5.03-.04.19.01.22-.03.06-.09-.16-.37.35-.33-.1-.92.41.05.34-.97h.49c-.06-.86.5.05.4-.85.14,0,.32-.06.46-.05,0,0-.04.02.19.03Z"/>
            <path class="cls-69" d="M19.75,7.74c.11.9-.46-.02-.4.85h-.49c.07,1.02-.44.04-.34.97-.51-.04-.29.24-.35.33-.03.04-.19-.01-.22.03-.09.13.23.86-.35.5,0-.26,0-.53,0-.79-.02-.11.23-.02.46-.07v-.44c.08-.19.52.3.41-.55.74.05-.14-.51.79-.44-.08-.61.1-.38.49-.4Z"/>
            <path class="cls-32" d="M20.62,8.51c-.05,0-.25.01-.27-.01-.02-.21.03-.22.03-.23.26-.01.26-.01.25.25Z"/>
          </g>
          <path class="cls-23" d="M21.03,12.95c0,.1,0,.2,0,.3-.66.11-.42-.03-.44-.3h.44Z"/>
          <path class="cls-28" d="M21,12.79s.03.03.03.16h-.44c0-.06,0-.11,0-.16h.41Z"/>
        </g>
        <path class="cls-31" d="M12.85,4.03c.04.09,0,.18,0,.19-.46-.02-.54.06-.57-.19h.57Z"/>
        <g>
          <path class="cls-38" d="M13.97,12.81c.39.03.19.2.26.49.59.04.64-.2.67.44-.08,0-.09.05-.1.05,0,0,.02-.02-.12-.03-.12,0-.25,0-.37,0-.07-.05-.03-.12-.04-.19,0-.01.06-.12-.01-.25-.09-.03-.19-.02-.29-.03-.14-.01-.29,0-.44,0,.08-.75-.27-.36-.35-.48-.11-.15.3-.43-.49-.37.08-.64-.21-.41-.65-.41-.07,0-.05-.03-.05-.03.04-.57.03-.43-.9-.44-.38,0-.76.02-1.14.03-.02,0-.23-.05-.4-.03-.21.3.17.42-.37.48.09.68-.28.33-.35.44-.01.02,0,.44,0,.52,0,.02-.05.01-.05.01-.39-.1-.15.35-.22.45-.08.11-.25-.29-.16.67,0,.06-.03.27.01.3.13.09.45-.28.37.49-.1,0-.45.02-.48,0-.07-.03,0-.19-.15-.16,0-.02,0-.04,0-.05-.04-.58.03-1.2,0-1.79.04-.09.37,0,.41-.05.02-.04.03-.76.03-.86h.5s.01-.37.01-.44c.65.12.27-.38.4-.46h2.51l.03.44h.65l.03.46c.83-.06.43.14.53.37.04.09.32,0,.35.05.02.03-.02.31,0,.35.04.1.36.01.38.01Z"/>
          <path class="cls-38" d="M8.76,14.94c.13.01.27.04.41.04-.09.87.25.46.4.56.01,0,.04.26.04.3,0,.03-.06.19-.03.23.03.04.22,0,.26.01.08.04.02.23.04.26.05.07.23-.08.27.1-.07.2,0,1.13-.03,1.19-.05.08-.27-.11-.27.31,0-.26,0-.53,0-.79,0-.18,0-.35,0-.53-.01-.03-.29-.07-.33-.07.1-.73-.31-.3-.38-.48-.12-.28.36-.62-.46-.53-.01-.19-.05-.37-.03-.56h-.5s0-.16-.01-.2c.15-.03.08.13.15.16.03.02.37,0,.48,0Z"/>
          <path class="cls-23" d="M10.15,18.92c0,.13,0,.25,0,.38,0,.39-.05.78-.03,1.17-.4.13-.17-.14-.27-.27,0,0,0-.03-.03-.03v-1.2s0-.02.03-.03c.09-.01.22,0,.27-.08,0,.07.03.05.03.05Z"/>
          <path class="cls-64" d="M10.12,18.86c-.05.08-.18.07-.27.08-.04-.34,0-.67,0-1.01,0-.42.23-.24.27-.31.03-.06-.05-.98.03-1.19.03.12-.03,2.04-.03,2.43Z"/>
          <path class="cls-10" d="M10.12,20.47c.01.31.05.23.05.25.01.16-.01.33,0,.49-.11,0-.22,0-.33,0,0-.15,0-.31,0-.46,0-.18,0-.36,0-.55.1.13-.12.4.27.27Z"/>
          <path class="cls-38" d="M14.89,13.74c.14,0,.28,0,.42,0,.04.38-.14.5.59.46-.03.62.01.31.46.45v1.28c-.09.13-.61-.27-.49.44-.63,0-.31.03-.45.5-.95-.06-.49.11-.61.4-.04.08-.27,0-.3.05-.02.03.03.77-.01.8-.39.03-.96-.09-.95.11-.48-.12-.2.39-.3.46-.03.02-.28-.02-.33,0-.08.04,0,.27-.05.3-.15.11-.38-.29-.41.41-.77-.12-.31.36-.49.44-.14,0-.28,0-.42,0,.3-.29-.18-.46.46-.5-.09-.65.35-.31.48-.4.04-.03-.01-.22.03-.25.11-.08.35.26.29-.52.07,0,.15,0,.22,0,.49-.01.55.15.57-.44.05,0,.31-.03.33-.04.03-.02.06-.35.05-.42.39,0,.44.07.35-.4l.3-.05v-.48c.15,0,.28,0,.41,0,.1,0,.23.06.34.03l.07-.07c0-.12,0-.25,0-.37.14-.02.37.04.41-.04.03-.17-.03-.34-.03-.5,0-.25,0-.5,0-.75-.03-.07-.4-.04-.52-.04-.01-.1.02-.36,0-.4-.03-.06-.14-.04-.19-.04-.45-.05-.46.18-.44-.41.15,0,.12.03.12.03,0,0,.01-.05.1-.05Z"/>
          <path class="cls-23" d="M11.02,20.69h.14c0,.1.01.23,0,.33,0,0-.07.04,0,.15l-.07.07c-.3.03-.61-.03-.91-.03-.01-.16.01-.33,0-.49.18.02.37-.02.55-.03.1,0,.2,0,.3,0Z"/>
          <path class="cls-38" d="M11.54,19.85c.1.71-.3.34-.38.45-.01.02,0,.33,0,.4h-.14c-.01-.37.09-.44-.27-.41,0-.08-.01-.43,0-.45.15,0,.31-.04.33-.04.13,0,.32.05.46.05Z"/>
          <path class="cls-54" d="M13.53,13.3c.14,0,.29-.01.44,0-.03.35.06.2.3.27,0,.07-.03.14.04.19.12,0,.25,0,.37,0-.02.59-.01.36.44.41v.45c.16.05.18-.01.19-.01.12,0,.49-.03.52.04,0,.25,0,.5,0,.75-.07.07-.35,0-.38.04-.01.02,0,.42,0,.5-.09,0-.33.02-.34.03-.06.04.05.39-.07.38-.13,0-.26,0-.4,0v.48q-.16.03-.31.05c.08.47.04.39-.35.4-.06,0-.37-.07-.41-.01l-.03.48c-.08,0-.4-.01-.42,0-.06.04.07.45-.1.44-.07,0-.15,0-.22,0-.2,0-.41,0-.61,0-.08.9-.05.48-.33.6-.13.06.17.35-.41.27.09.66-.48-.12-.37.74-.02,0-.18.04-.33.04-.01.02,0,.37,0,.45,0,.02-.12-.02-.03.41-.18,0-.36.05-.55.03,0-.01-.04.07-.05-.25-.02-.39.03-.78.03-1.17.74.09.36-.26.48-.35.62,0,.47-.14.48-.65h.55q.02-.52.04-1.04l.97-.04c-.06-1.38.1-.77.42-.91.08-.04.01-.24.05-.27.04-.03.54.04.61-.03.06-.05,0-.11.04-.14.16-.11.42.24.45-.16,0-.12.03-.98-.03-1.04l-.76-.04v-1.28c.04-.06.08-.04.08-.04Z"/>
          <path class="cls-55" d="M10.45,15.29c.01.25-.02.51,0,.76-.49.06-.27-.17-.34-.22-.02-.02-.41.01-.5,0,0-.04-.03-.29-.04-.3-.14-.1-.48.31-.4-.56-.14,0-.28-.03-.41-.04.08-.78-.24-.4-.37-.49-.04-.03,0-.24-.01-.3h1.16c.12-.63.08-.48-.4-.55v-.03l.49.04c.03.17-.04,1.23,0,1.28.08.12.4-.25.42.4.13,0,.26,0,.4,0Z"/>
          <path class="cls-82" d="M8.76,13.03s.06.01.08.33c0,.1-.03.2.04.25.08,0,.18-.01.26,0,.48.06.51-.09.4.55h-1.16c-.09-.95.09-.56.16-.67.07-.1-.17-.55.22-.45Z"/>
          <path class="cls-82" d="M9.93,11.61c-.07.16.02.27,0,.41,0,0-.04-.02-.08.04-.06.43.21.45-.45.42-.09.04-.01.49-.04.53-.03.04-.23-.04-.22.15-.03-.13-.13-.2-.26-.14-.05.03-.04.27-.04.33-.03-.31-.08-.31-.08-.33,0,0,.05,0,.05-.01,0-.07-.01-.5,0-.52.08-.11.45.24.35-.44.54-.06.15-.18.37-.48.16-.03.38.03.4.03Z"/>
          <path class="cls-82" d="M13.53,13.3s-.04-.02-.08.04v1.28l.76.04h-.78v-1.32c-.04-.06-.61-.05-.7-.04.04-.46-.09-.25-.2-.3-.09-.04-.01-.33-.04-.37-.03-.04-.18.04-.22-.07.13-.08.26-.1.41-.11.8-.06.38.22.49.37.08.12.44-.28.35.48Z"/>
          <path class="cls-9" d="M11.98,12.02c-.12,0-.85,0-.89.03-.04.03,0,.2-.01.23-.02.03-.52.17-.41-.2.48,0,.42-.03.41-.49.93,0,.94-.13.9.44Z"/>
          <path class="cls-56" d="M11.08,11.59c.01.46.07.49-.41.49-.23,0-.49-.1-.74-.05.02-.14-.07-.25,0-.41.38,0,.76-.03,1.14-.03Z"/>
          <path class="cls-55" d="M12.69,12.46c-.15.01-.28.03-.41.11-.02-.05.02-.23,0-.26-.05-.07-.31.14-.25-.26.45,0,.73-.23.65.41Z"/>
          <path class="cls-64" d="M14.27,13.58c-.24-.08-.33.07-.3-.27.1,0,.19,0,.29.03.07.13.01.23.01.25Z"/>
          <path class="cls-36" d="M10.45,16.06c.02.24.12.13.08.25-.04.36.05.71.05,1.06,0,.18.02,1.48-.03,1.54-.02.03-.34,0-.41.01,0,0-.03.02-.03-.05,0-.39.06-2.31.03-2.43-.04-.18-.22-.03-.27-.1-.02-.03.04-.22-.04-.26-.04-.02-.23.03-.26-.01-.03-.04.03-.2.03-.23.1.01.48-.02.5,0,.07.05-.15.28.34.22Z"/>
          <path class="cls-23" d="M12.8,18.18c.07.78-.17.44-.29.52-.04.03.01.22-.03.25-.12.09-.57-.25-.48.4-.65.05-.16.21-.46.5-.14,0-.33-.06-.46-.05-.11-.85.46-.07.37-.74.58.07.28-.22.41-.27.27-.12.25.3.33-.6.2,0,.41,0,.61,0Z"/>
          <path class="cls-21" d="M15.44,15.95c0-.08-.01-.48,0-.5.03-.05.31.03.38-.04,0,.16.06.34.03.5-.03.08-.27.02-.41.04Z"/>
          <path class="cls-10" d="M13.53,17.75s.04,0,.05,0c-.02.58-.08.42-.57.44.16.01.03-.39.1-.44.02-.01.34,0,.42,0Z"/>
          <path class="cls-27" d="M13.97,17.28c0,.07-.02.4-.05.42-.01.01-.28.04-.33.04-.02,0-.04,0-.05,0l.03-.48c.04-.06.35.01.41.01Z"/>
          <path class="cls-64" d="M15.03,16.36c.12,0,.01-.34.07-.38.01,0,.25-.02.34-.03,0,.12,0,.25,0,.37l-.07.07c-.11.03-.24-.03-.34-.03Z"/>
          <path class="cls-19" d="M15.3,14.61s-.03.06-.19.01v-.45c.05,0,.16-.02.19.04.02.04-.01.29,0,.4Z"/>
          <path class="cls-58" d="M10.75,20.28c.36-.03.26.04.27.41-.1,0-.2,0-.3,0-.09-.43.03-.39.03-.41Z"/>
          <g>
            <path class="cls-69" d="M9.93,12.02c.24-.04.5.06.74.05-.12.38.39.23.41.2.02-.03-.02-.21.01-.23.04-.03.77-.03.89-.03,0,0-.02.03.05.03-.07.4.19.19.25.26.02.02-.02.21,0,.26.04.1.19.02.22.07.03.04-.05.33.04.37.12.05.24-.16.2.3-.04,0-.14-.01-.16.01v.59q-.25,0-.49.01l-.03.74-.57.03c-.03.34.07,2.76-.07,2.82-.05.02-.28-.03-.31.01-.03.04,0,.66,0,.78,0,.51.15.66-.48.65-.11.1.26.44-.48.35,0-.13,0-.25,0-.38.07-.01.38.02.41-.01.04-.06.03-1.36.03-1.54.53.07.37-.05.38-.98,0-.36,0-.72,0-1.08-.02-.03-.44,0-.52-.01-.13,0-.26,0-.4,0-.02-.65-.34-.28-.42-.4-.04-.05.03-1.11,0-1.28l-.49-.04c-.01-.12.02-.32,0-.41,0-.19.19-.11.22-.15.03-.04-.05-.49.04-.53.66.02.39,0,.45-.42.04-.06.08-.04.08-.04Z"/>
            <path class="cls-42" d="M12.74,13.3c.09-.01.65-.02.68.04v1.32h.79c.05.05.04.91.03,1.04-.31.1-.57-.14-.49.3-.07.07-.57,0-.61.03-.04.03.03.24-.05.27-.32.14-.48-.46-.42.91l-.97.04q-.02.51-.04,1.02h-.55c0-.1-.03-.72,0-.76.03-.04.27,0,.31-.01.13-.06.04-2.49.07-2.82l.57-.03.03-.74h.48q0-.31.01-.6s.12,0,.16-.01Z"/>
            <path class="cls-5" d="M10.97,16.38c-.08-.17-.29-.11-.44-.08.04-.11-.06,0-.08-.25-.02-.25.01-.51,0-.76.08,0,.5-.02.52.01,0,.36,0,.72,0,1.08Z"/>
            <path class="cls-56" d="M10.97,16.38c0,.93.14,1.05-.38.98,0-.35-.09-.71-.05-1.06.15-.02.36-.09.44.08Z"/>
          </g>
          <path class="cls-56" d="M9.14,13.17c.02.09-.01.29,0,.41v.03c-.08-.01-.18,0-.26,0-.07-.05-.03-.15-.04-.25,0-.06-.01-.3.04-.33.13-.07.23.01.26.14Z"/>
          <path class="cls-4" d="M13.75,16c-.08-.44.18-.2.49-.3-.03.41-.29.05-.45.16-.03.02.01.08-.04.14Z"/>
        </g>
        <g>
          <path class="cls-1" d="M10.72,1.66c.03.17-.02.48,0,.68-.01,0,.08.06-.22.03l-.03-.03c-.28-.16-.51-.09-.55-.11,0,0-.04-.04-.05-.05-.01-.02.03-.11-.03-.14-.18-.1-.24.21-.3-.3,0-.02.03-.03.03-.05.38-.06.76-.01,1.14-.03Z"/>
          <path class="cls-16" d="M10.48,2.34c-.35-.02-.68.06-.55-.11.04.01.27-.05.55.11Z"/>
        </g>
      </g>
    </g>
  </g>
</svg>