<?xml version="1.0" encoding="UTF-8"?>
<svg id="Layer_2" data-name="Layer 2" xmlns="http://www.w3.org/2000/svg" xmlns:xlink="http://www.w3.org/1999/xlink" viewBox="0 0 21.07 21.23">
  <defs>
    <style>
      .cls-1 {
        fill: #857149;
      }

      .cls-1, .cls-2, .cls-3, .cls-4, .cls-5, .cls-6, .cls-7, .cls-8, .cls-9, .cls-10, .cls-11, .cls-12, .cls-13, .cls-14, .cls-15, .cls-16, .cls-17, .cls-18, .cls-19, .cls-20, .cls-21, .cls-22, .cls-23, .cls-24, .cls-25, .cls-26, .cls-27, .cls-28, .cls-29, .cls-30, .cls-31, .cls-32, .cls-33, .cls-34, .cls-35, .cls-36, .cls-37, .cls-38, .cls-39, .cls-40, .cls-41, .cls-42, .cls-43, .cls-44, .cls-45, .cls-46, .cls-47, .cls-48, .cls-49, .cls-50, .cls-51, .cls-52, .cls-53, .cls-54, .cls-55, .cls-56, .cls-57, .cls-58, .cls-59, .cls-60, .cls-61, .cls-62, .cls-63, .cls-64, .cls-65, .cls-66, .cls-67, .cls-68, .cls-69, .cls-70, .cls-71, .cls-72, .cls-73, .cls-74, .cls-75, .cls-76, .cls-77, .cls-78, .cls-79, .cls-80, .cls-81, .cls-82, .cls-83, .cls-84, .cls-85, .cls-86, .cls-87, .cls-88, .cls-89, .cls-90, .cls-91, .cls-92, .cls-93, .cls-94, .cls-95, .cls-96, .cls-97, .cls-98, .cls-99, .cls-100, .cls-101, .cls-102, .cls-103, .cls-104, .cls-105, .cls-106, .cls-107, .cls-108, .cls-109, .cls-110, .cls-111, .cls-112, .cls-113, .cls-114, .cls-115, .cls-116, .cls-117, .cls-118 {
        stroke-width: 0px;
      }

      .cls-2 {
        fill: #aefca7;
      }

      .cls-3 {
        fill: #4b2541;
      }

      .cls-4 {
        fill: #e7f3f1;
      }

      .cls-5 {
        fill: #bd479d;
      }

      .cls-6 {
        fill: url(#linear-gradient);
      }

      .cls-7 {
        fill: #3c234a;
      }

      .cls-8 {
        fill: #dd6a0c;
      }

      .cls-9 {
        fill: #bf7841;
      }

      .cls-10 {
        fill: #6bfcf8;
      }

      .cls-11 {
        fill: #fabf71;
      }

      .cls-12 {
        fill: #8a2c5b;
      }

      .cls-13 {
        fill: #dee36a;
      }

      .cls-14 {
        fill: #f9efc4;
      }

      .cls-15 {
        fill: #191e16;
      }

      .cls-16 {
        fill: #472230;
      }

      .cls-17 {
        fill: #f4eefa;
      }

      .cls-18 {
        fill: #bfe1ef;
      }

      .cls-19 {
        fill: #391505;
      }

      .cls-20 {
        fill: #e4fefd;
      }

      .cls-21 {
        fill: #9131b2;
      }

      .cls-22 {
        fill: #641524;
      }

      .cls-23 {
        fill: #d03c1a;
      }

      .cls-24 {
        fill: #ebe3dd;
      }

      .cls-25 {
        fill: #2a4827;
      }

      .cls-26 {
        fill: #7e2499;
      }

      .cls-27 {
        fill: #07d7e0;
      }

      .cls-28 {
        fill: #e89a13;
      }

      .cls-29 {
        fill: #c09805;
      }

      .cls-30 {
        fill: #1acafb;
      }

      .cls-31 {
        fill: #f8f2e2;
      }

      .cls-32 {
        fill: #b069c2;
      }

      .cls-33 {
        fill: #4d2468;
      }

      .cls-34 {
        fill: #da830d;
      }

      .cls-35 {
        fill: #6b3182;
      }

      .cls-36 {
        fill: #eac169;
      }

      .cls-37 {
        fill: #993185;
      }

      .cls-38 {
        fill: #201621;
      }

      .cls-39 {
        fill: #e8ab70;
      }

      .cls-40 {
        fill: #f7ed2f;
      }

      .cls-41 {
        fill: #ead3ed;
      }

      .cls-42 {
        fill: #e39de6;
      }

      .cls-43 {
        fill: #7224bb;
      }

      .cls-44 {
        fill: #99380b;
      }

      .cls-45 {
        fill: #f3dbe6;
      }

      .cls-46 {
        fill: #02c0cf;
      }

      .cls-47 {
        fill: #f5d684;
      }

      .cls-48 {
        fill: #813ac8;
      }

      .cls-49 {
        fill: #ecc7f1;
      }

      .cls-50 {
        fill: #bc490e;
      }

      .cls-51 {
        fill: #015453;
      }

      .cls-52 {
        fill: #e3e59a;
      }

      .cls-53 {
        fill: #62b3fb;
      }

      .cls-54 {
        fill: #3e0c33;
      }

      .cls-55 {
        fill: #daa2bf;
      }

      .cls-56 {
        fill: #f37423;
      }

      .cls-57 {
        fill: #0c4a37;
      }

      .cls-58 {
        fill: #faf8f7;
      }

      .cls-59 {
        fill: #c6272e;
      }

      .cls-60 {
        fill: #4f1613;
      }

      .cls-61 {
        fill: #d98664;
      }

      .cls-62 {
        fill: #0be1d6;
      }

      .cls-63 {
        fill: #29062e;
      }

      .cls-64 {
        fill: url(#linear-gradient-2);
      }

      .cls-65 {
        fill: #353b2d;
      }

      .cls-66 {
        fill: #262614;
      }

      .cls-67 {
        fill: #181517;
      }

      .cls-68 {
        fill: #073031;
      }

      .cls-69 {
        fill: #721a51;
      }

      .cls-70 {
        fill: #d6f025;
      }

      .cls-71 {
        fill: #03dbc1;
      }

      .cls-72 {
        fill: #c47198;
      }

      .cls-73 {
        fill: #efba2b;
      }

      .cls-74 {
        fill: url(#linear-gradient-3);
      }

      .cls-75 {
        fill: #d9d5df;
      }

      .cls-76 {
        fill: #e9b3e5;
      }

      .cls-77 {
        fill: #1b321c;
      }

      .cls-78 {
        fill: #f0e5fc;
      }

      .cls-79 {
        fill: #b03971;
      }

      .cls-80 {
        fill: #02abb9;
      }

      .cls-81 {
        fill: #211024;
      }

      .cls-82 {
        fill: #43164f;
      }

      .cls-83 {
        fill: #132416;
      }

      .cls-84 {
        fill: #ede181;
      }

      .cls-85 {
        fill: #810a15;
      }

      .cls-86 {
        fill: #f4fd98;
      }

      .cls-87 {
        fill: #b92a1a;
      }

      .cls-88 {
        fill: #c88d4e;
      }

      .cls-89 {
        fill: #e6c922;
      }

      .cls-90 {
        fill: #21150c;
      }

      .cls-91 {
        fill: #d8fecb;
      }

      .cls-92 {
        fill: #9f3dce;
      }

      .cls-93 {
        fill: #66175c;
      }

      .cls-94 {
        fill: #ec7c09;
      }

      .cls-95 {
        fill: #058381;
      }

      .cls-96 {
        fill: #fae4ab;
      }

      .cls-97 {
        fill: #d1798a;
      }

      .cls-98 {
        fill: #291c0b;
      }

      .cls-99 {
        fill: #9b2d35;
      }

      .cls-100 {
        fill: #a01f1b;
      }

      .cls-101 {
        fill: #c06a0d;
      }

      .cls-102 {
        fill: #ab8cd1;
      }

      .cls-103 {
        fill: #f3874b;
      }

      .cls-104 {
        fill: #dd4e18;
      }

      .cls-105 {
        fill: #c062b4;
      }

      .cls-106 {
        fill: #cf6a36;
      }

      .cls-107 {
        fill: #13c3b8;
      }

      .cls-108 {
        fill: #a742b2;
      }

      .cls-109 {
        fill: #371918;
      }

      .cls-110 {
        fill: #d73c39;
      }

      .cls-111 {
        fill: #cb7de6;
      }

      .cls-112 {
        fill: #413121;
      }

      .cls-113 {
        fill: #161714;
      }

      .cls-114 {
        fill: #ecc29e;
      }

      .cls-115 {
        fill: #bf57db;
      }

      .cls-116 {
        fill: #0db296;
      }

      .cls-117 {
        fill: #64120c;
      }

      .cls-118 {
        fill: #e1585c;
      }
    </style>
    <linearGradient id="linear-gradient" x1="10.95" y1="14.5" x2=".65" y2="16.1" gradientUnits="userSpaceOnUse">
      <stop offset="0" stop-color="#ab1523"/>
      <stop offset=".82" stop-color="#831820"/>
    </linearGradient>
    <linearGradient id="linear-gradient-2" x1="6.41" y1="10.93" x2="5.6" y2="12" gradientUnits="userSpaceOnUse">
      <stop offset="0" stop-color="#d0550c"/>
      <stop offset="1" stop-color="#cd3714"/>
    </linearGradient>
    <linearGradient id="linear-gradient-3" x1="19.46" y1="15.98" x2="18.65" y2="16.16" gradientUnits="userSpaceOnUse">
      <stop offset="0" stop-color="#19100f"/>
      <stop offset="1" stop-color="#280c0a"/>
    </linearGradient>
  </defs>
  <g id="Layer_1-2" data-name="Layer 1">
    <g>
      <path class="cls-58" d="M10.53,20.88c.35,0,.7,0,1.05,0,.16,0,.33.03.48.03-.07.09,0,.27-.04.3-.11.08-2.37-.06-2.7,0-.11-.05.05-.24-.16-.3.05,0,.1,0,.15,0,.16,0,.33-.03.48-.03.25,0,.5,0,.75,0Z"/>
      <path class="cls-72" d="M17.18,2.24h-.75s.03-.18-.01-.21c-.05-.03-.9.03-1.06,0,0,0-.02,0-.03,0,.02-.07-.04-.29.04-.33.08-.04,1.51.03,1.77,0l.04.53Z"/>
      <path class="cls-97" d="M5.46,1.74v.3c-.37.01-.75.05-1.12.03-.01.22-.04.2-.04.21h-.03c-.22.02-.37-.03-.39-.03l.04-.5c.51-.02,1.03.03,1.54,0Z"/>
      <path class="cls-58" d="M20.42,3.99c-.4-.03-.28.04-.3.33-.56.14-.57-.57,0-.46v-.84c.11.02.29-.04.33.04.04.31-.03.63-.03.93Z"/>
      <path class="cls-58" d="M20.06,2.98c-.31-.03-.8.01-1.15,0-.02,0-.04-.06-.04-.06l-.03-.21s-.04-.04.1-.09c.76.06,1.34-.2,1.12.36Z"/>
      <path class="cls-58" d="M.9,3.34c-.12.34.14.79-.24.71,0-.13-.08-.84-.03-.9.02-.02.24-.02.25-.01.03.02.01.16.01.21Z"/>
      <g>
        <path class="cls-73" d="M4.32,2.45c0,.08,0,.16,0,.24-.02.32-.05.64-.03.96,0,.02.06.01.06.01,0,.03-.06.38-.03.61.09,0,.53.05.55.04.01,0,.03-.08.04-.09.46,0,.94-.07,1.41-.03.01.11-.02.52,0,.55.01.02.3.02.31.01.04-.03,0-.42.01-.52,0-.02.05,0,.06-.04,0,0,0-.02,0-.03h.03c.22.1.08-.06.48-.09.41-.03.59.12.54-.25.22.02.07-.29.12-.36,0,0,.17-.07.18-.07.05,0,.8.07,1.02.03,0,.01.03.03.03.21,0,.18,0,.36,0,.53-.09,0-.16.09-.16.09-.01,0-.21-.06-.27-.03-.1.05.11.23-.48.18.08.83-.4.43-.49.55,0,0,.08.15,0,.24-.06.07-.24.02-.27.06-.02.03.02.35,0,.43,0,.02.01.05-.04.09-1.65.1-1.02-.25-1.17-.36-.07-.05-1.63.05-1.74,0-.1-.04,0-.32-.06-.36-.05-.03-1.06-.03-1.11,0-.02.01-.07.35,0,.39.15.02,1.06-.03,1.11,0,.05.03-.02.32.03.36.04.03.78-.03.84,0,.18.08-.25.49.48.39.03.02,0,.24.01.3-1.26.07-.76-.15-.88-.24-.03-.02-.29.02-.33,0-.07-.03-.03-.13-.06-.15-.04-.02-.6.02-.63,0-.13-.09.34-.29-.64-.3,0-.1,0-.21,0-.31-.09-.11-.28-.01-.3-.01-.7,0-.3-.17-.43-.27-.03-.02-.36.02-.39,0-.05-.03.02-.35-.03-.39-.03-.02-.58.01-.69,0-.07-.03-.04-.21-.04-.33.14.03,1.08,0,1.12.03.05.03-.02.35.03.39.04.03.86.01.88-.04.24-.54-.64-.28-.73-.34-.05-.03.02-.38-.03-.41-.05-.04-1.08.03-1.24,0,0-.24-.05-.47-.03-.71,0,0,0-.02,0-.03,0,0,0-.02,0-.03.24.02,1.33-.03,1.39,0,.1.04,0,.32.06.36.04.03.97-.05,1.11,0,.06-.03.06-.36.04-.37-.02-.03-.19-.01-.24-.01-.26-.02-.8.05-.84-.04-.21-.47.56-.35.82-.31v-.47c.21,0,.41-.06.61-.03Z"/>
        <path class="cls-59" d="M.57,4.55c-.01.42,0,.9,0,1.33-.01-.06-.11-.02-.12.01-.06.22.15,3.93.06,4.56,0,.02.06.01.06.01,0,.02,0,.03.03.03,0,.3,0,.59,0,.89h-.12c.04,1.43-.01,2.84.03,4.25,0,.02.06.04.06.04,0,0,0,.02,0,.03-.15-.06-.36,0-.39-.04-.05-.07-.05-1.42-.06-1.63,0-.02-.06,0-.06-.03-.03-.63.05-3.3,0-3.5,0-.02-.04-.02-.06-.01,0-1.98-.01-3.96.03-5.94h.54Z"/>
        <path class="cls-58" d="M11.88.52c.07.3-.32.22-.34.21-.14-.1.25-.29-.31-.33-.31-.02-.96-.01-1.29,0-.71.03-.26.12-.39.31-.05.07-.23-.14-.18.31-.01,0,.07.12-.18.09-.17-.03-.34.02-.51.03-.37.01-.68-.05-.7-.03-.04.03,0,.14-.01.16-.09.12-.13-.07-.15.16,0,.09.02.54-.01.56-.24,0-.47.02-.7.03-.03,0-.06,0-.09,0,0-.12.43-.04.73-.06.12-.74-.07-.53-1-.5v-.62c.84,0,1.69-.06,2.53-.03.05-.21-.02-.28-.01-.3.05-.4.32.11.37-.5.24.04,1.81-.05,1.89,0,.04.03,0,.34.01.37.06.08.31-.1.36.13Z"/>
        <path class="cls-100" d="M.57,15.72c0,.08,0,.16,0,.24-.32-.17-.36.33-.03.24,0,.03.06.1.06.1.01.29-.03.58-.03.87l-.54.1C0,15.02,0,12.77,0,10.51c.02,0,.05,0,.06.01.05.19-.03,2.87,0,3.5,0,.02.06,0,.06.03.01.21.01,1.56.06,1.63.03.04.24-.02.39.04Z"/>
        <path class="cls-96" d="M6.99,2.03c-.15,0-.31.03-.45.03-.35,0-.72-.04-1.08-.03v-.3s.02,0,.03,0c.08,0,.21-.05.28,0,.04-.02.07-.19.07-.24,0,0,0-.02,0-.03.22,0,.44,0,.66,0,.07,0,.14,0,.21,0,.93-.02,1.12-.23,1,.5-.31.02-.74-.06-.73.06Z"/>
        <path class="cls-58" d="M2.76,2.92c.11.08.04.27.07.41l.88-.03s.22-.02.24.01c.01.02.02.34-.04.37-.14-.05-1.07.03-1.11,0-.05-.04.04-.31-.06-.36-.07-.03-1.15.02-1.39,0,.01-.11.05-.22.03-.34.15-.01.14-.04.15-.04.23-.05.63,0,.9-.03.11,0,.27.01.33,0Z"/>
        <path class="cls-117" d="M9.24.52s.07.08.01.3c-.84-.03-1.69.03-2.53.03,0,0-.02-.05-.18-.03,0-.06-.02-.27.01-.3h2.68Z"/>
        <path class="cls-87" d="M1.35,3.37s0,.02,0,.03c-.16.11.01.95-.06,1.08-.03.05-.36.06-.4.04-.08-.04.03-.99.01-1.19l.45.03Z"/>
        <path class="cls-117" d="M2.46,2.27c-.16.17.22.17.43.18.15,0,1.26,0,1.32-.03.06-.03.05-.1.04-.15h.03s.04.04.03.18c-.2-.03-.4.02-.6.03-.29,0-.58.02-.87.03-.41.01-.45-.24-.42.41-.27.02-.67-.02-.9.03-.21-.41.51-.16.61-.24.04-.03,0-.14.01-.16.05-.08.2-.03.22-.04.06-.04-.05-.19.07-.24Z"/>
        <path class="cls-44" d="M4.26,2.27c0,.05.01.12-.04.15-.06.03-1.17.04-1.32.03-.22,0-.59,0-.43-.18.07-.02,1.23-.03,1.41-.03.02,0,.17.05.39.03Z"/>
        <path class="cls-85" d="M6.45.94l.06.53c-.22,0-.44,0-.66,0,.05-.6-.1.09.31-.09.1-.04.02-.39.04-.43.03-.04.19,0,.24-.01Z"/>
        <path class="cls-19" d="M6.72.85v.62c-.07,0-.14,0-.21,0l-.06-.53c.11-.03.08-.03.09-.12.16-.02.17.03.18.03Z"/>
        <path class="cls-4" d="M5.85,1.5s-.04.21-.07.24c-.08-.05-.2,0-.28,0-.13-.34.1-.28.36-.24Z"/>
        <g>
          <path class="cls-100" d="M1.35,3.4c-.02.24.02.47.03.71,0,.11-.04.25-.03.39,0,.12-.03.29.04.33.11.01.66-.02.69,0,.05.03-.02.35.03.39.03.02.36-.02.39,0,.13.09-.27.26.43.27-.04.16.04.54.03.65,0,.04-.04.19-.07.21-.18.03-1.29-.04-1.35,0-.02.01-.03.44-.01.46.02.03.33.01.39.01.01.13-.35.01-.39.07,0,.01,0,.33.01.34.14.1.43-.09.45-.09.12-.01.8.02.82-.01,0-.01-.03-.24-.04-.25-.07-.05-.79.08-.82-.06.27,0,.62-.02.85,0,.02,0,.04.06.04.06,0,.1,0,.2,0,.3-.28.08-.58,0-.85.03-.03,0-.01.09-.01.09-.08.01-.42-.02-.45.01-.02.03.02.34,0,.39-.04.09-.32,0-.36.06-.01.01.03.29.03.34,0,.02,0,.04,0,.06,0,.28,0,.56,0,.84.07.14.12.04.15.04.09.02.17.05.27.03.08.72-.21.3-.33.55-.02.05.03.69,0,.86l-.69.04s-.03,0-.03-.03c.09-1.53-.01-3.06,0-4.59,0-.43-.01-.91,0-1.33,0-.16.02-.33.03-.49,0-.02.06-.01.06-.01.38.08.12-.37.24-.71.02.2-.1,1.15-.01,1.19.04.02.38,0,.4-.04.07-.13-.1-.97.06-1.08Z"/>
          <path class="cls-100" d="M1.71,9.06v.47c-.05,0-.34.04-.36.07,0,.2,0,.4,0,.61,0,.1,0,.2,0,.3-.01.71-.01,1.43.03,2.13,0,.09,0,.19,0,.28.02.03.22.01.27.01.02.49-.12.57.33.53.12-.02.03.16.06.24.04.11.21.05.3.03.02,0,.03,0,.03.03-.09,0-.28.02-.33.09-.05.08-.01.16-.04.18-.03.02-.48-.02-.58,0-.06,0-.11-.02-.15.04.05.61-.09.52-.09.55-.02.16-.02.29-.03.44,0,.09,0,.53.03.56.05.05.23.04.3.03,0,0,.02,0,.03,0-.17.12-.61-.03-.9.03,0-1.43.03-2.87,0-4.3,0-.3,0-.59,0-.89l.69-.04c.03-.17-.02-.81,0-.86.12-.25.41.17.33-.55h.09Z"/>
        </g>
        <path class="cls-89" d="M7.56,7.19c-.02.54.06.29.09.3,0,0,0,.06.01.06.16.02,1.65.02,1.84,0v.03c-.41-.07-.24.17-.27.53,0,0-.06,0-.06.01-.03.43,0,.29.54.31.01.16,0,.32,0,.47,0,.31.05,2.33,0,2.44-.04.08-.23.03-.3.04,0,0,0-.03-.03-.03,0-.16.01-.32,0-.47-.03-.49.02-.96,0-1.45,0-.1.02-.66-.01-.68-.17.02-.66-.03-.73,0-.13-.01-.01-.5-.07-.8h-.94c.03-.64-.25-.22-.42-.39.45.01.43-.46-.03-.36v-.03c.14,0,.24-.07.39,0Z"/>
        <path class="cls-89" d="M9.33,14.89c.01.44-.04.76.39.62,0,.42.04,3.1-.03,3.25-.03.07-.13.03-.15.06-.01.02.14.3.06.41-.02.02-.24.03-.27,0-.02-.02.06-.54-.01-.58-.32-.17-.33.23-.36.24-.24.1-.27-.08-.28-.27,0-.02.07-.44.03-.49-.04-.06-.37-.16-.27.49-.32,0-.64,0-.96,0-.08-.17,0-.36,0-.53.55-.01,1.1.03,1.65-.03.06,0,.31.02.33-.01.03-.24-.03-.52-.03-.55,0-.21,0-.39,0-.59,0-.13,0-.26,0-.39-.01-.31,0-.62,0-.93-.02-.03-.27-.01-.33-.01-.02,0-.04,0-.06,0,.03-.61-.14-.74.3-.68Z"/>
        <path class="cls-59" d="M10.32,6.86c.06,0,.12,0,.18,0-.03.13,0,1.07,0,1.39,0,.32,0,.63-.01.95-.7-.05-.73.23-.76-.3,0-.16.01-.32,0-.47,0-.09,0-.19,0-.28,0-.01-.2-.07-.21-.07v-.53c.06,0,.21.03.24-.04.03-.08-.05-.2,0-.28.78-.04.17-.3.57-.36Z"/>
        <path class="cls-73" d="M9.72,12.55c0,.72-.03,1.44-.03,2.16l-.33-.03c0-.2,0-.4,0-.59,0-.52,0-1.05,0-1.57.11,0,.26-.02.36.03Z"/>
        <path class="cls-23" d="M9.42,11.4c.09.07.27,0,.3.04.03.05,0,.96,0,1.11-.1-.05-.25-.03-.36-.03-.07,0-.14.02-.21.03,0-.01-.03-.03-.03-.15,0-.09,0-.18,0-.27,0-.24,0-.47,0-.71l.27-.06s.03.03.03.03Z"/>
        <path class="cls-28" d="M4.14,16.46c-.3-.09-.27.21-.24.25.02.04.1-.01.18.04.08.49-.22.3-.27.37-.12.17.15.21.27.22.02.18.03.44-.22.33-.09-.04-.01-.29-.06-.33-.12-.09-.52.25-.46-.39,0-.01.09.06.06-.21.06,0,.11.02.15-.04,0-.09-.01-.2,0-.28.27.05.64-.17.6.03Z"/>
        <path class="cls-50" d="M7.47,17.83c0,.09,0,.18,0,.27,0,.17-.08.36,0,.53-.12,0-.24,0-.36,0-.01-.08.02-.51-.01-.53-.02-.01-.47.01-.43.09,0,0-.05-.05-.06-.06.21-.11.08-.18.13-.27.02-.03.68-.17.04-.3,0,0-.01-.02.03-.03.05-.01.12-.02.18-.03.03,0,.26-.03.27-.03.31.02.11.14.21.36Z"/>
        <path class="cls-89" d="M2.64,16.17c-.08-.04-.08.38-.06.59h-.79s-.01-.53-.01-.62c.45.08.81-.03.85-.03.02,0,.01.06.01.06Z"/>
        <path class="cls-110" d="M.6,11.4c.03,1.43,0,2.87,0,4.3h-.03s-.06-.02-.06-.04c-.04-1.41,0-2.83-.03-4.24h.12Z"/>
        <path class="cls-8" d="M2.64,16.17c.13,0,.26,0,.39,0v.06c-.01.17.02.36,0,.53,0,.07.01.17,0,.21-.01.04-.07,0-.13.18-.35.05-.29-.06-.31-.39-.02-.21-.02-.64.06-.59Z"/>
        <path class="cls-28" d="M9.69,14.72c0,.26.03.53.03.8-.43.14-.38-.19-.39-.62,0-.01.03-.03.03-.21l.33.03Z"/>
        <path class="cls-94" d="M4.5,17.15c.58-.03.2.17.39.5-.09,0-.05.06-.07.06-.67.04-.1-.32-.49-.39l.12-.18s.04,0,.06,0Z"/>
        <path class="cls-104" d="M6.42,17.86c.08.42.13.21.18.27.1.39-.65.49-.51-.27h.33Z"/>
        <path class="cls-34" d="M8.67,18.63h-.24c-.1-.65.23-.55.27-.49.04.05-.03.46-.03.49Z"/>
        <path class="cls-8" d="M4.44,17.12s.06,0,.06.03c-.02,0-.04,0-.06,0-.14.02-.27.04-.21.21-.05,0-.1,0-.15,0-.12-.02-.39-.05-.27-.22.05-.07.35.12.27-.37.23.16-.23.34.36.36Z"/>
        <path class="cls-58" d="M6.42,17.65c.01.05-.01.15,0,.21h-.36c0-.06-.02-.27.01-.3.02-.01.31-.05.34.09Z"/>
        <path class="cls-58" d="M5.64,17.65c-.22.02-.23-.03-.24-.03-.02-.19-.03-.53.25-.39.02,0-.01.36-.01.41Z"/>
        <path class="cls-28" d="M9.78,20.88c-.15,0-.32.03-.48.03-.13-.29.38-.22.4-.21.05.03-.04.2.07.18Z"/>
        <path class="cls-73" d="M3.27,16.73c.12,0,.11.03.12.03.03.27-.06.19-.06.21h-.3s0-.14,0-.21c.08,0,.17-.03.24-.03Z"/>
        <g>
          <path class="cls-6" d="M10.56,19.46c0,.47-.03.95-.03,1.42-.25,0-.5,0-.75,0-.11.02-.03-.14-.07-.18-.02-.02-.53-.08-.4.21-.05,0-.1,0-.15,0-.44,0-.89,0-1.33,0l-.06-.5c-.15-.02-1.06.03-1.11,0-.07-.05.16-.27-.42-.21-.04-.84-.25-.38-.42-.5-.04-.03.01-.27-.03-.3-.05-.03-1.01.03-1.17,0,.05-.87-.25-.42-.42-.53-.05-.03.03-.29-.06-.33-.04-.02-.23.02-.3,0-.04,0-.05-.09-.06-.09-.21-.03-.66.02-.93,0-.1-.04-.01-.41-.04-.46-.03-.05-.29.03-.33-.06-.02-.05.03-.34-.01-.37-.05-.03-1.06-.03-1.11,0-.05.03.02.32-.03.36-.02.01-.43.01-.45,0-.05-.03,0-.32-.01-.37-.08-.18-.27.22-.27-.37,0-.29.04-.58.03-.87,0,0-.06-.08-.06-.1,0-.01.04-.04.03-.24,0-.08,0-.16,0-.24,0,0,0-.02,0-.03h.03c.29-.06.73.09.9-.03.03,0,.06,0,.09,0l.03-.03c.23.03.14.29.15.5,0,.09-.02.6.01.62h.79c.03.33-.04.43.31.39.07-.19.12-.14.13-.18h.3c-.05.63.34.3.46.39.05.03-.03.29.06.33.26.11.24-.14.22-.33.05,0,.1,0,.15,0,.06,0,.07-.03.09-.03.39.07-.18.42.49.39.03,0-.02-.05.07-.06.16,0,.35-.03.51-.03.01,0,.02.05.24.03,0,.01.07.17.03.22-.03.05-.26-.03-.3.06-.16.36.39.23.64.25,0-.11.03-.22.04-.33h.03c-.14.75.61.66.51.27.01.01.06.06.06.06.12.34-.41.41.45.44.12,0,.24,0,.36,0,.32,0,.64,0,.96,0h.24c.01.18.05.37.28.27.03-.01.04-.4.36-.24.08.04,0,.56.01.58.03.03.25.02.27,0,.08-.11-.07-.4-.06-.41.02-.03.12.01.15-.06.07-.15.03-2.82.03-3.25,0-.27-.03-.54-.03-.8,0-.72.04-1.44.03-2.16,0-.15.03-1.07,0-1.11-.03-.05-.21.02-.3-.04.07-.01.26.03.3-.04.05-.11,0-2.14,0-2.44.03.53.06.24.76.3.02-.32.01-.63.01-.95h.03c.02,3.73.07,7.47.03,11.2Z"/>
          <g>
            <path class="cls-89" d="M7.72,19.61s.26,0,.27,0c.04.03-.01.27.03.3.05.03.71-.15.49.34-.03.06-.44.17-.37-.25-.6.09-.45-.36-.42-.39Z"/>
            <path class="cls-40" d="M7.09,19.25c.08-.03.79-.09.58.31-.04.07-.59.03-.61.01-.02-.02-.04-.29.03-.33Z"/>
            <path class="cls-70" d="M6.52,18.78c.32-.14.35.28.24.33-.32.14-.35-.28-.24-.33Z"/>
            <path class="cls-40" d="M8.59,20.26c.15-.11.46.11.28.25-.2.16-.42-.16-.28-.25Z"/>
            <path class="cls-28" d="M8.98,20.5c.43-.13.34.35,0,.21-.07-.03-.04-.2,0-.21Z"/>
          </g>
        </g>
        <path class="cls-24" d="M.57,15.96c0,.2-.03.23-.03.24-.33.09-.29-.41.03-.24Z"/>
        <path class="cls-8" d="M4.44,17.15l-.12.18s-.03.04-.09.03c-.06-.17.07-.19.21-.21Z"/>
        <path class="cls-8" d="M5.79,6.48c0,.05-.02.24.01.27.02.01.32-.01.4,0,.06.33.2.18.48.21,0,.06-.02.21.04.24.14,0,.29,0,.43,0v.03c.02.09-.04.29.03.36.17.16.45-.25.42.39,0,0-.06.08-.06.12-.12.02-.82-.02-.85,0-.04.03,0,.43-.01.46-.02.03-.45.18-.33-.41-.04-.1-.38,0-.42-.06-.02-.03.03-.43-.01-.46-.01,0-.32,0-.33,0-.04.03,0,.15-.03.18-.01.01-.35.01-.36,0-.04-.03,0-.28-.01-.31-.02-.02-.24-.02-.25-.01-.04.03.01.24-.03.27-.01,0-.26,0-.27,0-.05-.03,0-.69-.01-.73-.02-.02-.24-.02-.28-.01,0,0-.04.09-.04.09-.02,0-.16-.06-.39-.03,0-.06.01-.31-.01-.33-.18-.13-.25.11-.27.12-.02,0-.39,0-.4-.01-.02-.03-.03-.61-.03-.7,0-.02.07.03.06-.33.99,0,.51.2.64.3.03.02.59-.02.63,0,.03.02-.01.11.06.15.04.02.3-.02.33,0,.12.09-.37.31.88.24Z"/>
        <path class="cls-31" d="M7.44,5.68c.06.1.19.06.3.06.14,0,.29,0,.43,0,.07.05.04.19.04.33,0,0-.03,0-.03.12l-1.93-.03c-.05.02-.06.52-.04.59-.09-.01-.38.01-.4,0-.03-.02,0-.21-.01-.27,0-.06.02-.27-.01-.3-.73.1-.3-.31-.48-.39-.06-.03-.8.03-.84,0-.05-.03.02-.32-.03-.36-.05-.03-.96.02-1.11,0-.07-.03-.02-.37,0-.39.05-.03,1.06-.03,1.11,0,.05.04-.04.31.06.36.11.05,1.67-.05,1.74,0,.15.11-.48.45,1.17.36.06-.04.04-.07.04-.09Z"/>
        <path class="cls-58" d="M9.9,4.2c.27,0,.55.03.81.03-.07.7.15.39.21.52.02.04-.02.17.01.19.11.08.33-.24.3.44.29-.03.6.03.88.03v.36s.08.05-.33.09c0-.05-.14-.03-.3-.03-.19,0-.38,0-.57,0,0-.11.02-.75,0-.79-.03-.05-.29.03-.33-.06-.16-.35.38-.34-.57-.37-.47-.01-.95.01-1.42,0,0,.1-.05.31-.04.33-.67-.12-.29.37-.39.52-.06.08-.61-.15-.42.28-.11,0-.24.04-.3-.06.02-.08-.02-.4,0-.43.03-.04.21.01.27-.06.08-.09,0-.23,0-.24.09-.12.57.28.49-.55.59.06.38-.13.48-.18.06-.03.26.03.27.03,0,0,.08-.08.16-.09,0,0,.02,0,.03,0,.28.1.31-.03.33-.03.02,0-.09.06.42.06Z"/>
        <path class="cls-58" d="M10.44,1.74c.1,0,.2,0,.3,0,.25,0,.5,0,.75,0,0,.02.09-.03.06.37.03.04.24,0,.3.01.16.04.09.25.06.41-.1-.01-.24.01-.34,0l-.06-.36c-.13,0-.27,0-.4,0-.24-.01-.57-.01-.81,0-.11,0-.7,0-.73.03-.12.08.26.3-.43.34.03.29-.03.59-.03.87-.22.04-.97-.04-1.02-.03.03-.38-.06-.28-.06-.3-.14-.68.22-.48.24-.43.07.16-.23.26.52.22.1-.04.01-.41.04-.46.08-.11.36.19.39-.37.31.05.32-.07.33-.33.3,0,.6,0,.9,0Z"/>
        <path class="cls-31" d="M1.35,4.49c0-.13.03-.27.03-.39.16.03,1.19-.04,1.24,0,.05.03-.02.38.03.41.09.06.98-.2.73.34-.02.05-.85.07-.88.04-.05-.03.02-.35-.03-.39-.05-.03-.98,0-1.12-.03Z"/>
        <path class="cls-56" d="M8.01,3.1s.09-.08.06.3c0,0-.17.07-.18.07-.05.07.1.38-.12.36.05.38-.13.22-.54.25-.07-.54.21-.29.27-.37.02-.02,0-.52,0-.61h.51Z"/>
        <path class="cls-31" d="M3.72,2.48v.47c-.28-.04-1.05-.16-.84.31.04.09.58.02.84.04l-.88.03c-.04-.14.04-.33-.07-.41.15-.04.07-.07.09-.41.29,0,.58-.02.87-.03Z"/>
        <path class="cls-23" d="M3.24,5.8c.01.35-.06.31-.06.33h-.21c.01-.11-.07-.49-.03-.65.02,0,.21-.09.3.01,0,.1,0,.21,0,.31Z"/>
        <path class="cls-58" d="M6.72,4.2s-.06.02-.06.04c-.01.1.02.49-.01.52-.01,0-.3,0-.31-.01-.02-.02.01-.44,0-.55h.39Z"/>
        <path class="cls-73" d="M3.18,6.12c0,.08,0,.67.03.7.01.02.39.02.4.01.02,0,.09-.25.27-.12.03.02.01.27.01.33,0,.23-.03.25-.03.27-.24-.02-.26.03-.27.03-.17.01-.34,0-.51,0,.04-.74-.08-.45-.24-.47,0,0-.02-.06-.04-.06-.23-.02-.59,0-.85,0,0,0-.02,0-.03,0-.06,0-.37.02-.39-.01-.01-.02,0-.45.01-.46.06-.04,1.17.03,1.35,0,.03-.01.07-.17.07-.21h.21Z"/>
        <path class="cls-118" d="M.57,5.88c-.01,1.53.09,3.06,0,4.59,0,0-.06,0-.06-.01.09-.64-.12-4.34-.06-4.56,0-.04.11-.08.12-.01Z"/>
        <path class="cls-100" d="M1.92,6.8s.02,0,.03,0c.04.14.76.01.82.06.01,0,.05.24.04.25-.03.04-.71,0-.82.01-.02,0-.31.19-.45.09-.02-.01-.02-.33-.01-.34.04-.06.4.05.39-.07Z"/>
        <path class="cls-58" d="M3.09,7.34h-.21c0-.05-.03-.13-.03-.18,0-.1,0-.2,0-.3.16.03.28-.27.24.47Z"/>
        <path class="cls-100" d="M9.51,1.02c-.04.23.04.49.03.71-.01.26-.02.38-.33.33.02-.3-.07-.64-.03-.95.25.03.17-.09.18-.09.05,0,.1,0,.15,0Z"/>
        <g>
          <path class="cls-67" d="M11.88.52c.18-.05.41-.03.6-.03v.33c-.58.01-.8-.1-.78.21-.07,0-.14,0-.21,0-.09,0-.19-.03-.27-.03V.4c.57.04.17.23.31.33.02.01.41.09.34-.21Z"/>
          <path class="cls-7" d="M11.22.4v.59c-.15,0-.32.03-.48.03-.1,0-.2,0-.3,0-.17,0-.34,0-.51,0V.4c.33-.01.97-.02,1.29,0Z"/>
          <path class="cls-67" d="M9.93.4v.62c-.14,0-.28,0-.42,0-.05,0-.1,0-.15,0-.05-.45.13-.25.18-.31.13-.19-.32-.28.39-.31Z"/>
        </g>
        <g>
          <path class="cls-103" d="M9.18,1.11c-.04.31.05.65.03.95-.03.56-.31.26-.39.37-.03.05.06.42-.04.46-.76.04-.45-.06-.52-.22-.02-.05-.38-.25-.24.43h-.51c0-.1.07-.52.03-.58-.03-.05-.37.02-.45-.04,0-.05,0-.1,0-.15,0-.1,0-.2,0-.3.23-.01.47-.03.7-.03.03-.02,0-.48.01-.56.68-.04.96.17.87-.3.17,0,.34-.06.51-.03Z"/>
          <path class="cls-11" d="M8.67,1.14c.09.46-.19.25-.87.3.02-.23.06-.04.15-.16.01-.02-.02-.14.01-.16.03-.02.34.04.7.03Z"/>
        </g>
        <path class="cls-11" d="M6.99,2.03s.06,0,.09,0c0,.1,0,.2,0,.3-.32-.02-.59.12-.54-.27.14,0,.3-.02.45-.03Z"/>
        <path class="cls-28" d="M2.85,2.51c-.02.34.06.38-.09.41-.06.01-.22,0-.33,0-.03-.66.01-.4.42-.41Z"/>
        <path class="cls-37" d="M11.49,1.02c.09.24,0,.68,0,.71-.25,0-.5,0-.75,0v-.71c.16,0,.33-.03.48-.03.08,0,.18.03.27.03Z"/>
        <path class="cls-73" d="M2.67,9.59v.84c.12.01.11.04.12.04.02.64-.58.02-.39.5-.18.05-.11.09-.12.24-.02.23.03,1.25,0,1.32l-.87.03v-2.02c.04-.05.45.03.54-.04.02-.02,0-.25,0-.3,0,0,.06,0,.01-.09-.28-.12-.68.33-.54-.53.41,0,.83-.01,1.24,0Z"/>
        <path class="cls-34" d="M3.27,10.72c-.04.25,0,.58.03.83,0,0-.03-.03,0,.15-.44,0-.54.09-.51-.41,0-.02.06-.28.06-.3,0,0,.06.01.09-.04.07-.15-.17-.26.33-.22Z"/>
        <path class="cls-31" d="M2.4,12.94c-.1,0-.2,0-.3,0-.14,0-.31,0-.45,0-.05,0-.25.01-.27-.01,0-.09,0-.19,0-.28.23.02,1.27-.03,1.33,0,.07.03.07.27,0,.3-.03.01-.23,0-.31,0Z"/>
        <path class="cls-101" d="M3.57,15.69c0-.19-.01-.38,0-.56h.54v.55h-.54Z"/>
        <path class="cls-28" d="M3.84,12.02c-.07.02-.36-.02-.49,0,0-.11-.03-.22-.04-.33-.03-.18,0-.14,0-.15.1.01.5-.02.52,0,.04.03,0,.4.01.47Z"/>
        <path class="cls-58" d="M3.9,14.6c.06.06.14.01.16.03.28.18-.46.09-.49.09v-.68c.24.03.35-.1.21.25.16.04.04.23.12.31Z"/>
        <path class="cls-87" d="M4.68,11.87c-.01.1.02.46-.01.5-.02.02-.35.11-.4-.15-.02-.08.01-.23,0-.33.05,0,.2-.05.42-.03Z"/>
        <path class="cls-34" d="M6.6,18.12c-.05-.05-.1.15-.18-.27-.01-.06.01-.16,0-.21.03,0,.03-.03.06-.03.08-.01.2.01.25,0,.03,0,.04-.06.04-.06.64.12-.03.27-.04.3-.06.09.07.15-.13.27Z"/>
        <path class="cls-58" d="M1.95,10.21s.02.28,0,.3h-.6c0-.1,0-.2,0-.3h.6Z"/>
        <path class="cls-58" d="M4.14,16.46c-.05.59.38.04.3.65-.59-.02-.13-.19-.36-.36-.08-.06-.16,0-.18-.04-.03-.05-.06-.34.24-.25Z"/>
        <path class="cls-28" d="M5.43,14.33v.5c-.09-.01-.21,0-.3,0-.01-.16-.05-.32-.03-.49.02-.03.27,0,.33-.01Z"/>
        <path class="cls-84" d="M3.12,16.17h.45c0,.08-.02.19-.03.27-.01.08,0,.19,0,.28-.04.07-.09.04-.15.04,0,0,0-.03-.12-.03-.03-.5.15-.61-.24-.5v-.06s.06,0,.09,0Z"/>
        <path class="cls-28" d="M2.85,10.98s-.06.28-.06.3l-.51-.06c.01-.15-.06-.19.12-.24.08-.02.32.02.45,0Z"/>
        <path class="cls-8" d="M2.4,12.94c.01.16,0,.31-.03.47-.24.02-.26-.03-.27-.03v-.44c.1,0,.2,0,.3,0Z"/>
        <path class="cls-58" d="M5.43,14.83s.13-.02.15.01c0,.01.03.25.01.25-.04.02-.37-.01-.48,0-.01,0,.02-.2.01-.27.09,0,.21-.01.3,0Z"/>
        <path class="cls-28" d="M2.37,13.41s.05.03.03.1c-.04.12-.21.25-.36.19-.03-.07.06-.26-.06-.24,0,0,.09-.08.12-.09.01,0,.03.05.27.03Z"/>
        <g>
          <path class="cls-73" d="M1.95,10.51c-.09.08-.5-.01-.54.04v2.02l.87-.03c.03-.07-.02-1.09,0-1.32l.51.06c-.03.51.07.42.51.41.02.11.04.21.04.33.13-.02.43.02.49,0,.11-.04.02-.11.1-.15.08-.04.3.03.31.03.01.1-.02.25,0,.33-.11.07-.33,0-.36.04-.02.03.03.41.03.7,0,.09,0,.18,0,.27,0,.1-.02.61,0,.64.08.11.52-.22.42.39.08.1.16.01.18.01.22.03.88.02.9.06-.06,0-.31-.02-.33.01-.02.17.02.33.03.49,0,.07-.03.26-.01.27.11-.01.44.02.48,0,.01,0,0-.24-.01-.25-.02-.03-.11,0-.15-.01v-.5c.13-.01.23-.02.36-.03.01.11-.02.64,0,.67.08.12.42-.29.33.58-.17,0-.41-.04-.33.13.05.11.32.02.39.01.01,0,.07.05.21.03-.13.94.42.3.45.65.02.19-.07.79-.03,1.07-.15.01-.45-.07-.33.18-.03,0-.03.03-.06.03-.04-.14-.33-.1-.34-.09-.03.02,0,.24-.01.3-.02.11-.04.22-.04.33-.26-.02-.81.11-.64-.25.04-.09.27-.01.3-.06.04-.05-.03-.21-.03-.22,0-.06.03-.41.01-.41-.29-.14-.28.19-.25.39-.16,0-.35.02-.51.03-.19-.34.19-.53-.39-.5,0-.04-.03-.03-.06-.03.08-.61-.35-.06-.3-.65.04-.2-.33.02-.6-.03.01-.08.02-.19.03-.27.01-.16,0-.29,0-.44,0,0,0-.02,0-.03h.54v-.55h-.54c0-.16-.03-.32.04-.37.65.07.72-.19.28-.18-.08-.08.04-.27-.12-.31.14-.35.03-.22-.21-.25-.12-.02-.21-.03-.33-.03-.03,0-.06,0-.09,0-.01-.06.02-.27-.01-.3-.02-.01-.24,0-.31,0,0-.03.01-.07-.01-.09-.17.03-.51-.11-.46.12-.09.02-.26.08-.3-.03.15.05.32-.07.36-.19.02-.07-.03-.1-.03-.1.03-.16.04-.31.03-.47.09,0,.29.01.31,0,.07-.03.07-.27,0-.3-.07-.03-1.1.02-1.33,0-.04-.71-.04-1.43-.03-2.13h.6Z"/>
          <path class="cls-58" d="M4.7,16.35c.24-.17.33.26.24.33-.24.17-.33-.26-.24-.33Z"/>
          <path class="cls-58" d="M5.27,15.66c.12-.08.45.06.31.25-.01.02-.3.02-.31.01-.02-.02-.02-.25,0-.27Z"/>
          <path class="cls-58" d="M6.12,15.55s.04,0,.06,0v.15c-.07,0-.34.09-.39-.01-.08-.17.16-.14.33-.13Z"/>
        </g>
        <path class="cls-31" d="M6.81,17.44v.09s-.03.03-.03.03c0,0-.02.05-.04.06-.06.01-.18-.01-.25,0-.13-.25.18-.16.33-.18Z"/>
        <path class="cls-73" d="M2.1,12.94v.44s-.11.09-.12.09c-.45.04-.31-.04-.33-.53.14,0,.31,0,.45,0Z"/>
        <path class="cls-50" d="M8.64,8.76s-.06.04-.06.06c-.39-.08-.38-.07-.36.3-.18,0-.37.01-.54.03-.18-.05-.1-.06-.12-.21-.02-.16,0-.66,0-.86,0-.04.06-.11.06-.12h.94c.06.3-.06.79.07.8Z"/>
        <path class="cls-8" d="M9.72,8.43c-.54-.02-.57.12-.54-.31,0-.02.06-.01.06-.01.19.02.26-.03.27-.03.01,0,.2.06.21.07,0,.09,0,.19,0,.28Z"/>
        <path class="cls-58" d="M9.51,7.57v.5s-.08.05-.27.03c.03-.37-.14-.6.27-.53Z"/>
        <path class="cls-40" d="M7.2,7.57c-.07-.06-.01-.26-.03-.36.46-.11.48.37.03.36Z"/>
        <g>
          <path class="cls-58" d="M9.75,7.22c-.05.08.03.21,0,.28-.03.07-.18.04-.24.04-.2.02-1.68.02-1.84,0-.02,0-.01-.06-.01-.06.02-.38-.02-.27-.09-.3-.15-.07-.25,0-.39,0-.14,0-.29,0-.43,0-.07-.03-.05-.18-.04-.24,0-.04-.01-.19.01-.21h1.77l.09.44c.39-.05.8.05,1.18.03Z"/>
          <path class="cls-8" d="M7.65,7.49s-.11.25-.09-.3c.07.03.11-.08.09.3Z"/>
        </g>
        <path class="cls-104" d="M9.12,14.09c.07-.01.16,0,.24,0,0,.2,0,.4,0,.59,0,.18-.03.2-.03.21-.44-.06-.27.08-.3.68-.2,0-.36.01-.57-.03,0,0-.06-.06-.06-.06-.31-.05-.37-.12-.39-.12l.03-.52c.05-.14.54.27.42-.49,0,0-.02-.02.12-.03.07,0,.33.01.34,0,.1-.07-.16-.19.19-.24Z"/>
        <path class="cls-73" d="M8.19,6.18s-.01.19.01.21c.11.01.63-.02.66,0,.03.02,0,.13.01.18,0,.04-.02.15.01.18.06.04,1.04.02,1.45.06l-.03.06c-.4.06.21.32-.57.36-.38.02-.8-.08-1.18-.03l-.09-.44h-1.77s-.01.17-.01.21c-.28-.03-.42.12-.48-.21-.01-.07,0-.57.04-.59l1.93.03Z"/>
        <path class="cls-34" d="M9.36,12.52c0,.52,0,1.05,0,1.57-.08,0-.16-.01-.24,0-.04-.51.04-1.03.03-1.54.07-.01.14-.03.21-.03Z"/>
        <path class="cls-14" d="M9.12,12.14c0,.09,0,.18,0,.27-.56.1-.56-.37,0-.27Z"/>
        <path class="cls-89" d="M3.27,16.73c-.07,0-.16.03-.24.03.02-.17-.01-.36,0-.53.39-.11.21,0,.24.5Z"/>
        <g>
          <path class="cls-40" d="M7.11,18.63c-.86-.04-.33-.11-.45-.44-.03-.08.42-.1.43-.09.04.03,0,.45.01.53Z"/>
          <path class="cls-29" d="M6.88,18.15s.02.12,0,.12-.02-.12,0-.12Z"/>
        </g>
        <path class="cls-96" d="M8.94,6.57h1.59c-.02.08-.04.17-.03.25-.08.05-.13-.01-.15-.01-.42-.04-1.39-.02-1.45-.06-.03-.02,0-.13-.01-.18h.06Z"/>
        <path class="cls-28" d="M4.29,7.07c.01.18.03.38.03.56-.38-.11-.44.15-.45-.33,0-.01.04-.04.03-.27.23-.03.37.03.39.03Z"/>
        <g>
          <path class="cls-1" d="M9.18,3.63l-.03.53s-.02,0-.03,0c0-.18,0-.36,0-.53h.06Z"/>
          <path class="cls-82" d="M11.1,4.2c-.13,0-.27.03-.39.03-.26,0-.54-.03-.81-.03v-.59c.38,0,.77-.06,1.15-.03l.04.62Z"/>
          <path class="cls-58" d="M12.3,3.16c0,.22,0,.43,0,.65-.11.01-.42-.02-.46,0-.09.04-.02.33-.04.37-.03.04-.22.01-.27.01-.11-.91.33-.42.42-.61v-1.02c.08.01.32-.03.36.04,0,.18,0,.37,0,.55Z"/>
          <path class="cls-82" d="M11.1,2.18v.56h-1.21c-.19-.78.12-.37.4-.56.24-.01.57-.01.81,0Z"/>
          <g>
            <path class="cls-67" d="M10.29,2.18c-.29.19-.59-.21-.4.56h1.2v-.56c.15,0,.29,0,.42,0l.06.36c.11.01.24-.01.34,0,.04,0,.03.03.03.03v1.02c-.09.19-.53-.31-.42.61-.14,0-.28,0-.42,0l-.04-.62c-.38-.03-.77.03-1.15.03-.05,0-.06-.03-.12-.03-.04-.65.19-.95-.36-.76.02.21-.03.54,0,.71,0,.05.09.04.09.04.02.1.08.34-.03.33,0-.05.01-.25-.01-.27-.02-.01-.21,0-.28,0h-.06c0-.18-.03-.2-.03-.21,0-.29.06-.58.03-.87.7-.04.32-.26.43-.34.03-.02.62-.02.73-.03Z"/>
            <path class="cls-58" d="M11.14,2.74s.42,0,.43.01c.02.03.02.76-.01.79-.02.01-.42,0-.43-.01-.02-.03-.02-.76.01-.79Z"/>
          </g>
          <path class="cls-58" d="M9.78,3.57c-.09,0-.18,0-.27,0,0,0-.08,0-.09-.04-.03-.17.02-.5,0-.71.55-.2.32.11.36.76Z"/>
          <path class="cls-81" d="M9.78,3.57c.06,0,.07.03.12.03v.59c-.51,0-.4-.06-.42-.06,0-.08,0-.16,0-.24.11.01.05-.23.03-.33.09,0,.18,0,.27,0Z"/>
          <path class="cls-75" d="M9.48,3.9c0,.08,0,.16,0,.24-.02,0-.05.13-.33.03l.03-.53c.07,0,.27-.01.28,0,.03.02.01.22.01.27Z"/>
        </g>
        <path class="cls-58" d="M8.94,6.57h-.06s.02-.15-.01-.18c-.03-.02-.55.01-.66,0-.03-.02-.01-.17-.01-.21,0-.12.03-.11.03-.12l.64.03.07.47Z"/>
        <g>
          <path class="cls-58" d="M10.92,6.03v.59c-.1,0-.21,0-.31,0-.05.25-.1.22-.1.24-.06,0-.12,0-.18,0l.03-.06s.07.06.15.01c0-.09.01-.17.03-.25.03-.17.05-.33.01-.5-.25-.02-1.55.03-1.62,0-.09-.04-.01-.24-.06-.27-.05-.03-.39.05-.43-.04-.14-.32.42-.4.49-.16.19-.03,1.38.04,1.44,0,.04-.03,0-.4.01-.43.02-.02.24-.02.25-.01.13.09-.22,1.08.28.89Z"/>
          <path class="cls-67" d="M10.92,5.83c0,.07,0,.14,0,.21-.5.19-.16-.8-.28-.89-.01,0-.24,0-.25.01-.02.03.03.4-.01.43-.06.04-1.25-.03-1.44,0-.07-.24-.64-.15-.49.16.04.1.39.01.43.04.05.03-.03.23.06.27.07.03,1.37-.02,1.62,0,.04.17.02.33-.01.5h-1.59l-.07-.47-.64-.03c0-.14.03-.28-.04-.33-.14,0-.29,0-.43,0-.19-.44.36-.2.42-.28.1-.14-.28-.64.39-.52,0,0,.06-.01.06.01.02.13-.04.28.04.34h1.35v-.68c.96.03.43.02.58.37.04.09.3.01.33.06.02.03,0,.68,0,.79Z"/>
          <path class="cls-93" d="M10.02,4.61v.68h-1.36c-.09-.06-.03-.21-.04-.34,0-.02-.06-.01-.06-.01,0-.02.05-.22.04-.33.47.01.95-.01,1.42,0Z"/>
        </g>
        <g>
          <path class="cls-58" d="M6.54,2.06c-.06.38.22.24.54.27,0,.05,0,.1,0,.15,0,.19-.03.14-.03.15-.73.07-.4-.17-.49-.24-.01,0-.19,0-.25,0-.2-.01-1.38-.02-1.5,0-.37.05.12.35-.48.3,0-.08,0-.16,0-.24,0-.14-.03-.17-.03-.18,0-.01.03.01.04-.21.38.02.75-.02,1.12-.03.36,0,.73.04,1.08.03Z"/>
          <path class="cls-96" d="M7.5,3.1c0,.09.02.58,0,.61-.06.08-.34-.17-.27.37-.4.03-.26.18-.48.09.36-.23.43-.02.45-.49-.03-.03-.11-.01-.15-.01,0-.35-.01-.69,0-1.04,0,0,.02.04.03-.15.08.07.41,0,.45.04.04.06-.03.48-.03.58Z"/>
          <path class="cls-58" d="M5.1,3.63c-.07,0-.43.03-.45.07v.47c.05.07.16.04.27.04-.01,0-.03.09-.04.09-.03,0-.46-.05-.55-.04-.03-.23.03-.58.03-.61.58.08-.19-.57.7-.44l.04.41Z"/>
          <path class="cls-58" d="M7.05,3.66s.12-.02.15.01c-.02.47-.09.26-.45.49h-.03c.04-.36-.15-.56.33-.5Z"/>
          <path class="cls-82" d="M6.3,2.39v.61c-.51.05-1.01.04-1.51.01-.1-.04,0-.53.01-.62.12-.02,1.3-.01,1.5,0Z"/>
          <path class="cls-7" d="M4.92,4.23c-.11,0-.22.02-.27-.04v-.47s.38-.07.45-.07c.22-.01.48.07.7.03v.49c-.05.05-.79-.02-.87.01-.03.01-.01.06-.01.06Z"/>
          <g>
            <path class="cls-67" d="M4.8,2.39c-.02.09-.12.58-.01.62.51.02,1.01.04,1.51-.01v-.61c.06,0,.24,0,.25,0,.1.07-.24.31.49.24-.01.35,0,.69,0,1.04-.48-.05-.29.14-.33.5,0,0,0,.02,0,.03h-.39c-.47-.04-.94.04-1.41.03,0,0-.01-.05.01-.06.08-.03.82.04.85-.01v-.49c-.21.04-.47-.04-.69-.03l-.04-.41c-.9-.13-.12.52-.7.44,0,0-.06,0-.06-.01-.02-.32.01-.64.03-.96.6.06.11-.24.48-.3Z"/>
            <path class="cls-58" d="M6.49,2.95c.43-.02.34,0,.34.4-.79.04-.03.4-.97.31-.21-.94.62-.11.63-.71Z"/>
          </g>
        </g>
        <path class="cls-108" d="M9.93,1.02c.17,0,.34,0,.51,0v.71c-.3,0-.6,0-.9,0,.01-.22-.07-.48-.03-.71.14,0,.28,0,.42,0Z"/>
        <path class="cls-42" d="M10.74,1.02v.71c-.1,0-.2,0-.3,0v-.71c.1,0,.2,0,.3,0Z"/>
        <path class="cls-58" d="M3.87,7.31c0,.47.07.22.45.33,0,.14,0,.28,0,.41-.24,0-.48,0-.72,0v-.71s.03-.05.27-.03Z"/>
        <path class="cls-34" d="M3,10.48c-.07,0-.18,0-.21,0,0,0,0-.03-.12-.04v-.84c.08,0,.51-.02.54.01-.08.26-.04.54-.06.56-.04.06-.2-.12-.15.31Z"/>
        <path class="cls-58" d="M3.54,10.57c-.07,0-.15,0-.22,0-.07.04-.04.09-.04.15-.5-.04-.26.07-.33.22-.03.06-.09.04-.09.04-.13.02-.37-.02-.45,0-.19-.49.41.14.39-.5.03,0,.14,0,.21,0,.54,0,.29-.16.36-.25.06-.09.24-.05.18.34Z"/>
        <path class="cls-89" d="M7.2,10.42c-.02.59,0,.4.3.44.06,0,.12,0,.18,0v.53s-.04.05-.09.06c-.12.01-.26-.01-.39,0,0-.19-.05-.38-.03-.58-.02-.03-.41-.02-.48-.01-.33,0-.42-.06-.42.15-.16.01-.11.03-.12.03-.24.02-.37-.13-.39.15-.34,0-.68-.04-1.02-.03l-.06-.06c.17-.01.97.07,1.03.03.02-.01,0-.15.09-.18.11-.04.37.04.39.03.07-.04-.23-.29.93-.18,0-.49.07-.36.07-.39Z"/>
        <path class="cls-58" d="M7.59,11.46c.03.66-.02.39-.39.41,0-.14,0-.28,0-.41.13-.01.27.01.39,0Z"/>
        <g>
          <path class="cls-64" d="M7.2,11.46c0,.14,0,.28,0,.41-.34.02-.69.12-1.03.03-.14.31.02.28.01.3,0,.01-.09.28-.12.24-.77.05-.4-.02-.55-.56h-.69c-.1.05,0,.46-.04.55-.06.13-.56-.19-.39.55-.2-.02-.28.03-.3.03,0,0-.03-.05-.15-.03,0-.28-.05-.67-.03-.7.03-.05.25.02.36-.04.06.26.39.17.4.15.04-.05,0-.4.01-.5,0,0,.06,0,.06-.01.02-.23-.02-.47,0-.7.34-.01.68.02,1.02.03.15,0,.44.14.39-.15,0,0-.04-.02.12-.03.31-.03.47.09.42-.15.07,0,.46-.01.48.01-.02.19.02.39.03.58Z"/>
          <path class="cls-87" d="M5.69,11.87s.36,0,.37.01c.18.65-.42.48-.45.44-.01-.02-.04-.42.07-.46Z"/>
          <path class="cls-13" d="M5.84,11.4c.4-.18.38.43,0,.27-.07-.03-.07-.24,0-.27Z"/>
        </g>
        <path class="cls-58" d="M6.15,11.04c.05.29-.24.15-.39.15.02-.28.15-.13.39-.15Z"/>
        <path class="cls-58" d="M6.69,10.86c.05.23-.11.12-.42.15,0-.21.09-.15.42-.15Z"/>
        <path class="cls-87" d="M8.01,15.37s.08.07.39.12c-.05.02-.26.03-.27.04-.01.02,0,.18,0,.25-.25,0-.59-.01-.84,0,0,0-.02,0-.03,0-.02,0-.04,0-.06,0,.1-.36-.12-.36.3-.41.09-.01.43-.01.51,0Z"/>
        <path class="cls-28" d="M6.84,13.77c-.48,0-.29.21-.3.24-.06.28-.04.19-.09.24.01-.17-.02-.34,0-.5,0,0,.06,0,.06-.01.05-.37-.16-.46.27-.49,0,.01.07.06.09.13l-.03.4Z"/>
        <g>
          <path class="cls-8" d="M6.84,14s.1-.02.12.01c.02.03-.02.58,0,.71l.54.03v.61c-.42.05-.2.06-.3.41-.11,0-.22-.03-.27.04,0,.13,0,.27,0,.4,0,.12.03.17-.09.15-.03-.35-.58.29-.45-.65.02-.25-.03-.16-.21-.18-.02,0-.04,0-.06,0,.09-.87-.25-.46-.33-.58-.02-.03.01-.56,0-.67.42-.02.28-.06.3-.06.02,0,.2.16.36,0,.05-.05.03.04.09-.24.09.01.22-.01.3,0Z"/>
          <path class="cls-89" d="M6.39,15.72c-.14.02-.2-.03-.21-.03v-.15c.18.02.23-.07.21.18Z"/>
          <path class="cls-89" d="M7,14.98c.22-.12.19.36.15.39-.21.15-.34-.28-.15-.39Z"/>
        </g>
        <path class="cls-28" d="M6.84,13.77v.24c-.08-.01-.21.01-.3,0,0-.03-.18-.24.3-.24Z"/>
        <g>
          <path class="cls-104" d="M3.54,10.57c.33-.03.78.02,1.14.03.01.03.03.14.03.15,0,.02-.05.14-.03.36l.06.06c-.02.23.02.47,0,.7,0,.02-.06.01-.06.01-.22-.02-.37.03-.42.03-.02,0-.23-.07-.31-.03-.08.04,0,.11-.1.15-.01-.08.02-.45-.01-.47-.02-.02-.42.01-.52,0-.02-.25-.07-.58-.03-.83,0-.06-.02-.11.04-.15.07,0,.15,0,.22,0Z"/>
          <path class="cls-73" d="M3.98,10.75c.34-.15.32.32.27.36-.01,0-.3,0-.31-.01-.01-.01-.02-.31.04-.34Z"/>
        </g>
        <g>
          <path class="cls-62" d="M2.67,15.13l-.03.52s.44.07.51.07c0,.14-.06.3-.03.44-.03,0-.06,0-.09,0-.13,0-.26,0-.39,0,0,0,0-.06-.01-.06-.04,0-.4.1-.85.03-.01-.21.08-.48-.15-.5-.08-.73.13-.46,1.05-.5Z"/>
          <path class="cls-66" d="M1.41,14.03c-.13.85.37.37.67.5.16.07-.16.23.25.27-.17.05-.05.23-.1.27-.15.1-.87-.32-.64.59-.03,0-.06,0-.09,0,0,0-.02,0-.03,0,.11-.47-.4-.52-.3-.03-.03-.03-.04-.48-.03-.56.51.11.38,0,.39-.43h-.36s.14.05.09-.56c.04-.07.09-.04.15-.04Z"/>
          <path class="cls-77" d="M3.15,14.81v.33h-.48c-.92.05-1.13-.23-1.05.5l-.03.03c-.23-.91.5-.49.64-.59.06-.04-.06-.22.1-.27.18.02.6,0,.81,0Z"/>
          <path class="cls-62" d="M2.49,13.86s0,.1,0,.15c-.32.06.06.47.31.3.03-.02.01-.21.01-.27,0,0,0-.02,0-.03.16.08.31,0,.33,0,.03,0,.06,0,.09,0v.71c-.13.05-.08.09-.09.09-.21,0-.63.02-.81,0-.42-.04-.09-.2-.25-.27-.3-.13-.8.35-.67-.5.1-.02.56.02.58,0,.03-.02,0-.1.04-.18h.45Z"/>
          <path class="cls-4" d="M3.57,15.13c-.01.19,0,.38,0,.56,0,0,0,.02,0,.03-.14,0-.28,0-.42,0,.01-.2,0-.39,0-.59v-.33s-.04-.04.09-.09c.11,0,.22,0,.33,0,.03,0,.77.09.49-.09-.03-.02-.1.03-.16-.03.44-.01.36.25-.28.18-.08.06-.04.21-.04.36Z"/>
          <path class="cls-90" d="M3.57,14.03v.68c-.11,0-.22,0-.33,0v-.71c.12,0,.21.01.33.03Z"/>
          <path class="cls-113" d="M3.57,15.72c0,.15.01.28,0,.44h-.45c-.03-.15.02-.3.03-.44.14,0,.28,0,.42,0Z"/>
          <path class="cls-58" d="M2.82,13.71s0,.22,0,.3c0,0,0,.02,0,.03-.23.02-.31-.03-.33-.03,0-.05,0-.1,0-.15,0-.03.01-.09-.01-.12-.02-.02-.04.03-.1.03,0-.02,0-.03-.03-.03-.05-.23.29-.08.46-.12.03.02,0,.06.01.09Z"/>
          <path class="cls-67" d="M3.15,14s-.17.08-.33,0c0-.07,0-.26,0-.3.08,0,.3-.01.31,0,.04.03,0,.24.01.3Z"/>
          <path class="cls-62" d="M1.14,15.07c0-.16,0-.29.03-.44h.36c-.01.45.12.55-.39.44Z"/>
          <path class="cls-27" d="M1.47,15.66c-.07,0-.25.02-.3-.03-.1-.49.41-.44.3.03Z"/>
          <path class="cls-66" d="M2.49,13.86h-.45c.05-.06.24-.08.33-.09.07,0,.09-.04.1-.03.03.02.01.08.01.12Z"/>
          <path class="cls-116" d="M3.15,15.13c0,.2.01.39,0,.59-.07,0-.49-.03-.51-.07l.03-.52h.48Z"/>
          <path class="cls-95" d="M2.82,14.03c0,.05.02.24-.01.27-.25.18-.63-.24-.31-.3.02,0,.1.05.33.03Z"/>
        </g>
        <g>
          <path class="cls-19" d="M4.08,13v.24s-.1,0-.15,0c0-.09,0-.18,0-.27.12-.02.14.03.15.03Z"/>
          <path class="cls-67" d="M6.45,12.85s0,.04,0,.06c-.11,0-.22,0-.33,0-.02-.16.05-.35-.06-.47.03.04.12-.22.12-.24.45-.08.2.21.27.65Z"/>
          <path class="cls-113" d="M6.45,13.74c-.02.16.01.34,0,.5-.16.16-.34,0-.36,0l.03-.5c.07.02.23-.01.33,0Z"/>
          <path class="cls-20" d="M6.78,13.23c-.43.03-.22.12-.27.49,0,.02-.06.01-.06.01-.1-.01-.26.02-.33,0-.06-.02-.07-.03-.09-.09,0-.02.01-.18,0-.41,0-.09,0-.18,0-.27.04,0,.08-.06.09-.06.11,0,.22,0,.33,0,0,0,.05-.03.09.07.02.04-.02.19,0,.21.04.05.29.1.21-.31.07.06.01.26.03.36Z"/>
          <g>
            <path class="cls-62" d="M5.04,13.29c.01.1-.02.3,0,.34.03.07.23.04.3.04.21.01.48.01.69-.03.02.06.03.07.09.09l-.03.5s.12.04-.3.06c-.13,0-.23.02-.36.03-.02-.04-.68-.03-.9-.06v-.96s.43-.01.51-.01Z"/>
            <path class="cls-113" d="M4.08,13.23c.1.01.19.03.3.03.24,0,.48-.07.72,0,0,.04-.03.03-.06.03-.08,0-.49-.02-.51.01v.96s-.1.08-.18-.01c.1-.61-.34-.28-.42-.39-.02-.03,0-.54,0-.64.05,0,.11,0,.15,0Z"/>
            <path class="cls-27" d="M6.06,12.43c.11.13.04.31.06.47,0,0-.05.06-.09.06-.52.02-1.08-.08-1.6-.03v.06s-.04-.01-.04-.03c-.17-.74.33-.42.39-.55.04-.09-.06-.5.04-.55h.69c.16.54-.21.62.55.56Z"/>
            <path class="cls-20" d="M4.38,12.97s0,.03.03.03l-.03.27c-.11,0-.19-.02-.3-.03v-.24s.1-.05.3-.03Z"/>
            <path class="cls-80" d="M6.03,13.23c.01.23,0,.4,0,.41-.2.04-.48.04-.69.03l.03-.41c.22,0,.44.01.66-.03Z"/>
            <path class="cls-51" d="M5.37,13.26l-.03.41c-.07,0-.27.03-.3-.04-.02-.04.01-.24,0-.34.03,0,.06,0,.06-.03.16.04.23,0,.27,0Z"/>
            <path class="cls-68" d="M6.03,12.97c0,.09,0,.18,0,.27-.22.04-.44.03-.66.03-.04,0-.11.04-.27,0-.24-.07-.48,0-.72,0l.03-.27v-.06c.54-.05,1.1.05,1.62.03Z"/>
          </g>
        </g>
        <path class="cls-34" d="M3.6,8.05c.24,0,.48,0,.72,0,0,.3,0,.6,0,.9-.02.04-.63.07-.72.07-.02,0-.03-.03-.09-.03v-.92s.03-.03.09-.03Z"/>
        <path class="cls-87" d="M7.56,8.94c.02.15-.06.15.12.21-.05,0-.13,0-.15,0-.12.06-.02.17-.09.21-.15-.08-.46,0-.48,0,0,0,.03-.01-.15-.03,0,0,.02-.02-.06-.03v-.53c.1,0,.59-.07.64-.03.05.03-.06.24.16.21Z"/>
        <path class="cls-58" d="M6.75,8.76v.53c-.08-.01-.32.04-.36-.04v-.47s.3,0,.36-.01Z"/>
        <g>
          <path class="cls-98" d="M1.98,7.28v.33c-.17,0-.4.06-.3.28.03.08.31.04.39.04v.5c-.18,0-.29,0-.46.06.12-.48.03-.42-.4-.41,0-.05-.04-.33-.03-.34.04-.05.32.03.36-.06.02-.05-.02-.36,0-.39.03-.04.37,0,.45-.01Z"/>
          <path class="cls-15" d="M2.07,8.43c.08,0,.1.03.15.03.1,0,.48-.03.51.06h-1v.53h-.1c-.1.02-.18-.01-.27-.03-.07-.86.17-.51.24-.61.07-.1.05-.37-.39-.28,0-.02,0-.04,0-.06.43,0,.53-.06.4.41.18-.06.28-.06.46-.06Z"/>
          <path class="cls-62" d="M1.35,9.03s-.08.1-.15-.04c0-.28,0-.56,0-.84.44-.09.46.18.39.28-.07.09-.31-.25-.24.61Z"/>
          <path class="cls-62" d="M2.73,8.52v.4c.1.11.4.01.42.01,0,0,.02.05.12.06v.53c-.64.04-1.18-.02-1.56,0v-1.01h1.02Z"/>
          <path class="cls-98" d="M3.09,7.34c.17,0,.34.01.51,0v.71c-.06,0-.07.03-.09.03-.01,0-.02-.05-.27-.03,0-.04,0-.08,0-.12,0-.04,0-.28,0-.3-.05-.12-.3-.03-.34-.06-.03-.02,0-.19-.01-.24h.21Z"/>
          <path class="cls-57" d="M3.12,8.2l.03.74s-.32.09-.42-.01v-.4c-.03-.09-.41-.06-.51-.06.12-.23,0-.29.03-.53.15.11-.34.34.87.27Z"/>
          <path class="cls-58" d="M3.24,8.05c.25-.02.26.03.27.03v.92c-.08,0-.16,0-.24,0-.1,0-.11-.06-.12-.06l-.03-.74c.04-.22.12-.14.12-.15Z"/>
          <path class="cls-20" d="M2.22,7.93s-.1,0-.15,0c-.08,0-.35.03-.39-.04-.1-.23.13-.29.3-.28.02,0,.21.06.21.07.01.03-.02.14.03.25Z"/>
          <path class="cls-112" d="M2.22,7.93s.02,0,.03,0c-.03.24.09.31-.03.53-.05,0-.07-.03-.15-.03v-.5s.1,0,.15,0Z"/>
          <g>
            <path class="cls-62" d="M2.88,7.34c0,.05-.02.21.01.24.04.03.3-.06.34.06-.16-.12-.1.58,0,.3,0,.04,0,.08,0,.12,0,.01-.08-.07-.12.15-1.21.07-.72-.15-.87-.27,0,0-.02,0-.03,0-.05-.11-.02-.22-.03-.25,0-.01-.19-.07-.21-.07v-.33s-.01-.09.01-.09c.28-.04.58.05.85-.03,0,.05.02.13.03.18Z"/>
            <path class="cls-107" d="M2.27,7.46s.49-.01.51,0c0,0,.08.13.07.13-.02.04-.85.05-.58-.13Z"/>
            <path class="cls-10" d="M3.24,7.63s0,.26,0,.3c-.1.28-.16-.41,0-.3Z"/>
          </g>
          <path class="cls-15" d="M3.51,9c.06,0,.07.03.09.03l-.03.52c-.18.05-.28-.02-.3-.01v-.53c.08,0,.16,0,.24,0Z"/>
        </g>
        <g>
          <path class="cls-89" d="M7.56,8.08c0,.2-.02.69,0,.86-.23.03-.12-.17-.16-.21-.06-.04-.55.02-.64.03-.06,0-.34-.02-.36.01v.47c.04.08.28.03.36.04.08.01.06.03.06.03,0,.18,0,.36,0,.53,0,.16,0,.33,0,.49.17.05.17-.01.18-.01.08,0,.16,0,.24,0,0,.01-.02.03-.03.09,0,.02-.07-.1-.07.39-1.16-.11-.86.14-.93.18-.02,0-.27-.07-.39-.03-.09.03-.07.16-.09.18-.07.04-.87-.04-1.03-.03-.02-.21.03-.34.03-.36.32-.05.37-.14-.03-.15-.36,0-.81-.06-1.14-.03.06-.39-.12-.43-.18-.34-.07.09.18.26-.36.25-.05-.43.11-.25.15-.31.02-.02-.02-.3.06-.56-.03-.03-.46-.01-.54-.01-.41-.01-.83,0-1.24,0-.14.87.26.42.54.53.05.09-.02.08-.01.09h-.6c0-.2,0-.4,0-.61.02-.04.31-.07.36-.07.38-.02.92.04,1.56,0,.01,0,.12.07.3.01l.03-.52c.09,0,.7-.03.72-.07,0-.3,0-.6,0-.9,0-.14,0-.28,0-.41,0-.18-.02-.38-.03-.56,0,0,.04-.09.04-.09.05,0,.27,0,.28.01.02.03-.03.69.01.73.01,0,.26,0,.27,0,.04-.03-.01-.24.03-.27.01,0,.24,0,.25.01.02.03-.03.28.01.31.01.01.35.01.36,0,.04-.03,0-.15.03-.18.01,0,.32,0,.33,0,.04.03,0,.43.01.46.04.05.38-.04.42.06-.12.6.31.45.33.41.02-.03-.03-.43.01-.46.03-.02.73.02.85,0Z"/>
          <g>
            <path class="cls-31" d="M4.71,10.75s-.02-.12-.03-.15c.4,0,.35.1.03.15Z"/>
            <path class="cls-31" d="M4.73,8.14h.87c.08.75.04.49-.87.53v-.53Z"/>
            <path class="cls-58" d="M5.92,9.03c.17-.08.5,0,.37.25,0,.02-.36.02-.37.01-.07-.03-.07-.24,0-.27Z"/>
            <path class="cls-58" d="M3.86,9.89s.42-.07.31.19c-.05.12-.54-.03-.31-.19Z"/>
            <path class="cls-58" d="M4.73,9.53c.22-.15.29.24.21.3-.22.15-.29-.24-.21-.3Z"/>
            <path class="cls-58" d="M5.09,10.83c.11-.06.45.01.31.19-.01.02-.3.02-.31.01,0,0,0-.2,0-.21Z"/>
            <path class="cls-96" d="M3.86,10.33c.38-.03.38.14,0,.06v-.06Z"/>
          </g>
        </g>
        <g>
          <path class="cls-73" d="M7.74,11.4c.45-.03.9.02,1.35,0l.03.03c0,.24,0,.47,0,.71-.56-.1-.56.37,0,.27,0,.12.03.14.03.15,0,.51-.07,1.03-.03,1.54-.36.05-.09.16-.19.24-.01.01-.28,0-.34,0,.07-.65-.82-.02-.12.03.12.76-.37.35-.42.49l-.03.52c-.08-.01-.42-.01-.51,0v-.61l-.54-.03c-.02-.13.02-.68,0-.71-.02-.03-.09,0-.12-.01v-.24l.03-.4c-.02-.07-.09-.12-.09-.13-.02-.09.04-.29-.03-.36-.06-.06-.22-.02-.3-.03-.07-.44.18-.73-.27-.65,0-.02-.15.01-.01-.3.34.09.7,0,1.03-.03.37-.02.42.25.39-.41.05,0,.08-.06.09-.06.02,0,.04,0,.06,0Z"/>
          <path class="cls-58" d="M8.58,14.33c-.14,0-.11.03-.12.03-.7-.05.19-.68.12-.03Z"/>
          <path class="cls-58" d="M7.18,14.06s.52-.02.54,0c.02.01.02.27.01.28-.02.02-.53.03-.55.01-.02-.02-.02-.28,0-.3Z"/>
          <path class="cls-94" d="M8.38,11.72s.33,0,.34.01c.01.02,0,.36-.01.37-.01,0-.32.02-.34-.04-.01-.03,0-.33.01-.34Z"/>
          <path class="cls-58" d="M8.2,12.7c.07-.05.51,0,.34.22-.09.12-.57-.06-.34-.22Z"/>
        </g>
        <path class="cls-86" d="M6.75,12.88c.08.41-.17.36-.21.31-.02-.02.02-.17,0-.21-.04-.1-.09-.07-.09-.07,0-.02,0-.04,0-.06.08.01.24-.03.3.03Z"/>
        <g>
          <path class="cls-83" d="M7.29,16.2c.09.44-.32.25-.36.31-.01.02-.05.45.15.34,0,0,.02.17.04.18h.61c-.09.17-.2.04-.24.1-.01.02,0,.28,0,.34-.01.11-.02.21-.03.33,0,0,0,.02,0,.03-.1-.21.1-.34-.21-.36.09-.53-.37-.51-.27.03-.06,0-.13.02-.18.03v-.09c-.04-.28.05-.87.03-1.07.12.02.08-.02.09-.15.06.37.32.29.3-.15,0,0,.03-.03.06.12Z"/>
          <path class="cls-62" d="M8.37,17.44c.2,0,.44-.02.63,0,0,0-.03.04.12.06v.56c-.55.06-1.1.02-1.65.03,0-.09,0-.18,0-.27,0,0,0-.02,0-.03.08-.02.23.06.28.03.08-.04.03-.28.04-.36.19,0,.38-.03.57-.03Z"/>
          <path class="cls-27" d="M8.13,15.78c.11,0,.22.02.33.03.19.01.39,0,.58,0,.16.44-.18.88.37.71,0,.13,0,.26,0,.39-.15-.05-.23,0-.42,0-.06,0-.12,0-.18,0l-.04-.71-.91.03s0-.06-.03-.12c-.01-.03-.03-.06-.06-.06.29-.31-.52-.07-.48-.27.25-.01.59,0,.84,0Z"/>
          <path class="cls-113" d="M9.09,15.58c.06,0,.31-.02.33.01,0,.31-.01.62,0,.93-.56.17-.21-.27-.37-.71-.19,0-.39.01-.58,0v-.24c.11-.02.03.14.07.18.03.02.63.06.55-.18Z"/>
          <path class="cls-4" d="M9.42,16.91c0,.2,0,.39,0,.59-.1,0-.21.01-.3,0-.15-.02-.11-.06-.12-.06v-.53c.19,0,.27-.05.42,0Z"/>
          <path class="cls-67" d="M9.42,17.5s.06.31.03.55c-.02.03-.27,0-.33.01v-.56c.09.01.2,0,.3,0Z"/>
          <path class="cls-19" d="M9.03,15.58s.04,0,.06,0c.07.23-.53.2-.55.18-.05-.03.04-.2-.07-.18v-.03c.21.04.37.02.57.03Z"/>
          <path class="cls-27" d="M7.26,17.47s-.24.02-.27.03c-.1-.54.36-.56.27-.03Z"/>
          <path class="cls-67" d="M7.2,15.78s.04,0,.06,0c-.24.3-.04.28-.03.3.02.44-.24.52-.3.15,0-.13,0-.27,0-.4.05-.08.16-.04.27-.04Z"/>
          <path class="cls-65" d="M7.41,16.29c.09-.01.23.02.3,0,.15.03-.09.37.3.24.02.1.05.19.03.3v.06c-.06,0-.27,0-.28,0-.04.03,0,.12-.01.15h-.61s-.05-.17-.04-.18c.06-.27.22-.07.27-.19.02-.05-.02-.27,0-.36,0-.03.06-.01.06-.01Z"/>
          <path class="cls-71" d="M8.04,16.88c.08,0,.21.03.3.03l.03.53c-.19,0-.38.02-.57.03-.01,0-.11-.07-.3,0,0-.06-.01-.32,0-.34.04-.06.15.07.24-.1.01-.03-.02-.12.01-.15.01,0,.22,0,.28,0Z"/>
          <path class="cls-10" d="M7.71,16.08c-.1.04-.18.03-.28.03-.07.13-.01.17-.01.18,0,0-.05-.01-.06.01-.02.09.02.31,0,.36-.05.12-.21-.08-.27.19-.2.11-.16-.32-.15-.34.04-.06.45.13.36-.31.13-.18.21-.11.42-.12Z"/>
          <path class="cls-30" d="M7.77,16.05s-.03.02-.06.03c-.21,0-.29-.06-.42.12-.03-.15-.06-.11-.06-.12,0-.02-.21,0,.03-.3,0,0,.02,0,.03,0-.04.2.77-.04.48.27Z"/>
          <path class="cls-2" d="M7.8,17.47c-.02.08.04.31-.04.36-.06.03-.2-.05-.28-.03,0-.11.02-.21.03-.33.19-.07.28,0,.3,0Z"/>
          <path class="cls-58" d="M8.4,15.49s.06.06.06.06v.27c-.11,0-.22-.03-.33-.03,0-.07-.01-.23,0-.25.01-.02.22-.03.27-.04Z"/>
          <path class="cls-95" d="M8.82,16.91c.06,0,.12,0,.18,0v.53c-.19-.02-.43,0-.63,0l-.03-.53c.16,0,.32,0,.48,0Z"/>
          <path class="cls-77" d="M8.82,16.91c-.16,0-.32,0-.48,0-.09,0-.22-.03-.3-.03v-.06c.37.24.36-.81-.06-.53-.01-.05-.06,0-.12-.06l.91-.03.04.71Z"/>
          <path class="cls-58" d="M7.86,16.23c.06.05.11,0,.12.06-.02.16.03.22.03.24-.39.13-.15-.2-.3-.24.01,0,.1-.11.12-.18.02.06,0,.09.03.12Z"/>
          <path class="cls-91" d="M7.83,16.11c-.02.07-.11.18-.12.18-.06.02-.21-.01-.3,0,0,0-.06-.04.01-.18.11,0,.18,0,.28-.03.03-.01.02,0,.06-.03.03,0,.05.03.06.06Z"/>
          <path class="cls-4" d="M8.04,16.82c.02-.11-.01-.2-.03-.3,0-.02-.05-.08-.03-.24.42-.28.43.77.06.53Z"/>
        </g>
        <g>
          <path class="cls-67" d="M9.39,9.44c-.17,0-.31-.05-.27.18h-.03c-.07-.15,0-.45-.03-.49-.02-.03-.39-.01-.46-.01-.02,0-.01-.06-.01-.06.01-.07-.01-.19,0-.24,0-.01.06-.06.06-.06.07-.03.56.02.73,0,.03.02.01.59.01.68Z"/>
          <path class="cls-18" d="M9.39,9.44c.02.49-.03.96,0,1.45l-.3.03c0-.18-.03-.38-.06-.56.04,0,.13.01.15-.01.02-.03.03-.55.03-.62,0-.05-.09-.1-.09-.1-.04-.22.1-.18.27-.18Z"/>
          <path class="cls-15" d="M9.39,10.89c.01.16,0,.32,0,.47l-.27.06-.03-.03c0-.16,0-.32,0-.47l.3-.03Z"/>
          <path class="cls-15" d="M7.44,9.35c-.06.03-.41-.05-.45.04v.93s-.01.07-.18.01c0-.16,0-.33,0-.49.23-.07.05-.34.15-.5.02,0,.33-.08.48,0Z"/>
          <path class="cls-19" d="M6.96,9.35c-.1.16.08.44-.15.5,0-.18,0-.36,0-.53.18.02.14.03.15.03Z"/>
          <path class="cls-58" d="M8.58,8.82s.01.16,0,.24c-.02,0,.06.04-.36.06-.02-.37-.03-.38.36-.3Z"/>
          <g>
            <path class="cls-27" d="M8.4,9.41c-.07.02-.26,0-.39,0-.06,0-.12,0-.18,0-.09,0-.54.07-.57.13,0,.27.01.52-.03.79-.08,0-.16,0-.24,0v-.93c.04-.1.39-.01.45-.04.07-.04-.03-.15.09-.21-.13.5.41.04.96.22-.1.02-.09.04-.09.04Z"/>
            <path class="cls-66" d="M7.83,9.41c.01.09-.05.05-.12.06-.13.01-.24.05-.37.06-.06.04-.04.09-.04.15-.02.21.02.16.06.18.05.02.24-.01.33,0,0,.09,0,.18,0,.27-.01,0-.08.04-.18.04v.7c-.29-.04-.32.14-.3-.44.01-.05.03-.07.03-.09.04-.27.03-.52.03-.79.03-.06.48-.12.57-.13Z"/>
            <path class="cls-10" d="M9.09,9.62s-.23.06-.27.06c-.02,0-.11-.05-.36-.03l-.06-.24s-.01-.03.09-.04c-.55-.19-1.09.28-.96-.22.02,0,.1,0,.15,0,.17-.02.36-.02.54-.03.42-.02.34-.06.36-.06,0,0,0,.06.01.06.07,0,.44-.02.46.01.03.04-.04.34.03.49Z"/>
            <path class="cls-58" d="M9.03,10.36c-.13.01-.22.03-.24-.12,0-.03.06-.43.03-.56.04,0,.23-.03.27-.06h.03s.09.06.09.1c0,.07-.01.6-.03.62-.02.03-.11.01-.15.01Z"/>
            <path class="cls-12" d="M8.4,9.41l.06.24c-.62.05-.22.13-.42.53-.06,0-.34-.06-.36-.06,0-.09,0-.18,0-.27,0-.04,0-.08,0-.12.37,0,.4.05.33-.33.12,0,.32.02.39,0Z"/>
            <path class="cls-109" d="M8.01,9.41c.07.38.04.33-.33.33,0-.1.04-.17.03-.27.07,0,.13.03.12-.06.06,0,.12,0,.18,0Z"/>
            <path class="cls-16" d="M7.71,9.47c.01.1-.03.17-.03.27,0,.04,0,.08,0,.12-.09-.01-.28.02-.33,0,.07-.12.12-.2-.06-.18,0-.06-.02-.11.04-.15.13,0,.24-.05.37-.06Z"/>
            <path class="cls-16" d="M7.35,9.86s-.08.03-.06-.18c.18-.02.13.05.06.18Z"/>
            <path class="cls-3" d="M8.46,9.65c.25-.02.34.03.36.03.03.13-.03.54-.03.56h-.73s-.01-.06-.01-.06c.2-.4-.2-.48.42-.53Z"/>
            <g>
              <path class="cls-62" d="M8.04,10.18s0,.06.01.06h.73c.02.15.11.13.24.12.03.18.05.38.06.56,0,.16,0,.32,0,.47-.45.02-.9-.03-1.35,0-.02-.23.05-.5-.06-.53-.06,0-.12,0-.18,0v-.7c.1,0,.17-.04.18-.04.02,0,.3.05.36.06Z"/>
              <path class="cls-25" d="M7.74,11.4s-.04,0-.06,0v-.53c.11.03.04.31.06.53Z"/>
              <path class="cls-46" d="M8.56,10.27c.18-.13.2.14.21.15.02.02.2-.02.22.01.01.02,0,.42-.01.43s-.42,0-.43-.01c-.02-.02,0-.56.01-.58Z"/>
            </g>
          </g>
        </g>
      </g>
      <g>
        <path class="cls-82" d="M20.36,15.52c-.02.21,0,.42,0,.62.01.33.05.66.03.99h.63l-.03-1.62h.06c0,.56,0,1.12,0,1.67h-.64c.04.91-.2.5-.36.61-.04.03.03.2-.06.24-.06.03-1.14,0-1.33,0-.01,0-.14-.09-.24.01-.02.23.03.24.03.25-.04.5-.18.2-.24.34-.02.05.03.22-.01.25-.07.05-1.46-.04-1.68,0l-.06.53c-.16.03-1.15-.03-1.2,0-.04.03.02.17-.06.21-.23.1-.37-.3-.36.53-.63-.06-.38.16-.45.21-.04.03-.91-.02-1.05,0l-.06.53c-.4,0-.81,0-1.21,0-.15,0-.32-.03-.48-.03.11-.08.37,0,.46-.03.06-.02.02-.19.01-.19-.04-.04-.12.01-.21-.04.56-.03.72.14.66-.33.02,0,.04,0,.06,0,.41-.01.16-.15.25-.21.09-.06.48.17.31-.33.34-.04.1-.12.22-.18.06-.03.49.03.52-.01.01-.02.01-.4,0-.41-.03-.04-.11.02-.15-.04.48.03.33-.02.36-.41,0-.08.03-.06.03-.06.05,0,.1,0,.15,0,.01.09-.01.38,0,.4.04.05,1.16.08,1.21.04.04-.03,0-.34.01-.41.71,0,.32-.25.52-.33.18-.07.61.19.55-.16.52-.1-.18-.53.64-.43,0-.39.07-.28.07-.3.45.04.25-.11.3-.3.01-.04.06-.02.09-.07-.07-.55.19-.27.28-.34.07-.05-.17-.23.4-.18l.07.09h.9c.15-.43-.17-.43.4-.52-.03-.15-.07-.65.15-.58.26,0,.46.03.42-.06l.03.03Z"/>
        <path class="cls-35" d="M21.05,4.94c-.02,3.53.02,7.05,0,10.58h-.06c-.1,0-.2,0-.3,0-.11,0-.22,0-.33,0l-.03-.03c0-.47,0-.95,0-1.42,0-.31.06-.65.06-.96.01-1.41-.05-2.81-.06-4.22,0-.44,0-.89,0-1.33,0-.88.04-1.76.06-2.64l.66.03Z"/>
        <path class="cls-14" d="M14.34,1.53c.12-.01.39,0,.54,0,.08,0,.16,0,.24,0,.06,0,.16-.01.18.01l.03.49s.02,0,.03,0c.01.06-.02.3.01.33.04.03.96.03,1.02-.09l.04.04c-.02.06-.09.1-.09.1h-1.86c.06-.11.11-.02.15-.13.15-.46-.33-.28-.42-.28-.26-.01-.53-.05-.79-.03-.03-.02,0-.11-.01-.15.13-.08.61,0,.64,0,.14-.04-.22-.24.28-.3Z"/>
        <path class="cls-117" d="M14.46.82c-.05-.01-.12.06-.15.06,0,0,0-.06-.01-.06-.38-.03-1.35,0-1.81,0v-.33c.26,0,1.85-.04,1.93,0,.09.04.03.26.04.33Z"/>
        <path class="cls-99" d="M17.18,2.24h.97c.01.19.04.17.04.18,0,.02-.06.14-.06.15-.16-.26-1.59.1-1.5-.22-.06-.09-.16,0-.21-.1h.75Z"/>
        <path class="cls-38" d="M20.42,3.99c0,.42.01.99.15.86-.07.01-.1.03-.18.03-.05,0-.25.01-.27-.01,0-.18-.01-.37,0-.55.02-.29-.1-.35.3-.33Z"/>
        <path class="cls-19" d="M14.46.82s-.08.07.27.07c-.14.89.51.23.39.64-.08,0-.16,0-.24,0,.03-.13-.24-.08-.54-.09,0,0-.02,0-.03,0v-.56s.09-.07.15-.06Z"/>
        <path class="cls-60" d="M18.83,2.71l.03.21s-.03.03-.15.03c-.19,0-.38,0-.57,0,0-.13,0-.26,0-.39,0,0,.06-.13.06-.15.58-.03.02.38.63.3Z"/>
        <path class="cls-82" d="M21.05,4.94l-.66-.03v-.03c.08,0,.11-.02.18-.03.39-.08.11-.13.22-.21.19-.13.33.12.25.3Z"/>
        <path class="cls-81" d="M18.65,18.04c0,.26.06.29-.21.27,0-.01-.05-.02-.03-.25.1-.11.23-.01.24-.01Z"/>
        <path class="cls-35" d="M12.15,7.96c.03.23-.11.38.18.41-.02.12.03.14.03.15,0,.23-.08.48,0,.71h-.12c0-.33-.01-.69-.16-.98-.29-.03-.21.06-.22.06-.04,0-.02-.06-.04-.06-.43.1.13.22-.64.28-.05,2.99.06,5.98,0,8.96,0,.35-.02.72.03,1.07-.18.3-.03,1.15-.34,1.01-.2.33-.1-.02-.28-.12.04-3.73,0-7.47-.03-11.2v-.39c.48.02.96.01,1.42.03.01,0,.17.06.19.06Z"/>
        <path class="cls-35" d="M14.1,18.09c0,.17.04.37.03.53,0,0-.02-.02-.03.06-.47-.2-.46.26-.36.41.04.06.12,0,.15.04.01.02.01.4,0,.41-.03.05-.46-.01-.52.01-.13.06.11.14-.22.18-.16.02-.36-.01-.52,0l-.04.53s-.04,0-.06,0c-.22,0-.45-.06-.67-.03-.06.03-.09.28.01.36.09.06.17,0,.21.04,0,0,.04.17-.01.19-.1.04-.36-.05-.46.03-.35,0-.7,0-1.05,0,0-.47.03-.95.03-1.42.18.09.08.45.28.12.32.14.16-.71.34-1.01.21.08.42,0,.63,0,.39,0,.31-.03.33-.03.02,0-.08.05.27.06-.03.45.04.29.3.33.09.01.2.02.3.03.01.06-.02.27.01.3.02.01.49.04.51.03.07-.03.05-.31.03-.33-.02-.01-.41,0-.49,0-.05-.04-.09-.34-.09-.36.06-.45.44.19.43-.53.11.03.3-.03.31-.03.11,0,.19.09.36.06Z"/>
        <path class="cls-72" d="M14.28,4.2c.19.02.35.02.54.03-.27.31-.08.51-.18.89-.11,0-.22,0-.33,0-.07-.11.02-.31-.07-.36-.02-.01-.52-.01-.54,0-.09.04-.02.23-.04.28-.08.17-.2-.2-.24.31-.32,0-.65,0-.97,0-.02,0-.01.06-.01.06-.09,0-.2,0-.3,0-.29,0-.59-.06-.88-.03.03-.68-.19-.37-.3-.44-.04-.03,0-.15-.01-.19-.06-.13-.28.19-.21-.52.12,0,.26-.03.39-.03.14,0,.28,0,.42,0,.05,0,.24.02.27-.01.03-.04-.05-.33.04-.37.04-.02.35.01.46,0,.15-.02.28-.02.43-.03.02,0,0-.06.04-.06.35-.02.74.07,1.09.03.1.04.02.39.04.43.02.03.3,0,.36.01Z"/>
        <path class="cls-35" d="M16.32,8.29c-.05.33-.38.01-.45.16,0,.2,0,.41,0,.61-.14-.02-.2.03-.21.03-.02,0-.29-.09-.39.01v.55c-.24,0-.5.06-.75.03,0,0-.09.01-.09-.01,0-.02.09-.31-.01-.4l-.61-.03v-.06c.19-.21-.14-.76.27-.59.05.19.65.05.85.09.06-.09-.02-.37-.01-.39.07-.59.5.07.46-.59.15.07.23-.16.3-.18.04-.01.19.07.22.01.1-.15-.51.03-.3-.16.26.07.25-.06.27-.06.02,0,.04.06.39.1-.06.42,0,.33,0,.36.02.28-.05.55.06.52Z"/>
        <path class="cls-108" d="M18.77,5.32c-.02.22.03.28.03.3,0,.25-.06.51-.03.77-.23.02-.47-.01-.7,0l-.04.55c-.04.06-.09.04-.09.04-.07.01-.42-.02-.45.01-.03.05.03,1,0,1.16h.51c.02.33-.03.52-.03.55-.11-.05-.26-.03-.39-.03.07-.64-.09-.34-.9-.43l-.03-.87s.16.02.18-.01c.02-.03-.03-.31.01-.34.12-.08.37.23.42-.33.58.07.31-.22.37-.31.02-.03.19-.01.24-.01.12,0,.81.03.84-.04v-.65c-.05-.07-.12-.04-.18-.04,0-.3-.07-.32.24-.3Z"/>
        <path class="cls-58" d="M16.65,7.37l.03.87c.81.09.97-.21.9.43-.41,0-.83,0-1.24,0-.11.05-.01.61-.01.71,0,.02-.06.25-.06.27-.12,0-.24,0-.36,0-.05-.18-.03-.4-.03-.59,0-.2,0-.41,0-.61.07-.15.4.17.45-.16.03-.2-.02-.62,0-.87.04-.08.22-.03.33-.04Z"/>
        <path class="cls-5" d="M18.14,2.95c.19,0,.38,0,.57,0,.12.57-.41.23-.61.33-.08.04,0,.17-.09.21-.04.02-.36-.02-.39,0-.08.05.14.36-.27.3-.05.46-.25.17-.31.31-.1.23.24.23-.36.25.04-.21.04-.43.03-.64,0-.02-.06-.01-.06-.01,0-.02.03-.03.03-.09.44.06.16,0,.28-.65.39,0,.79,0,1.18,0Z"/>
        <path class="cls-37" d="M13.23,5.77c.08.51-.2.27-.28.33-.04.03,0,.23-.01.25-.03.04-.21,0-.25.01-.1.04,0,.26-.09.3-.13.06-.9-.03-1.09-.03v-.39c.06-.01.27.02.3-.01.01-.02-.01-.28,0-.37.41-.03.31-.09.33-.09.05,0,.24.12.3-.06-.07.12.43.07.81.06Z"/>
        <path class="cls-37" d="M15.3,4.23c.02.21.13.14.36.15.13.38-.11.23-.15.28-.02.03.03.22-.01.25-.03.02-.39-.02-.42,0-.15.1.29.18-.43.21.1-.38-.09-.58.18-.89.16,0,.32,0,.48,0Z"/>
        <path class="cls-21" d="M19.7,4.91c-.41-.08-.17.3-.24.4-.03.04-.32-.08-.18.28-.01,0,.05.04-.21.03-.09,0-.18,0-.27,0,0-.01-.05-.07-.03-.3,0-.06.02-.36.03-.37.03-.04.33.02.36-.03.02-.02-.02-.21,0-.24.03-.04.21.01.24-.03.03-.04-.05-.3.04-.34.42-.18.24.42.25.59Z"/>
        <path class="cls-37" d="M14.31,5.11c-.57.04-.18.21-.3.37-.03.04-.29,0-.31.01-.04.03.01.24-.03.27-.01,0-.23.05-.25-.06,0-.04,0-.28,0-.36.04-.51.16-.14.24-.31.02-.05-.04-.24.04-.28.02-.01.52-.01.54,0,.09.04,0,.24.07.36Z"/>
        <path class="cls-76" d="M19.7,4.91s.06.02.06.04c.03.46-.01.92-.03,1.38h-.3v-.67c-.06-.08-.08-.07-.15-.07-.14-.36.15-.24.18-.28.07-.1-.17-.48.24-.4Z"/>
        <path class="cls-35" d="M12.69,7.93c.12,0,.27.01.39.03.1.01.19.04.28.03.01.09.07.11.07.15,0,.02-.05.12-.03.36-.04,0-.02.09-.69.06,0,0,.04-.02-.12-.03v-.18l-.03-.39s0-.04.12-.03Z"/>
        <path class="cls-21" d="M17.87,6.36c.13.02.02-.29.06-.37.04-.09.28-.02.31-.04.07-.05-.14-.35.28-.33.06,0,.13-.02.18.04v.65c-.03.08-.72.04-.84.04Z"/>
        <path class="cls-105" d="M11.49,5.83v.8c-.19,0-.38-.01-.57,0v-.59c0-.07,0-.14,0-.21.19,0,.38,0,.57,0Z"/>
        <path class="cls-45" d="M13.41,5.35c0,.07,0,.32,0,.36.02.09-.06.05-.18.06-.38.02-.88.06-.81-.06.02-.05-.01-.21,0-.3,0,0,0-.06.01-.06.32,0,.65,0,.97,0Z"/>
        <path class="cls-58" d="M14.91,8.29s.07.3.01.39c-.21-.04-.81.1-.85-.09-.11-.45.21-.26.84-.3Z"/>
        <path class="cls-35" d="M19.1,6.33c.11,0,.22,0,.33,0h.3c0,.14-.02.27-.03.41h-.72c0-.13-.08-.28,0-.41.04,0,.08,0,.12,0Z"/>
        <path class="cls-58" d="M12.57,7.96l.03.39c-.19-.02-.26.03-.27.03-.29-.04-.15-.18-.18-.41.14,0,.28,0,.42,0Z"/>
        <path class="cls-58" d="M19.7,6.74c0,.08-.02.16-.03.24h-.66s-.02-.02-.03-.24h.72Z"/>
        <path class="cls-58" d="M15.87,7.31s-.01.13-.27.06c-.16-.04-.09-.36-.04-.39.26-.11.38.07.31.33Z"/>
        <path class="cls-58" d="M13.08,7.96c-.12-.02-.27-.02-.39-.03-.12-.44.52-.43.39.03Z"/>
        <g>
          <path class="cls-93" d="M20.06,2.98c.08,0,.06.03.06.03v.84c-.57-.11-.56.6,0,.46-.01.18,0,.37,0,.55.02.03.22.01.27.01v.03c-.02.88-.06,1.76-.06,2.64l-.66-.06c.01-.08-.03-.1-.03-.12.03-.21.02-.29.03-.39,0-.08.02-.16.03-.24,0-.14.03-.27.03-.41.02-.46.06-.92.03-1.38,0-.02-.06-.04-.06-.04-.01-.17.16-.78-.25-.59-.09.04-.02.31-.04.34-.03.04-.21-.01-.24.03-.02.02.02.21,0,.24-.03.04-.33-.02-.36.03-.01.02-.02.31-.03.37-.31-.02-.24,0-.24.3-.42-.02-.21.28-.28.33-.03.02-.28-.04-.31.04-.04.08.07.39-.06.37-.05,0-.22-.02-.24.01-.07.09.21.38-.37.31-.05.55-.3.24-.42.33-.04.03,0,.31-.01.34-.02.03-.14,0-.18.01-.11.01-.29-.03-.33.04-.02.25.03.67,0,.87-.11.03-.04-.24-.06-.52,0-.03-.06.06,0-.36-.35-.04-.37-.1-.39-.1.06-.26-.06-.44-.31-.33-.05.02-.11.34.04.39-.21.19.4.01.3.16-.04.06-.18-.03-.22-.01-.07.02-.15.25-.3.18.03.66-.39,0-.46.59-.63.04-.95-.15-.84.3-.41-.17-.08.38-.27.59.06-.92-.12-.58-.18-.67-.06-.08.14-.36-.18-.37,0-.03-.06-.05-.07-.15-.1,0-.19-.02-.28-.03.13-.46-.5-.47-.39-.03-.11,0-.11.03-.12.03-.14,0-.28,0-.42,0-.02,0-.18-.06-.19-.06-.47-.02-.94-.01-1.41-.03v.39h-.04c0-.32-.03-1.26,0-1.39,0-.01.05,0,.1-.24.1,0,.21,0,.31,0,.19-.01.38,0,.57,0,.2,0,.96.09,1.09.03.1-.04,0-.26.09-.3.05-.02.23.03.25-.01.02-.03-.03-.22.01-.25.08-.06.37.18.28-.33.12,0,.2.03.18-.06.03.11.24.07.25.06.04-.03-.01-.24.03-.27.03-.02.29.03.31-.01.12-.16-.27-.33.3-.37.11,0,.22,0,.33,0,.73-.03.29-.11.43-.21.03-.02.39.02.42,0,.04-.03,0-.23.01-.25.04-.05.28.1.15-.28.24,0,.74-.02,1.02-.03.6-.03.26-.02.36-.25.06-.14.26.15.31-.31.41.07.19-.24.27-.3.03-.02.35.02.39,0,.08-.04,0-.17.09-.21.21-.1.74.25.61-.33.12,0,.14-.03.15-.03,0,0,.02.06.04.06.36.01.85-.03,1.15,0Z"/>
          <path class="cls-58" d="M16.12,6.27s.63-.01.66,0c.06.03.05.3.04.31-.02.03-.7.04-.73.01-.02-.02-.04-.29.03-.33Z"/>
          <path class="cls-58" d="M15.22,7.63c.17.02.24.47-.27.36-.09-.26,0-.38.27-.36Z"/>
          <path class="cls-58" d="M16.84,5.65s.3,0,.31.01c0,.01,0,.3-.01.31-.24.17-.43-.23-.3-.33Z"/>
        </g>
        <path class="cls-93" d="M16.83,16.61s.09.08.09.12c0,.03-.06.23-.03.31.04.08.28.03.36.04.05,0,.01.06.06.06-.07.22,0,.28,0,.3,0,.02-.07-.09-.07.3-.83-.1-.13.33-.64.43.06.36-.38.1-.55.16-.2.08.19.33-.52.33,0,0,0-.06-.01-.06-.27,0-.85-.04-1-.03l-.03-.3s.33-.06.52-.03c.02-.02.02-.36.01-.41,0,0,.01.02,0-.09.59.05.39-.04.42-.77.14,0,.29,0,.43,0,.11-.11.01-.37.01-.39,0-.1.04-.19.03-.3.22.02.34-.03.36-.03.67.01.03.41.57.36Z"/>
        <path class="cls-26" d="M18.02,15.52c.35.01.37.09.39.09l-.03.95c-.57-.05-.33.13-.4.18-.1.07-.35-.2-.28.34-.03.05-.08.03-.09.07-.17-.08-.28,0-.3,0-.05,0-.01-.05-.06-.06.09-.34.05-.47-.33-.36,0-.04-.09-.11-.09-.12,0,0,.06,0,.06-.01,0-.3,0-.6,0-.9,0-.02,0-.04,0-.06.43.1.37-.02.39-.03.08-.03.19-.07.18-.03-.17.44.46.35.49.33.03-.02.19-.48-.46-.36.07-.05.43-.03.54-.03Z"/>
        <path class="cls-33" d="M20.99,15.52l.03,1.62h-.63c.02-.33-.02-.66-.03-.99.48-.03.22-.08.33-.62.1,0,.2,0,.3,0Z"/>
        <path class="cls-32" d="M15.51,18.66c-.01.07.02.39-.01.41-.05.03-1.18,0-1.21-.04-.01-.02.01-.31,0-.4.24,0,.18-.06.21-.06.15,0,.74.03,1,.03.02,0,.01.06.01.06Z"/>
        <path class="cls-58" d="M12.51,20.29c.06.47-.1.3-.66.33-.1-.07-.07-.33-.01-.36.22-.03.46.03.67.03Z"/>
        <path class="cls-58" d="M13.14,19.75c.16.5-.23.27-.31.33-.09.06.16.19-.25.21l.04-.53c.17-.01.36.02.52,0Z"/>
        <path class="cls-35" d="M20.69,15.52c-.11.54.15.59-.33.62,0-.21-.02-.42,0-.62.11,0,.22,0,.33,0Z"/>
        <path class="cls-58" d="M14.1,18.69c-.02.39.12.44-.36.41-.1-.16-.11-.62.36-.41Z"/>
        <path class="cls-58" d="M17.6,17.15c-.05.19.15.34-.3.3,0-.01-.07-.07,0-.3.01,0,.13-.08.3,0Z"/>
        <path class="cls-93" d="M20.33,14.06c-.02-.14-.51.04-.57-.07,0-.29.01-.57,0-.86,0-.02-.06,0-.06-.04,0-.01.04,0,.03-.27,0-.36,0-.73,0-1.1,0-.42,0-.85,0-1.27,0-.28,0-.61,0-.86.02-.71-.09-.67.6-.71,0,1.41.07,2.81.06,4.22,0,.31-.05.65-.06.96Z"/>
        <path class="cls-72" d="M13.38,1.47c.06.11.01.24.03.36,0,.04-.02.13.01.15.27-.02.53.02.79.03v.68c-.07,0-.23.03-.24.03-.8.02-1.19-.21-1.23.44h-.45c0-.18,0-.37,0-.55-.04-.08-.28-.03-.36-.04,0,0,.01-.02-.03-.03.03-.16.1-.38-.06-.41v-1.04c.12.01.65-.02.67,0,.05.04-.04.31.06.36.04.02.69.03.79.03Z"/>
        <path class="cls-58" d="M16.44,2.24c.05.11.15.02.21.1-.09.32,1.33-.03,1.5.22,0,.13,0,.26,0,.39-.39,0-.79,0-1.18,0-.13.65.15.71-.28.65,0-.12.03-.87,0-.9-.06-.09-.39.17-.33-.28,0,0,.07-.04.09-.1l-.04-.04c-.06.12-.98.12-1.02.09-.04-.03,0-.26-.01-.33.16.03,1.02-.03,1.06,0,.04.03,0,.17.01.21Z"/>
        <path class="cls-47" d="M14.31,1.44s.02,0,.03,0v.09c-.51.06-.15.26-.28.3-.03,0-.51-.08-.64,0-.02-.11.03-.25-.03-.36.3,0,.62-.03.93-.03Z"/>
        <path class="cls-84" d="M14.49,2.42c-.06.11-.02.23-.03.25-.02.03-.19,0-.24.01v-.68c.09,0,.57-.18.42.28-.04.11-.09.02-.15.13Z"/>
        <path class="cls-106" d="M14.88,1.53c-.15,0-.42-.01-.54,0v-.09c.3,0,.57-.04.54.09Z"/>
        <path class="cls-58" d="M12.48.82c.46,0,1.43-.03,1.81,0,.02,0,.01.06.01.06v.56c-.31,0-.63.03-.93.03-.11,0-.76-.01-.79-.03-.1-.04,0-.32-.06-.36-.03-.02-.55.01-.67,0,0,0-.12-.06-.15-.06-.02-.3.2-.2.78-.21Z"/>
        <path class="cls-22" d="M11.7,1.02s.14.06.15.06v1.04c-.06-.01-.27.02-.3-.01.03-.4-.06-.35-.06-.37,0-.04.09-.47,0-.71.07,0,.14,0,.21,0Z"/>
        <path class="cls-76" d="M11.85,8.31c-.03.41.03.83.03,1.24,0,.39-.03.79-.03,1.19,0,.62-.03,1.24-.03,1.87,0,0,0,.02,0,.03,0,.25-.05,1.8,0,1.88,0,.01.29-.02.3-.03.04-.05-.05-.28.03-.34-.01.14,0,.28,0,.41-.05,0-.25-.02-.27.01-.01.55.01,1.1,0,1.64-.01.4-.05.81-.03,1.22l-.03.03-.66.03c.06-2.99-.05-5.98,0-8.96.77-.06.21-.18.64-.28.02,0,0,.06.04.06Z"/>
        <path class="cls-42" d="M11.82,17.47v1.1c-.21,0-.42.08-.63,0-.05-.35-.04-.71-.03-1.07l.66-.03Z"/>
        <path class="cls-26" d="M12.24,9.23c0,.37.05.33-.36.33,0-.41-.06-.83-.03-1.24.01,0-.07-.09.22-.06.15.29.17.64.16.98Z"/>
        <path class="cls-102" d="M12.6,8.34v.18c-.08,0-.16,0-.24,0,0,0-.05-.03-.03-.15.01,0,.08-.05.27-.03Z"/>
        <path class="cls-48" d="M12.15,18.54s.06.02-.33.03v-1.1l.03-.03c.48-.11.25.44.3,1.1Z"/>
        <path class="cls-21" d="M13.98,17.5c.09,0,.1.03.12.03-.03.16.03.34.03.5,0,.03-.03.03-.03.06-.17.03-.25-.06-.36-.06v-.52s.19-.01.24-.01Z"/>
        <path class="cls-41" d="M13.08,18.95c.08,0,.47-.01.49,0,.02.01.04.29-.03.33-.02.01-.49-.02-.51-.03-.04-.03,0-.24-.01-.3.02,0,.04,0,.06,0Z"/>
        <path class="cls-93" d="M12.99,18.6s.04.32.09.36c-.02,0-.04,0-.06,0-.1,0-.21-.02-.3-.03v-.3s.08-.05.27-.03Z"/>
        <path class="cls-54" d="M12.72,18.63v.3c-.26-.03-.33.12-.3-.33.1,0,.21.03.3.03Z"/>
        <g>
          <g>
            <path class="cls-58" d="M16.65,3.69s.06,0,.06.01c0,.21.01.43-.03.64-.28.01-.78.04-1.02.03-.23,0-.34.07-.36-.15.34,0,.69,0,1.03,0l.04-.49-1.27-.04v-.47c.13-.02.92.03.96,0,.04-.03-.01-.29.03-.33.01,0,.29,0,.3,0,.11.08-.19.95.25.8Z"/>
            <path class="cls-67" d="M14.7,2.42v.62h1.24c.08-.2.08-.41.07-.62h.33c-.06.45.27.19.33.28.03.04,0,.78,0,.9,0,.06-.03.07-.03.09-.44.15-.14-.72-.25-.8-.01,0-.29,0-.3,0-.04.03.01.29-.03.33-.04.03-.83-.02-.96,0v.47l1.27.04-.04.49c-.34,0-.69,0-1.03,0-.16,0-.32,0-.48,0-.19,0-.35-.01-.54-.03-.14-1.03.6-.01.48-.93-.8-.23-.41.28-.51.41-.01.02-.33.02-.34.01-.05-.04.04-.31-.06-.36-.06-.02-.37.03-.4-.01,0-.01,0-.28,0-.3.08-.12.67.21.54-.31.01,0,.17-.02.24-.03.05,0,.22.02.24-.01.01-.02-.03-.14.03-.25h.21Z"/>
            <path class="cls-82" d="M16.02,2.42c0,.21,0,.42-.07.62h-1.23v-.62h1.3Z"/>
          </g>
          <path class="cls-58" d="M13.98,2.71c.13.52-.46.2-.54.31,0,.01,0,.28,0,.3.03.05.35,0,.4.01.1.04,0,.32.06.36.01,0,.33,0,.34-.01.1-.14-.29-.65.51-.41.12.92-.62-.09-.48.93-.06,0-.34.02-.36-.01-.03-.04.05-.39-.04-.43-.36.04-.74-.04-1.09-.03.03-.2-.03-.53-.03-.56.04-.65.43-.42,1.23-.44Z"/>
        </g>
        <path class="cls-79" d="M12.75,3.16s.06.37.03.56c-.05,0-.02.06-.04.06-.15,0-.28.01-.43.03,0-.22,0-.43,0-.65h.45Z"/>
        <path class="cls-69" d="M12.42,5.41c-.01.09.02.25,0,.3-.06.18-.25.05-.3.06v-.36c.1,0,.2,0,.3,0Z"/>
        <path class="cls-21" d="M17.57,8.67c.13,0,.28-.02.39.03,0,.01.03-.01.04.21.65-.08.32.32.42,1.13.14-.02.98.03,1.02,0,.1-.07-.17-.55.28-.44,0,.25,0,.58,0,.86-.57-.11-.23.36-.33.55-.02.05-.09-.04-.13-.01-.07.03-.04.11-.04.12,0,0,0,.04-.06.06-.06.02-.24-.01-.36,0-.1,0-.25-.02-.31.06-.32-.08-.24-.12-.25-.12-.05-.4.19-.89-.39-.67.02.29-.05.68.06.67-.12.04-.11.44-.12.59,0-.03,0-.03-.03-.03l.03-1.23c-.76-.03-.33-.31-.46-.4-.02-.01-.31,0-.37,0-.03,0-.06,0-.09,0v-.64h-.54c0-.12-.1-.68.01-.73.41,0,.83,0,1.24,0Z"/>
        <path class="cls-76" d="M18.98,6.33c-.08.13,0,.29,0,.41.01.22.03.22.03.24,0,.01-.05.19-.04.27-1.16-.15,0,.69-.97.65,0-.31-.09-.6-.06-.92,0,0,.05.02.09-.04l.04-.55c.23-.01.47.02.7,0,.02,0,0-.05.21-.06Z"/>
        <path class="cls-58" d="M17.93,6.98c-.03.32.05.61.06.92,0,.09,0,.18,0,.27h-.51c.03-.17-.03-1.12,0-1.17.03-.04.38,0,.45-.01Z"/>
        <g>
          <path class="cls-67" d="M19.67,6.98c0,.1,0,.17-.03.39-.5-.03-.32.03-.36.36-.27.03-.4-.11-.39.24-.02,0-.33.05-.42.04v.89s.66.02.75.01c.02,0,.04,0,.06,0,.17-.01.33.03.39-.04.03-.2-.07-.73.06-.81.02-.01.12.03.15-.04.11-.24-.26-.37-.21-.04h-.39c0-.08,0-.16,0-.24.11-.01.23,0,.34,0,.05-.07.03-.16.04-.24l.66.06c0,.44,0,.89,0,1.33-.69.04-.57,0-.6.71-.45-.11-.19.38-.28.44-.04.03-.88-.02-1.02,0-.1-.8.24-1.21-.42-1.13-.01-.22-.04-.2-.04-.21,0-.03.05-.22.03-.53,0-.09,0-.18,0-.27.97.04-.18-.81.97-.65,0-.08.04-.25.04-.27h.66Z"/>
          <path class="cls-58" d="M19.64,7.37s.04.04.03.12c-.01.08,0,.16-.04.24-.11,0-.23-.01-.34,0,.04-.33-.14-.38.36-.36Z"/>
          <path class="cls-114" d="M19.67,7.96c.01.09.03.04.06.09-.13.08-.03.62-.06.81-.06.08-.22.03-.39.04-.07-.38.04-.81-.06-.89,0,0,.06-.05.06-.06h.39Z"/>
          <path class="cls-61" d="M18.89,7.96s.06.03.06.06c-.02,0-.05-.01-.09.04.04.78-.18.82.36.84-.09,0-.73.02-.75-.01v-.89c.09,0,.4-.05.42-.04Z"/>
          <path class="cls-106" d="M18.95,8.02c.07-.02.22.02.27,0,.1.08-.01.51.06.89-.02,0-.04,0-.06,0-.54-.02-.32-.06-.36-.84.04-.06.07-.04.09-.04Z"/>
          <path class="cls-58" d="M19.28,7.72c0,.08,0,.16,0,.24,0,.01-.06.06-.06.06-.05.02-.2-.02-.27,0,0-.03-.03-.06-.06-.06-.01-.34.12-.21.39-.24Z"/>
          <path class="cls-58" d="M19.73,8.05c-.03-.05-.05,0-.06-.09-.05-.32.32-.2.21.04-.03.07-.13.03-.15.04Z"/>
        </g>
        <g>
          <path class="cls-49" d="M15.6,10.33c-.12,0-.25,0-.37,0,.07.89-.32.38-.4.58-.02.05.02.5,0,.64,0,.02-.07-.11-.07.39-.11,0-.23,0-.34,0v-1.08s-.23-.04-.27-.04c.02-.11-.02-.72,0-.76.08-.11.46.2.39-.31,0-.02,0-.04,0-.06.25.03.51-.03.75-.03.14,0,.28-.02.33.04v.64Z"/>
          <path class="cls-58" d="M15.66,9.09c0,.17,0,.34,0,.5,0,.26,0,.49,0,.74-.02,0-.04,0-.06,0v-.64c-.05-.07-.19-.04-.33-.04v-.55c.1-.11.37-.01.39-.01Z"/>
        </g>
        <path class="cls-41" d="M14.52,9.68s0,.04,0,.06c-.08-.05-.05,0-.06.06h-.36c-.03-.17-.04-.32-.03-.49-.02-.03-.22-.01-.27-.01v-.06l.61.03c.11.09.01.38.01.4,0,.03.09.01.09.01Z"/>
        <path class="cls-108" d="M15.87,9.06c0,.19-.02.41.03.59-.01,0-.13.11-.24-.06,0-.17,0-.34,0-.5.01,0,.07-.05.21-.03Z"/>
        <path class="cls-76" d="M19.07,5.62l.03.71s-.08,0-.12,0c-.21.01-.19.06-.21.06-.03-.26.02-.52.03-.77.09,0,.18,0,.27,0Z"/>
        <path class="cls-41" d="M16.86,10.03c-.17,0-.39.04-.57.06,0-.04-.03-.03-.03-.03,0-.14,0-.28,0-.41,0-.02.06-.24.06-.27h.54v.65Z"/>
        <path class="cls-92" d="M15.9,9.65c.12,0,.24,0,.36,0,0,.14,0,.28,0,.41-.22-.05-.05.22-.16.27-.03.01-.33,0-.43,0,0-.25,0-.48,0-.74.11.17.23.06.24.06Z"/>
        <path class="cls-55" d="M11.79,5.86c-.01.09.01.35,0,.37-.03.04-.24,0-.3.01v-.41c.16,0,.3-.02.3.03Z"/>
        <path class="cls-42" d="M19.43,6.33c-.11,0-.22,0-.33,0l-.03-.71c.26,0,.2-.03.21-.03.07,0,.09,0,.15.07v.67Z"/>
        <path class="cls-17" d="M16.89,15.69c0,.3,0,.6,0,.9,0,.02-.06.01-.06.01-.54.05.1-.34-.57-.36v-.55c-.06-.08-.06-.01-.09-.01-.1-.24.29-.19.31-.18.06.04-.14.23.4.18Z"/>
        <g>
          <path class="cls-111" d="M14.46,18.27l.03.3s.03.06-.21.06c-.05,0-.1,0-.15,0,0-.16-.03-.36-.03-.53,0-.03.03-.03.03-.06.31,0-.03.22.33.24Z"/>
          <path class="cls-41" d="M15,17.83c0,.05,0,.4-.01.41-.2-.03-.5.03-.52.03-.36-.02-.02-.24-.33-.24,0-.16-.06-.34-.03-.5.02,0,.29-.07.37-.03.17.07-.25.42.52.33Z"/>
        </g>
        <path class="cls-17" d="M15.42,16.97c-.03.74.17.82-.42.77,0,0-.09-.04-.09-.04-.03-.23,0-.48-.06-.71.05-.11.48-.02.57-.01Z"/>
        <path class="cls-17" d="M15.9,16.29c0,.11-.03.2-.03.3-.12-.01-.9.03-.93-.01-.01-.01-.02-.31.04-.34.03-.01.55-.03.64-.03.08,0,.11.11.21.04l.03-.43s.02.39.03.47Z"/>
        <path class="cls-111" d="M16.26,16.26s-.13.05-.36.03c0-.08-.02-.45-.03-.47-.03-.06-.15-.02-.21-.03.01-.02.02-.05.04-.06.15.03.32-.03.46-.03.03,0,.03-.06.09.01v.55Z"/>
        <path class="cls-58" d="M17.24,17.09c-.08-.01-.32.04-.36-.04-.03-.08.03-.28.03-.31.38-.11.42.01.33.36Z"/>
        <path class="cls-21" d="M18.23,11.1s-.06.04.25.12c.06-.08.21-.05.31-.06-.08-.02-.09.78-.06.81.01.02.35.03.37.01.09-.04.02-.71.04-.83.06-.02.06-.06.06-.06.3.29-.26.73.51.62,0,.36,0,.73,0,1.1-.32,0-.39-.07-.36.27-.09,0-.31.08-.42,0,0-.17.02-.36-.03-.39-.03-.06-.22-.02-.39-.03,0-.18.04-1.39-.04-1.42-.02-.01-.3,0-.31.01-.04.06.03,1.22,0,1.41-.12,0-.24,0-.36,0,0-.07,0-.18,0-.27,0-.24-.04-.47-.03-.71,0-.15,0-.55.12-.59.02,0,.27,0,.33,0Z"/>
        <path class="cls-21" d="M18.02,14.57v.95c-.11,0-.47-.02-.54.03,0,0-.03.03-.03.03,0-.04-.1,0-.18.03l-.03-1.04c.08,0,.14-.09.15-.09,0,0,0,.06.01.06.23,0,.58.03.61.03Z"/>
        <path class="cls-17" d="M18.32,14.06c-.03.4.15.48-.3.5-.03,0-.38-.03-.61-.03-.02,0-.01-.06-.01-.06-.08-.71.23-.33.3-.49.03-.06-.03-.46.01-.49.01,0,.29,0,.3,0,.04.03,0,.41.01.49.39,0,.28.07.3.07Z"/>
        <path class="cls-76" d="M18.95,13.09c0,.14-.02.3-.03.44h-.3c0-.14.01-.3,0-.44.4.02.21-.12.3-.39.05.02.03.22.03.39Z"/>
        <path class="cls-17" d="M18.92,13.53c0,.14,0,.29,0,.43-.1.11-.28.01-.3.01,0-.15,0-.3,0-.44h.3Z"/>
        <path class="cls-41" d="M19.73,12.82c0,.27-.03.25-.03.27-.11,0-.22,0-.33,0-.03-.34.04-.26.36-.27Z"/>
        <g>
          <path class="cls-74" d="M19.91,15.55c-.22-.07-.18.43-.15.58-.57.09-.25.08-.4.52h-.9l-.07-.09.03-.95s.11-.06.12-.06c.12,0,.24,0,.36,0,.14,0,.28,0,.42,0,.12,0,.24,0,.36,0,.08,0,.16,0,.24,0Z"/>
          <g>
            <path class="cls-39" d="M18.89,14.54s0,.04,0,.06c-.02.31.01.63,0,.95-.12,0-.24,0-.36,0-.09-.02-.08-.92-.06-.96.04-.09.34-.03.42-.04Z"/>
            <path class="cls-9" d="M19.31,15.55c-.14,0-.28,0-.42,0,.01-.31-.02-.63,0-.95.11,0,.22,0,.33,0,.07,0,.07-.03.09-.03v.98Z"/>
            <path class="cls-114" d="M19.67,15.55c-.12,0-.24,0-.36,0v-.98c.12,0,.25-.02.36.04v.93Z"/>
          </g>
          <path class="cls-58" d="M19.22,14.6c-.11,0-.22,0-.33,0,0-.02,0-.04,0-.06,0-.05-.02-.22.01-.24.04-.03.42-.08.31.3Z"/>
          <g>
            <path class="cls-67" d="M19.37,13.09c.11,0,.22,0,.33,0,0,.05.06.02.06.04.01.29,0,.57,0,.86.06.12.55-.07.57.07,0,.47,0,.95,0,1.42.04.09-.16.06-.42.06-.08,0-.16,0-.24,0v-.93c-.11-.07-.24-.04-.36-.04-.02,0-.02.03-.09.03.1-.38-.28-.32-.31-.3-.03.02-.01.19-.01.24-.08.02-.38-.04-.42.04-.02.05-.03.94.06.96,0,0-.09.06-.12.06-.02,0-.04-.08-.39-.09v-.95c.45-.03.27-.11.3-.5.02,0,0-.05.3-.09.01,0,.2.09.3-.01,0-.14,0-.29,0-.43,0-.14.03-.31.03-.44.11.08.33,0,.42,0Z"/>
            <path class="cls-58" d="M19.7,14.3s0,.02,0,.03c-.91.09-.3-.5-.01-.3.03.02,0,.21.01.27Z"/>
            <path class="cls-52" d="M19.7,14.33s0-.02,0-.03c.67.02.22.44.01.3-.03-.02,0-.21-.01-.27Z"/>
          </g>
        </g>
        <path class="cls-58" d="M17.24,14.57l.03,1.04s.04.13-.39.03c0-.35,0-.7,0-1.05.05-.1.26,0,.36-.01Z"/>
        <path class="cls-58" d="M17.45,15.58s.03-.03.03-.03c.65-.13.5.33.46.36-.03.02-.66.12-.49-.33Z"/>
        <path class="cls-17" d="M19.73,10.45c0,.42,0,.85,0,1.27-.77.1-.21-.33-.51-.62,0,0-.02-.09.04-.12.05-.02.11.06.13.01.1-.18-.24-.66.33-.55Z"/>
        <path class="cls-35" d="M13.86,10.86l-.03,1.07c-.09,0-.34-.01-.37,0-.09.04-.01.26-.06.3-.11.07-.6-.18-.49.24-.02,0-.01.09-.24.06-.03-.18-.36-.33-.39.15l-.45-.03s0-.02,0-.03c.63.02.29-.01.48-.28-.1-.05-.08-.29-.09-.4h.88c-.07-.54.2-.3.25-.37.03-.04-.04-.57.03-.71.27-.13.45.02.48.01Z"/>
        <path class="cls-45" d="M12.66,12.52s0,.3,0,.39c0,.19-.18.61.21.44.08-.02.13.05.15.12.13.53-.31.3-.36.37-.02.03.02.39,0,.41-.03.04-.26,0-.28.01-.11.08.18.24-.22.3,0-.14-.01-.28,0-.41.04-.44.1-.19.15-.28.05-.09-.04-1.03-.03-1.2.03-.48.36-.33.39-.15Z"/>
        <path class="cls-111" d="M12.27,12.67c-.01.17.08,1.11.03,1.2-.05.09-.11-.16-.15.28-.08.07,0,.29-.03.34,0,.01-.29.04-.3.03-.05-.08,0-1.64,0-1.88l.45.03Z"/>
        <path class="cls-43" d="M12.21,11.93c0,.11-.01.35.09.4-.19.27.15.31-.48.28,0-.62.02-1.24.03-1.87.52-.17.28.69.3,1.17,0,.02.06.01.06.01Z"/>
        <path class="cls-111" d="M14.4,11.93c-.13,0-.26,0-.39,0-.06,0-.12,0-.18,0l.03-1.07s.26-.06.27-.06c.04,0,.26.03.27.04v1.08Z"/>
        <g>
          <path class="cls-58" d="M13.8,9.17v.12c-.14-.01-.31.03-.37-.03-.06.71-.56.05-.3-.06.08-.04.39.07.43-.01v-.65c-.06,0-.14-.04-.15-.04-.02-.24.03-.34.03-.36.32.01.12.29.18.37.06.08.24-.25.18.67Z"/>
          <path class="cls-58" d="M12.6,8.52c.16.01.11.03.12.03v.64l-.36.04c-.08-.23,0-.48,0-.71.08,0,.16,0,.24,0Z"/>
          <g>
            <path class="cls-67" d="M13.8,9.29c.05,0,.25-.02.27.01,0,.17,0,.32.03.49,0,.05-.02.18.01.21.01.01.32-.02.33-.03.03-.02,0-.14.01-.18,0-.07-.02-.11.06-.06.07.51-.31.21-.39.31-.02.03.02.64,0,.76-.01,0-.25.06-.27.06-.02,0-.21-.14-.48-.01-.07.14,0,.67-.03.71-.05.07-.32-.16-.25.37h-.88s-.06,0-.06-.01c-.02-.48.22-1.34-.3-1.17,0-.39.03-.79.03-1.19.41,0,.36.04.36-.33h.12l.36-.04v-.64c.67.03.65-.06.69-.06,0,0,.09.04.15.04v.65c-.04.08-.35-.02-.43.01-.26.11.24.77.3.06.07.06.23.02.37.03Z"/>
            <path class="cls-88" d="M13.05,9.74s.02-.01.03.03c.07.34,0,.7.03,1.04-.15.01-.36,0-.51,0v-1.07c.06,0,.07-.03.09-.03.02,0-.03.13.36.03Z"/>
            <path class="cls-39" d="M12.6,9.74v1.07c-.06,0-.34.02-.36-.01v-1.01c.05-.07.21-.04.36-.04Z"/>
            <path class="cls-114" d="M13.11,10.8c-.02-.34.04-.7-.03-1.04.22.01.65-.13.51.19-.06.14-.28-.28-.21.83-.02.03-.22.01-.27.01Z"/>
            <path class="cls-58" d="M13.05,9.74c-.39.1-.34-.03-.36-.03-.08-.2.23-.22.31-.18.08.03.03.16.04.21Z"/>
          </g>
        </g>
        <path class="cls-63" d="M14.46,9.8s.02.16-.01.18c-.01,0-.32.04-.33.03-.03-.03,0-.16-.01-.21h.36Z"/>
        <path class="cls-58" d="M14.01,16.26c0-.1-.02-.22-.03-.33.62-.22.66.46.03.33Z"/>
        <path class="cls-58" d="M13.56,15.28s-.05-.02-.03-.27c.07,0,.38-.08.42-.01.07.1.06.38-.39.28Z"/>
        <g>
          <path class="cls-58" d="M12.78,15.01v.76c-.04.09-.28.02-.36.04v-.79c.11-.11.34-.01.36-.01Z"/>
          <path class="cls-53" d="M13.95,15.84c-.61.03-.37-.05-.39-.33.63-.03.37.04.39.33Z"/>
          <g>
            <path class="cls-90" d="M13.53,15.01c-.02.24.03.25.03.27,0,.08,0,.15,0,.24.02.27-.22.36.39.33,0,0,.02-.03.03.09,0,.11.03.22.03.33.02.41.01.84-.03,1.24-.05,0-.22-.02-.24.01v.52s-.2.06-.31.03c0,.73-.38.08-.43.53-.19-.02-.26.03-.27.03-.09,0-.2-.03-.3-.03-.35,0-.25-.06-.27-.06-.05-.66.18-1.21-.3-1.1-.02-.41.02-.81.03-1.22.76.19.28-.34.54-.41.08-.02.32.04.36-.04v-.76c.25,0,.5,0,.75,0Z"/>
            <path class="cls-88" d="M13.05,16.64s.02,0,.03,0l.03.8c-.28.02-.57-.01-.85,0v-.77c.26,0,.52-.01.79-.03Z"/>
            <path class="cls-58" d="M13.41,16.55c-.17.04-.03-.19-.13-.24-.26-.11-.24.14-.22.33-.27.02-.54.04-.81.03v-.06c.74.09.39-.25.49-.33.02-.02.28.02.3,0,.05-.04-.04-.4.06-.44.4-.18.26.39.28.43,0,.01.24,0,.15.24-.03.06-.12.04-.12.04Z"/>
            <path class="cls-24" d="M13.38,16.64l.03.79s-.24.01-.3.01l-.03-.8c.1,0,.2,0,.3,0Z"/>
            <path class="cls-67" d="M13.41,16.55s.02.09-.03.09c-.1,0-.2,0-.3,0,0,0-.02,0-.03,0-.02-.18-.03-.44.22-.33.11.05-.03.28.13.24Z"/>
          </g>
        </g>
        <path class="cls-17" d="M17.75,11.66c-.13-.01-.27,0-.4,0-.08-.06-.04-.25-.04-.44,0-.15.02-.72,0-.76-.05-.11-.38.03-.36-.1,0-.11,0-.22,0-.33.06,0,.36-.01.37,0,.14.09-.3.37.46.4l-.03,1.23Z"/>
        <path class="cls-21" d="M16.95,10.03c0,.11,0,.22,0,.33,0,.14-.06.31-.06.44h-.6c0-.25,0-.48,0-.71.18-.02.4-.06.57-.06.03,0,.06,0,.09,0Z"/>
        <path class="cls-58" d="M18.8,11.16c.12-.01.3.02.36,0-.02.12.05.79-.04.83-.03.01-.36,0-.37-.01-.03-.04-.02-.83.06-.81Z"/>
        <path class="cls-58" d="M18.23,11.1c-.06,0-.31,0-.33,0-.11.02-.04-.37-.06-.67.58-.23.34.26.39.67Z"/>
        <path class="cls-92" d="M15.6,10.33s.04,0,.06,0c0,.23,0,.46,0,.7-.89-.08.05.64-.84.52.02-.14-.02-.59,0-.64.09-.2.47.31.4-.58.12,0,.25,0,.37,0Z"/>
        <path class="cls-115" d="M13.98,12.52c-.01.12,0,.25,0,.37-.11,0-.23.04-.33.04-.08,0-.57,0-.78,0-.01,0-.01-.05-.21-.03,0-.09,0-.37,0-.39.23.03.22-.06.24-.06,0,0,0,.06.01.06.35,0,.71,0,1.06,0Z"/>
        <path class="cls-58" d="M18.53,12.67c-.12,0-.24,0-.36,0,.03-.19-.04-1.35,0-1.41.01-.02.29-.03.31-.01.08.04.04,1.24.04,1.42Z"/>
        <path class="cls-58" d="M13.83,11.93c.06,0,.12,0,.18,0,0,.14,0,.28,0,.41,0,0-.01-.03-.03.18-.35,0-.71,0-1.06,0-.02,0-.01-.06-.01-.06-.1-.42.39-.16.49-.24.05-.03-.03-.26.06-.3.03-.01.28,0,.37,0Z"/>
        <path class="cls-45" d="M13.65,12.94c-.02.11.05.38-.04.44-.04.03-.65-.08-.58.09-.02-.07-.07-.14-.15-.12v-.41c.21,0,.7,0,.78,0Z"/>
        <path class="cls-17" d="M15.15,14.63c.08.03.11-.08.09.33-.09,0-.56.07-.6.01-.1-.14,0-.56.51-.34Z"/>
        <g>
          <path class="cls-21" d="M14.61,13.65c-.27-.05-.57,0-.42.34.03.07.37.04.45.04.61.01.51-.15.51.59-.5-.22-.61.2-.51.34.04.06.51-.01.6-.01.12,0,.87-.01.91-.03.04-.02-.08-.19.03-.24.24-.1.25.25.33-.5h.43c-.2-.81.4-.44.48-.55.03-.04.03-.67.03-.79.1-.01.28.02.31,0,.07-.03.04-.12.04-.18.12,0,.24,0,.36,0,.12,0,.24,0,.36,0,.03.6.09.39.09.41.01.14,0,.3,0,.44,0,.15,0,.3,0,.44-.31.04-.28.09-.3.09-.02,0,.09-.07-.3-.07-.01-.08.02-.46-.01-.49-.01,0-.29,0-.3,0-.05.03.01.43-.01.49-.07.16-.38-.22-.3.49,0,0-.07.08-.15.09-.1,0-.31-.09-.36.01,0,.35,0,.7,0,1.05,0,.02,0,.04,0,.06-.54.05-.35-.14-.4-.18-.02-.01-.42-.06-.31.18-.14,0-.31.06-.46.03-.02,0-.03.04-.04.06-.07.1-.01.3-.03.41-.09,0-.62.02-.64.03-.06.03-.06.33-.04.34.03.04.81,0,.93.01,0,.02.09.27-.01.39-.14,0-.29,0-.43,0-.09,0-.52-.09-.57.01.05.23.03.48.06.71,0,0,.09.04.09.04.01.11,0,.08,0,.09-.78.09-.35-.25-.52-.33-.08-.04-.35.03-.37.03-.02,0-.03-.04-.12-.03.04-.41.05-.84.03-1.24.63.13.59-.55-.03-.33,0-.12-.03-.08-.03-.09-.02-.28.24-.36-.39-.33,0-.09,0-.16,0-.24.45.09.46-.18.39-.28-.04-.06-.35.01-.42.01-.25,0-.5,0-.75,0-.02,0-.25-.09-.36.01v.79c-.26.07.22.61-.54.41.01-.55-.01-1.1,0-1.64.02-.03.22,0,.27-.01.41-.06.11-.22.22-.3.03-.02.26.03.28-.01.02-.03-.02-.39,0-.41.05-.07.49.16.36-.37-.06-.17.54-.06.58-.09.09-.07.03-.34.04-.44.1,0,.22-.05.33-.04,0-.12-.01-.25,0-.37.02-.21.03-.17.03-.18l.66.04c-.01.39.02.79,0,1.19,0,.02-.06.07-.06.07Z"/>
          <path class="cls-41" d="M15.13,15.04c.54.04.55-.18.52.46-.58.12-.59.1-.52-.46Z"/>
          <path class="cls-58" d="M13.15,14.21s.37-.01.39,0c.02.01.03.36.01.37-.01.02-.42.03-.43.01-.02-.01-.04-.35.03-.39Z"/>
        </g>
        <path class="cls-78" d="M14.61,13.65s.06.16.03.39c-.08,0-.42.03-.45-.04-.15-.34.15-.39.42-.34Z"/>
        <path class="cls-58" d="M17.81,12.4c0,.08,0,.19,0,.27,0,.05.02.15-.04.18-.03.02-.22-.01-.31,0,0-.07-.01-.41,0-.43.03-.04.29,0,.36-.01Z"/>
        <path class="cls-17" d="M18.92,12.7c-.09.27.1.4-.3.39,0-.02-.06.18-.09-.41.17,0,.36-.03.39.03Z"/>
        <path class="cls-45" d="M15.87,15.81l-.03.43c-.1.06-.13-.05-.21-.04.02-.12-.04-.32.03-.41.06.01.18-.03.21.03Z"/>
        <path class="cls-42" d="M12.87,12.94v.41c-.39.17-.2-.25-.21-.44.2-.02.2.03.21.03Z"/>
        <path class="cls-48" d="M17.3,11.22c-.42.05-.41-.05-.42-.41,0-.13.05-.31.06-.44-.02.13.31,0,.36.1.02.04,0,.61,0,.76Z"/>
        <g>
          <path class="cls-67" d="M16.26,10.06s.03,0,.03.03c0,.23,0,.46,0,.7h.6c.01.38,0,.48.42.43,0,.19-.03.39.04.44.13,0,.27-.01.4,0,.02,0,.03,0,.03.03-.01.24.03.48.03.71-.07.01-.33-.02-.36.01-.01.02,0,.36,0,.43,0,.12,0,.75-.03.79-.08.11-.68-.26-.48.53h-.43c-.08.77-.09.41-.33.52-.11.05,0,.22-.03.24-.04.02-.79.03-.91.03.02-.41-.01-.29-.09-.33,0-.74.1-.58-.51-.59.03-.22-.03-.37-.03-.39,0,0,.06-.06.06-.07.02-.39-.01-.79,0-1.19l-.66-.04c0-.14,0-.28,0-.41.13,0,.26,0,.39,0,.11,0,.23,0,.34,0,0-.49.07-.36.07-.39.89.12-.05-.6.84-.52,0-.23,0-.46,0-.7.11,0,.4.01.43,0,.11-.05-.06-.32.16-.27Z"/>
          <g>
            <path class="cls-90" d="M16.53,12.11s-.04,0-.06,0c-.05,0-.36-.02-.37-.03-.02-.01-.02-.3-.01-.31.01-.02.37-.04.42-.04l.03.39Z"/>
            <path class="cls-58" d="M16.56,11.72s.22-.01.24.01c0,.01,0,.31,0,.33-.03.07-.2.04-.27.04l-.03-.39s.04,0,.06,0Z"/>
            <g>
              <path class="cls-36" d="M16.56,11.72s-.04,0-.06,0c-.05,0-.41.03-.42.04,0,.01,0,.3.01.31.02.01.33.03.37.03-.03.41.06.31.06.33,0,.08-.25.37.27.24.01.13.09.93-.01.98h-1.65l-.04-1.64c.05-.07.22-.04.39-.04.02,0,.09.07.3.01.01-.13,0-.41,0-.43,0,0,.05.01.06-.01.02-.08-.02-.26,0-.3.03-.07.13-.03.15-.06.02-.03-.1-.51.28-.34.1.04,0,.47.04.52.06.08.23-.19.24.37Z"/>
              <path class="cls-31" d="M15.78,11.55s.01.3,0,.43c-.21.05-.28-.02-.3-.01,0-.38-.09-.45.3-.41Z"/>
              <path class="cls-31" d="M16.8,12.67c-.52.13-.26-.16-.27-.24.43-.03.25.06.27.24Z"/>
            </g>
          </g>
        </g>
      </g>
    </g>
  </g>
</svg>